<svg xmlns="http://www.w3.org/2000/svg" width="292" height="207" viewBox="0 0 292 207">
  <g id="Grupo_56535" data-name="Grupo 56535" transform="translate(1180 5432)">
    <rect id="Rectángulo_5717" data-name="Rectángulo 5717" width="292" height="207" transform="translate(-1180 -5432)" fill="none"/>
    <g id="Grupo_56538" data-name="Grupo 56538" transform="translate(-3 -12.89)">
      <g id="Grupo_56508" data-name="Grupo 56508" transform="translate(-1173 -5402.11)">
        <path id="Trazado_104976" data-name="Trazado 104976" d="M345.572,451.85,374,464.106H117.62l24.057-12.256Z" transform="translate(-113.21 -316.66)" fill="#ebebeb"/>
        <rect id="Rectángulo_5860" data-name="Rectángulo 5860" width="203.896" height="135.19" transform="translate(28.467)" fill="#1c2e35"/>
        <rect id="Rectángulo_5861" data-name="Rectángulo 5861" width="183.029" height="114.738" transform="translate(38.872 9.684)" fill="#fff"/>
        <rect id="Rectángulo_5862" data-name="Rectángulo 5862" width="183.029" height="4.599" transform="translate(38.872 9.684)" fill="#395a64"/>
        <rect id="Rectángulo_5863" data-name="Rectángulo 5863" width="144.17" height="5.289" transform="translate(63.935 20.031)" fill="#feffff"/>
        <rect id="Rectángulo_5864" data-name="Rectángulo 5864" width="183.029" height="28.742" transform="translate(38.872 14.283)" fill="#fec72e"/>
        <rect id="Rectángulo_5865" data-name="Rectángulo 5865" width="43.458" height="64.382" transform="translate(164.647 49.922)" fill="#ebebeb"/>
        <rect id="Rectángulo_5866" data-name="Rectángulo 5866" width="43.458" height="5.059" transform="translate(164.647 49.922)" fill="#fec52e"/>
        <rect id="Rectángulo_5867" data-name="Rectángulo 5867" width="25.21" height="5.059" transform="translate(106.933 49.922)" fill="#a5a5a5"/>
        <rect id="Rectángulo_5868" data-name="Rectángulo 5868" width="50.126" height="1.866" transform="translate(106.933 68.291)" fill="#ebebeb"/>
        <rect id="Rectángulo_5869" data-name="Rectángulo 5869" width="50.126" height="1.866" transform="translate(106.933 72.775)" fill="#ebebeb"/>
        <rect id="Rectángulo_5870" data-name="Rectángulo 5870" width="50.126" height="1.866" transform="translate(106.933 78.435)" fill="#ebebeb"/>
        <rect id="Rectángulo_5871" data-name="Rectángulo 5871" width="50.126" height="1.866" transform="translate(106.933 82.918)" fill="#ebebeb"/>
        <rect id="Rectángulo_5872" data-name="Rectángulo 5872" width="71.124" height="1.866" transform="translate(48.414 94.849)" fill="#ebebeb"/>
        <rect id="Rectángulo_5873" data-name="Rectángulo 5873" width="21.672" height="1.866" transform="translate(48.414 90.02)" fill="#a5a5a5"/>
        <rect id="Rectángulo_5874" data-name="Rectángulo 5874" width="71.124" height="1.866" transform="translate(48.414 99.333)" fill="#ebebeb"/>
        <rect id="Rectángulo_5875" data-name="Rectángulo 5875" width="71.124" height="1.866" transform="translate(48.414 103.356)" fill="#ebebeb"/>
        <rect id="Rectángulo_5876" data-name="Rectángulo 5876" width="71.124" height="1.866" transform="translate(48.414 107.84)" fill="#ebebeb"/>
        <rect id="Rectángulo_5877" data-name="Rectángulo 5877" width="71.124" height="1.866" transform="translate(48.414 112.324)" fill="#ebebeb"/>
        <rect id="Rectángulo_5878" data-name="Rectángulo 5878" width="32.306" height="24.974" transform="translate(124.753 90.02)" fill="#a5a5a5"/>
        <rect id="Rectángulo_5879" data-name="Rectángulo 5879" width="58.531" height="39.943" transform="translate(41.906 45.556)" fill="none" stroke="#bdbcba" stroke-miterlimit="10" stroke-width="1"/>
        <rect id="Rectángulo_5881" data-name="Rectángulo 5881" width="3.507" height="109.162" transform="translate(218.394 14.283)" fill="#ebebeb"/>
        <path id="Trazado_104977" data-name="Trazado 104977" d="M183.219,456.122h170.2l15.36,6.208h-202.4Z" transform="translate(-137.909 -318.824)" fill="#1c2e34"/>
        <g id="Grupo_56293" data-name="Grupo 56293" transform="translate(40.902 10.533)">
          <ellipse id="Elipse_4551" data-name="Elipse 4551" cx="1.451" cy="1.451" rx="1.451" ry="1.451" transform="translate(0 0)" fill="#acacac"/>
          <ellipse id="Elipse_4552" data-name="Elipse 4552" cx="1.451" cy="1.451" rx="1.451" ry="1.451" transform="translate(3.916 0)" fill="#e9e9e9"/>
          <ellipse id="Elipse_4553" data-name="Elipse 4553" cx="1.451" cy="1.451" rx="1.451" ry="1.451" transform="translate(7.831 0)" fill="#fec72e"/>
        </g>
        <rect id="Rectángulo_5882" data-name="Rectángulo 5882" width="257.243" height="7.598" transform="translate(4.41 147.447)" fill="#c9c9c9"/>
        <g id="Grupo_54528" data-name="Grupo 54528" transform="translate(0 105.385)">
          <g id="Grupo_54524" data-name="Grupo 54524" transform="translate(0)">
            <g id="Grupo_54504" data-name="Grupo 54504" transform="translate(23.926 53.6)">
              <path id="Trazado_101858" data-name="Trazado 101858" d="M164.124,506.977a.764.764,0,0,1,.135.824v.007a5.162,5.162,0,0,1-1.613,1.777c-.1.078-.185.15-.263.213a.386.386,0,0,0-.057.05l-.043.042c-.711.654-.441.8-1.72,2.14-1.457,1.514-2.459,1.542-2.744,1.407-.241-.113.249-.924.789-1.827.029-.043.05-.085.078-.135.071-.114.142-.242.213-.363.64-1.088.469-1.6.32-3.213-.121-1.315-2.047-7.343-2.047-7.343l2.794-.483s.839,4.8,1.77,5.537c.5.391,1.052.4,1.521.689.036.022.064.043.1.064A3.8,3.8,0,0,1,164.124,506.977Z" transform="translate(-157.172 -500.075)" fill="#ffb280"/>
            </g>
            <g id="Grupo_54505" data-name="Grupo 54505" transform="translate(24.513 59.906)">
              <path id="Trazado_101859" data-name="Trazado 101859" d="M164.731,513.46a.763.763,0,0,1,.135.824v.007a5.926,5.926,0,0,1-1.62,1.77c-.1.078-.178.156-.256.221a.4.4,0,0,0-.057.049l-.042.043c-.711.654-.441.8-1.721,2.139-1.457,1.514-2.459,1.542-2.743,1.407-.242-.114.249-.924.789-1.827a6.241,6.241,0,0,0,2.594-1.912c.846-1.081,1.415-2.452,1.99-3.3l.163-.028A3.138,3.138,0,0,1,164.731,513.46Z" transform="translate(-158.363 -512.856)" fill="#0f3662"/>
            </g>
            <g id="Grupo_54506" data-name="Grupo 54506" transform="translate(0 52.755)">
              <path id="Trazado_101860" data-name="Trazado 101860" d="M117.056,504.376c-.17.86-1.4.718-2.772.383s-1.045.064-3-.149-2.545-.945-2.6-1.23c-.05-.256.91-.348,1.947-.469.128-.014.263-.029.391-.05a8.52,8.52,0,0,0,3.085-1.521,12.363,12.363,0,0,0,2.5-2.978l2.68.213s-1.408,2.132-1.947,3.063a3.221,3.221,0,0,0-.263,1.827A3.251,3.251,0,0,1,117.056,504.376Z" transform="translate(-108.681 -498.362)" fill="#ffb280"/>
            </g>
            <g id="Grupo_54507" data-name="Grupo 54507" transform="translate(0.007 57.308)">
              <path id="Trazado_101861" data-name="Trazado 101861" d="M114.3,509.439c-1.372-.334-1.045.064-3-.149s-2.544-.945-2.6-1.23c-.05-.255.91-.348,1.947-.469l.007.021a5.517,5.517,0,0,0,2.794.867c1.322.029,2.73-.348,3.639-.334a3.3,3.3,0,0,1-.022.917C116.894,509.915,115.671,509.773,114.3,509.439Z" transform="translate(-108.696 -507.591)" fill="#0f3662"/>
            </g>
            <g id="Grupo_54508" data-name="Grupo 54508" transform="translate(18.632 37.358)">
              <path id="Trazado_101862" data-name="Trazado 101862" d="M146.443,471.451l2.5,6.731,3.27,8.792a5.261,5.261,0,0,0,1.734-.156,7.621,7.621,0,0,0,1.677-.817s-.91-9.44-2.609-14.863a9.552,9.552,0,0,0-1.457-3.149C148.945,464.89,146.443,471.451,146.443,471.451Z" transform="translate(-146.443 -467.158)" fill="#00cbaf"/>
            </g>
            <g id="Grupo_54509" data-name="Grupo 54509" transform="translate(6.39 29.597)">
              <g id="Grupo_56326" data-name="Grupo 56326">
                <path id="Trazado_101863" data-name="Trazado 101863" d="M136.417,452.785c1.422-.462,5.139-.007,9.176.718a2.726,2.726,0,0,0,2.822-1.279h0l10.15-.8s3.348,7.421,1.521,12.155a1.771,1.771,0,0,1-1.77,1.144h0s-6.134.007-8.089.014c-5.047,0-10.683-3.469-11.408-3.611-1.195-.235-1.671,2.146-2.865,4.656s-11.209,11.1-11.209,11.1a8.932,8.932,0,0,1-2.175-.22,2.177,2.177,0,0,1-.938-.59C121.619,476.071,132.721,453.979,136.417,452.785Z" transform="translate(-121.633 -451.428)" fill="#00ddbd"/>
              </g>
            </g>
            <g id="Grupo_54510" data-name="Grupo 54510" transform="translate(30.587)">
              <path id="Trazado_101864" data-name="Trazado 101864" d="M173.315,407.866c3.611,1.99,10.946,6.113,10.982,6.085,0,0,2.694,1.016,4.222,0,2.545-1.692,3.91-6.248-.746-10.165-2.324-1.954-3.973-2.43-4.229-5.551-.135-1.7-2.473-7.321-6.347-6.752a5.216,5.216,0,0,1-.938.057,3.59,3.59,0,0,0-1.941.5C172.15,393.338,167.892,407.1,173.315,407.866Z" transform="translate(-170.673 -391.442)" fill="#0f3662"/>
            </g>
            <g id="Grupo_54511" data-name="Grupo 54511" transform="translate(35.791 9.042)">
              <path id="Trazado_101865" data-name="Trazado 101865" d="M181.682,415.456a4.79,4.79,0,0,0,2.978.092,5.291,5.291,0,0,0,1.969-2.36c-.512-.021-1.081-.469-1.514-3.419l-.221.078-3.675,1.322s.263,1.18.441,2.3C181.8,414.417,181.881,415.32,181.682,415.456Z" transform="translate(-181.22 -409.769)" fill="#ffb280"/>
            </g>
            <g id="Grupo_54512" data-name="Grupo 54512" transform="translate(35.791 9.124)">
              <path id="Trazado_101866" data-name="Trazado 101866" d="M181.22,411.257s.15.64.363,1.827a4.146,4.146,0,0,0,3.312-3.148Z" transform="translate(-181.22 -409.935)" fill="#ff9760"/>
            </g>
            <g id="Grupo_54513" data-name="Grupo 54513" transform="translate(32.663 2.77)">
              <path id="Trazado_101867" data-name="Trazado 101867" d="M177.466,405.905s5.025-.675,4.556-3.8-.135-5.316-3.369-5.018-3.675,1.585-3.768,2.665S176.144,406,177.466,405.905Z" transform="translate(-174.881 -397.057)" fill="#ffb280"/>
            </g>
            <g id="Grupo_54514" data-name="Grupo 54514" transform="translate(32.853 2.494)">
              <path id="Trazado_101868" data-name="Trazado 101868" d="M175.266,397.759s3.22,2.772,5.409,2.992,3.021-.483,3.021-.483a8.564,8.564,0,0,1-2.069-2.8,1.535,1.535,0,0,0-1.272-.91C178.792,396.43,175.828,396.373,175.266,397.759Z" transform="translate(-175.266 -396.496)" fill="#0f3662"/>
            </g>
            <g id="Grupo_54515" data-name="Grupo 54515" transform="translate(32.264 2.902)">
              <path id="Trazado_101869" data-name="Trazado 101869" d="M176.671,397.926a8.134,8.134,0,0,0-1.415,1.812,6.028,6.028,0,0,0-.163,3.234s-1.678-3.262-.732-4.848A1.343,1.343,0,0,1,176.671,397.926Z" transform="translate(-174.072 -397.324)" fill="#0f3662"/>
            </g>
            <g id="Grupo_54516" data-name="Grupo 54516" transform="translate(32.019 12.338)">
              <path id="Trazado_101870" data-name="Trazado 101870" d="M173.576,426.245c.156,10.179.042,8.053,1.159,9.021a4.289,4.289,0,0,0,2.019.433c3.12.206,8.608-.313,8.814-.888.718-2,.214-2.616.811-5.672.064-.327.142-.675.227-1.059.5-2.1.988-2.815-.789-6.184-1.614-3.056-3.284-5.53-3.441-5.445-4.251,2.523-4.592.4-4.592.4S173.5,421.284,173.576,426.245Z" transform="translate(-173.575 -416.449)" fill="#0b549b"/>
            </g>
            <g id="Grupo_54517" data-name="Grupo 54517" transform="translate(21.139 41.337)">
              <g id="Grupo_56327" data-name="Grupo 56327">
                <path id="Trazado_101871" data-name="Trazado 101871" d="M151.524,482.265l3.27,8.792a5.284,5.284,0,0,0,1.734-.156,7.627,7.627,0,0,0,1.677-.818s-.91-9.439-2.609-14.862Z" transform="translate(-151.524 -475.221)" fill="#00ddbd"/>
              </g>
            </g>
            <g id="Grupo_54518" data-name="Grupo 54518" transform="translate(29.155 12.748)">
              <path id="Trazado_101872" data-name="Trazado 101872" d="M174.85,417.279s-4.371.746-4.883,2.622-2.2,13.314-2.2,13.314,1.237,1.2,2.26.178,3.227-10.7,3.227-10.7Z" transform="translate(-167.771 -417.279)" fill="#0b549b"/>
            </g>
            <g id="Grupo_54519" data-name="Grupo 54519" transform="translate(35.196 20.793)">
              <path id="Trazado_101873" data-name="Trazado 101873" d="M180.015,444.382c3.12.206,8.607-.313,8.814-.889.718-2,.213-2.616.81-5.672l-1.507-4.236s.249,4.719-1.137,5.963-5.7,2.4-6.376,3.433A3.843,3.843,0,0,0,180.015,444.382Z" transform="translate(-180.015 -433.585)" fill="#0f3662"/>
            </g>
            <g id="Grupo_54520" data-name="Grupo 54520" transform="translate(33.32 29.129)">
              <path id="Trazado_101874" data-name="Trazado 101874" d="M181.662,450.956s-3.078-.682-3.575-.412a7.224,7.224,0,0,0-1.863,1.613c-.149.348,1.109-.263,1.514-.376a3.738,3.738,0,0,1,1.308.284,4.332,4.332,0,0,0,2.346.234Z" transform="translate(-176.212 -450.48)" fill="#ffb280"/>
            </g>
            <g id="Grupo_54521" data-name="Grupo 54521" transform="translate(38.269 12.341)">
              <path id="Trazado_101875" data-name="Trazado 101875" d="M188.8,416.455s4.137.256,5.566,2.246c2.019,2.815,6.013,14.784,3.724,16.384-2.58,1.8-11.742.477-11.742.477a3.736,3.736,0,0,1,.113-2.111c.419-.689,7.314-1.805,7.634-2.125s-3.98-6.2-3.98-7.158S188.8,416.455,188.8,416.455Z" transform="translate(-186.242 -416.455)" fill="#0b549b"/>
            </g>
            <g id="Grupo_54522" data-name="Grupo 54522" transform="translate(33.845 30.048)">
              <path id="Trazado_101876" data-name="Trazado 101876" d="M178.477,452.341a5.912,5.912,0,0,1-.853.931.659.659,0,0,1-.348.078l.434-.782Z" transform="translate(-177.276 -452.341)" fill="#ffb280"/>
            </g>
            <g id="Grupo_54523" data-name="Grupo 54523" transform="translate(33.318 29.193)">
              <path id="Trazado_101877" data-name="Trazado 101877" d="M178.083,450.608l-1.876.91a.328.328,0,0,0,.313.114,4.539,4.539,0,0,0,.81-.221Z" transform="translate(-176.207 -450.608)" fill="#ffb280"/>
            </g>
            <g id="Grupo_56330" data-name="Grupo 56330" transform="translate(33.416 6.48)">
              <g id="Grupo_56329" data-name="Grupo 56329">
                <g id="Grupo_56328" data-name="Grupo 56328" transform="translate(1.045 0.355)">
                  <path id="Trazado_105028" data-name="Trazado 105028" d="M179.087,405.416a2.558,2.558,0,0,1-.533,1.571.142.142,0,0,0,.021.192,1.427,1.427,0,0,0,.9.263.14.14,0,1,0-.036-.277,1.338,1.338,0,0,1-.526-.107.676.676,0,0,1-.171-.1l.022.192a2.459,2.459,0,0,0,.5-1.087,3.574,3.574,0,0,0,.085-.611.142.142,0,0,0-.121-.156.135.135,0,0,0-.135.121Z" transform="translate(-178.525 -405.295)" fill="#de8073"/>
                </g>
                <path id="Trazado_105029" data-name="Trazado 105029" d="M177.5,406.415c-.014.156-.1.284-.192.277s-.163-.142-.149-.3.1-.284.191-.277S177.5,406.259,177.5,406.415Z" transform="translate(-176.785 -405.356)" fill="#231f20"/>
                <path id="Trazado_105030" data-name="Trazado 105030" d="M182.639,406.6c-.014.156-.1.285-.192.277s-.164-.142-.149-.3.1-.284.192-.277S182.645,406.439,182.639,406.6Z" transform="translate(-179.39 -405.451)" fill="#231f20"/>
                <path id="Trazado_105031" data-name="Trazado 105031" d="M181.744,404.774s1.393-.057,1.542.327a6.716,6.716,0,0,0-1.4.007C181.4,405.193,181.531,404.8,181.744,404.774Z" transform="translate(-179.014 -404.674)" fill="#0f3662"/>
                <path id="Trazado_105032" data-name="Trazado 105032" d="M177.757,404.611s-1.173-.164-1.35.206a5.114,5.114,0,0,1,1.187.114C177.985,405.052,177.928,404.653,177.757,404.611Z" transform="translate(-176.407 -404.575)" fill="#0f3662"/>
                <path id="Trazado_105033" data-name="Trazado 105033" d="M178.453,410.914l1.82-.014C180.28,410.9,179.242,412.307,178.453,410.914Z" transform="translate(-177.444 -407.779)" fill="#fff"/>
              </g>
            </g>
          </g>
          <g id="Grupo_54525" data-name="Grupo 54525" transform="translate(19.182 31.327)">
            <path id="Trazado_101878" data-name="Trazado 101878" d="M147.558,454.941l19.59-.007v.434l-19.419.007Z" transform="translate(-147.558 -454.934)" fill="#0f3662"/>
          </g>
          <g id="Grupo_54526" data-name="Grupo 54526" transform="translate(14.89 20.671)">
            <path id="Trazado_101879" data-name="Trazado 101879" d="M158.158,444.432l-14.834.007-4.464-11.1,14.813-.007Z" transform="translate(-138.86 -433.337)" fill="#0f3662"/>
          </g>
          <g id="Grupo_54527" data-name="Grupo 54527" transform="translate(23.06 25.51)">
            <path id="Trazado_101880" data-name="Trazado 101880" d="M155.454,443.849a.513.513,0,0,1,.284-.668.473.473,0,0,1,.221-.036,1.017,1.017,0,0,1,.91.7.514.514,0,0,1-.284.669.472.472,0,0,1-.221.036A1,1,0,0,1,155.454,443.849Z" transform="translate(-155.417 -443.144)" fill="#fff"/>
          </g>
        </g>
        <g id="Grupo_56506" data-name="Grupo 56506" transform="translate(56.36 16.586)">
          <g id="Grupo_56502" data-name="Grupo 56502" transform="translate(112.228 52.578)">
            <path id="Trazado_105330" data-name="Trazado 105330" d="M535.144,449.641a8.909,8.909,0,0,1-.321-.861c-.937-3.041-.157-5.98,1.741-6.565s4.2,1.406,5.132,4.447a8.9,8.9,0,0,1,.219.893l.614-.189c-.064-.3-.136-.592-.228-.89-1.1-3.576-3.8-5.917-6.037-5.229s-3.148,4.144-2.047,7.72c.092.3.2.584.312.864Z" transform="translate(-530.588 -441.127)" fill="#0c0236"/>
            <path id="Trazado_105331" data-name="Trazado 105331" d="M551.562,466.354l-18.487,5.7-4.295-19.494,15.362-4.733Z" transform="translate(-528.78 -443.562)" fill="#fff"/>
          </g>
          <g id="Grupo_56503" data-name="Grupo 56503" transform="translate(125.987 46.746)">
            <path id="Trazado_105332" data-name="Trazado 105332" d="M566.3,438.7a8.784,8.784,0,0,1,.159-.905c.732-3.1,2.893-5.235,4.826-4.778s2.905,3.338,2.172,6.434a8.773,8.773,0,0,1-.263.881l.626.148c.094-.287.182-.579.254-.883.862-3.641-.283-7.029-2.555-7.567s-4.814,1.978-5.676,5.619c-.071.3-.124.6-.168.9Z" transform="translate(-555.961 -431.961)" fill="#0c0236"/>
            <path id="Trazado_105333" data-name="Trazado 105333" d="M569.23,463.017l-18.825-4.455,6.173-18.984,15.643,3.7Z" transform="translate(-550.405 -434.732)" fill="#794ccb"/>
          </g>
          <g id="Grupo_56504" data-name="Grupo 56504" transform="translate(119.033)">
            <path id="Trazado_105334" data-name="Trazado 105334" d="M562.661,403.488a10.982,10.982,0,1,1-10.982-10.982A10.982,10.982,0,0,1,562.661,403.488Z" transform="translate(-540.696 -392.506)" fill="#fff"/>
            <path id="Trazado_105335" data-name="Trazado 105335" d="M553.61,406.412c-.181,0-1.727-4.449-2.249-4.274-.735.245-2.742,1.215-2.792,2.052s4.05,8.041,4.736,8.041c1.443,0,7.5-7.992,7.007-8.9s-2.774-2.154-3.118-1.811C556.941,401.774,553.765,406.416,553.61,406.412Z" transform="translate(-543.178 -395.33)" fill="#00c7e1"/>
          </g>
          <g id="Grupo_56505" data-name="Grupo 56505" transform="translate(116.423 85.304)">
            <rect id="Rectángulo_5932" data-name="Rectángulo 5932" width="27.185" height="8.628" rx="4.314" fill="#794ccb"/>
          </g>
          <g id="Grupo_56507" data-name="Grupo 56507" transform="translate(0 34.421)">
            <path id="Trazado_105332-2" data-name="Trazado 105332" d="M566.3,438.7a8.784,8.784,0,0,1,.159-.905c.732-3.1,2.893-5.235,4.826-4.778s2.905,3.338,2.172,6.434a8.773,8.773,0,0,1-.263.881l.626.148c.094-.287.182-.579.254-.883.862-3.641-.283-7.029-2.555-7.567s-4.814,1.978-5.676,5.619c-.071.3-.124.6-.168.9Z" transform="translate(-555.961 -431.961)" fill="#0c0236"/>
            <path id="Trazado_105333-2" data-name="Trazado 105333" d="M569.23,463.017l-18.825-4.455,6.173-18.984,15.643,3.7Z" transform="translate(-550.405 -434.732)" fill="#794ccb"/>
          </g>
        </g>
      </g>
      <g id="Grupo_56536" data-name="Grupo 56536" transform="translate(-964.594 -5352.438)">
        <path id="Trazado_105332-3" data-name="Trazado 105332" d="M567.875,455.634a30.871,30.871,0,0,1,.558-3.179c2.571-10.87,10.158-18.381,16.944-16.775S595.578,447.4,593,458.27a30.725,30.725,0,0,1-.925,3.092l2.2.521c.331-1.008.639-2.033.891-3.1,3.025-12.783-.992-24.678-8.971-26.566s-16.9,6.943-19.929,19.728c-.25,1.066-.435,2.122-.589,3.17Z" transform="translate(-531.559 -431.961)" fill="#0c0236"/>
        <path id="Trazado_105333-3" data-name="Trazado 105333" d="M616.5,521.871l-66.1-15.642,21.674-66.651,54.92,13Z" transform="translate(-550.405 -422.562)" fill="#794ccb"/>
      </g>
      <g id="Grupo_56537" data-name="Grupo 56537" transform="translate(-1002.891 -5367.465)">
        <path id="Trazado_105332-4" data-name="Trazado 105332" d="M593.98,455.634a30.934,30.934,0,0,0-.559-3.179c-2.571-10.87-10.158-18.381-16.944-16.774s-10.2,11.719-7.627,22.589a30.786,30.786,0,0,0,.925,3.092l-2.2.521c-.331-1.008-.639-2.033-.891-3.1-3.025-12.783.992-24.678,8.971-26.566s16.9,6.943,19.929,19.728c.25,1.065.435,2.122.589,3.17Z" transform="translate(-553.703 -431.961)" fill="#0c0236"/>
        <path id="Trazado_105333-4" data-name="Trazado 105333" d="M560.9,521.871,627,506.229l-21.674-66.651-54.92,13Z" transform="translate(-550.405 -422.562)" fill="#02dba8"/>
      </g>
    </g>
  </g>
</svg>
