<svg xmlns="http://www.w3.org/2000/svg" width="292" height="207" viewBox="0 0 292 207">
  <g id="Grupo_56528" data-name="Grupo 56528" transform="translate(1180 4997)">
    <rect id="Rect치ngulo_5721" data-name="Rect치ngulo 5721" width="292" height="207" transform="translate(-1180 -4997)" fill="none"/>
    <g id="Grupo_56527" data-name="Grupo 56527" transform="translate(-10.678 2.953)">
      <g id="Grupo_56518" data-name="Grupo 56518" transform="translate(-1135.322 -4966.434)">
        <path id="Trazado_104671" data-name="Trazado 104671" d="M142.674,951.851c-3.774-.029-7.55-.146-11.32-.051-2.056.052-2.7-.741-2.653-2.725.1-4.546.082-9.1.006-13.645a2.715,2.715,0,0,1,2.085-2.979q22.051-8.134,44.06-16.382c10.967-4.089,21.94-8.159,32.883-12.309a6.231,6.231,0,0,1,4.73,0Q250.5,918.02,288.6,932.132c2.19.809,3.026,1.83,2.922,4.172-.187,4.25-.127,8.516-.022,12.772.049,1.984-.6,2.776-2.653,2.724-3.77-.1-7.547.022-11.32.051-.829,1.037-2.01,1.071-3.175,1.068-9.186-.01-18.374.216-27.558-.121-7.189.308-14.378.141-21.568.08q-15.1.183-30.2,0c-7.191.033-14.383.243-21.573-.08-9.2.321-18.4.114-27.6.119C144.686,952.921,143.5,952.89,142.674,951.851Z" transform="translate(-123.496 -903.295)" fill="#fc715d"/>
        <path id="Trazado_104672" data-name="Trazado 104672" d="M297.117,1036.276c.031,3.1-.011,6.2.12,9.288.078,1.84-.73,2.433-2.417,2.275-.575-.054-1.16-.007-1.741-.007H128.136c-4.131,0-4.143,0-4.13-4.01.008-2.516.059-5.031.09-7.547.085-.047.172-.136.256-.133,5.593.215,11.038-1.247,16.649-1.234q70.768.163,141.536.052C287.442,1034.961,292.217,1036.285,297.117,1036.276Z" transform="translate(-124.005 -889.039)" fill="#ee5545"/>
        <path id="Trazado_104673" data-name="Trazado 104673" d="M297.108,1037.467H124.087c1.357-1.14,3-.68,4.438-.527,3.044.324,3.942-.911,3.633-3.767-.206-1.907.02-3.856-.052-5.781-.06-1.617.618-2.241,2.221-2.21,2.892.054,5.785-.01,8.678-.025a3.513,3.513,0,0,1,3.122-1.159c9.251,0,18.5-.218,27.752.118,7.008-.242,14.017-.258,21.025,0,10.446-.247,20.892-.267,31.336,0q10.517-.371,21.032,0c9.263-.321,18.528-.119,27.791-.116a3.523,3.523,0,0,1,3.128,1.16c2.893.014,5.786.079,8.678.025,1.6-.031,2.28.594,2.22,2.21-.072,1.926.155,3.874-.052,5.781-.309,2.857.59,4.09,3.634,3.767C294.107,1036.787,295.753,1036.328,297.108,1037.467Z" transform="translate(-123.996 -890.229)" fill="#fc715d"/>
        <path id="Trazado_104674" data-name="Trazado 104674" d="M144.433,1022.8q-.02-33.352-.04-66.7a2.762,2.762,0,0,1,2.722-1.308c6.192-.123,12.385-.112,18.578-.007a3.615,3.615,0,0,1,2.677.908c.807,1.109.6,2.407.6,3.637q.033,29.527,0,59.053c0,1.625.16,3.308-.961,4.72-.975,1.011-2.262.969-3.506.984q-8.229.108-16.458,0C146.719,1024.071,145.287,1024.206,144.433,1022.8Z" transform="translate(-121.797 -897.727)" fill="#86dafc"/>
        <path id="Trazado_104675" data-name="Trazado 104675" d="M262.3,956.1l-.04,66.7a2.856,2.856,0,0,1-2.729,1.254q-9.05.174-18.1,0a3.767,3.767,0,0,1-2.668-.863c-1.045-1.19-1.027-2.659-1.03-4.107q-.061-30.119,0-60.239a5.108,5.108,0,0,1,.522-3.09c.958-1.041,2.245-.988,3.486-1q8.5-.1,17,0C260.055,954.777,261.488,954.651,262.3,956.1Z" transform="translate(-111.69 -897.726)" fill="#86dafc"/>
        <path id="Trazado_104676" data-name="Trazado 104676" d="M168.621,956.885l-23.843.038c-2.638-.118-3.784-1.716-3.8-4.136-.015-1.892-.462-3.84.386-5.681l30.685.038c1.736,2.158,1.926,6.866.3,8.839C171.358,957.176,170.192,957.952,168.621,956.885Z" transform="translate(-122.181 -898.549)" fill="#59c0e8"/>
        <path id="Trazado_104677" data-name="Trazado 104677" d="M262.7,956.922l-23.843-.038c-1.572,1.067-2.738.292-3.723-.9-1.627-1.973-1.435-6.681.3-8.839l30.683-.038c.808,2.249.514,4.555.228,6.822C266.086,955.954,264.653,956.825,262.7,956.922Z" transform="translate(-112.09 -898.549)" fill="#59c0e8"/>
        <path id="Trazado_104678" data-name="Trazado 104678" d="M144.815,1016.2l23.508-.079c2-1.125,3.3-.034,4.32,1.5,1.289,1.934.96,6.361-.5,8.391l-30.955.041a19.666,19.666,0,0,1-.226-5.7A3.856,3.856,0,0,1,144.815,1016.2Z" transform="translate(-122.178 -891.124)" fill="#59c0e8"/>
        <path id="Trazado_104679" data-name="Trazado 104679" d="M239.146,1016.123l23.51.079c2.681.26,3.868,1.873,3.867,4.43a19.626,19.626,0,0,1-.241,5.421l-30.956-.041c-1.459-2.031-1.788-6.457-.5-8.391C235.846,1016.089,237.146,1015,239.146,1016.123Z" transform="translate(-112.088 -891.124)" fill="#59c0e8"/>
        <path id="Trazado_104680" data-name="Trazado 104680" d="M209.288,942.489q-34.727,0-69.454-.041c-1.128,0-2.871.908-3.225-1.312-.328-2.055.5-3.03,2.5-3.768q34.049-12.547,68.018-25.308a5.518,5.518,0,0,1,4.165-.033q34.119,12.771,68.288,25.414c1.923.709,2.565,1.706,2.318,3.62-.294,2.279-2.039,1.386-3.161,1.389Q244.014,942.53,209.288,942.489Z" transform="translate(-122.647 -902.391)" fill="#e5e8ed"/>
        <path id="Trazado_104681" data-name="Trazado 104681" d="M218.891,947.066c.9,2.3.553,4.689.27,7.008-.239,1.975-1.783,2.791-3.7,2.885a4.982,4.982,0,0,1-3.5,1.121q-8.281.05-16.561,0a4.983,4.983,0,0,1-3.5-1.121c-2.693-.166-3.954-1.7-3.856-4.293.071-1.868-.508-3.8.43-5.6Z" transform="translate(-117.081 -898.554)" fill="#59c0e8"/>
        <path id="Trazado_104682" data-name="Trazado 104682" d="M215.4,1016.243c2.807.287,4.023,1.906,3.942,4.654-.05,1.725-.05,3.45-.072,5.175h-31.2c-.023-1.724-.021-3.45-.072-5.173-.082-2.749,1.139-4.364,3.942-4.654a4.5,4.5,0,0,1,3.458-1.18q8.271-.06,16.543,0A4.5,4.5,0,0,1,215.4,1016.243Z" transform="translate(-117.073 -891.192)" fill="#59c0e8"/>
        <path id="Trazado_104683" data-name="Trazado 104683" d="M215.024,1022.638H191.565q-.027-33.324-.053-66.647h23.565Z" transform="translate(-116.693 -897.587)" fill="#86dafc"/>
      </g>
      <g id="Grupo_56521" data-name="Grupo 56521" transform="translate(-1024.865 -4985.953)">
        <g id="Grupo_56519" data-name="Grupo 56519" transform="translate(0 0)">
          <circle id="Elipse_4654" data-name="Elipse 4654" cx="26.541" cy="26.541" r="26.541" transform="translate(0 51.155) rotate(-74.52)" fill="#fda812"/>
          <circle id="Elipse_4655" data-name="Elipse 4655" cx="23.576" cy="23.576" r="23.576" transform="translate(9.078 9.114)" fill="#f9c141"/>
        </g>
        <g id="Grupo_56520" data-name="Grupo 56520" transform="translate(23.233 18.018)">
          <path id="Trazado_105340" data-name="Trazado 105340" d="M928.407-210.783v-3.23a18.713,18.713,0,0,1-7.214-1.759l1.292-5.168a17,17,0,0,0,7.181,1.8c1.9,0,3.338-.429,3.338-1.617,0-1.075-1.112-1.688-4.093-2.405-4.2-1-7.5-2.909-7.5-6.822,0-3.479,2.513-6.139,7-6.894v-3.2h4.272v2.942a16.959,16.959,0,0,1,6.068,1.221l-1.259,4.989a15.5,15.5,0,0,0-6.21-1.363c-2.3,0-2.872.755-2.872,1.471,0,.9,1.542,1.617,4.739,2.513,4.988,1.363,6.855,3.376,6.855,6.927,0,3.409-2.551,6.281-7.322,7.035v3.556h-4.277Z" transform="translate(-921.193 240.078)" fill="#fff"/>
        </g>
      </g>
      <g id="Grupo_56526" data-name="Grupo 56526" transform="translate(-992.204 -4962.953)">
        <g id="Grupo_56519-2" data-name="Grupo 56519" transform="translate(0 0)">
          <circle id="Elipse_4654-2" data-name="Elipse 4654" cx="26.541" cy="26.541" r="26.541" transform="translate(0 51.156) rotate(-74.52)" fill="#fda812"/>
          <circle id="Elipse_4655-2" data-name="Elipse 4655" cx="23.576" cy="23.576" r="23.576" transform="translate(9.078 9.114)" fill="#f9c141"/>
        </g>
        <g id="Grupo_56520-2" data-name="Grupo 56520" transform="translate(23.233 18.018)">
          <path id="Trazado_105340-2" data-name="Trazado 105340" d="M928.407-210.783v-3.23a18.713,18.713,0,0,1-7.214-1.759l1.292-5.168a17,17,0,0,0,7.181,1.8c1.9,0,3.338-.429,3.338-1.617,0-1.075-1.112-1.688-4.093-2.405-4.2-1-7.5-2.909-7.5-6.822,0-3.479,2.513-6.139,7-6.894v-3.2h4.272v2.942a16.959,16.959,0,0,1,6.068,1.221l-1.259,4.989a15.5,15.5,0,0,0-6.21-1.363c-2.3,0-2.872.755-2.872,1.471,0,.9,1.542,1.617,4.739,2.513,4.988,1.363,6.855,3.376,6.855,6.927,0,3.409-2.551,6.281-7.322,7.035v3.556h-4.277Z" transform="translate(-921.193 240.078)" fill="#fff"/>
        </g>
      </g>
      <g id="Grupo_56524" data-name="Grupo 56524" transform="translate(-964 -4897.63)">
        <g id="Grupo_56523" data-name="Grupo 56523">
          <g id="Grupo_56522" data-name="Grupo 56522">
            <rect id="Rect치ngulo_5933" data-name="Rect치ngulo 5933" width="34.253" height="58.796" transform="translate(8.563 15.202)" fill="#02dba8"/>
            <path id="Trazado_105341" data-name="Trazado 105341" d="M767.782-342.093,741.97-362.18l-25.8,20.1Z" transform="translate(-716.172 362.18)" fill="#02dba8"/>
          </g>
        </g>
      </g>
    </g>
  </g>
</svg>
