<svg xmlns="http://www.w3.org/2000/svg" width="812" height="354" viewBox="0 0 812 354">
  <g id="Grupo_56567" data-name="Grupo 56567" transform="translate(9653 9901)">
    <g id="Grupo_56566" data-name="Grupo 56566" transform="translate(-10041 -11700)">
      <g id="Grupo_55841" data-name="Grupo 55841" transform="translate(8.395 5.452)">
        <g id="Grupo_55840" data-name="Grupo 55840" transform="translate(388 1807)">
          <rect id="Rectángulo_5761" data-name="Rectángulo 5761" width="213" height="34" rx="17" transform="translate(534.605 208.547)" fill="#fedb31"/>
          <rect id="Rectángulo_5762" data-name="Rectángulo 5762" width="260.331" height="34.97" rx="17.485" transform="translate(534.606 249.547)" fill="#fedb31"/>
          <rect id="Rectángulo_5763" data-name="Rectángulo 5763" width="213" height="36" rx="18" transform="translate(534.605 291.547)" fill="#fedb31"/>
          <g id="Grupo_55835" data-name="Grupo 55835" transform="translate(184.113 138.063)">
            <line id="Línea_145" data-name="Línea 145" x2="4" transform="translate(0.493 8.484)" fill="none" stroke="#7b3cee" stroke-miterlimit="10" stroke-width="3"/>
            <line id="Línea_146" data-name="Línea 146" x2="235.344" transform="translate(12.313 9.238)" fill="none" stroke="#7b3cee" stroke-miterlimit="10" stroke-width="3" stroke-dasharray="12.319 12.319"/>
            <line id="Línea_147" data-name="Línea 147" x2="3.886" transform="translate(251.646 9.238)" fill="none" stroke="#7b3cee" stroke-miterlimit="10" stroke-width="3"/>
            <g id="Grupo_55834" data-name="Grupo 55834" transform="translate(250.651)">
              <path id="Trazado_104229" data-name="Trazado 104229" d="M705.963,309.973c-5.517,2.047-12.362,5.54-16.605,9.24l3.342-9.24-3.342-9.238C693.6,304.435,700.447,307.928,705.963,309.973Z" transform="translate(-689.358 -300.735)" fill="#7b3cee" stroke="#7b3cee" stroke-width="1"/>
            </g>
          </g>
          <g id="Grupo_55837" data-name="Grupo 55837" transform="translate(80.605 14.155)">
            <path id="Trazado_104230" data-name="Trazado 104230" d="M142.469,229.722s.705-1.146,2.251-3.162" transform="translate(-142.469 -150.687)" fill="none" stroke="#7b3cee" stroke-miterlimit="10" stroke-width="3"/>
            <path id="Trazado_104231" data-name="Trazado 104231" d="M153.788,179.244c19.482-21.33,81.264-72.211,225.822-69.761,110.861,1.879,171.632,41.581,196.649,63.245" transform="translate(-146.458 -109.397)" fill="none" stroke="#7b3cee" stroke-miterlimit="10" stroke-width="3" stroke-dasharray="12.177 12.177"/>
            <path id="Trazado_104232" data-name="Trazado 104232" d="M810.724,211.238q1.532,1.394,2.838,2.65" transform="translate(-377.97 -145.287)" fill="none" stroke="#7b3cee" stroke-miterlimit="10" stroke-width="3"/>
            <g id="Grupo_55836" data-name="Grupo 55836" transform="translate(425.471 58.757)">
              <path id="Trazado_104233" data-name="Trazado 104233" d="M817.624,218.521c-5.29-2.579-12.542-5.121-18.147-5.638l8.992-3.959,4.377-8.794C813.1,205.753,815.3,213.117,817.624,218.521Z" transform="translate(-799.477 -200.129)" fill="#7b3cee" stroke="#7b3cee" stroke-width="1"/>
            </g>
          </g>
          <g id="Grupo_55839" data-name="Grupo 55839" transform="translate(80.605 198.718)">
            <path id="Trazado_104234" data-name="Trazado 104234" d="M826.275,394.4s-.705,1.146-2.251,3.162" transform="translate(-382.657 -394.397)" fill="none" stroke="#7b3cee" stroke-miterlimit="10" stroke-width="3"/>
            <path id="Trazado_104235" data-name="Trazado 104235" d="M586.277,408.587c-19.482,21.329-81.264,72.211-225.822,69.761-110.861-1.879-171.632-41.581-196.649-63.245" transform="translate(-149.988 -399.398)" fill="none" stroke="#7b3cee" stroke-miterlimit="10" stroke-width="3" stroke-dasharray="12.177 12.177"/>
            <path id="Trazado_104236" data-name="Trazado 104236" d="M157.7,413.16q-1.532-1.393-2.838-2.649" transform="translate(-146.836 -400.076)" fill="none" stroke="#7b3cee" stroke-miterlimit="10" stroke-width="3"/>
            <g id="Grupo_55838" data-name="Grupo 55838" transform="translate(0 1.887)">
              <path id="Trazado_104237" data-name="Trazado 104237" d="M142.469,397.311c5.29,2.579,12.542,5.121,18.147,5.638l-8.992,3.959-4.377,8.794C146.995,410.079,144.8,402.715,142.469,397.311Z" transform="translate(-142.469 -397.311)" fill="#7b3cee" stroke="#7b3cee" stroke-width="1"/>
            </g>
          </g>
          <rect id="Rectángulo_5764" data-name="Rectángulo 5764" width="120" height="43" rx="21.5" transform="translate(240.606 -0.453)" fill="#02cddb"/>
          <rect id="Rectángulo_5765" data-name="Rectángulo 5765" width="171.611" height="42.093" rx="21.047" transform="translate(215.606 125.548)" fill="#02dba8"/>
          <rect id="Rectángulo_5766" data-name="Rectángulo 5766" width="263" height="42" rx="21" transform="translate(461.606 125.547)" fill="#fedb31"/>
          <rect id="Rectángulo_5767" data-name="Rectángulo 5767" width="173" height="42" rx="21" transform="translate(-0.394 125.547)" fill="#feb331"/>
          <rect id="Rectángulo_5768" data-name="Rectángulo 5768" width="171.611" height="42.093" rx="21.047" transform="translate(215.605 257.548)" fill="#02cddb"/>
          <path id="Trazado_105370" data-name="Trazado 105370" d="M8.552-3.349H3.19L1.986,0H.246L5.133-12.8H6.609L11.5,0H9.773ZM3.7-4.729H8.051l-2.18-5.985ZM16.787-1.151a2.342,2.342,0,0,0,1.521-.527A1.855,1.855,0,0,0,19.028-3h1.538A2.949,2.949,0,0,1,20-1.441,3.7,3.7,0,0,1,18.62-.264a3.994,3.994,0,0,1-1.833.439,3.918,3.918,0,0,1-3.089-1.3,5.163,5.163,0,0,1-1.147-3.546v-.272a5.725,5.725,0,0,1,.51-2.47,3.883,3.883,0,0,1,1.463-1.679,4.157,4.157,0,0,1,2.254-.6,3.814,3.814,0,0,1,2.659.958A3.424,3.424,0,0,1,20.566-6.24H19.028a2.241,2.241,0,0,0-.7-1.516,2.174,2.174,0,0,0-1.551-.593,2.276,2.276,0,0,0-1.92.892,4.19,4.19,0,0,0-.681,2.58v.308a4.106,4.106,0,0,0,.677,2.531A2.287,2.287,0,0,0,16.787-1.151Zm9.422,0a2.342,2.342,0,0,0,1.521-.527A1.855,1.855,0,0,0,28.45-3h1.538a2.949,2.949,0,0,1-.562,1.556A3.7,3.7,0,0,1,28.042-.264a3.994,3.994,0,0,1-1.833.439,3.918,3.918,0,0,1-3.089-1.3,5.163,5.163,0,0,1-1.147-3.546v-.272a5.725,5.725,0,0,1,.51-2.47,3.883,3.883,0,0,1,1.463-1.679,4.157,4.157,0,0,1,2.254-.6,3.814,3.814,0,0,1,2.659.958A3.424,3.424,0,0,1,29.988-6.24H28.45a2.241,2.241,0,0,0-.7-1.516A2.174,2.174,0,0,0,26.2-8.35a2.276,2.276,0,0,0-1.92.892,4.19,4.19,0,0,0-.681,2.58v.308a4.106,4.106,0,0,0,.677,2.531A2.287,2.287,0,0,0,26.209-1.151ZM33.583,0H31.957V-9.51h1.626ZM31.825-12.032a.971.971,0,0,1,.242-.668.907.907,0,0,1,.716-.272.922.922,0,0,1,.721.272.96.96,0,0,1,.246.668.929.929,0,0,1-.246.659.938.938,0,0,1-.721.264.924.924,0,0,1-.716-.264A.938.938,0,0,1,31.825-12.032Zm3.929,7.189A5.617,5.617,0,0,1,36.3-7.356a4.1,4.1,0,0,1,1.529-1.723,4.163,4.163,0,0,1,2.237-.606,4.01,4.01,0,0,1,3.142,1.345,5.174,5.174,0,0,1,1.2,3.577v.114a5.666,5.666,0,0,1-.532,2.492A4.038,4.038,0,0,1,42.359-.439a4.211,4.211,0,0,1-2.272.615,4,4,0,0,1-3.133-1.345,5.147,5.147,0,0,1-1.2-3.56Zm1.635.193a4.068,4.068,0,0,0,.734,2.54,2.349,2.349,0,0,0,1.964.958,2.335,2.335,0,0,0,1.969-.971,4.449,4.449,0,0,0,.729-2.72,4.061,4.061,0,0,0-.743-2.536,2.361,2.361,0,0,0-1.973-.971,2.335,2.335,0,0,0-1.942.958A4.416,4.416,0,0,0,37.389-4.649ZM40.808-13.5h1.969l-2.355,2.584-1.31,0Zm7.181,3.99.053,1.2a3.465,3.465,0,0,1,2.848-1.371q3.015,0,3.041,3.4V0H52.3V-6.293a2.189,2.189,0,0,0-.47-1.521A1.884,1.884,0,0,0,50.4-8.306a2.347,2.347,0,0,0-1.389.422,2.865,2.865,0,0,0-.932,1.107V0H46.45V-9.51Z" transform="translate(273.606 27.547)"/>
          <path id="Trazado_105368" data-name="Trazado 105368" d="M11.329-5.985A7.916,7.916,0,0,1,10.7-2.7,4.793,4.793,0,0,1,8.9-.562,4.933,4.933,0,0,1,6.2.176,4.891,4.891,0,0,1,3.516-.567,4.908,4.908,0,0,1,1.7-2.685a7.6,7.6,0,0,1-.664-3.186v-.923a7.822,7.822,0,0,1,.642-3.261,4.891,4.891,0,0,1,1.815-2.167,4.87,4.87,0,0,1,2.685-.751,4.961,4.961,0,0,1,2.711.743A4.784,4.784,0,0,1,10.7-10.077a7.955,7.955,0,0,1,.633,3.283ZM9.65-6.812a5.738,5.738,0,0,0-.914-3.494,3.015,3.015,0,0,0-2.558-1.217,2.982,2.982,0,0,0-2.518,1.217,5.62,5.62,0,0,0-.945,3.379v.94a5.746,5.746,0,0,0,.927,3.467A3,3,0,0,0,6.2-1.257,2.983,2.983,0,0,0,8.728-2.448,5.714,5.714,0,0,0,9.65-5.862ZM18.2-8.051a4.873,4.873,0,0,0-.8-.062A2.143,2.143,0,0,0,15.231-6.75V0H13.605V-9.51h1.582l.026,1.1a2.532,2.532,0,0,1,2.268-1.274,1.661,1.661,0,0,1,.721.123ZM19.31-4.834a5.589,5.589,0,0,1,1.028-3.538,3.289,3.289,0,0,1,2.725-1.314,3.271,3.271,0,0,1,2.716,1.23l.079-1.055h1.485V-.229a3.869,3.869,0,0,1-1.094,2.909,4.038,4.038,0,0,1-2.94,1.063A4.891,4.891,0,0,1,21.3,3.3a3.465,3.465,0,0,1-1.5-1.2l.844-.976a3.18,3.18,0,0,0,2.558,1.292,2.491,2.491,0,0,0,1.85-.668,2.553,2.553,0,0,0,.664-1.881V-.949A3.342,3.342,0,0,1,23.045.176a3.248,3.248,0,0,1-2.7-1.345A5.876,5.876,0,0,1,19.31-4.834Zm1.635.185A4.264,4.264,0,0,0,21.6-2.123a2.142,2.142,0,0,0,1.846.918,2.382,2.382,0,0,0,2.259-1.4V-6.943a2.41,2.41,0,0,0-2.241-1.362,2.161,2.161,0,0,0-1.854.923A4.644,4.644,0,0,0,20.944-4.649ZM35.666,0a3.416,3.416,0,0,1-.229-1A3.628,3.628,0,0,1,32.73.176a3.357,3.357,0,0,1-2.307-.8,2.573,2.573,0,0,1-.9-2.017,2.688,2.688,0,0,1,1.129-2.307,5.325,5.325,0,0,1,3.177-.822h1.582v-.747a1.826,1.826,0,0,0-.51-1.358,2.049,2.049,0,0,0-1.5-.505,2.371,2.371,0,0,0-1.459.439,1.3,1.3,0,0,0-.589,1.063H29.716a2.244,2.244,0,0,1,.505-1.375A3.449,3.449,0,0,1,31.592-9.3a4.613,4.613,0,0,1,1.9-.387,3.759,3.759,0,0,1,2.575.822A2.964,2.964,0,0,1,37.037-6.6v4.377a5.351,5.351,0,0,0,.334,2.083V0Zm-2.7-1.239a2.858,2.858,0,0,0,1.45-.4,2.392,2.392,0,0,0,.993-1.028V-4.614H34.137q-2.988,0-2.988,1.749a1.48,1.48,0,0,0,.51,1.2A1.959,1.959,0,0,0,32.968-1.239ZM41.124-9.51l.053,1.2a3.465,3.465,0,0,1,2.848-1.371q3.015,0,3.041,3.4V0H45.439V-6.293a2.189,2.189,0,0,0-.47-1.521,1.884,1.884,0,0,0-1.437-.492,2.347,2.347,0,0,0-1.389.422,2.865,2.865,0,0,0-.932,1.107V0H39.586V-9.51ZM51.284,0H49.658V-9.51h1.626ZM49.526-12.032a.971.971,0,0,1,.242-.668.907.907,0,0,1,.716-.272.922.922,0,0,1,.721.272.96.96,0,0,1,.246.668.929.929,0,0,1-.246.659.938.938,0,0,1-.721.264.924.924,0,0,1-.716-.264A.938.938,0,0,1,49.526-12.032ZM55.415-1.327h5.563V0h-7.55V-1.2l5.247-6.97H53.508V-9.51h7.207v1.151ZM68.678,0a3.416,3.416,0,0,1-.229-1A3.628,3.628,0,0,1,65.742.176a3.357,3.357,0,0,1-2.307-.8,2.573,2.573,0,0,1-.9-2.017,2.688,2.688,0,0,1,1.129-2.307,5.325,5.325,0,0,1,3.177-.822h1.582v-.747a1.826,1.826,0,0,0-.51-1.358,2.049,2.049,0,0,0-1.5-.505,2.371,2.371,0,0,0-1.459.439,1.3,1.3,0,0,0-.589,1.063H62.728a2.244,2.244,0,0,1,.505-1.375A3.449,3.449,0,0,1,64.6-9.3a4.613,4.613,0,0,1,1.9-.387,3.759,3.759,0,0,1,2.575.822A2.964,2.964,0,0,1,70.049-6.6v4.377a5.351,5.351,0,0,0,.334,2.083V0Zm-2.7-1.239a2.858,2.858,0,0,0,1.45-.4,2.392,2.392,0,0,0,.993-1.028V-4.614H67.148q-2.988,0-2.988,1.749a1.48,1.48,0,0,0,.51,1.2A1.959,1.959,0,0,0,65.979-1.239Zm10.433.088a2.342,2.342,0,0,0,1.521-.527A1.855,1.855,0,0,0,78.653-3h1.538a2.949,2.949,0,0,1-.562,1.556A3.7,3.7,0,0,1,78.245-.264a3.994,3.994,0,0,1-1.833.439,3.918,3.918,0,0,1-3.089-1.3,5.163,5.163,0,0,1-1.147-3.546v-.272a5.725,5.725,0,0,1,.51-2.47,3.883,3.883,0,0,1,1.463-1.679,4.157,4.157,0,0,1,2.254-.6,3.814,3.814,0,0,1,2.659.958A3.424,3.424,0,0,1,80.191-6.24H78.653a2.241,2.241,0,0,0-.7-1.516A2.174,2.174,0,0,0,76.4-8.35a2.276,2.276,0,0,0-1.92.892,4.19,4.19,0,0,0-.681,2.58v.308a4.106,4.106,0,0,0,.677,2.531A2.287,2.287,0,0,0,76.412-1.151ZM83.786,0H82.16V-9.51h1.626ZM82.028-12.032a.971.971,0,0,1,.242-.668.907.907,0,0,1,.716-.272.922.922,0,0,1,.721.272.96.96,0,0,1,.246.668.929.929,0,0,1-.246.659.938.938,0,0,1-.721.264.924.924,0,0,1-.716-.264A.938.938,0,0,1,82.028-12.032Zm3.929,7.189a5.617,5.617,0,0,1,.549-2.514,4.1,4.1,0,0,1,1.529-1.723,4.163,4.163,0,0,1,2.237-.606,4.01,4.01,0,0,1,3.142,1.345,5.174,5.174,0,0,1,1.2,3.577v.114a5.666,5.666,0,0,1-.532,2.492A4.038,4.038,0,0,1,92.562-.439,4.211,4.211,0,0,1,90.29.176a4,4,0,0,1-3.133-1.345,5.147,5.147,0,0,1-1.2-3.56Zm1.635.193a4.068,4.068,0,0,0,.734,2.54,2.349,2.349,0,0,0,1.964.958,2.335,2.335,0,0,0,1.969-.971,4.449,4.449,0,0,0,.729-2.72,4.061,4.061,0,0,0-.743-2.536,2.361,2.361,0,0,0-1.973-.971,2.335,2.335,0,0,0-1.942.958A4.416,4.416,0,0,0,87.592-4.649ZM91.011-13.5h1.969l-2.355,2.584-1.31,0Zm7.181,3.99.053,1.2a3.465,3.465,0,0,1,2.848-1.371q3.015,0,3.041,3.4V0h-1.626V-6.293a2.189,2.189,0,0,0-.47-1.521,1.884,1.884,0,0,0-1.437-.492,2.347,2.347,0,0,0-1.389.422,2.865,2.865,0,0,0-.932,1.107V0H96.653V-9.51Z" transform="translate(32.606 153.548)"/>
          <path id="Trazado_105372" data-name="Trazado 105372" d="M10.9-4.061A4.708,4.708,0,0,1,9.4-.927,4.911,4.911,0,0,1,6.047.176,4.509,4.509,0,0,1,2.413-1.45,6.542,6.542,0,0,1,1.046-5.8v-1.23a7.291,7.291,0,0,1,.637-3.138,4.76,4.76,0,0,1,1.806-2.079A5.029,5.029,0,0,1,6.2-12.973a4.624,4.624,0,0,1,3.27,1.138A4.765,4.765,0,0,1,10.9-8.684H9.2a3.677,3.677,0,0,0-.954-2.222A2.885,2.885,0,0,0,6.2-11.593a3.019,3.019,0,0,0-2.536,1.2,5.492,5.492,0,0,0-.918,3.4v1.24a5.645,5.645,0,0,0,.87,3.316A2.812,2.812,0,0,0,6.047-1.2,3.247,3.247,0,0,0,8.2-1.841a3.536,3.536,0,0,0,1-2.219ZM14.713,0H13.087V-13.5h1.626Zm4.368,0H17.455V-9.51h1.626ZM17.323-12.032a.971.971,0,0,1,.242-.668.907.907,0,0,1,.716-.272A.922.922,0,0,1,19-12.7a.96.96,0,0,1,.246.668.929.929,0,0,1-.246.659.938.938,0,0,1-.721.264.924.924,0,0,1-.716-.264A.938.938,0,0,1,17.323-12.032ZM25.629.176a4.155,4.155,0,0,1-3.146-1.27,4.714,4.714,0,0,1-1.213-3.4v-.3a5.707,5.707,0,0,1,.541-2.527,4.217,4.217,0,0,1,1.512-1.74,3.8,3.8,0,0,1,2.1-.628A3.562,3.562,0,0,1,28.31-8.464a5.289,5.289,0,0,1,1.028,3.5v.677H22.9a3.38,3.38,0,0,0,.822,2.272,2.583,2.583,0,0,0,2,.866A2.832,2.832,0,0,0,27.176-1.5a3.666,3.666,0,0,0,1.046-.932l.993.773A3.993,3.993,0,0,1,25.629.176Zm-.2-8.525a2.169,2.169,0,0,0-1.652.716,3.482,3.482,0,0,0-.826,2.008h4.764v-.123a3.1,3.1,0,0,0-.668-1.92A2.042,2.042,0,0,0,25.427-8.35Zm7.33-1.16.053,1.2a3.465,3.465,0,0,1,2.848-1.371q3.015,0,3.041,3.4V0H37.072V-6.293a2.189,2.189,0,0,0-.47-1.521,1.884,1.884,0,0,0-1.437-.492,2.347,2.347,0,0,0-1.389.422,2.865,2.865,0,0,0-.932,1.107V0H31.219V-9.51Zm10.6-2.3v2.3h1.775v1.257H43.356v5.9a1.32,1.32,0,0,0,.237.858A1,1,0,0,0,44.4-1.2a3.937,3.937,0,0,0,.773-.105V0a4.742,4.742,0,0,1-1.248.175,2.025,2.025,0,0,1-1.644-.659,2.832,2.832,0,0,1-.554-1.872v-5.9H40V-9.51H41.73v-2.3ZM50.977.176a4.155,4.155,0,0,1-3.146-1.27,4.714,4.714,0,0,1-1.213-3.4v-.3a5.707,5.707,0,0,1,.541-2.527,4.217,4.217,0,0,1,1.512-1.74,3.8,3.8,0,0,1,2.1-.628,3.562,3.562,0,0,1,2.883,1.222,5.289,5.289,0,0,1,1.028,3.5v.677H48.243a3.38,3.38,0,0,0,.822,2.272,2.583,2.583,0,0,0,2,.866A2.832,2.832,0,0,0,52.523-1.5a3.666,3.666,0,0,0,1.046-.932l.993.773A3.993,3.993,0,0,1,50.977.176Zm-.2-8.525a2.169,2.169,0,0,0-1.652.716A3.482,3.482,0,0,0,48.3-5.625H53.06v-.123a3.1,3.1,0,0,0-.668-1.92A2.042,2.042,0,0,0,50.774-8.35Zm14.845.3a4.873,4.873,0,0,0-.8-.062A2.143,2.143,0,0,0,62.648-6.75V0H61.022V-9.51H62.6l.026,1.1A2.532,2.532,0,0,1,64.9-9.686a1.661,1.661,0,0,1,.721.123ZM71.06.176a4.155,4.155,0,0,1-3.146-1.27,4.714,4.714,0,0,1-1.213-3.4v-.3a5.707,5.707,0,0,1,.541-2.527,4.217,4.217,0,0,1,1.512-1.74,3.8,3.8,0,0,1,2.1-.628A3.562,3.562,0,0,1,73.74-8.464a5.289,5.289,0,0,1,1.028,3.5v.677H68.326a3.38,3.38,0,0,0,.822,2.272,2.583,2.583,0,0,0,2,.866A2.832,2.832,0,0,0,72.606-1.5a3.666,3.666,0,0,0,1.046-.932l.993.773A3.993,3.993,0,0,1,71.06.176Zm-.2-8.525a2.169,2.169,0,0,0-1.652.716,3.482,3.482,0,0,0-.826,2.008h4.764v-.123a3.1,3.1,0,0,0-.668-1.92A2.042,2.042,0,0,0,70.857-8.35ZM82.521,0a3.416,3.416,0,0,1-.229-1A3.628,3.628,0,0,1,79.585.176a3.357,3.357,0,0,1-2.307-.8,2.573,2.573,0,0,1-.9-2.017,2.688,2.688,0,0,1,1.129-2.307,5.325,5.325,0,0,1,3.177-.822h1.582v-.747a1.826,1.826,0,0,0-.51-1.358,2.049,2.049,0,0,0-1.5-.505,2.371,2.371,0,0,0-1.459.439,1.3,1.3,0,0,0-.589,1.063H76.57a2.244,2.244,0,0,1,.505-1.375A3.449,3.449,0,0,1,78.447-9.3a4.613,4.613,0,0,1,1.9-.387,3.759,3.759,0,0,1,2.575.822A2.964,2.964,0,0,1,83.892-6.6v4.377a5.351,5.351,0,0,0,.334,2.083V0Zm-2.7-1.239a2.858,2.858,0,0,0,1.45-.4,2.392,2.392,0,0,0,.993-1.028V-4.614H80.991Q78-4.614,78-2.865a1.48,1.48,0,0,0,.51,1.2A1.959,1.959,0,0,0,79.822-1.239ZM88.207,0H86.581V-13.5h1.626ZM98.376-2.382l2.215-7.128h1.74L98.508,1.468q-.888,2.373-2.821,2.373l-.308-.026L94.772,3.7V2.382l.439.035A2.164,2.164,0,0,0,96.5,2.083,2.417,2.417,0,0,0,97.26.861l.36-.967-3.393-9.4H96Zm17.895-2.268a5.694,5.694,0,0,1-.993,3.5A3.183,3.183,0,0,1,112.588.176a3.488,3.488,0,0,1-2.725-1.1V3.656h-1.626V-9.51h1.485l.079,1.055a3.35,3.35,0,0,1,2.76-1.23,3.243,3.243,0,0,1,2.711,1.292,5.756,5.756,0,0,1,1,3.595Zm-1.626-.185a4.2,4.2,0,0,0-.686-2.54,2.208,2.208,0,0,0-1.881-.932A2.39,2.39,0,0,0,109.863-7v4.544a2.4,2.4,0,0,0,2.232,1.3,2.2,2.2,0,0,0,1.859-.927A4.587,4.587,0,0,0,114.645-4.834Zm3.261-.009a5.617,5.617,0,0,1,.549-2.514,4.1,4.1,0,0,1,1.529-1.723,4.163,4.163,0,0,1,2.237-.606,4.01,4.01,0,0,1,3.142,1.345,5.174,5.174,0,0,1,1.2,3.577v.114a5.666,5.666,0,0,1-.532,2.492A4.038,4.038,0,0,1,124.51-.439a4.211,4.211,0,0,1-2.272.615A4,4,0,0,1,119.1-1.169a5.147,5.147,0,0,1-1.2-3.56Zm1.635.193a4.068,4.068,0,0,0,.734,2.54,2.349,2.349,0,0,0,1.964.958,2.335,2.335,0,0,0,1.969-.971,4.449,4.449,0,0,0,.729-2.72,4.061,4.061,0,0,0-.743-2.536,2.361,2.361,0,0,0-1.973-.971,2.335,2.335,0,0,0-1.942.958A4.416,4.416,0,0,0,119.54-4.649Zm11.268-7.163v2.3h1.775v1.257h-1.775v5.9a1.32,1.32,0,0,0,.237.858,1,1,0,0,0,.809.286,3.937,3.937,0,0,0,.773-.105V0a4.742,4.742,0,0,1-1.248.175,2.025,2.025,0,0,1-1.644-.659,2.832,2.832,0,0,1-.554-1.872v-5.9H127.45V-9.51h1.731v-2.3ZM138.428.176a4.155,4.155,0,0,1-3.146-1.27,4.714,4.714,0,0,1-1.213-3.4v-.3a5.707,5.707,0,0,1,.541-2.527,4.217,4.217,0,0,1,1.512-1.74,3.8,3.8,0,0,1,2.1-.628,3.562,3.562,0,0,1,2.883,1.222,5.289,5.289,0,0,1,1.028,3.5v.677h-6.442a3.38,3.38,0,0,0,.822,2.272,2.583,2.583,0,0,0,2,.866,2.832,2.832,0,0,0,1.459-.352,3.666,3.666,0,0,0,1.046-.932l.993.773A3.993,3.993,0,0,1,138.428.176Zm-.2-8.525a2.169,2.169,0,0,0-1.652.716,3.482,3.482,0,0,0-.826,2.008h4.764v-.123a3.1,3.1,0,0,0-.668-1.92A2.042,2.042,0,0,0,138.226-8.35Zm7.33-1.16.053,1.2a3.465,3.465,0,0,1,2.848-1.371q3.015,0,3.041,3.4V0h-1.626V-6.293a2.189,2.189,0,0,0-.47-1.521,1.884,1.884,0,0,0-1.437-.492,2.347,2.347,0,0,0-1.389.422,2.865,2.865,0,0,0-.932,1.107V0h-1.626V-9.51Zm12.208,8.358a2.342,2.342,0,0,0,1.521-.527A1.855,1.855,0,0,0,160-3h1.538a2.949,2.949,0,0,1-.562,1.556A3.7,3.7,0,0,1,159.6-.264a3.994,3.994,0,0,1-1.833.439,3.918,3.918,0,0,1-3.089-1.3,5.163,5.163,0,0,1-1.147-3.546v-.272a5.725,5.725,0,0,1,.51-2.47A3.883,3.883,0,0,1,155.5-9.088a4.157,4.157,0,0,1,2.254-.6,3.814,3.814,0,0,1,2.659.958,3.424,3.424,0,0,1,1.129,2.487H160a2.241,2.241,0,0,0-.7-1.516,2.174,2.174,0,0,0-1.551-.593,2.276,2.276,0,0,0-1.92.892,4.19,4.19,0,0,0-.681,2.58v.308a4.106,4.106,0,0,0,.677,2.531A2.287,2.287,0,0,0,157.764-1.151ZM165.138,0h-1.626V-9.51h1.626ZM163.38-12.032a.971.971,0,0,1,.242-.668.907.907,0,0,1,.716-.272.922.922,0,0,1,.721.272.96.96,0,0,1,.246.668.929.929,0,0,1-.246.659.938.938,0,0,1-.721.264.924.924,0,0,1-.716-.264A.938.938,0,0,1,163.38-12.032ZM173.61,0a3.416,3.416,0,0,1-.229-1A3.628,3.628,0,0,1,170.675.176a3.357,3.357,0,0,1-2.307-.8,2.573,2.573,0,0,1-.9-2.017A2.688,2.688,0,0,1,168.6-4.944a5.325,5.325,0,0,1,3.177-.822h1.582v-.747a1.826,1.826,0,0,0-.51-1.358,2.049,2.049,0,0,0-1.5-.505,2.371,2.371,0,0,0-1.459.439,1.3,1.3,0,0,0-.589,1.063H167.66a2.244,2.244,0,0,1,.505-1.375,3.449,3.449,0,0,1,1.371-1.05,4.613,4.613,0,0,1,1.9-.387,3.759,3.759,0,0,1,2.575.822,2.964,2.964,0,0,1,.967,2.263v4.377a5.351,5.351,0,0,0,.334,2.083V0Zm-2.7-1.239a2.858,2.858,0,0,0,1.45-.4,2.392,2.392,0,0,0,.993-1.028V-4.614h-1.274q-2.988,0-2.988,1.749a1.48,1.48,0,0,0,.51,1.2A1.959,1.959,0,0,0,170.912-1.239ZM179.3,0h-1.626V-13.5H179.3Z" transform="translate(501.605 153.548)"/>
          <path id="Trazado_105373" data-name="Trazado 105373" d="M10.9-4.061A4.708,4.708,0,0,1,9.4-.927,4.911,4.911,0,0,1,6.047.176,4.509,4.509,0,0,1,2.413-1.45,6.542,6.542,0,0,1,1.046-5.8v-1.23a7.291,7.291,0,0,1,.637-3.138,4.76,4.76,0,0,1,1.806-2.079A5.029,5.029,0,0,1,6.2-12.973a4.624,4.624,0,0,1,3.27,1.138A4.765,4.765,0,0,1,10.9-8.684H9.2a3.677,3.677,0,0,0-.954-2.222A2.885,2.885,0,0,0,6.2-11.593a3.019,3.019,0,0,0-2.536,1.2,5.492,5.492,0,0,0-.918,3.4v1.24a5.645,5.645,0,0,0,.87,3.316A2.812,2.812,0,0,0,6.047-1.2,3.247,3.247,0,0,0,8.2-1.841a3.536,3.536,0,0,0,1-2.219ZM14.713,0H13.087V-13.5h1.626Zm4.368,0H17.455V-9.51h1.626ZM17.323-12.032a.971.971,0,0,1,.242-.668.907.907,0,0,1,.716-.272A.922.922,0,0,1,19-12.7a.96.96,0,0,1,.246.668.929.929,0,0,1-.246.659.938.938,0,0,1-.721.264.924.924,0,0,1-.716-.264A.938.938,0,0,1,17.323-12.032ZM25.629.176a4.155,4.155,0,0,1-3.146-1.27,4.714,4.714,0,0,1-1.213-3.4v-.3a5.707,5.707,0,0,1,.541-2.527,4.217,4.217,0,0,1,1.512-1.74,3.8,3.8,0,0,1,2.1-.628A3.562,3.562,0,0,1,28.31-8.464a5.289,5.289,0,0,1,1.028,3.5v.677H22.9a3.38,3.38,0,0,0,.822,2.272,2.583,2.583,0,0,0,2,.866A2.832,2.832,0,0,0,27.176-1.5a3.666,3.666,0,0,0,1.046-.932l.993.773A3.993,3.993,0,0,1,25.629.176Zm-.2-8.525a2.169,2.169,0,0,0-1.652.716,3.482,3.482,0,0,0-.826,2.008h4.764v-.123a3.1,3.1,0,0,0-.668-1.92A2.042,2.042,0,0,0,25.427-8.35Zm7.33-1.16.053,1.2a3.465,3.465,0,0,1,2.848-1.371q3.015,0,3.041,3.4V0H37.072V-6.293a2.189,2.189,0,0,0-.47-1.521,1.884,1.884,0,0,0-1.437-.492,2.347,2.347,0,0,0-1.389.422,2.865,2.865,0,0,0-.932,1.107V0H31.219V-9.51Zm10.6-2.3v2.3h1.775v1.257H43.356v5.9a1.32,1.32,0,0,0,.237.858A1,1,0,0,0,44.4-1.2a3.937,3.937,0,0,0,.773-.105V0a4.742,4.742,0,0,1-1.248.175,2.025,2.025,0,0,1-1.644-.659,2.832,2.832,0,0,1-.554-1.872v-5.9H40V-9.51H41.73v-2.3ZM50.977.176a4.155,4.155,0,0,1-3.146-1.27,4.714,4.714,0,0,1-1.213-3.4v-.3a5.707,5.707,0,0,1,.541-2.527,4.217,4.217,0,0,1,1.512-1.74,3.8,3.8,0,0,1,2.1-.628,3.562,3.562,0,0,1,2.883,1.222,5.289,5.289,0,0,1,1.028,3.5v.677H48.243a3.38,3.38,0,0,0,.822,2.272,2.583,2.583,0,0,0,2,.866A2.832,2.832,0,0,0,52.523-1.5a3.666,3.666,0,0,0,1.046-.932l.993.773A3.993,3.993,0,0,1,50.977.176Zm-.2-8.525a2.169,2.169,0,0,0-1.652.716A3.482,3.482,0,0,0,48.3-5.625H53.06v-.123a3.1,3.1,0,0,0-.668-1.92A2.042,2.042,0,0,0,50.774-8.35Zm17.561,2.7h-5.37V0H61.277V-12.8h7.928v1.38h-6.24v4.386h5.37ZM72.738,0H71.112V-9.51h1.626ZM70.98-12.032a.971.971,0,0,1,.242-.668.907.907,0,0,1,.716-.272.922.922,0,0,1,.721.272.96.96,0,0,1,.246.668.929.929,0,0,1-.246.659.938.938,0,0,1-.721.264.924.924,0,0,1-.716-.264A.938.938,0,0,1,70.98-12.032Zm5.9,2.522.053,1.2a3.465,3.465,0,0,1,2.848-1.371q3.015,0,3.041,3.4V0H81.193V-6.293a2.189,2.189,0,0,0-.47-1.521,1.884,1.884,0,0,0-1.437-.492,2.347,2.347,0,0,0-1.389.422,2.865,2.865,0,0,0-.932,1.107V0H75.34V-9.51ZM91.143,0a3.416,3.416,0,0,1-.229-1A3.628,3.628,0,0,1,88.207.176,3.357,3.357,0,0,1,85.9-.62,2.573,2.573,0,0,1,85-2.637a2.688,2.688,0,0,1,1.129-2.307,5.325,5.325,0,0,1,3.177-.822h1.582v-.747a1.826,1.826,0,0,0-.51-1.358,2.049,2.049,0,0,0-1.5-.505,2.371,2.371,0,0,0-1.459.439,1.3,1.3,0,0,0-.589,1.063H85.192A2.244,2.244,0,0,1,85.7-8.249,3.449,3.449,0,0,1,87.069-9.3a4.613,4.613,0,0,1,1.9-.387,3.759,3.759,0,0,1,2.575.822A2.964,2.964,0,0,1,92.514-6.6v4.377a5.351,5.351,0,0,0,.334,2.083V0Zm-2.7-1.239a2.858,2.858,0,0,0,1.45-.4,2.392,2.392,0,0,0,.993-1.028V-4.614H89.613q-2.988,0-2.988,1.749a1.48,1.48,0,0,0,.51,1.2A1.959,1.959,0,0,0,88.444-1.239ZM96.829,0H95.2V-13.5h1.626Z" transform="translate(591.606 232.547)"/>
          <path id="Trazado_105374" data-name="Trazado 105374" d="M10.9-4.061A4.708,4.708,0,0,1,9.4-.927,4.911,4.911,0,0,1,6.047.176,4.509,4.509,0,0,1,2.413-1.45,6.542,6.542,0,0,1,1.046-5.8v-1.23a7.291,7.291,0,0,1,.637-3.138,4.76,4.76,0,0,1,1.806-2.079A5.029,5.029,0,0,1,6.2-12.973a4.624,4.624,0,0,1,3.27,1.138A4.765,4.765,0,0,1,10.9-8.684H9.2a3.677,3.677,0,0,0-.954-2.222A2.885,2.885,0,0,0,6.2-11.593a3.019,3.019,0,0,0-2.536,1.2,5.492,5.492,0,0,0-.918,3.4v1.24a5.645,5.645,0,0,0,.87,3.316A2.812,2.812,0,0,0,6.047-1.2,3.247,3.247,0,0,0,8.2-1.841a3.536,3.536,0,0,0,1-2.219ZM14.713,0H13.087V-13.5h1.626Zm4.368,0H17.455V-9.51h1.626ZM17.323-12.032a.971.971,0,0,1,.242-.668.907.907,0,0,1,.716-.272A.922.922,0,0,1,19-12.7a.96.96,0,0,1,.246.668.929.929,0,0,1-.246.659.938.938,0,0,1-.721.264.924.924,0,0,1-.716-.264A.938.938,0,0,1,17.323-12.032ZM25.629.176a4.155,4.155,0,0,1-3.146-1.27,4.714,4.714,0,0,1-1.213-3.4v-.3a5.707,5.707,0,0,1,.541-2.527,4.217,4.217,0,0,1,1.512-1.74,3.8,3.8,0,0,1,2.1-.628A3.562,3.562,0,0,1,28.31-8.464a5.289,5.289,0,0,1,1.028,3.5v.677H22.9a3.38,3.38,0,0,0,.822,2.272,2.583,2.583,0,0,0,2,.866A2.832,2.832,0,0,0,27.176-1.5a3.666,3.666,0,0,0,1.046-.932l.993.773A3.993,3.993,0,0,1,25.629.176Zm-.2-8.525a2.169,2.169,0,0,0-1.652.716,3.482,3.482,0,0,0-.826,2.008h4.764v-.123a3.1,3.1,0,0,0-.668-1.92A2.042,2.042,0,0,0,25.427-8.35Zm7.33-1.16.053,1.2a3.465,3.465,0,0,1,2.848-1.371q3.015,0,3.041,3.4V0H37.072V-6.293a2.189,2.189,0,0,0-.47-1.521,1.884,1.884,0,0,0-1.437-.492,2.347,2.347,0,0,0-1.389.422,2.865,2.865,0,0,0-.932,1.107V0H31.219V-9.51Zm10.6-2.3v2.3h1.775v1.257H43.356v5.9a1.32,1.32,0,0,0,.237.858A1,1,0,0,0,44.4-1.2a3.937,3.937,0,0,0,.773-.105V0a4.742,4.742,0,0,1-1.248.175,2.025,2.025,0,0,1-1.644-.659,2.832,2.832,0,0,1-.554-1.872v-5.9H40V-9.51H41.73v-2.3ZM50.977.176a4.155,4.155,0,0,1-3.146-1.27,4.714,4.714,0,0,1-1.213-3.4v-.3a5.707,5.707,0,0,1,.541-2.527,4.217,4.217,0,0,1,1.512-1.74,3.8,3.8,0,0,1,2.1-.628,3.562,3.562,0,0,1,2.883,1.222,5.289,5.289,0,0,1,1.028,3.5v.677H48.243a3.38,3.38,0,0,0,.822,2.272,2.583,2.583,0,0,0,2,.866A2.832,2.832,0,0,0,52.523-1.5a3.666,3.666,0,0,0,1.046-.932l.993.773A3.993,3.993,0,0,1,50.977.176Zm-.2-8.525a2.169,2.169,0,0,0-1.652.716A3.482,3.482,0,0,0,48.3-5.625H53.06v-.123a3.1,3.1,0,0,0-.668-1.92A2.042,2.042,0,0,0,50.774-8.35ZM71.121-5.985A7.916,7.916,0,0,1,70.488-2.7,4.793,4.793,0,0,1,68.7-.562a4.933,4.933,0,0,1-2.707.738,4.891,4.891,0,0,1-2.681-.743,4.908,4.908,0,0,1-1.815-2.118,7.6,7.6,0,0,1-.664-3.186v-.923a7.822,7.822,0,0,1,.642-3.261,4.891,4.891,0,0,1,1.815-2.167,4.87,4.87,0,0,1,2.685-.751,4.961,4.961,0,0,1,2.711.743,4.784,4.784,0,0,1,1.806,2.153,7.955,7.955,0,0,1,.633,3.283Zm-1.679-.826a5.738,5.738,0,0,0-.914-3.494,3.015,3.015,0,0,0-2.558-1.217,2.982,2.982,0,0,0-2.518,1.217,5.62,5.62,0,0,0-.945,3.379v.94a5.746,5.746,0,0,0,.927,3.467,3,3,0,0,0,2.553,1.261A2.983,2.983,0,0,0,68.52-2.448a5.714,5.714,0,0,0,.923-3.415Zm8.552-1.239a4.873,4.873,0,0,0-.8-.062A2.143,2.143,0,0,0,75.023-6.75V0H73.4V-9.51h1.582l.026,1.1a2.532,2.532,0,0,1,2.268-1.274,1.661,1.661,0,0,1,.721.123ZM79.1-4.834A5.589,5.589,0,0,1,80.13-8.372a3.289,3.289,0,0,1,2.725-1.314,3.271,3.271,0,0,1,2.716,1.23l.079-1.055h1.485V-.229a3.869,3.869,0,0,1-1.094,2.909A4.038,4.038,0,0,1,83.1,3.744,4.891,4.891,0,0,1,81.088,3.3a3.465,3.465,0,0,1-1.5-1.2l.844-.976a3.18,3.18,0,0,0,2.558,1.292,2.491,2.491,0,0,0,1.85-.668A2.553,2.553,0,0,0,85.5-.132V-.949A3.342,3.342,0,0,1,82.837.176a3.248,3.248,0,0,1-2.7-1.345A5.876,5.876,0,0,1,79.1-4.834Zm1.635.185A4.264,4.264,0,0,0,81.4-2.123a2.142,2.142,0,0,0,1.846.918A2.382,2.382,0,0,0,85.5-2.6V-6.943a2.41,2.41,0,0,0-2.241-1.362,2.161,2.161,0,0,0-1.854.923A4.644,4.644,0,0,0,80.736-4.649ZM95.458,0a3.416,3.416,0,0,1-.229-1A3.628,3.628,0,0,1,92.522.176a3.357,3.357,0,0,1-2.307-.8,2.573,2.573,0,0,1-.9-2.017,2.688,2.688,0,0,1,1.129-2.307,5.325,5.325,0,0,1,3.177-.822H95.2v-.747a1.826,1.826,0,0,0-.51-1.358,2.049,2.049,0,0,0-1.5-.505,2.371,2.371,0,0,0-1.459.439,1.3,1.3,0,0,0-.589,1.063H89.508a2.244,2.244,0,0,1,.505-1.375A3.449,3.449,0,0,1,91.384-9.3a4.613,4.613,0,0,1,1.9-.387,3.759,3.759,0,0,1,2.575.822A2.964,2.964,0,0,1,96.829-6.6v4.377a5.351,5.351,0,0,0,.334,2.083V0Zm-2.7-1.239a2.858,2.858,0,0,0,1.45-.4A2.392,2.392,0,0,0,95.2-2.663V-4.614H93.929q-2.988,0-2.988,1.749a1.48,1.48,0,0,0,.51,1.2A1.959,1.959,0,0,0,92.76-1.239Zm8.156-8.271.053,1.2a3.465,3.465,0,0,1,2.848-1.371q3.015,0,3.041,3.4V0h-1.626V-6.293a2.189,2.189,0,0,0-.47-1.521,1.884,1.884,0,0,0-1.437-.492,2.347,2.347,0,0,0-1.389.422A2.865,2.865,0,0,0,101-6.776V0H99.378V-9.51ZM111.076,0H109.45V-9.51h1.626Zm-1.758-12.032a.971.971,0,0,1,.242-.668.907.907,0,0,1,.716-.272A.922.922,0,0,1,111-12.7a.96.96,0,0,1,.246.668.929.929,0,0,1-.246.659.938.938,0,0,1-.721.264.924.924,0,0,1-.716-.264A.938.938,0,0,1,109.318-12.032Zm5.889,10.705h5.563V0h-7.55V-1.2l5.247-6.97H113.3V-9.51h7.207v1.151ZM128.47,0a3.416,3.416,0,0,1-.229-1A3.628,3.628,0,0,1,125.534.176a3.357,3.357,0,0,1-2.307-.8,2.573,2.573,0,0,1-.9-2.017,2.688,2.688,0,0,1,1.129-2.307,5.325,5.325,0,0,1,3.177-.822h1.582v-.747a1.826,1.826,0,0,0-.51-1.358,2.049,2.049,0,0,0-1.5-.505,2.371,2.371,0,0,0-1.459.439,1.3,1.3,0,0,0-.589,1.063H122.52a2.244,2.244,0,0,1,.505-1.375A3.449,3.449,0,0,1,124.4-9.3a4.613,4.613,0,0,1,1.9-.387,3.759,3.759,0,0,1,2.575.822,2.964,2.964,0,0,1,.967,2.263v4.377a5.351,5.351,0,0,0,.334,2.083V0Zm-2.7-1.239a2.858,2.858,0,0,0,1.45-.4,2.392,2.392,0,0,0,.993-1.028V-4.614H126.94q-2.988,0-2.988,1.749a1.48,1.48,0,0,0,.51,1.2A1.959,1.959,0,0,0,125.771-1.239Zm10.433.088a2.342,2.342,0,0,0,1.521-.527A1.855,1.855,0,0,0,138.445-3h1.538a2.949,2.949,0,0,1-.562,1.556,3.7,3.7,0,0,1-1.384,1.178A3.994,3.994,0,0,1,136.2.176a3.918,3.918,0,0,1-3.089-1.3,5.163,5.163,0,0,1-1.147-3.546v-.272a5.725,5.725,0,0,1,.51-2.47,3.883,3.883,0,0,1,1.463-1.679,4.157,4.157,0,0,1,2.254-.6,3.814,3.814,0,0,1,2.659.958,3.424,3.424,0,0,1,1.129,2.487h-1.538a2.241,2.241,0,0,0-.7-1.516A2.174,2.174,0,0,0,136.2-8.35a2.276,2.276,0,0,0-1.92.892,4.19,4.19,0,0,0-.681,2.58v.308a4.106,4.106,0,0,0,.677,2.531A2.287,2.287,0,0,0,136.2-1.151ZM143.578,0h-1.626V-9.51h1.626ZM141.82-12.032a.971.971,0,0,1,.242-.668.907.907,0,0,1,.716-.272.922.922,0,0,1,.721.272.96.96,0,0,1,.246.668.929.929,0,0,1-.246.659.938.938,0,0,1-.721.264.924.924,0,0,1-.716-.264A.938.938,0,0,1,141.82-12.032Zm3.929,7.189a5.617,5.617,0,0,1,.549-2.514,4.1,4.1,0,0,1,1.529-1.723,4.163,4.163,0,0,1,2.237-.606,4.01,4.01,0,0,1,3.142,1.345,5.174,5.174,0,0,1,1.2,3.577v.114a5.666,5.666,0,0,1-.532,2.492,4.038,4.038,0,0,1-1.521,1.718,4.211,4.211,0,0,1-2.272.615,4,4,0,0,1-3.133-1.345,5.147,5.147,0,0,1-1.2-3.56Zm1.635.193a4.068,4.068,0,0,0,.734,2.54,2.349,2.349,0,0,0,1.964.958,2.335,2.335,0,0,0,1.969-.971,4.449,4.449,0,0,0,.729-2.72,4.061,4.061,0,0,0-.743-2.536,2.361,2.361,0,0,0-1.973-.971,2.335,2.335,0,0,0-1.942.958A4.416,4.416,0,0,0,147.384-4.649Zm10.6-4.86.053,1.2a3.465,3.465,0,0,1,2.848-1.371q3.015,0,3.041,3.4V0H162.3V-6.293a2.189,2.189,0,0,0-.47-1.521,1.884,1.884,0,0,0-1.437-.492A2.347,2.347,0,0,0,159-7.884a2.865,2.865,0,0,0-.932,1.107V0h-1.626V-9.51ZM172.248,0a3.416,3.416,0,0,1-.229-1A3.628,3.628,0,0,1,169.313.176a3.357,3.357,0,0,1-2.307-.8,2.573,2.573,0,0,1-.9-2.017,2.688,2.688,0,0,1,1.129-2.307,5.325,5.325,0,0,1,3.177-.822h1.582v-.747a1.826,1.826,0,0,0-.51-1.358,2.049,2.049,0,0,0-1.5-.505,2.371,2.371,0,0,0-1.459.439,1.3,1.3,0,0,0-.589,1.063H166.3a2.244,2.244,0,0,1,.505-1.375,3.449,3.449,0,0,1,1.371-1.05,4.613,4.613,0,0,1,1.9-.387,3.759,3.759,0,0,1,2.575.822,2.964,2.964,0,0,1,.967,2.263v4.377a5.351,5.351,0,0,0,.334,2.083V0Zm-2.7-1.239a2.858,2.858,0,0,0,1.45-.4,2.392,2.392,0,0,0,.993-1.028V-4.614h-1.274q-2.988,0-2.988,1.749a1.48,1.48,0,0,0,.51,1.2A1.959,1.959,0,0,0,169.55-1.239ZM177.935,0h-1.626V-13.5h1.626Z" transform="translate(574.606 273.548)"/>
          <path id="Trazado_105375" data-name="Trazado 105375" d="M10.9-4.061A4.708,4.708,0,0,1,9.4-.927,4.911,4.911,0,0,1,6.047.176,4.509,4.509,0,0,1,2.413-1.45,6.542,6.542,0,0,1,1.046-5.8v-1.23a7.291,7.291,0,0,1,.637-3.138,4.76,4.76,0,0,1,1.806-2.079A5.029,5.029,0,0,1,6.2-12.973a4.624,4.624,0,0,1,3.27,1.138A4.765,4.765,0,0,1,10.9-8.684H9.2a3.677,3.677,0,0,0-.954-2.222A2.885,2.885,0,0,0,6.2-11.593a3.019,3.019,0,0,0-2.536,1.2,5.492,5.492,0,0,0-.918,3.4v1.24a5.645,5.645,0,0,0,.87,3.316A2.812,2.812,0,0,0,6.047-1.2,3.247,3.247,0,0,0,8.2-1.841a3.536,3.536,0,0,0,1-2.219ZM14.713,0H13.087V-13.5h1.626Zm4.368,0H17.455V-9.51h1.626ZM17.323-12.032a.971.971,0,0,1,.242-.668.907.907,0,0,1,.716-.272A.922.922,0,0,1,19-12.7a.96.96,0,0,1,.246.668.929.929,0,0,1-.246.659.938.938,0,0,1-.721.264.924.924,0,0,1-.716-.264A.938.938,0,0,1,17.323-12.032ZM25.629.176a4.155,4.155,0,0,1-3.146-1.27,4.714,4.714,0,0,1-1.213-3.4v-.3a5.707,5.707,0,0,1,.541-2.527,4.217,4.217,0,0,1,1.512-1.74,3.8,3.8,0,0,1,2.1-.628A3.562,3.562,0,0,1,28.31-8.464a5.289,5.289,0,0,1,1.028,3.5v.677H22.9a3.38,3.38,0,0,0,.822,2.272,2.583,2.583,0,0,0,2,.866A2.832,2.832,0,0,0,27.176-1.5a3.666,3.666,0,0,0,1.046-.932l.993.773A3.993,3.993,0,0,1,25.629.176Zm-.2-8.525a2.169,2.169,0,0,0-1.652.716,3.482,3.482,0,0,0-.826,2.008h4.764v-.123a3.1,3.1,0,0,0-.668-1.92A2.042,2.042,0,0,0,25.427-8.35Zm7.33-1.16.053,1.2a3.465,3.465,0,0,1,2.848-1.371q3.015,0,3.041,3.4V0H37.072V-6.293a2.189,2.189,0,0,0-.47-1.521,1.884,1.884,0,0,0-1.437-.492,2.347,2.347,0,0,0-1.389.422,2.865,2.865,0,0,0-.932,1.107V0H31.219V-9.51Zm10.6-2.3v2.3h1.775v1.257H43.356v5.9a1.32,1.32,0,0,0,.237.858A1,1,0,0,0,44.4-1.2a3.937,3.937,0,0,0,.773-.105V0a4.742,4.742,0,0,1-1.248.175,2.025,2.025,0,0,1-1.644-.659,2.832,2.832,0,0,1-.554-1.872v-5.9H40V-9.51H41.73v-2.3ZM50.977.176a4.155,4.155,0,0,1-3.146-1.27,4.714,4.714,0,0,1-1.213-3.4v-.3a5.707,5.707,0,0,1,.541-2.527,4.217,4.217,0,0,1,1.512-1.74,3.8,3.8,0,0,1,2.1-.628,3.562,3.562,0,0,1,2.883,1.222,5.289,5.289,0,0,1,1.028,3.5v.677H48.243a3.38,3.38,0,0,0,.822,2.272,2.583,2.583,0,0,0,2,.866A2.832,2.832,0,0,0,52.523-1.5a3.666,3.666,0,0,0,1.046-.932l.993.773A3.993,3.993,0,0,1,50.977.176Zm-.2-8.525a2.169,2.169,0,0,0-1.652.716A3.482,3.482,0,0,0,48.3-5.625H53.06v-.123a3.1,3.1,0,0,0-.668-1.92A2.042,2.042,0,0,0,50.774-8.35ZM62.789,0H61.163V-9.51h1.626ZM61.031-12.032a.971.971,0,0,1,.242-.668.907.907,0,0,1,.716-.272.922.922,0,0,1,.721.272.96.96,0,0,1,.246.668.929.929,0,0,1-.246.659.938.938,0,0,1-.721.264.924.924,0,0,1-.716-.264A.938.938,0,0,1,61.031-12.032Zm5.9,2.522.053,1.2a3.465,3.465,0,0,1,2.848-1.371q3.015,0,3.041,3.4V0H71.244V-6.293a2.189,2.189,0,0,0-.47-1.521,1.884,1.884,0,0,0-1.437-.492,2.347,2.347,0,0,0-1.389.422,2.865,2.865,0,0,0-.932,1.107V0H65.391V-9.51Zm10.6-2.3v2.3H79.3v1.257H77.528v5.9a1.32,1.32,0,0,0,.237.858,1,1,0,0,0,.809.286,3.937,3.937,0,0,0,.773-.105V0A4.742,4.742,0,0,1,78.1.176a2.025,2.025,0,0,1-1.644-.659A2.832,2.832,0,0,1,75.9-2.355v-5.9H74.171V-9.51H75.9v-2.3ZM85.148.176A4.155,4.155,0,0,1,82-1.094a4.714,4.714,0,0,1-1.213-3.4v-.3a5.707,5.707,0,0,1,.541-2.527,4.217,4.217,0,0,1,1.512-1.74,3.8,3.8,0,0,1,2.1-.628,3.562,3.562,0,0,1,2.883,1.222,5.289,5.289,0,0,1,1.028,3.5v.677H82.415a3.38,3.38,0,0,0,.822,2.272,2.583,2.583,0,0,0,2,.866A2.832,2.832,0,0,0,86.7-1.5a3.666,3.666,0,0,0,1.046-.932l.993.773A3.993,3.993,0,0,1,85.148.176Zm-.2-8.525a2.169,2.169,0,0,0-1.652.716,3.482,3.482,0,0,0-.826,2.008h4.764v-.123a3.1,3.1,0,0,0-.668-1.92A2.042,2.042,0,0,0,84.946-8.35Zm10.389.3a4.873,4.873,0,0,0-.8-.062A2.143,2.143,0,0,0,92.364-6.75V0H90.738V-9.51H92.32l.026,1.1a2.532,2.532,0,0,1,2.268-1.274,1.661,1.661,0,0,1,.721.123ZM98.367-9.51l.053,1.2a3.465,3.465,0,0,1,2.848-1.371q3.015,0,3.041,3.4V0h-1.626V-6.293a2.189,2.189,0,0,0-.47-1.521,1.884,1.884,0,0,0-1.437-.492,2.347,2.347,0,0,0-1.389.422,2.865,2.865,0,0,0-.932,1.107V0H96.829V-9.51Zm7.963,4.667a5.617,5.617,0,0,1,.549-2.514,4.1,4.1,0,0,1,1.529-1.723,4.163,4.163,0,0,1,2.237-.606,4.01,4.01,0,0,1,3.142,1.345,5.174,5.174,0,0,1,1.2,3.577v.114a5.666,5.666,0,0,1-.532,2.492,4.038,4.038,0,0,1-1.521,1.718,4.211,4.211,0,0,1-2.272.615,4,4,0,0,1-3.133-1.345,5.147,5.147,0,0,1-1.2-3.56Zm1.635.193a4.068,4.068,0,0,0,.734,2.54,2.349,2.349,0,0,0,1.964.958,2.335,2.335,0,0,0,1.969-.971,4.449,4.449,0,0,0,.729-2.72,4.061,4.061,0,0,0-.743-2.536,2.361,2.361,0,0,0-1.973-.971,2.335,2.335,0,0,0-1.942.958A4.416,4.416,0,0,0,107.965-4.649Z" transform="translate(582.605 316.547)"/>
          <path id="Trazado_105371" data-name="Trazado 105371" d="M6.522-5.464H3.349V0H1.559V-13.508H6.03a5.293,5.293,0,0,1,3.511,1.039,3.738,3.738,0,0,1,1.229,3.024,3.636,3.636,0,0,1-.682,2.2,4.07,4.07,0,0,1-1.9,1.4L11.365-.111V0H9.454ZM3.349-6.921H6.086A3.087,3.087,0,0,0,8.2-7.609a2.326,2.326,0,0,0,.784-1.84,2.449,2.449,0,0,0-.747-1.924,3.162,3.162,0,0,0-2.157-.678H3.349ZM17.163.186a4.386,4.386,0,0,1-3.321-1.341,4.976,4.976,0,0,1-1.28-3.586v-.315a6.024,6.024,0,0,1,.571-2.667,4.451,4.451,0,0,1,1.6-1.837,4.012,4.012,0,0,1,2.222-.663,3.759,3.759,0,0,1,3.043,1.29,5.583,5.583,0,0,1,1.085,3.692v.714h-6.8a3.568,3.568,0,0,0,.867,2.4,2.727,2.727,0,0,0,2.111.914,2.989,2.989,0,0,0,1.54-.371,3.87,3.87,0,0,0,1.1-.983l1.048.816A4.215,4.215,0,0,1,17.163.186Zm-.213-9a2.289,2.289,0,0,0-1.744.756,3.675,3.675,0,0,0-.872,2.12h5.028v-.13a3.269,3.269,0,0,0-.705-2.027A2.155,2.155,0,0,0,16.95-8.813ZM28.908-2.663a1.263,1.263,0,0,0-.524-1.081,5.045,5.045,0,0,0-1.828-.663,8.641,8.641,0,0,1-2.069-.668A2.943,2.943,0,0,1,23.356-6a2.219,2.219,0,0,1-.366-1.28A2.6,2.6,0,0,1,24.033-9.37a4.076,4.076,0,0,1,2.667-.854,4.194,4.194,0,0,1,2.769.881,2.8,2.8,0,0,1,1.062,2.254H28.806a1.549,1.549,0,0,0-.6-1.215,2.242,2.242,0,0,0-1.508-.51,2.346,2.346,0,0,0-1.466.408,1.285,1.285,0,0,0-.529,1.067A1.041,1.041,0,0,0,25.2-6.4a6.05,6.05,0,0,0,1.777.6,9.257,9.257,0,0,1,2.083.687,3.038,3.038,0,0,1,1.183.96,2.361,2.361,0,0,1,.385,1.368A2.569,2.569,0,0,1,29.548-.626a4.514,4.514,0,0,1-2.792.812,5.055,5.055,0,0,1-2.134-.427A3.47,3.47,0,0,1,23.17-1.433a2.873,2.873,0,0,1-.524-1.656h1.716a1.777,1.777,0,0,0,.691,1.368,2.681,2.681,0,0,0,1.7.506,2.768,2.768,0,0,0,1.563-.394A1.212,1.212,0,0,0,28.908-2.663ZM41.34-4.908a6.011,6.011,0,0,1-1.048,3.692,3.36,3.36,0,0,1-2.839,1.4,3.681,3.681,0,0,1-2.876-1.16V3.859H32.86v-13.9h1.568l.083,1.113a3.536,3.536,0,0,1,2.913-1.3A3.423,3.423,0,0,1,40.287-8.86,6.076,6.076,0,0,1,41.34-5.065ZM39.624-5.1A4.435,4.435,0,0,0,38.9-7.784a2.331,2.331,0,0,0-1.985-.983,2.523,2.523,0,0,0-2.338,1.382v4.8a2.528,2.528,0,0,0,2.356,1.373A2.32,2.32,0,0,0,38.9-2.194,4.841,4.841,0,0,0,39.624-5.1ZM49.717-.993A3.646,3.646,0,0,1,46.776.186a3.12,3.12,0,0,1-2.445-.932,4.036,4.036,0,0,1-.849-2.76v-6.531H45.2v6.485q0,2.282,1.855,2.282a2.569,2.569,0,0,0,2.616-1.466v-7.3h1.716V0H49.754ZM58.16.186a4.386,4.386,0,0,1-3.321-1.341,4.976,4.976,0,0,1-1.28-3.586v-.315a6.024,6.024,0,0,1,.571-2.667,4.451,4.451,0,0,1,1.6-1.837,4.012,4.012,0,0,1,2.222-.663,3.759,3.759,0,0,1,3.043,1.29,5.583,5.583,0,0,1,1.085,3.692v.714h-6.8a3.568,3.568,0,0,0,.867,2.4,2.727,2.727,0,0,0,2.111.914,2.989,2.989,0,0,0,1.54-.371,3.869,3.869,0,0,0,1.1-.983l1.048.816A4.215,4.215,0,0,1,58.16.186Zm-.213-9a2.289,2.289,0,0,0-1.744.756,3.675,3.675,0,0,0-.872,2.12h5.028v-.13a3.269,3.269,0,0,0-.705-2.027A2.155,2.155,0,0,0,57.946-8.813ZM69.9-2.663a1.263,1.263,0,0,0-.524-1.081,5.045,5.045,0,0,0-1.828-.663,8.641,8.641,0,0,1-2.069-.668A2.943,2.943,0,0,1,64.352-6a2.219,2.219,0,0,1-.366-1.28A2.6,2.6,0,0,1,65.03-9.37a4.076,4.076,0,0,1,2.667-.854,4.194,4.194,0,0,1,2.769.881,2.8,2.8,0,0,1,1.062,2.254H69.8A1.549,1.549,0,0,0,69.2-8.3a2.242,2.242,0,0,0-1.508-.51,2.347,2.347,0,0,0-1.466.408A1.285,1.285,0,0,0,65.7-7.338a1.041,1.041,0,0,0,.492.937,6.05,6.05,0,0,0,1.777.6,9.257,9.257,0,0,1,2.083.687,3.038,3.038,0,0,1,1.183.96,2.361,2.361,0,0,1,.385,1.368A2.569,2.569,0,0,1,70.545-.626a4.514,4.514,0,0,1-2.792.812,5.055,5.055,0,0,1-2.134-.427,3.47,3.47,0,0,1-1.452-1.192,2.873,2.873,0,0,1-.524-1.656h1.716a1.777,1.777,0,0,0,.691,1.368,2.681,2.681,0,0,0,1.7.506,2.768,2.768,0,0,0,1.563-.394A1.212,1.212,0,0,0,69.9-2.663Zm6.281-9.806v2.431H78.06v1.327H76.186v6.233a1.393,1.393,0,0,0,.25.906,1.054,1.054,0,0,0,.854.3,4.155,4.155,0,0,0,.816-.111V0a5.005,5.005,0,0,1-1.317.184,2.137,2.137,0,0,1-1.735-.7,2.989,2.989,0,0,1-.584-1.976V-8.711H72.642v-1.327h1.828v-2.431ZM86.261,0a3.605,3.605,0,0,1-.241-1.058A3.829,3.829,0,0,1,83.162.186a3.543,3.543,0,0,1-2.435-.84,2.716,2.716,0,0,1-.951-2.129,2.838,2.838,0,0,1,1.192-2.435,5.621,5.621,0,0,1,3.354-.867h1.67v-.789a1.928,1.928,0,0,0-.538-1.433,2.163,2.163,0,0,0-1.586-.533,2.5,2.5,0,0,0-1.54.464,1.367,1.367,0,0,0-.622,1.123H79.98a2.369,2.369,0,0,1,.533-1.452,3.641,3.641,0,0,1,1.447-1.109,4.869,4.869,0,0,1,2.009-.408,3.968,3.968,0,0,1,2.718.867,3.129,3.129,0,0,1,1.021,2.389v4.62a5.649,5.649,0,0,0,.353,2.2V0ZM83.413-1.308a3.016,3.016,0,0,0,1.531-.417,2.525,2.525,0,0,0,1.048-1.085v-2.06H84.646q-3.154,0-3.154,1.846a1.562,1.562,0,0,0,.538,1.262A2.068,2.068,0,0,0,83.413-1.308Z" transform="translate(256.605 285.547)"/>
          <path id="Trazado_105369" data-name="Trazado 105369" d="M3.3,0H1.608V-12.8H3.3ZM7.664-9.51l.053,1.2a3.465,3.465,0,0,1,2.848-1.371q3.015,0,3.041,3.4V0H11.979V-6.293a2.189,2.189,0,0,0-.47-1.521,1.884,1.884,0,0,0-1.437-.492,2.347,2.347,0,0,0-1.389.422,2.865,2.865,0,0,0-.932,1.107V0H6.126V-9.51Zm10.6-2.3v2.3h1.775v1.257H18.264v5.9a1.32,1.32,0,0,0,.237.858,1,1,0,0,0,.809.286,3.937,3.937,0,0,0,.773-.105V0a4.742,4.742,0,0,1-1.248.175,2.025,2.025,0,0,1-1.644-.659,2.832,2.832,0,0,1-.554-1.872v-5.9H14.906V-9.51h1.731v-2.3ZM25.884.176a4.155,4.155,0,0,1-3.146-1.27,4.714,4.714,0,0,1-1.213-3.4v-.3a5.707,5.707,0,0,1,.541-2.527,4.217,4.217,0,0,1,1.512-1.74,3.8,3.8,0,0,1,2.1-.628,3.562,3.562,0,0,1,2.883,1.222,5.289,5.289,0,0,1,1.028,3.5v.677H23.15a3.38,3.38,0,0,0,.822,2.272,2.583,2.583,0,0,0,2,.866A2.832,2.832,0,0,0,27.431-1.5a3.666,3.666,0,0,0,1.046-.932l.993.773A3.993,3.993,0,0,1,25.884.176Zm-.2-8.525a2.169,2.169,0,0,0-1.652.716A3.482,3.482,0,0,0,23.2-5.625h4.764v-.123a3.1,3.1,0,0,0-.668-1.92A2.042,2.042,0,0,0,25.682-8.35Zm10.389.3a4.873,4.873,0,0,0-.8-.062A2.143,2.143,0,0,0,33.1-6.75V0H31.474V-9.51h1.582l.026,1.1A2.532,2.532,0,0,1,35.35-9.686a1.661,1.661,0,0,1,.721.123Zm5.142,6.9a2.342,2.342,0,0,0,1.521-.527A1.855,1.855,0,0,0,43.453-3h1.538a2.949,2.949,0,0,1-.562,1.556A3.7,3.7,0,0,1,43.044-.264a3.994,3.994,0,0,1-1.833.439,3.918,3.918,0,0,1-3.089-1.3,5.163,5.163,0,0,1-1.147-3.546v-.272a5.725,5.725,0,0,1,.51-2.47,3.883,3.883,0,0,1,1.463-1.679,4.157,4.157,0,0,1,2.254-.6,3.814,3.814,0,0,1,2.659.958A3.424,3.424,0,0,1,44.991-6.24H43.453a2.241,2.241,0,0,0-.7-1.516A2.174,2.174,0,0,0,41.2-8.35a2.276,2.276,0,0,0-1.92.892,4.19,4.19,0,0,0-.681,2.58v.308a4.106,4.106,0,0,0,.677,2.531A2.287,2.287,0,0,0,41.212-1.151ZM52.69,0a3.416,3.416,0,0,1-.229-1A3.628,3.628,0,0,1,49.755.176a3.357,3.357,0,0,1-2.307-.8,2.573,2.573,0,0,1-.9-2.017,2.688,2.688,0,0,1,1.129-2.307,5.325,5.325,0,0,1,3.177-.822h1.582v-.747a1.826,1.826,0,0,0-.51-1.358,2.049,2.049,0,0,0-1.5-.505,2.371,2.371,0,0,0-1.459.439,1.3,1.3,0,0,0-.589,1.063H46.74a2.244,2.244,0,0,1,.505-1.375A3.449,3.449,0,0,1,48.617-9.3a4.613,4.613,0,0,1,1.9-.387,3.759,3.759,0,0,1,2.575.822A2.964,2.964,0,0,1,54.062-6.6v4.377A5.351,5.351,0,0,0,54.4-.141V0Zm-2.7-1.239a2.858,2.858,0,0,0,1.45-.4,2.392,2.392,0,0,0,.993-1.028V-4.614H51.161q-2.988,0-2.988,1.749a1.48,1.48,0,0,0,.51,1.2A1.959,1.959,0,0,0,49.992-1.239ZM58.14-9.51l.044,1.055A3.512,3.512,0,0,1,61-9.686a2.719,2.719,0,0,1,2.716,1.529,3.6,3.6,0,0,1,1.235-1.107,3.647,3.647,0,0,1,1.8-.422q3.129,0,3.182,3.313V0H68.309V-6.275A2.184,2.184,0,0,0,67.843-7.8a2.051,2.051,0,0,0-1.564-.505,2.156,2.156,0,0,0-1.5.541,2.193,2.193,0,0,0-.694,1.455V0H62.446V-6.231a1.814,1.814,0,0,0-2.03-2.074,2.175,2.175,0,0,0-2.188,1.362V0H56.6V-9.51Zm22.3,4.86a5.654,5.654,0,0,1-1,3.5A3.2,3.2,0,0,1,76.746.176,3.315,3.315,0,0,1,73.96-1.1L73.881,0H72.387V-13.5h1.626v5.036a3.3,3.3,0,0,1,2.716-1.222,3.221,3.221,0,0,1,2.72,1.31,5.824,5.824,0,0,1,.989,3.586Zm-1.626-.185A4.394,4.394,0,0,0,78.17-7.4a2.124,2.124,0,0,0-1.846-.905,2.387,2.387,0,0,0-2.312,1.494V-2.7A2.454,2.454,0,0,0,76.342-1.2a2.112,2.112,0,0,0,1.819-.905A4.672,4.672,0,0,0,78.812-4.834ZM84.252,0H82.626V-9.51h1.626ZM82.494-12.032a.971.971,0,0,1,.242-.668.907.907,0,0,1,.716-.272.922.922,0,0,1,.721.272.96.96,0,0,1,.246.668.929.929,0,0,1-.246.659.938.938,0,0,1-.721.264.924.924,0,0,1-.716-.264A.938.938,0,0,1,82.494-12.032Zm3.929,7.189a5.617,5.617,0,0,1,.549-2.514A4.1,4.1,0,0,1,88.5-9.079a4.163,4.163,0,0,1,2.237-.606A4.01,4.01,0,0,1,93.88-8.341a5.174,5.174,0,0,1,1.2,3.577v.114a5.666,5.666,0,0,1-.532,2.492A4.038,4.038,0,0,1,93.028-.439a4.211,4.211,0,0,1-2.272.615,4,4,0,0,1-3.133-1.345,5.147,5.147,0,0,1-1.2-3.56Zm1.635.193a4.068,4.068,0,0,0,.734,2.54,2.349,2.349,0,0,0,1.964.958,2.335,2.335,0,0,0,1.969-.971,4.449,4.449,0,0,0,.729-2.72,4.061,4.061,0,0,0-.743-2.536,2.361,2.361,0,0,0-1.973-.971,2.335,2.335,0,0,0-1.942.958A4.416,4.416,0,0,0,88.058-4.649Z" transform="translate(252.606 153.548)"/>
        </g>
      </g>
      <rect id="Rectángulo_5769" data-name="Rectángulo 5769" width="812" height="354" transform="translate(388 1799)" fill="none"/>
    </g>
  </g>
</svg>
