<svg xmlns="http://www.w3.org/2000/svg" width="45.73" height="61.832" viewBox="0 0 45.73 61.832">
  <g id="Grupo_56571" data-name="Grupo 56571" transform="translate(-512.828 -2361.897)">
    <rect id="Line" width="15.977" height="2.425" transform="translate(512.884 2361.897)" fill="#12263f"/>
    <g id="Grupo_56268" data-name="Grupo 56268" transform="translate(507.287 2371.253)">
      <path id="Trazado_104927" data-name="Trazado 104927" d="M28.406,6.747A22.865,22.865,0,1,0,51.271,29.612,22.891,22.891,0,0,0,28.406,6.747Zm0,44.678A21.814,21.814,0,1,1,50.22,29.612,21.838,21.838,0,0,1,28.406,51.425Z" transform="translate(0)" fill="#515f71"/>
      <g id="Grupo_56275" data-name="Grupo 56275" transform="translate(35.337 27.634)">
        <g id="Grupo_56269" data-name="Grupo 56269">
          <g id="Grupo_56268-2" data-name="Grupo 56268">
            <path id="Trazado_104928" data-name="Trazado 104928" d="M100.29,71.24l-8.71-4.8a.679.679,0,0,0-1,.675L91.746,77A.677.677,0,0,0,93,77.264l1.61-2.674,3.242,4.82a.525.525,0,0,0,.729.143l1.5-1.011a.525.525,0,0,0,.143-.729l-3.242-4.82,3.085-.483A.683.683,0,0,0,100.29,71.24Z" transform="translate(-90.574 -66.356)" fill="#515f71"/>
          </g>
        </g>
        <g id="Grupo_56274" data-name="Grupo 56274" transform="translate(1.231 0.91)">
          <g id="Grupo_56271" data-name="Grupo 56271" transform="translate(1.373 0.756)">
            <g id="Grupo_56270" data-name="Grupo 56270">
              <path id="Trazado_104929" data-name="Trazado 104929" d="M101.495,72.942l-3.282-1.815a.141.141,0,0,0-.139.246l3.282,1.815a.145.145,0,0,0,.192-.054A.137.137,0,0,0,101.495,72.942Z" transform="translate(-98.004 -71.11)" fill="#515f71"/>
            </g>
          </g>
          <g id="Grupo_56273" data-name="Grupo 56273">
            <g id="Grupo_56272" data-name="Grupo 56272">
              <path id="Trazado_104930" data-name="Trazado 104930" d="M95.123,69.426l-.827-.456a.141.141,0,0,0-.138.246l.827.456a.145.145,0,0,0,.192-.054A.139.139,0,0,0,95.123,69.426Z" transform="translate(-94.086 -68.954)" fill="#515f71"/>
            </g>
          </g>
        </g>
      </g>
      <g id="Grupo_56276" data-name="Grupo 56276" transform="translate(8.844 8.388)">
        <path id="Trazado_104933" data-name="Trazado 104933" d="M111.988,69.319v1.774h0c.009-.281.015-.562.014-.843C112,69.94,112,69.629,111.988,69.319Z" transform="translate(-77.992 -49.034)" fill="#515f71"/>
        <path id="Trazado_104950" data-name="Trazado 104950" d="M19.543,27.38c.11-.549.238-1.094.383-1.633.063-.234.131-.466.2-.7l4.895.03,3.586.007c-.068.656-.13,1.323-.182,2.019,0,.013,0,.025,0,.037h1.32c.045-.708.1-1.387.164-2.053l4.624.008h0l4.659-.009c.08.678.151,1.357.2,2.035v.02h1.3c-.06-.694-.129-1.382-.213-2.057l3.554-.007,3.831-.019c.069.227.136.454.2.683a26.347,26.347,0,0,1,.726,3.8,3.455,3.455,0,0,1,.165,1.055v1.113c.011.31.016.621.016.932,0,.281-.006.562-.014.843l1.33.733c.031-.525.05-1.051.052-1.578a27.686,27.686,0,0,0-.987-7.256c-.032-.113-.068-.225-.1-.338l4.318-.038.527-.039-.04-1.035-5.178-.045a23.385,23.385,0,0,0-2.576-5.178,19.323,19.323,0,0,0-1.226-1.631l.811-.007c.716-.008,1.433-.015,2.167-.029l.527-.039-.04-1.031-.5-.008c-.764-.013-1.527-.021-2.294-.029l-1.707-.008c-.025-.025-.048-.052-.073-.077a16.43,16.43,0,0,0-2.893-2.325,14.063,14.063,0,0,0-3.389-1.546,12.613,12.613,0,0,0-7.4,0A14.1,14.1,0,0,0,26.9,13.527,16.5,16.5,0,0,0,24,15.849c-.027.027-.053.056-.08.084l-.763.006c-.712.007-1.425.014-2.166.027l-.493.053-.016.5.055.532.484.008c.621.01,1.242.016,1.863.022a19.318,19.318,0,0,0-1.227,1.63,23.4,23.4,0,0,0-2.588,5.2l-3.593.023-.509.054v.49l.056.545,3.679.023c-.034.114-.071.227-.1.342a26.352,26.352,0,0,0-.7,3.326A3.467,3.467,0,0,1,19.543,27.38Zm14.989-3.53-4.5.008c.084-.734.177-1.453.286-2.154.15-.965.316-1.849.509-2.7.139-.63.312-1.254.5-1.871l3.205.006,2.973-.008c.211.61.407,1.227.57,1.85.224.848.42,1.724.6,2.678.135.729.251,1.466.355,2.205Zm10.724-4.44a22.222,22.222,0,0,1,2.227,4.476l-3.44-.017-3.717-.008q-.182-1.239-.417-2.445c-.2-.982-.409-1.885-.65-2.759-.141-.514-.3-1.027-.472-1.535l2.5-.007,2.164-.018A18.078,18.078,0,0,1,45.256,19.41ZM37.345,13.1a12.767,12.767,0,0,1,3.1,1.43,15.017,15.017,0,0,1,1.823,1.389l-3.924-.02a13.138,13.138,0,0,0-1.325-2.545c-.1-.15-.213-.293-.328-.433C36.907,12.981,37.127,13.037,37.345,13.1Zm-3.9-.067a1.728,1.728,0,0,1,.444-.273,1.079,1.079,0,0,1,.418-.084v-.074h.016l0,.073a1.191,1.191,0,0,1,.458.111,2.089,2.089,0,0,1,.455.29,4.509,4.509,0,0,1,.812.924,11.983,11.983,0,0,1,1,1.893l-2.519-.012-2.8.005c.1-.272.206-.527.314-.77a8.868,8.868,0,0,1,.615-1.162A3.943,3.943,0,0,1,33.441,13.037Zm-5.9,1.5a12.723,12.723,0,0,1,3.1-1.434,11.368,11.368,0,0,1,1.468-.347,5.1,5.1,0,0,0-.426.58,10.04,10.04,0,0,0-.7,1.3c-.174.378-.34.79-.508,1.255h-.194c-.831,0-1.663,0-2.493.009l-2.044.015A14.988,14.988,0,0,1,27.54,14.542Zm-4.807,4.878a18.124,18.124,0,0,1,1.812-2.327l3.232.025c.763.006,1.527.007,2.291.008-.159.531-.306,1.065-.431,1.6-.208.879-.39,1.788-.555,2.778-.128.766-.238,1.551-.336,2.356l-3.726.007-4.509.029A22.186,22.186,0,0,1,22.734,19.419Z" transform="translate(-14.968 -11.43)" fill="#515f71"/>
        <path id="Trazado_104951" data-name="Trazado 104951" d="M45.249,90.548a18.206,18.206,0,0,1-1.432,1.894H39.11c.11-.371.218-.743.311-1.117.222-.874.417-1.78.6-2.773q.251-1.4.431-2.862l1.588,0-.144-1.218-1.3,0c.083-.806.147-1.633.2-2.471H39.469c-.018.286-.035.572-.056.855-.041.553-.09,1.088-.142,1.613l-4.738-.009-4.62.008c-.049-.5-.094-1-.133-1.524-.023-.313-.041-.628-.06-.943H28.381c.023.351.047.7.076,1.046.04.485.085.958.134,1.424l-3.57.007-5.008.032c-.027-.1-.057-.19-.083-.286a25.519,25.519,0,0,1-.548-2.526A3.472,3.472,0,0,1,17.765,80.2c.028.26.057.52.093.78a26.518,26.518,0,0,0,.719,3.527l-3.066.02a.548.548,0,0,0-.543.546l.056.543,3.9.025a23.428,23.428,0,0,0,2.729,5.619c.27.4.561.8.862,1.178H21.68a.6.6,0,0,0,.021,1.2h1.83c.152.164.3.329.461.488a16.528,16.528,0,0,0,2.9,2.327A14.036,14.036,0,0,0,30.285,98a12.725,12.725,0,0,0,3.7.55c.127,0,.253-.011.38-.014.076.007.152.012.23.012h.059a2.307,2.307,0,0,0,.362-.042A12.782,12.782,0,0,0,37.693,98a14.051,14.051,0,0,0,3.395-1.552,16.52,16.52,0,0,0,2.892-2.328c.155-.156.3-.319.453-.48h4.283a.6.6,0,1,0,0-1.2H45.451c.3-.386.595-.78.867-1.187a23.32,23.32,0,0,0,1.725-3.1l-.872-1.3A22.191,22.191,0,0,1,45.249,90.548ZM34.534,85.7l4.6-.009c-.11.91-.238,1.784-.385,2.636-.167.965-.349,1.846-.556,2.692-.115.476-.247.95-.39,1.422H31.373q-.2-.667-.367-1.34c-.21-.849-.395-1.729-.562-2.688-.154-.883-.285-1.787-.4-2.721ZM22.743,90.543a22.224,22.224,0,0,1-2.372-4.889l4.651.029,3.71.007c.127,1.013.274,1.993.448,2.948.181.989.378,1.9.6,2.769.087.345.184.69.286,1.034H24.176A18.084,18.084,0,0,1,22.743,90.543Zm7.9,6.3a12.782,12.782,0,0,1-3.091-1.428,14.951,14.951,0,0,1-2.241-1.774h5.144c.057.165.115.33.176.494a12.851,12.851,0,0,0,1.3,2.625,5.375,5.375,0,0,0,.345.464A11.292,11.292,0,0,1,30.64,96.841Zm4.856.114a1.94,1.94,0,0,1-.443.291,1.1,1.1,0,0,1-.242.08c-.122.009-.245.009-.367.014a1.065,1.065,0,0,1-.258-.069A1.774,1.774,0,0,1,33.747,97a4.107,4.107,0,0,1-.8-.909,11.642,11.642,0,0,1-1.156-2.385c-.008-.023-.015-.048-.023-.071h5.643a11.984,11.984,0,0,1-1.136,2.387A4.334,4.334,0,0,1,35.5,96.955Zm4.94-1.537a12.832,12.832,0,0,1-3.1,1.427c-.06.019-.12.031-.179.049.05-.071.1-.142.149-.216a13.231,13.231,0,0,0,1.275-2.624c.05-.136.092-.277.139-.415h3.961A14.957,14.957,0,0,1,40.436,95.417Z" transform="translate(-14.968 -56.105)" fill="#515f71"/>
        <path id="Trazado_104952" data-name="Trazado 104952" d="M112.5,87.025q.149-.652.266-1.31l-1.038.163Z" transform="translate(-77.825 -59.685)" fill="#515f71"/>
        <path id="Trazado_104953" data-name="Trazado 104953" d="M101.051,92.493l-.7,1.168,1.485-.007Z" transform="translate(-70.43 -64.088)" fill="#515f71"/>
        <path id="Trazado_104954" data-name="Trazado 104954" d="M119.72,93.56l-.04-1.035-3.7-.032.759,1.128,2.456-.022Z" transform="translate(-80.585 -64.088)" fill="#515f71"/>
        <path id="Trazado_104955" data-name="Trazado 104955" d="M50.761,58.58H27.312a3.285,3.285,0,0,0-3.282,3.282v2a3.291,3.291,0,0,0,3.282,3.282h20.08l-.63-5.331a1.193,1.193,0,0,1,1.759-1.185l5.521,3.041V61.862A3.282,3.282,0,0,0,50.761,58.58Z" transform="translate(-20.855 -42.058)" fill="#515f71"/>
      </g>
    </g>
  </g>
</svg>
