<svg xmlns="http://www.w3.org/2000/svg" width="500" height="587" viewBox="0 0 500 587">
  <g id="Grupo_56575" data-name="Grupo 56575" transform="translate(-910 -2803)">
    <g id="Grupo_55865" data-name="Grupo 55865">
      <rect id="Rectángulo_5703" data-name="Rectángulo 5703" width="500" height="587" transform="translate(910 2803)" fill="none"/>
      <g id="Grupo_55863" data-name="Grupo 55863" transform="translate(964.207 2815.73)">
        <circle id="Elipse_4524" data-name="Elipse 4524" cx="39.636" cy="39.636" r="39.636" transform="translate(148.698 84.643)" fill="#7b3cee"/>
        <circle id="Elipse_4525" data-name="Elipse 4525" cx="39.636" cy="39.636" r="39.636" transform="translate(148.698 188.934)" fill="#7b3cee"/>
        <circle id="Elipse_4526" data-name="Elipse 4526" cx="39.636" cy="39.636" r="39.636" transform="translate(148.698 296.699)" fill="#7b3cee"/>
        <circle id="Elipse_4527" data-name="Elipse 4527" cx="39.636" cy="39.636" r="39.636" transform="translate(148.698 402.822)" fill="#7b3cee"/>
        <path id="Trazado_105377" data-name="Trazado 105377" d="M-68-4.175V0H-69.4V-10.664h3.933a3.952,3.952,0,0,1,2.743.894A3.029,3.029,0,0,1-61.736-7.4a2.989,2.989,0,0,1-.97,2.391,4.128,4.128,0,0,1-2.78.839Zm0-1.15h2.527a2.526,2.526,0,0,0,1.729-.532,1.945,1.945,0,0,0,.6-1.537,2.009,2.009,0,0,0-.6-1.526,2.367,2.367,0,0,0-1.648-.594H-68Zm11.675-1.384a4.061,4.061,0,0,0-.667-.051A1.786,1.786,0,0,0-58.8-5.625V0h-1.355V-7.925h1.318l.022.916a2.11,2.11,0,0,1,1.89-1.062,1.384,1.384,0,0,1,.6.1Zm.74,2.673a4.681,4.681,0,0,1,.458-2.095,3.415,3.415,0,0,1,1.274-1.436,3.469,3.469,0,0,1,1.864-.505,3.342,3.342,0,0,1,2.618,1.121,4.311,4.311,0,0,1,1,2.981v.1A4.722,4.722,0,0,1-48.812-1.8,3.365,3.365,0,0,1-50.079-.366a3.509,3.509,0,0,1-1.893.513A3.334,3.334,0,0,1-54.584-.974a4.29,4.29,0,0,1-1-2.966Zm1.362.161a3.39,3.39,0,0,0,.612,2.117,1.957,1.957,0,0,0,1.637.8,1.945,1.945,0,0,0,1.641-.809,3.707,3.707,0,0,0,.608-2.267,3.384,3.384,0,0,0-.619-2.113,1.968,1.968,0,0,0-1.644-.809,1.946,1.946,0,0,0-1.619.8A3.68,3.68,0,0,0-54.221-3.875Zm10.144,1.89,1.846-5.94h1.45l-3.186,9.148Q-44.707,3.2-46.318,3.2l-.256-.022-.505-.1v-1.1l.366.029a1.8,1.8,0,0,0,1.073-.278A2.014,2.014,0,0,0-45.007.718l.3-.806-2.827-7.837h1.479ZM-36.284.146A3.463,3.463,0,0,1-38.906-.912a3.928,3.928,0,0,1-1.011-2.831v-.249a4.756,4.756,0,0,1,.45-2.106,3.514,3.514,0,0,1,1.26-1.45,3.167,3.167,0,0,1,1.754-.524,2.968,2.968,0,0,1,2.4,1.018,4.408,4.408,0,0,1,.857,2.915v.564h-5.369a2.817,2.817,0,0,0,.685,1.893,2.153,2.153,0,0,0,1.666.721A2.36,2.36,0,0,0-35-1.252a3.055,3.055,0,0,0,.872-.776l.828.645A3.328,3.328,0,0,1-36.284.146Zm-.168-7.1a1.807,1.807,0,0,0-1.377.6,2.9,2.9,0,0,0-.688,1.674h3.97v-.1a2.581,2.581,0,0,0-.557-1.6A1.7,1.7,0,0,0-36.453-6.958Zm8.005,6A1.952,1.952,0,0,0-27.18-1.4a1.546,1.546,0,0,0,.6-1.1H-25.3a2.457,2.457,0,0,1-.469,1.3A3.087,3.087,0,0,1-26.92-.22a3.329,3.329,0,0,1-1.527.366,3.265,3.265,0,0,1-2.574-1.08,4.3,4.3,0,0,1-.956-2.955v-.227a4.771,4.771,0,0,1,.425-2.058,3.236,3.236,0,0,1,1.219-1.4,3.464,3.464,0,0,1,1.879-.5,3.178,3.178,0,0,1,2.216.8A2.853,2.853,0,0,1-25.3-5.2H-26.58a1.867,1.867,0,0,0-.582-1.263,1.811,1.811,0,0,0-1.293-.494,1.9,1.9,0,0,0-1.6.743,3.491,3.491,0,0,0-.568,2.15v.256A3.422,3.422,0,0,0-30.059-1.7,1.906,1.906,0,0,0-28.447-.959Zm7.852,0A1.952,1.952,0,0,0-19.329-1.4a1.546,1.546,0,0,0,.6-1.1h1.282a2.457,2.457,0,0,1-.469,1.3,3.087,3.087,0,0,1-1.154.981A3.329,3.329,0,0,1-20.6.146,3.265,3.265,0,0,1-23.17-.934a4.3,4.3,0,0,1-.956-2.955v-.227A4.771,4.771,0,0,1-23.7-6.174a3.236,3.236,0,0,1,1.219-1.4,3.464,3.464,0,0,1,1.879-.5,3.178,3.178,0,0,1,2.216.8A2.853,2.853,0,0,1-17.446-5.2h-1.282a1.867,1.867,0,0,0-.582-1.263A1.811,1.811,0,0,0-20.6-6.958a1.9,1.9,0,0,0-1.6.743,3.491,3.491,0,0,0-.568,2.15v.256A3.422,3.422,0,0,0-22.207-1.7,1.906,1.906,0,0,0-20.6-.959ZM-14.451,0h-1.355V-7.925h1.355Zm-1.465-10.027a.809.809,0,0,1,.2-.557.756.756,0,0,1,.6-.227.768.768,0,0,1,.6.227.8.8,0,0,1,.205.557.774.774,0,0,1-.205.549.782.782,0,0,1-.6.22.77.77,0,0,1-.6-.22A.782.782,0,0,1-15.916-10.027Zm3.274,5.991a4.681,4.681,0,0,1,.458-2.095,3.415,3.415,0,0,1,1.274-1.436,3.469,3.469,0,0,1,1.864-.505A3.342,3.342,0,0,1-6.427-6.951a4.311,4.311,0,0,1,1,2.981v.1A4.722,4.722,0,0,1-5.87-1.8,3.365,3.365,0,0,1-7.137-.366,3.509,3.509,0,0,1-9.031.146,3.334,3.334,0,0,1-11.642-.974a4.29,4.29,0,0,1-1-2.966Zm1.362.161a3.39,3.39,0,0,0,.612,2.117,1.957,1.957,0,0,0,1.637.8A1.945,1.945,0,0,0-7.39-1.769a3.707,3.707,0,0,0,.608-2.267A3.384,3.384,0,0,0-7.4-6.149a1.968,1.968,0,0,0-1.644-.809,1.946,1.946,0,0,0-1.619.8A3.68,3.68,0,0,0-11.279-3.875ZM-8.43-11.25H-6.79L-8.752-9.1l-1.091,0Zm5.984,3.325.044,1A2.888,2.888,0,0,1-.029-8.071q2.512,0,2.534,2.834V0H1.15V-5.244A1.824,1.824,0,0,0,.758-6.511a1.57,1.57,0,0,0-1.2-.41A1.956,1.956,0,0,0-1.6-6.57a2.387,2.387,0,0,0-.776.923V0H-3.728V-7.925Zm10.378,3.9A4.642,4.642,0,0,1,8.8-6.962a2.733,2.733,0,0,1,2.263-1.11,2.748,2.748,0,0,1,2.2.952V-11.25h1.355V0H13.374l-.066-.85a2.759,2.759,0,0,1-2.263,1A2.707,2.707,0,0,1,8.8-.981a4.7,4.7,0,0,1-.868-2.944Zm1.355.154a3.515,3.515,0,0,0,.557,2.109A1.8,1.8,0,0,0,11.382-1a1.977,1.977,0,0,0,1.882-1.157V-5.8A1.992,1.992,0,0,0,11.4-6.921a1.808,1.808,0,0,0-1.553.769A3.87,3.87,0,0,0,9.287-3.875ZM20.01.146A3.463,3.463,0,0,1,17.388-.912a3.928,3.928,0,0,1-1.011-2.831v-.249a4.756,4.756,0,0,1,.45-2.106,3.514,3.514,0,0,1,1.26-1.45,3.167,3.167,0,0,1,1.754-.524,2.968,2.968,0,0,1,2.4,1.018A4.408,4.408,0,0,1,23.1-4.138v.564H17.732a2.817,2.817,0,0,0,.685,1.893,2.153,2.153,0,0,0,1.666.721A2.36,2.36,0,0,0,21.3-1.252a3.055,3.055,0,0,0,.872-.776L23-1.384A3.328,3.328,0,0,1,20.01.146Zm-.168-7.1a1.807,1.807,0,0,0-1.377.6,2.9,2.9,0,0,0-.688,1.674h3.97v-.1a2.581,2.581,0,0,0-.557-1.6A1.7,1.7,0,0,0,19.841-6.958ZM29.854,0H28.5V-7.925h1.355ZM28.389-10.027a.809.809,0,0,1,.2-.557.756.756,0,0,1,.6-.227.768.768,0,0,1,.6.227.8.8,0,0,1,.205.557.774.774,0,0,1-.205.549.782.782,0,0,1-.6.22.77.77,0,0,1-.6-.22A.782.782,0,0,1,28.389-10.027Zm3.3,6a4.642,4.642,0,0,1,.864-2.933,2.733,2.733,0,0,1,2.263-1.11,2.748,2.748,0,0,1,2.2.952V-11.25h1.355V0H37.134l-.066-.85a2.759,2.759,0,0,1-2.263,1A2.707,2.707,0,0,1,32.56-.981a4.7,4.7,0,0,1-.868-2.944Zm1.355.154A3.515,3.515,0,0,0,33.6-1.765,1.8,1.8,0,0,0,35.142-1a1.977,1.977,0,0,0,1.882-1.157V-5.8a1.992,1.992,0,0,0-1.868-1.121,1.808,1.808,0,0,0-1.553.769A3.87,3.87,0,0,0,33.047-3.875ZM43.77.146A3.463,3.463,0,0,1,41.147-.912a3.928,3.928,0,0,1-1.011-2.831v-.249a4.756,4.756,0,0,1,.45-2.106,3.514,3.514,0,0,1,1.26-1.45A3.167,3.167,0,0,1,43.6-8.071,2.968,2.968,0,0,1,46-7.053a4.408,4.408,0,0,1,.857,2.915v.564H41.492a2.817,2.817,0,0,0,.685,1.893,2.153,2.153,0,0,0,1.666.721,2.36,2.36,0,0,0,1.216-.293,3.055,3.055,0,0,0,.872-.776l.828.645A3.328,3.328,0,0,1,43.77.146Zm-.168-7.1a1.807,1.807,0,0,0-1.377.6,2.9,2.9,0,0,0-.688,1.674h3.97v-.1a2.581,2.581,0,0,0-.557-1.6A1.7,1.7,0,0,0,43.6-6.958ZM53.32,0a2.846,2.846,0,0,1-.19-.835,3.023,3.023,0,0,1-2.256.981,2.8,2.8,0,0,1-1.923-.663A2.145,2.145,0,0,1,48.2-2.2a2.24,2.24,0,0,1,.941-1.923A4.437,4.437,0,0,1,51.79-4.8h1.318v-.623a1.522,1.522,0,0,0-.425-1.132,1.707,1.707,0,0,0-1.252-.421,1.976,1.976,0,0,0-1.216.366,1.079,1.079,0,0,0-.491.886H48.362a1.87,1.87,0,0,1,.421-1.146,2.874,2.874,0,0,1,1.143-.875,3.844,3.844,0,0,1,1.586-.322,3.133,3.133,0,0,1,2.146.685A2.47,2.47,0,0,1,54.463-5.5v3.647a4.459,4.459,0,0,0,.278,1.736V0ZM51.072-1.033a2.381,2.381,0,0,0,1.208-.33,1.994,1.994,0,0,0,.828-.857V-3.845H52.046q-2.49,0-2.49,1.458a1.234,1.234,0,0,0,.425,1A1.633,1.633,0,0,0,51.072-1.033ZM61.2-2.1a1,1,0,0,0-.414-.853,3.983,3.983,0,0,0-1.443-.524,6.822,6.822,0,0,1-1.633-.527,2.324,2.324,0,0,1-.894-.732,1.752,1.752,0,0,1-.289-1.011A2.056,2.056,0,0,1,57.352-7.4a3.218,3.218,0,0,1,2.106-.674,3.311,3.311,0,0,1,2.186.7,2.21,2.21,0,0,1,.839,1.78H61.121a1.223,1.223,0,0,0-.472-.959,1.77,1.77,0,0,0-1.19-.4,1.852,1.852,0,0,0-1.157.322,1.014,1.014,0,0,0-.417.842.822.822,0,0,0,.388.74,4.776,4.776,0,0,0,1.4.476,7.308,7.308,0,0,1,1.644.542,2.4,2.4,0,0,1,.934.758,1.864,1.864,0,0,1,.3,1.08,2.028,2.028,0,0,1-.85,1.7,3.564,3.564,0,0,1-2.2.641A3.991,3.991,0,0,1,57.817-.19a2.74,2.74,0,0,1-1.146-.941,2.268,2.268,0,0,1-.414-1.307h1.355a1.4,1.4,0,0,0,.546,1.08,2.117,2.117,0,0,0,1.344.4,2.185,2.185,0,0,0,1.234-.311A.956.956,0,0,0,61.2-2.1ZM64.277-.71a.849.849,0,0,1,.209-.586.8.8,0,0,1,.626-.234.819.819,0,0,1,.634.234.831.831,0,0,1,.216.586.786.786,0,0,1-.216.564.834.834,0,0,1-.634.227.809.809,0,0,1-.626-.227A.8.8,0,0,1,64.277-.71Zm.007-6.467a.849.849,0,0,1,.209-.586A.8.8,0,0,1,65.12-8a.819.819,0,0,1,.634.234.831.831,0,0,1,.216.586.786.786,0,0,1-.216.564.834.834,0,0,1-.634.227.809.809,0,0,1-.626-.227A.8.8,0,0,1,64.285-7.178ZM-59.509,10.012a6.6,6.6,0,0,1-.527,2.736,3.994,3.994,0,0,1-1.494,1.783,4.111,4.111,0,0,1-2.256.615,4.076,4.076,0,0,1-2.234-.619,4.09,4.09,0,0,1-1.512-1.765,6.33,6.33,0,0,1-.553-2.655V9.338a6.518,6.518,0,0,1,.535-2.717,4.075,4.075,0,0,1,1.512-1.805A4.058,4.058,0,0,1-63.8,4.189a4.134,4.134,0,0,1,2.26.619A3.987,3.987,0,0,1-60.037,6.6a6.629,6.629,0,0,1,.527,2.736Zm-1.4-.688a4.781,4.781,0,0,0-.762-2.911A2.512,2.512,0,0,0-63.8,5.4a2.485,2.485,0,0,0-2.1,1.014,4.683,4.683,0,0,0-.787,2.816v.784a4.788,4.788,0,0,0,.773,2.889,2.5,2.5,0,0,0,2.128,1.051,2.486,2.486,0,0,0,2.109-.992,4.761,4.761,0,0,0,.769-2.845Zm10,1.8a4.712,4.712,0,0,1-.835,2.919,2.668,2.668,0,0,1-2.241,1.1A2.763,2.763,0,0,1-56.3,14.084l-.066.916h-1.245V3.75h1.355v4.2a2.747,2.747,0,0,1,2.263-1.018A2.684,2.684,0,0,1-51.727,8.02a4.853,4.853,0,0,1,.824,2.988Zm-1.355-.154a3.662,3.662,0,0,0-.535-2.139,1.77,1.77,0,0,0-1.538-.754,1.989,1.989,0,0,0-1.926,1.245v3.428A2.045,2.045,0,0,0-54.316,14a1.76,1.76,0,0,0,1.516-.754A3.894,3.894,0,0,0-52.258,10.972Zm4.46-3.9v8.84q0,2.285-2.073,2.285a2.528,2.528,0,0,1-.828-.131V16.992a2.62,2.62,0,0,0,.615.059.921.921,0,0,0,.692-.246,1.214,1.214,0,0,0,.238-.854V7.075Zm-1.494-2.1a.812.812,0,0,1,.2-.553.741.741,0,0,1,.59-.231.768.768,0,0,1,.6.227.8.8,0,0,1,.205.557.774.774,0,0,1-.205.549.782.782,0,0,1-.6.22.758.758,0,0,1-.593-.22A.791.791,0,0,1-49.292,4.973Zm6.965,10.173a3.463,3.463,0,0,1-2.622-1.058,3.928,3.928,0,0,1-1.011-2.831v-.249a4.756,4.756,0,0,1,.45-2.106,3.514,3.514,0,0,1,1.26-1.45A3.167,3.167,0,0,1-42.5,6.929a2.968,2.968,0,0,1,2.4,1.018,4.408,4.408,0,0,1,.857,2.915v.564H-44.6a2.817,2.817,0,0,0,.685,1.893,2.153,2.153,0,0,0,1.666.721,2.36,2.36,0,0,0,1.216-.293,3.055,3.055,0,0,0,.872-.776l.828.645A3.328,3.328,0,0,1-42.327,15.146Zm-.168-7.1a1.807,1.807,0,0,0-1.377.6,2.9,2.9,0,0,0-.688,1.674h3.97v-.1a2.581,2.581,0,0,0-.557-1.6A1.7,1.7,0,0,0-42.5,8.042Zm6.665-2.886V7.075h1.479V8.123H-35.83v4.921a1.1,1.1,0,0,0,.2.715.832.832,0,0,0,.674.238,3.281,3.281,0,0,0,.645-.088V15a3.951,3.951,0,0,1-1.04.146,1.687,1.687,0,0,1-1.37-.549,2.36,2.36,0,0,1-.461-1.56V8.123h-1.443V7.075h1.443V5.156ZM-31.3,15h-1.355V7.075H-31.3ZM-32.761,4.973a.809.809,0,0,1,.2-.557.756.756,0,0,1,.6-.227.768.768,0,0,1,.6.227.8.8,0,0,1,.205.557.774.774,0,0,1-.205.549.782.782,0,0,1-.6.22.77.77,0,0,1-.6-.22A.782.782,0,0,1-32.761,4.973Zm6.248,8.188,1.963-6.086h1.384L-26.008,15h-1.033l-2.871-7.925h1.384Zm4.182-2.2a4.681,4.681,0,0,1,.458-2.095A3.415,3.415,0,0,1-20.6,7.434a3.469,3.469,0,0,1,1.864-.505,3.342,3.342,0,0,1,2.618,1.121,4.311,4.311,0,0,1,1,2.981v.1A4.722,4.722,0,0,1-15.56,13.2a3.365,3.365,0,0,1-1.267,1.432,3.509,3.509,0,0,1-1.893.513,3.334,3.334,0,0,1-2.611-1.121,4.29,4.29,0,0,1-1-2.966Zm1.362.161a3.39,3.39,0,0,0,.612,2.117,1.957,1.957,0,0,0,1.637.8,1.945,1.945,0,0,0,1.641-.809,3.707,3.707,0,0,0,.608-2.267,3.384,3.384,0,0,0-.619-2.113,1.968,1.968,0,0,0-1.644-.809,1.946,1.946,0,0,0-1.619.8A3.68,3.68,0,0,0-20.969,11.125ZM-8.8,12.9a1,1,0,0,0-.414-.853,3.983,3.983,0,0,0-1.443-.524,6.822,6.822,0,0,1-1.633-.527,2.324,2.324,0,0,1-.894-.732,1.752,1.752,0,0,1-.289-1.011A2.056,2.056,0,0,1-12.653,7.6a3.218,3.218,0,0,1,2.106-.674,3.311,3.311,0,0,1,2.186.7A2.21,2.21,0,0,1-7.522,9.4H-8.884a1.223,1.223,0,0,0-.472-.959,1.77,1.77,0,0,0-1.19-.4,1.852,1.852,0,0,0-1.157.322,1.014,1.014,0,0,0-.417.842.822.822,0,0,0,.388.74,4.776,4.776,0,0,0,1.4.476,7.308,7.308,0,0,1,1.644.542,2.4,2.4,0,0,1,.934.758,1.864,1.864,0,0,1,.3,1.08,2.028,2.028,0,0,1-.85,1.7,3.564,3.564,0,0,1-2.2.641,3.991,3.991,0,0,1-1.685-.337,2.74,2.74,0,0,1-1.146-.941,2.268,2.268,0,0,1-.414-1.307h1.355a1.4,1.4,0,0,0,.546,1.08,2.117,2.117,0,0,0,1.344.4,2.185,2.185,0,0,0,1.234-.311A.956.956,0,0,0-8.8,12.9Zm9.426.117,1.846-5.94h1.45L.732,16.223Q-.007,18.2-1.619,18.2l-.256-.022-.505-.1v-1.1l.366.029a1.8,1.8,0,0,0,1.073-.278,2.014,2.014,0,0,0,.634-1.018l.3-.806L-2.834,7.075h1.479Zm14.912-1.89a4.745,4.745,0,0,1-.828,2.915,2.653,2.653,0,0,1-2.241,1.106,2.906,2.906,0,0,1-2.271-.916v3.816H8.84V7.075h1.238l.066.879a2.791,2.791,0,0,1,2.3-1.025A2.7,2.7,0,0,1,14.7,8.005a4.8,4.8,0,0,1,.831,3Zm-1.355-.154a3.5,3.5,0,0,0-.571-2.117,1.84,1.84,0,0,0-1.567-.776A1.992,1.992,0,0,0,10.2,9.17v3.787a2,2,0,0,0,1.86,1.084,1.832,1.832,0,0,0,1.549-.773A3.822,3.822,0,0,0,14.18,10.972Zm6.907-2.681a4.06,4.06,0,0,0-.667-.051,1.786,1.786,0,0,0-1.809,1.135V15H17.256V7.075h1.318l.022.916a2.11,2.11,0,0,1,1.89-1.062,1.384,1.384,0,0,1,.6.1Zm4.534,6.855A3.463,3.463,0,0,1,23,14.088a3.928,3.928,0,0,1-1.011-2.831v-.249a4.756,4.756,0,0,1,.45-2.106,3.514,3.514,0,0,1,1.26-1.45,3.167,3.167,0,0,1,1.754-.524,2.968,2.968,0,0,1,2.4,1.018,4.408,4.408,0,0,1,.857,2.915v.564H23.342a2.817,2.817,0,0,0,.685,1.893,2.153,2.153,0,0,0,1.666.721,2.36,2.36,0,0,0,1.216-.293,3.055,3.055,0,0,0,.872-.776l.828.645A3.328,3.328,0,0,1,25.62,15.146Zm-.168-7.1a1.807,1.807,0,0,0-1.377.6,2.9,2.9,0,0,0-.688,1.674h3.97v-.1a2.581,2.581,0,0,0-.557-1.6A1.7,1.7,0,0,0,25.452,8.042Zm8.005,6a1.952,1.952,0,0,0,1.267-.439,1.546,1.546,0,0,0,.6-1.1h1.282a2.457,2.457,0,0,1-.469,1.3,3.087,3.087,0,0,1-1.154.981,3.329,3.329,0,0,1-1.527.366,3.265,3.265,0,0,1-2.574-1.08,4.3,4.3,0,0,1-.956-2.955v-.227a4.771,4.771,0,0,1,.425-2.058,3.236,3.236,0,0,1,1.219-1.4,3.464,3.464,0,0,1,1.879-.5,3.178,3.178,0,0,1,2.216.8A2.853,2.853,0,0,1,36.606,9.8H35.325a1.867,1.867,0,0,0-.582-1.263,1.811,1.811,0,0,0-1.293-.494,1.9,1.9,0,0,0-1.6.743,3.491,3.491,0,0,0-.568,2.15v.256a3.422,3.422,0,0,0,.564,2.109A1.906,1.906,0,0,0,33.457,14.041ZM39.6,15H38.247V7.075H39.6ZM38.137,4.973a.809.809,0,0,1,.2-.557.756.756,0,0,1,.6-.227.768.768,0,0,1,.6.227.8.8,0,0,1,.205.557.774.774,0,0,1-.205.549.782.782,0,0,1-.6.22.77.77,0,0,1-.6-.22A.782.782,0,0,1,38.137,4.973ZM46.384,12.9a1,1,0,0,0-.414-.853,3.983,3.983,0,0,0-1.443-.524,6.822,6.822,0,0,1-1.633-.527A2.324,2.324,0,0,1,42,10.261a1.752,1.752,0,0,1-.289-1.011A2.056,2.056,0,0,1,42.535,7.6a3.218,3.218,0,0,1,2.106-.674,3.311,3.311,0,0,1,2.186.7,2.21,2.21,0,0,1,.839,1.78H46.3a1.223,1.223,0,0,0-.472-.959,1.77,1.77,0,0,0-1.19-.4,1.852,1.852,0,0,0-1.157.322,1.014,1.014,0,0,0-.417.842.822.822,0,0,0,.388.74,4.776,4.776,0,0,0,1.4.476,7.308,7.308,0,0,1,1.644.542,2.4,2.4,0,0,1,.934.758,1.864,1.864,0,0,1,.3,1.08,2.028,2.028,0,0,1-.85,1.7,3.564,3.564,0,0,1-2.2.641A3.991,3.991,0,0,1,43,14.81a2.74,2.74,0,0,1-1.146-.941,2.268,2.268,0,0,1-.414-1.307H42.8a1.4,1.4,0,0,0,.546,1.08,2.117,2.117,0,0,0,1.344.4,2.185,2.185,0,0,0,1.234-.311A.956.956,0,0,0,46.384,12.9ZM50.977,15H49.622V7.075h1.355ZM49.512,4.973a.809.809,0,0,1,.2-.557.756.756,0,0,1,.6-.227.768.768,0,0,1,.6.227.8.8,0,0,1,.205.557.774.774,0,0,1-.205.549.782.782,0,0,1-.6.22.77.77,0,0,1-.6-.22A.782.782,0,0,1,49.512,4.973Zm3.274,5.991a4.681,4.681,0,0,1,.458-2.095,3.415,3.415,0,0,1,1.274-1.436,3.469,3.469,0,0,1,1.864-.505A3.342,3.342,0,0,1,59,8.049a4.311,4.311,0,0,1,1,2.981v.1a4.722,4.722,0,0,1-.443,2.076,3.365,3.365,0,0,1-1.267,1.432,3.509,3.509,0,0,1-1.893.513,3.334,3.334,0,0,1-2.611-1.121,4.29,4.29,0,0,1-1-2.966Zm1.362.161a3.39,3.39,0,0,0,.612,2.117,2.072,2.072,0,0,0,3.278-.011,3.707,3.707,0,0,0,.608-2.267,3.384,3.384,0,0,0-.619-2.113,1.968,1.968,0,0,0-1.644-.809,1.946,1.946,0,0,0-1.619.8A3.68,3.68,0,0,0,54.148,11.125ZM57,3.75h1.641L56.675,5.9l-1.091,0Zm5.984,3.325.044,1A2.888,2.888,0,0,1,65.4,6.929q2.512,0,2.534,2.834V15H66.577V9.756a1.824,1.824,0,0,0-.392-1.267,1.57,1.57,0,0,0-1.2-.41,1.956,1.956,0,0,0-1.157.352,2.387,2.387,0,0,0-.776.923V15H61.7V7.075Z" transform="translate(180.793 12.27)"/>
        <path id="Trazado_105379" data-name="Trazado 105379" d="M-54.595-9.514h-3.428V0h-1.4V-9.514h-3.42v-1.15h8.247Zm4.651,2.805a4.061,4.061,0,0,0-.667-.051,1.786,1.786,0,0,0-1.809,1.135V0h-1.355V-7.925h1.318l.022.916a2.11,2.11,0,0,1,1.89-1.062,1.384,1.384,0,0,1,.6.1ZM-44.1,0a2.846,2.846,0,0,1-.19-.835,3.023,3.023,0,0,1-2.256.981,2.8,2.8,0,0,1-1.923-.663A2.145,2.145,0,0,1-49.219-2.2a2.24,2.24,0,0,1,.941-1.923A4.437,4.437,0,0,1-45.63-4.8h1.318v-.623a1.522,1.522,0,0,0-.425-1.132,1.707,1.707,0,0,0-1.252-.421,1.976,1.976,0,0,0-1.216.366,1.079,1.079,0,0,0-.491.886h-1.362a1.87,1.87,0,0,1,.421-1.146,2.874,2.874,0,0,1,1.143-.875,3.844,3.844,0,0,1,1.586-.322,3.133,3.133,0,0,1,2.146.685A2.47,2.47,0,0,1-42.957-5.5v3.647a4.459,4.459,0,0,0,.278,1.736V0Zm-2.249-1.033a2.381,2.381,0,0,0,1.208-.33,1.994,1.994,0,0,0,.828-.857V-3.845h-1.062q-2.49,0-2.49,1.458a1.234,1.234,0,0,0,.425,1A1.633,1.633,0,0,0-46.348-1.033Zm12.224-2.842a4.712,4.712,0,0,1-.835,2.919A2.668,2.668,0,0,1-37.2.146,2.763,2.763,0,0,1-39.521-.916L-39.587,0h-1.245V-11.25h1.355v4.2a2.747,2.747,0,0,1,2.263-1.018A2.684,2.684,0,0,1-34.948-6.98a4.853,4.853,0,0,1,.824,2.988Zm-1.355-.154a3.662,3.662,0,0,0-.535-2.139,1.77,1.77,0,0,0-1.538-.754,1.989,1.989,0,0,0-1.926,1.245v3.428A2.045,2.045,0,0,0-37.537-1a1.76,1.76,0,0,0,1.516-.754A3.894,3.894,0,0,0-35.479-4.028ZM-27.524,0a2.846,2.846,0,0,1-.19-.835,3.023,3.023,0,0,1-2.256.981,2.8,2.8,0,0,1-1.923-.663A2.145,2.145,0,0,1-32.644-2.2,2.24,2.24,0,0,1-31.7-4.12,4.437,4.437,0,0,1-29.055-4.8h1.318v-.623a1.522,1.522,0,0,0-.425-1.132,1.707,1.707,0,0,0-1.252-.421,1.976,1.976,0,0,0-1.216.366,1.079,1.079,0,0,0-.491.886h-1.362a1.87,1.87,0,0,1,.421-1.146,2.874,2.874,0,0,1,1.143-.875,3.844,3.844,0,0,1,1.586-.322,3.133,3.133,0,0,1,2.146.685A2.47,2.47,0,0,1-26.382-5.5v3.647A4.459,4.459,0,0,0-26.1-.117V0Zm-2.249-1.033a2.381,2.381,0,0,0,1.208-.33,1.994,1.994,0,0,0,.828-.857V-3.845H-28.8q-2.49,0-2.49,1.458a1.234,1.234,0,0,0,.425,1A1.633,1.633,0,0,0-29.773-1.033Zm6.914-6.892V.916q0,2.285-2.073,2.285a2.528,2.528,0,0,1-.828-.131V1.992a2.62,2.62,0,0,0,.615.059.921.921,0,0,0,.692-.246,1.214,1.214,0,0,0,.238-.854V-7.925Zm-1.494-2.1a.812.812,0,0,1,.2-.553.741.741,0,0,1,.59-.231.768.768,0,0,1,.6.227.8.8,0,0,1,.205.557.774.774,0,0,1-.205.549.782.782,0,0,1-.6.22.758.758,0,0,1-.593-.22A.791.791,0,0,1-24.353-10.027Zm3.318,5.991a4.681,4.681,0,0,1,.458-2.095A3.415,3.415,0,0,1-19.3-7.566a3.469,3.469,0,0,1,1.864-.505,3.342,3.342,0,0,1,2.618,1.121,4.311,4.311,0,0,1,1,2.981v.1A4.722,4.722,0,0,1-14.264-1.8,3.365,3.365,0,0,1-15.531-.366a3.509,3.509,0,0,1-1.893.513A3.334,3.334,0,0,1-20.035-.974a4.29,4.29,0,0,1-1-2.966Zm1.362.161a3.39,3.39,0,0,0,.612,2.117,1.957,1.957,0,0,0,1.637.8,1.945,1.945,0,0,0,1.641-.809,3.707,3.707,0,0,0,.608-2.267,3.384,3.384,0,0,0-.619-2.113,1.968,1.968,0,0,0-1.644-.809,1.946,1.946,0,0,0-1.619.8A3.68,3.68,0,0,0-19.673-3.875ZM-5.12.146A3.463,3.463,0,0,1-7.742-.912,3.928,3.928,0,0,1-8.752-3.743v-.249A4.756,4.756,0,0,1-8.3-6.1a3.514,3.514,0,0,1,1.26-1.45,3.167,3.167,0,0,1,1.754-.524,2.968,2.968,0,0,1,2.4,1.018,4.408,4.408,0,0,1,.857,2.915v.564H-7.4a2.817,2.817,0,0,0,.685,1.893,2.153,2.153,0,0,0,1.666.721,2.36,2.36,0,0,0,1.216-.293,3.055,3.055,0,0,0,.872-.776l.828.645A3.328,3.328,0,0,1-5.12.146Zm-.168-7.1a1.807,1.807,0,0,0-1.377.6,2.9,2.9,0,0,0-.688,1.674h3.97v-.1a2.581,2.581,0,0,0-.557-1.6A1.7,1.7,0,0,0-5.288-6.958ZM.82-7.925l.044,1A2.888,2.888,0,0,1,3.237-8.071q2.512,0,2.534,2.834V0H4.417V-5.244a1.824,1.824,0,0,0-.392-1.267,1.57,1.57,0,0,0-1.2-.41A1.956,1.956,0,0,0,1.67-6.57a2.387,2.387,0,0,0-.776.923V0H-.461V-7.925Zm14,8.071A3.463,3.463,0,0,1,12.195-.912a3.928,3.928,0,0,1-1.011-2.831v-.249a4.756,4.756,0,0,1,.45-2.106,3.514,3.514,0,0,1,1.26-1.45,3.167,3.167,0,0,1,1.754-.524,2.968,2.968,0,0,1,2.4,1.018,4.408,4.408,0,0,1,.857,2.915v.564H12.539a2.817,2.817,0,0,0,.685,1.893,2.153,2.153,0,0,0,1.666.721,2.36,2.36,0,0,0,1.216-.293,3.055,3.055,0,0,0,.872-.776l.828.645A3.328,3.328,0,0,1,14.817.146Zm-.168-7.1a1.807,1.807,0,0,0-1.377.6,2.9,2.9,0,0,0-.688,1.674h3.97v-.1A2.581,2.581,0,0,0,16-6.39,1.7,1.7,0,0,0,14.648-6.958Zm4.5,2.93A4.651,4.651,0,0,1,20-6.984a2.777,2.777,0,0,1,2.3-1.088,2.775,2.775,0,0,1,2.219.945l.059-.8h1.245V3.047H24.47V-.732a2.844,2.844,0,0,1-2.183.879A2.733,2.733,0,0,1,20-.97a4.755,4.755,0,0,1-.853-2.963Zm1.355.154a3.526,3.526,0,0,0,.575,2.139,1.829,1.829,0,0,0,1.549.776A2.029,2.029,0,0,0,24.47-2.029V-5.911a2.035,2.035,0,0,0-1.831-1.047,1.843,1.843,0,0,0-1.56.78A3.838,3.838,0,0,0,20.5-3.875ZM32.893-.784a2.878,2.878,0,0,1-2.322.93,2.464,2.464,0,0,1-1.93-.736,3.186,3.186,0,0,1-.67-2.179V-7.925h1.355v5.12q0,1.8,1.465,1.8a2.028,2.028,0,0,0,2.065-1.157V-7.925h1.355V0H32.922ZM37.742,0H36.387V-7.925h1.355ZM36.277-10.027a.809.809,0,0,1,.2-.557.756.756,0,0,1,.6-.227.768.768,0,0,1,.6.227.8.8,0,0,1,.205.557.774.774,0,0,1-.205.549.782.782,0,0,1-.6.22.77.77,0,0,1-.6-.22A.782.782,0,0,1,36.277-10.027ZM46.6-3.875a4.745,4.745,0,0,1-.828,2.915A2.653,2.653,0,0,1,43.535.146a2.906,2.906,0,0,1-2.271-.916V3.047H39.91V-7.925h1.238l.066.879a2.791,2.791,0,0,1,2.3-1.025,2.7,2.7,0,0,1,2.26,1.077A4.8,4.8,0,0,1,46.6-4Zm-1.355-.154a3.5,3.5,0,0,0-.571-2.117,1.84,1.84,0,0,0-1.567-.776A1.992,1.992,0,0,0,41.265-5.83v3.787a2,2,0,0,0,1.86,1.084,1.832,1.832,0,0,0,1.549-.773A3.822,3.822,0,0,0,45.249-4.028Zm2.717-.007a4.681,4.681,0,0,1,.458-2.095A3.415,3.415,0,0,1,49.7-7.566a3.469,3.469,0,0,1,1.864-.505,3.342,3.342,0,0,1,2.618,1.121,4.311,4.311,0,0,1,1,2.981v.1A4.722,4.722,0,0,1,54.738-1.8,3.365,3.365,0,0,1,53.47-.366a3.509,3.509,0,0,1-1.893.513A3.334,3.334,0,0,1,48.966-.974a4.29,4.29,0,0,1-1-2.966Zm1.362.161a3.39,3.39,0,0,0,.612,2.117,1.957,1.957,0,0,0,1.637.8,1.945,1.945,0,0,0,1.641-.809,3.707,3.707,0,0,0,.608-2.267,3.384,3.384,0,0,0-.619-2.113,1.968,1.968,0,0,0-1.644-.809,1.946,1.946,0,0,0-1.619.8A3.68,3.68,0,0,0,49.329-3.875ZM56.836-.71a.849.849,0,0,1,.209-.586.8.8,0,0,1,.626-.234A.819.819,0,0,1,58.3-1.3a.831.831,0,0,1,.216.586.786.786,0,0,1-.216.564.834.834,0,0,1-.634.227.809.809,0,0,1-.626-.227A.8.8,0,0,1,56.836-.71Zm.007-6.467a.849.849,0,0,1,.209-.586A.8.8,0,0,1,57.678-8a.819.819,0,0,1,.634.234.831.831,0,0,1,.216.586.786.786,0,0,1-.216.564.834.834,0,0,1-.634.227.809.809,0,0,1-.626-.227A.8.8,0,0,1,56.843-7.178ZM-65.013,15V4.336H-62a4.846,4.846,0,0,1,2.461.615A4.161,4.161,0,0,1-57.891,6.7a5.7,5.7,0,0,1,.59,2.607V9.99a5.718,5.718,0,0,1-.582,2.644,4.1,4.1,0,0,1-1.663,1.743A5.155,5.155,0,0,1-62.062,15Zm1.406-9.514V13.85h1.479A3.219,3.219,0,0,0-59.6,12.838a4.18,4.18,0,0,0,.9-2.881V9.334a4.246,4.246,0,0,0-.853-2.826,3.036,3.036,0,0,0-2.421-1.023ZM-53.917,15h-1.355V7.075h1.355ZM-55.382,4.973a.809.809,0,0,1,.2-.557.756.756,0,0,1,.6-.227.768.768,0,0,1,.6.227.8.8,0,0,1,.205.557.774.774,0,0,1-.205.549.782.782,0,0,1-.6.22.77.77,0,0,1-.6-.22A.782.782,0,0,1-55.382,4.973Zm7.463,3.318a4.06,4.06,0,0,0-.667-.051,1.786,1.786,0,0,0-1.809,1.135V15h-1.355V7.075h1.318l.022.916a2.11,2.11,0,0,1,1.89-1.062,1.384,1.384,0,0,1,.6.1Zm4.534,6.855a3.463,3.463,0,0,1-2.622-1.058,3.928,3.928,0,0,1-1.011-2.831v-.249a4.756,4.756,0,0,1,.45-2.106,3.514,3.514,0,0,1,1.26-1.45,3.167,3.167,0,0,1,1.754-.524,2.968,2.968,0,0,1,2.4,1.018,4.408,4.408,0,0,1,.857,2.915v.564h-5.369a2.817,2.817,0,0,0,.685,1.893,2.153,2.153,0,0,0,1.666.721,2.36,2.36,0,0,0,1.216-.293,3.055,3.055,0,0,0,.872-.776l.828.645A3.328,3.328,0,0,1-43.385,15.146Zm-.168-7.1a1.807,1.807,0,0,0-1.377.6,2.9,2.9,0,0,0-.688,1.674h3.97v-.1a2.581,2.581,0,0,0-.557-1.6A1.7,1.7,0,0,0-43.553,8.042Zm8.005,6a1.952,1.952,0,0,0,1.267-.439,1.546,1.546,0,0,0,.6-1.1H-32.4a2.457,2.457,0,0,1-.469,1.3,3.087,3.087,0,0,1-1.154.981,3.329,3.329,0,0,1-1.527.366,3.265,3.265,0,0,1-2.574-1.08,4.3,4.3,0,0,1-.956-2.955v-.227a4.771,4.771,0,0,1,.425-2.058,3.236,3.236,0,0,1,1.219-1.4,3.464,3.464,0,0,1,1.879-.5,3.178,3.178,0,0,1,2.216.8A2.853,2.853,0,0,1-32.4,9.8H-33.68a1.867,1.867,0,0,0-.582-1.263,1.811,1.811,0,0,0-1.293-.494,1.9,1.9,0,0,0-1.6.743,3.491,3.491,0,0,0-.568,2.15v.256a3.422,3.422,0,0,0,.564,2.109A1.906,1.906,0,0,0-35.548,14.041Zm7.852,0a1.952,1.952,0,0,0,1.267-.439,1.546,1.546,0,0,0,.6-1.1h1.282a2.457,2.457,0,0,1-.469,1.3,3.087,3.087,0,0,1-1.154.981,3.329,3.329,0,0,1-1.527.366,3.265,3.265,0,0,1-2.574-1.08,4.3,4.3,0,0,1-.956-2.955v-.227A4.771,4.771,0,0,1-30.8,8.826a3.236,3.236,0,0,1,1.219-1.4,3.464,3.464,0,0,1,1.879-.5,3.178,3.178,0,0,1,2.216.8A2.853,2.853,0,0,1-24.547,9.8h-1.282a1.867,1.867,0,0,0-.582-1.263A1.811,1.811,0,0,0-27.7,8.042a1.9,1.9,0,0,0-1.6.743,3.491,3.491,0,0,0-.568,2.15v.256a3.422,3.422,0,0,0,.564,2.109A1.906,1.906,0,0,0-27.7,14.041Zm6.145.959h-1.355V7.075h1.355ZM-23.016,4.973a.809.809,0,0,1,.2-.557.756.756,0,0,1,.6-.227.768.768,0,0,1,.6.227.8.8,0,0,1,.205.557.774.774,0,0,1-.205.549.782.782,0,0,1-.6.22.77.77,0,0,1-.6-.22A.782.782,0,0,1-23.016,4.973Zm3.274,5.991a4.681,4.681,0,0,1,.458-2.095A3.415,3.415,0,0,1-18.01,7.434a3.469,3.469,0,0,1,1.864-.505,3.342,3.342,0,0,1,2.618,1.121,4.311,4.311,0,0,1,1,2.981v.1a4.722,4.722,0,0,1-.443,2.076,3.365,3.365,0,0,1-1.267,1.432,3.509,3.509,0,0,1-1.893.513,3.334,3.334,0,0,1-2.611-1.121,4.29,4.29,0,0,1-1-2.966Zm1.362.161a3.39,3.39,0,0,0,.612,2.117,1.957,1.957,0,0,0,1.637.8,1.945,1.945,0,0,0,1.641-.809,3.707,3.707,0,0,0,.608-2.267A3.384,3.384,0,0,0-14.5,8.851a1.968,1.968,0,0,0-1.644-.809,1.946,1.946,0,0,0-1.619.8A3.68,3.68,0,0,0-18.38,11.125Zm2.849-7.375h1.641L-15.853,5.9l-1.091,0Zm5.984,3.325.044,1A2.888,2.888,0,0,1-7.13,6.929q2.512,0,2.534,2.834V15H-5.951V9.756a1.824,1.824,0,0,0-.392-1.267,1.57,1.57,0,0,0-1.2-.41A1.956,1.956,0,0,0-8.7,8.43a2.387,2.387,0,0,0-.776.923V15h-1.355V7.075Zm13.3,5.94L5.6,7.075H7.05L3.864,16.223Q3.124,18.2,1.512,18.2l-.256-.022-.505-.1v-1.1l.366.029a1.8,1.8,0,0,0,1.073-.278,2.014,2.014,0,0,0,.634-1.018l.3-.806L.3,7.075H1.776Zm14.458-2.944H13.59V13.85h5.369V15H12.184V4.336h6.7v1.15h-5.3V8.921h4.622Zm3.567-3,.044,1A2.888,2.888,0,0,1,24.2,6.929q2.512,0,2.534,2.834V15H25.375V9.756a1.824,1.824,0,0,0-.392-1.267,1.57,1.57,0,0,0-1.2-.41,1.956,1.956,0,0,0-1.157.352,2.387,2.387,0,0,0-.776.923V15H20.5V7.075ZM29.44,15V8.123H28.187V7.075H29.44V6.262a2.7,2.7,0,0,1,.681-1.97,2.573,2.573,0,0,1,1.926-.7,3.578,3.578,0,0,1,.93.124L32.9,4.812a3.892,3.892,0,0,0-.732-.066,1.322,1.322,0,0,0-1.018.386,1.564,1.564,0,0,0-.359,1.106v.838h1.692V8.123H30.795V15Zm4.182-4.036A4.681,4.681,0,0,1,34.08,8.87a3.415,3.415,0,0,1,1.274-1.436,3.469,3.469,0,0,1,1.864-.505,3.342,3.342,0,0,1,2.618,1.121,4.311,4.311,0,0,1,1,2.981v.1a4.722,4.722,0,0,1-.443,2.076,3.365,3.365,0,0,1-1.267,1.432,3.509,3.509,0,0,1-1.893.513,3.334,3.334,0,0,1-2.611-1.121,4.29,4.29,0,0,1-1-2.966Zm1.362.161a3.39,3.39,0,0,0,.612,2.117,2.072,2.072,0,0,0,3.278-.011,3.707,3.707,0,0,0,.608-2.267,3.384,3.384,0,0,0-.619-2.113,1.968,1.968,0,0,0-1.644-.809,1.946,1.946,0,0,0-1.619.8A3.68,3.68,0,0,0,34.984,11.125Zm7.222-.154a4.651,4.651,0,0,1,.857-2.955,3.024,3.024,0,0,1,4.519-.143l.059-.8h1.245V18.047H47.531V14.268a2.844,2.844,0,0,1-2.183.879,2.733,2.733,0,0,1-2.289-1.117,4.755,4.755,0,0,1-.853-2.963Zm1.355.154a3.526,3.526,0,0,0,.575,2.139,1.829,1.829,0,0,0,1.549.776,2.029,2.029,0,0,0,1.846-1.069V9.089A2.035,2.035,0,0,0,45.7,8.042a1.843,1.843,0,0,0-1.56.78A3.838,3.838,0,0,0,43.561,11.125Zm12.393,3.091a2.878,2.878,0,0,1-2.322.93,2.464,2.464,0,0,1-1.93-.736,3.186,3.186,0,0,1-.67-2.179V7.075h1.355v5.12q0,1.8,1.465,1.8a2.028,2.028,0,0,0,2.065-1.157V7.075h1.355V15H55.983Zm6.665.93A3.463,3.463,0,0,1,60,14.088a3.928,3.928,0,0,1-1.011-2.831v-.249a4.756,4.756,0,0,1,.45-2.106,3.514,3.514,0,0,1,1.26-1.45,3.167,3.167,0,0,1,1.754-.524,2.968,2.968,0,0,1,2.4,1.018,4.408,4.408,0,0,1,.857,2.915v.564H60.341a2.817,2.817,0,0,0,.685,1.893,2.153,2.153,0,0,0,1.666.721,2.36,2.36,0,0,0,1.216-.293,3.055,3.055,0,0,0,.872-.776l.828.645A3.328,3.328,0,0,1,62.618,15.146Zm-.168-7.1a1.807,1.807,0,0,0-1.377.6,2.9,2.9,0,0,0-.688,1.674h3.97v-.1a2.581,2.581,0,0,0-.557-1.6A1.7,1.7,0,0,0,62.45,8.042Z" transform="translate(187.793 545.27)"/>
        <path id="Trazado_105378" data-name="Trazado 105378" d="M-43.938-4.175V0h-1.406V-10.664h3.933a3.952,3.952,0,0,1,2.743.894A3.029,3.029,0,0,1-37.676-7.4a2.989,2.989,0,0,1-.97,2.391,4.128,4.128,0,0,1-2.78.839Zm0-1.15h2.527a2.526,2.526,0,0,0,1.729-.532,1.945,1.945,0,0,0,.6-1.537,2.009,2.009,0,0,0-.6-1.526,2.367,2.367,0,0,0-1.648-.594h-2.607ZM-34.622,0h-1.355V-11.25h1.355Zm7.061,0a2.846,2.846,0,0,1-.19-.835,3.023,3.023,0,0,1-2.256.981A2.8,2.8,0,0,1-31.93-.516,2.145,2.145,0,0,1-32.681-2.2,2.24,2.24,0,0,1-31.74-4.12,4.437,4.437,0,0,1-29.092-4.8h1.318v-.623A1.522,1.522,0,0,0-28.2-6.559a1.707,1.707,0,0,0-1.252-.421,1.976,1.976,0,0,0-1.216.366,1.079,1.079,0,0,0-.491.886H-32.52A1.87,1.87,0,0,1-32.1-6.874a2.874,2.874,0,0,1,1.143-.875,3.844,3.844,0,0,1,1.586-.322,3.133,3.133,0,0,1,2.146.685A2.47,2.47,0,0,1-26.418-5.5v3.647A4.459,4.459,0,0,0-26.14-.117V0ZM-29.81-1.033a2.381,2.381,0,0,0,1.208-.33,1.994,1.994,0,0,0,.828-.857V-3.845h-1.062q-2.49,0-2.49,1.458a1.234,1.234,0,0,0,.425,1A1.633,1.633,0,0,0-29.81-1.033Zm6.8-6.892.044,1A2.888,2.888,0,0,1-20.6-8.071q2.512,0,2.534,2.834V0h-1.355V-5.244a1.824,1.824,0,0,0-.392-1.267,1.57,1.57,0,0,0-1.2-.41,1.956,1.956,0,0,0-1.157.352,2.387,2.387,0,0,0-.776.923V0h-1.355V-7.925ZM-14.546,0H-15.9V-7.925h1.355Zm-1.465-10.027a.809.809,0,0,1,.2-.557.756.756,0,0,1,.6-.227.768.768,0,0,1,.6.227.8.8,0,0,1,.205.557.774.774,0,0,1-.205.549.782.782,0,0,1-.6.22.77.77,0,0,1-.6-.22A.782.782,0,0,1-16.011-10.027ZM-11.924,0V-6.877h-1.252V-7.925h1.252V-8.6a2.753,2.753,0,0,1,.758-2.065,2.94,2.94,0,0,1,2.142-.74,6.451,6.451,0,0,1,2.073.447l-.227,1.143a4.7,4.7,0,0,0-1.743-.366,1.705,1.705,0,0,0-1.256.392,1.615,1.615,0,0,0-.385,1.176v.688h1.619v1.047h-1.619V0Zm5.647,0H-7.639V-7.925h1.362ZM-.894-.959A1.952,1.952,0,0,0,.374-1.4a1.546,1.546,0,0,0,.6-1.1H2.256a2.457,2.457,0,0,1-.469,1.3A3.087,3.087,0,0,1,.634-.22,3.329,3.329,0,0,1-.894.146,3.265,3.265,0,0,1-3.468-.934a4.3,4.3,0,0,1-.956-2.955v-.227A4.771,4.771,0,0,1-4-6.174a3.236,3.236,0,0,1,1.219-1.4A3.464,3.464,0,0,1-.9-8.071a3.178,3.178,0,0,1,2.216.8A2.853,2.853,0,0,1,2.256-5.2H.974A1.867,1.867,0,0,0,.392-6.464,1.811,1.811,0,0,0-.9-6.958a1.9,1.9,0,0,0-1.6.743,3.491,3.491,0,0,0-.568,2.15v.256A3.422,3.422,0,0,0-2.5-1.7,1.906,1.906,0,0,0-.894-.959ZM8.672,0a2.846,2.846,0,0,1-.19-.835A3.023,3.023,0,0,1,6.226.146,2.8,2.8,0,0,1,4.3-.516,2.145,2.145,0,0,1,3.552-2.2,2.24,2.24,0,0,1,4.493-4.12,4.437,4.437,0,0,1,7.141-4.8H8.459v-.623a1.522,1.522,0,0,0-.425-1.132A1.707,1.707,0,0,0,6.782-6.98a1.976,1.976,0,0,0-1.216.366,1.079,1.079,0,0,0-.491.886H3.713a1.87,1.87,0,0,1,.421-1.146,2.874,2.874,0,0,1,1.143-.875,3.844,3.844,0,0,1,1.586-.322,3.133,3.133,0,0,1,2.146.685A2.47,2.47,0,0,1,9.814-5.5v3.647a4.459,4.459,0,0,0,.278,1.736V0ZM6.423-1.033a2.381,2.381,0,0,0,1.208-.33,1.994,1.994,0,0,0,.828-.857V-3.845H7.4q-2.49,0-2.49,1.458a1.234,1.234,0,0,0,.425,1A1.633,1.633,0,0,0,6.423-1.033Zm8.694.073A1.952,1.952,0,0,0,16.384-1.4a1.546,1.546,0,0,0,.6-1.1h1.282A2.457,2.457,0,0,1,17.8-1.2a3.087,3.087,0,0,1-1.154.981,3.329,3.329,0,0,1-1.527.366,3.265,3.265,0,0,1-2.574-1.08,4.3,4.3,0,0,1-.956-2.955v-.227a4.771,4.771,0,0,1,.425-2.058,3.236,3.236,0,0,1,1.219-1.4,3.464,3.464,0,0,1,1.879-.5,3.178,3.178,0,0,1,2.216.8A2.853,2.853,0,0,1,18.267-5.2H16.985A1.867,1.867,0,0,0,16.4-6.464a1.811,1.811,0,0,0-1.293-.494,1.9,1.9,0,0,0-1.6.743,3.491,3.491,0,0,0-.568,2.15v.256A3.422,3.422,0,0,0,13.506-1.7,1.906,1.906,0,0,0,15.117-.959ZM21.262,0H19.907V-7.925h1.355ZM19.8-10.027a.809.809,0,0,1,.2-.557.756.756,0,0,1,.6-.227.768.768,0,0,1,.6.227.8.8,0,0,1,.205.557.774.774,0,0,1-.205.549.782.782,0,0,1-.6.22.77.77,0,0,1-.6-.22A.782.782,0,0,1,19.8-10.027Zm3.274,5.991a4.681,4.681,0,0,1,.458-2.095A3.415,3.415,0,0,1,24.8-7.566a3.469,3.469,0,0,1,1.864-.505,3.342,3.342,0,0,1,2.618,1.121,4.311,4.311,0,0,1,1,2.981v.1A4.722,4.722,0,0,1,29.843-1.8,3.365,3.365,0,0,1,28.575-.366a3.509,3.509,0,0,1-1.893.513A3.334,3.334,0,0,1,24.071-.974a4.29,4.29,0,0,1-1-2.966Zm1.362.161a3.39,3.39,0,0,0,.612,2.117,1.957,1.957,0,0,0,1.637.8,1.945,1.945,0,0,0,1.641-.809,3.707,3.707,0,0,0,.608-2.267,3.384,3.384,0,0,0-.619-2.113,1.968,1.968,0,0,0-1.644-.809,1.946,1.946,0,0,0-1.619.8A3.68,3.68,0,0,0,24.434-3.875Zm2.849-7.375h1.641L26.96-9.1l-1.091,0Zm5.984,3.325.044,1a2.888,2.888,0,0,1,2.373-1.143q2.512,0,2.534,2.834V0H36.863V-5.244a1.824,1.824,0,0,0-.392-1.267,1.57,1.57,0,0,0-1.2-.41,1.956,1.956,0,0,0-1.157.352,2.387,2.387,0,0,0-.776.923V0H31.985V-7.925ZM40.217-.71a.849.849,0,0,1,.209-.586.8.8,0,0,1,.626-.234.819.819,0,0,1,.634.234A.831.831,0,0,1,41.9-.71a.786.786,0,0,1-.216.564.834.834,0,0,1-.634.227.809.809,0,0,1-.626-.227A.8.8,0,0,1,40.217-.71Zm.007-6.467a.849.849,0,0,1,.209-.586A.8.8,0,0,1,41.06-8a.819.819,0,0,1,.634.234.831.831,0,0,1,.216.586.786.786,0,0,1-.216.564.834.834,0,0,1-.634.227.809.809,0,0,1-.626-.227A.8.8,0,0,1,40.225-7.178Zm-68.4,17.249h-4.622V13.85h5.369V15H-34.2V4.336h6.7v1.15h-5.3V8.921h4.622Zm6.9,2.827a1,1,0,0,0-.414-.853,3.983,3.983,0,0,0-1.443-.524,6.822,6.822,0,0,1-1.633-.527,2.324,2.324,0,0,1-.894-.732,1.752,1.752,0,0,1-.289-1.011A2.056,2.056,0,0,1-25.122,7.6a3.218,3.218,0,0,1,2.106-.674,3.311,3.311,0,0,1,2.186.7,2.21,2.21,0,0,1,.839,1.78h-1.362a1.223,1.223,0,0,0-.472-.959,1.77,1.77,0,0,0-1.19-.4,1.852,1.852,0,0,0-1.157.322,1.014,1.014,0,0,0-.417.842.822.822,0,0,0,.388.74,4.776,4.776,0,0,0,1.4.476,7.308,7.308,0,0,1,1.644.542,2.4,2.4,0,0,1,.934.758,1.864,1.864,0,0,1,.3,1.08,2.028,2.028,0,0,1-.85,1.7,3.564,3.564,0,0,1-2.2.641,3.991,3.991,0,0,1-1.685-.337,2.74,2.74,0,0,1-1.146-.941,2.268,2.268,0,0,1-.414-1.307h1.355a1.4,1.4,0,0,0,.546,1.08,2.117,2.117,0,0,0,1.344.4,2.185,2.185,0,0,0,1.234-.311A.956.956,0,0,0-21.273,12.9Zm4.958-7.742V7.075h1.479V8.123h-1.479v4.921a1.1,1.1,0,0,0,.2.715.832.832,0,0,0,.674.238,3.281,3.281,0,0,0,.645-.088V15a3.951,3.951,0,0,1-1.04.146,1.687,1.687,0,0,1-1.37-.549,2.36,2.36,0,0,1-.461-1.56V8.123h-1.443V7.075h1.443V5.156Zm6.892,3.135a4.06,4.06,0,0,0-.667-.051A1.786,1.786,0,0,0-11.9,9.375V15h-1.355V7.075h1.318l.022.916a2.11,2.11,0,0,1,1.89-1.062,1.384,1.384,0,0,1,.6.1ZM-3.578,15a2.846,2.846,0,0,1-.19-.835,3.023,3.023,0,0,1-2.256.981,2.8,2.8,0,0,1-1.923-.663A2.145,2.145,0,0,1-8.7,12.8a2.24,2.24,0,0,1,.941-1.923A4.437,4.437,0,0,1-5.109,10.2H-3.79V9.573a1.522,1.522,0,0,0-.425-1.132A1.707,1.707,0,0,0-5.468,8.02a1.976,1.976,0,0,0-1.216.366,1.079,1.079,0,0,0-.491.886H-8.536a1.87,1.87,0,0,1,.421-1.146,2.874,2.874,0,0,1,1.143-.875,3.844,3.844,0,0,1,1.586-.322,3.133,3.133,0,0,1,2.146.685A2.47,2.47,0,0,1-2.435,9.5v3.647a4.459,4.459,0,0,0,.278,1.736V15Zm-2.249-1.033a2.381,2.381,0,0,0,1.208-.33,1.994,1.994,0,0,0,.828-.857V11.155H-4.852q-2.49,0-2.49,1.458a1.234,1.234,0,0,0,.425,1A1.633,1.633,0,0,0-5.826,13.967ZM1.527,5.156V7.075H3.007V8.123H1.527v4.921a1.1,1.1,0,0,0,.2.715A.832.832,0,0,0,2.4,14a3.281,3.281,0,0,0,.645-.088V15A3.951,3.951,0,0,1,2,15.146,1.687,1.687,0,0,1,.634,14.6a2.36,2.36,0,0,1-.461-1.56V8.123H-1.271V7.075H.172V5.156Zm6.35,9.99a3.463,3.463,0,0,1-2.622-1.058,3.928,3.928,0,0,1-1.011-2.831v-.249A4.756,4.756,0,0,1,4.695,8.9a3.514,3.514,0,0,1,1.26-1.45,3.167,3.167,0,0,1,1.754-.524,2.968,2.968,0,0,1,2.4,1.018,4.408,4.408,0,0,1,.857,2.915v.564H5.6a2.817,2.817,0,0,0,.685,1.893,2.153,2.153,0,0,0,1.666.721,2.36,2.36,0,0,0,1.216-.293,3.055,3.055,0,0,0,.872-.776l.828.645A3.328,3.328,0,0,1,7.877,15.146Zm-.168-7.1a1.807,1.807,0,0,0-1.377.6,2.9,2.9,0,0,0-.688,1.674h3.97v-.1a2.581,2.581,0,0,0-.557-1.6A1.7,1.7,0,0,0,7.709,8.042Zm4.5,2.93a4.658,4.658,0,0,1,.857-2.948,2.741,2.741,0,0,1,2.271-1.095A2.726,2.726,0,0,1,17.6,7.954l.066-.879h1.238V14.81A3.224,3.224,0,0,1,18,17.234a3.365,3.365,0,0,1-2.45.886,4.076,4.076,0,0,1-1.677-.366,2.887,2.887,0,0,1-1.252-1l.7-.813a2.65,2.65,0,0,0,2.131,1.077,2.076,2.076,0,0,0,1.542-.557,2.128,2.128,0,0,0,.553-1.567v-.681a2.785,2.785,0,0,1-2.219.938,2.707,2.707,0,0,1-2.252-1.121A4.9,4.9,0,0,1,12.213,10.972Zm1.362.154a3.553,3.553,0,0,0,.549,2.106A1.785,1.785,0,0,0,15.663,14a1.985,1.985,0,0,0,1.882-1.165V9.214a2.008,2.008,0,0,0-1.868-1.135,1.8,1.8,0,0,0-1.545.769A3.87,3.87,0,0,0,13.575,11.125ZM22.423,15H21.068V7.075h1.355ZM20.958,4.973a.809.809,0,0,1,.2-.557.756.756,0,0,1,.6-.227.768.768,0,0,1,.6.227.8.8,0,0,1,.205.557.774.774,0,0,1-.205.549.782.782,0,0,1-.6.22.77.77,0,0,1-.6-.22A.782.782,0,0,1,20.958,4.973ZM29.484,15a2.846,2.846,0,0,1-.19-.835,3.023,3.023,0,0,1-2.256.981,2.8,2.8,0,0,1-1.923-.663,2.145,2.145,0,0,1-.751-1.681,2.24,2.24,0,0,1,.941-1.923,4.437,4.437,0,0,1,2.648-.685h1.318V9.573a1.522,1.522,0,0,0-.425-1.132,1.707,1.707,0,0,0-1.252-.421,1.976,1.976,0,0,0-1.216.366,1.079,1.079,0,0,0-.491.886H24.525a1.87,1.87,0,0,1,.421-1.146,2.874,2.874,0,0,1,1.143-.875,3.844,3.844,0,0,1,1.586-.322,3.133,3.133,0,0,1,2.146.685A2.47,2.47,0,0,1,30.626,9.5v3.647a4.459,4.459,0,0,0,.278,1.736V15Zm-2.249-1.033a2.381,2.381,0,0,0,1.208-.33,1.994,1.994,0,0,0,.828-.857V11.155H28.209q-2.49,0-2.49,1.458a1.234,1.234,0,0,0,.425,1A1.633,1.633,0,0,0,27.235,13.967ZM-42.949,28.015l1.846-5.94h1.45l-3.186,9.148q-.74,1.978-2.351,1.978l-.256-.022-.505-.1v-1.1l.366.029a1.8,1.8,0,0,0,1.073-.278,2.014,2.014,0,0,0,.634-1.018l.3-.806-2.827-7.837h1.479Zm12.832-.117a1,1,0,0,0-.414-.853,3.983,3.983,0,0,0-1.443-.524,6.822,6.822,0,0,1-1.633-.527,2.324,2.324,0,0,1-.894-.732,1.752,1.752,0,0,1-.289-1.011,2.056,2.056,0,0,1,.824-1.648,3.218,3.218,0,0,1,2.106-.674,3.311,3.311,0,0,1,2.186.7,2.21,2.21,0,0,1,.839,1.78H-30.2a1.223,1.223,0,0,0-.472-.959,1.77,1.77,0,0,0-1.19-.4,1.852,1.852,0,0,0-1.157.322,1.014,1.014,0,0,0-.417.842.822.822,0,0,0,.388.74,4.776,4.776,0,0,0,1.4.476A7.308,7.308,0,0,1-30,25.964a2.4,2.4,0,0,1,.934.758,1.864,1.864,0,0,1,.3,1.08,2.028,2.028,0,0,1-.85,1.7,3.564,3.564,0,0,1-2.2.641A3.991,3.991,0,0,1-33.5,29.81a2.74,2.74,0,0,1-1.146-.941,2.268,2.268,0,0,1-.414-1.307h1.355a1.4,1.4,0,0,0,.546,1.08,2.117,2.117,0,0,0,1.344.4,2.185,2.185,0,0,0,1.234-.311A.956.956,0,0,0-30.117,27.9Zm6.409,2.249a3.463,3.463,0,0,1-2.622-1.058,3.928,3.928,0,0,1-1.011-2.831v-.249a4.756,4.756,0,0,1,.45-2.106,3.514,3.514,0,0,1,1.26-1.45,3.167,3.167,0,0,1,1.754-.524,2.968,2.968,0,0,1,2.4,1.018,4.408,4.408,0,0,1,.857,2.915v.564h-5.369a2.817,2.817,0,0,0,.685,1.893,2.153,2.153,0,0,0,1.666.721,2.36,2.36,0,0,0,1.216-.293,3.055,3.055,0,0,0,.872-.776l.828.645A3.328,3.328,0,0,1-23.708,30.146Zm-.168-7.1a1.807,1.807,0,0,0-1.377.6,2.9,2.9,0,0,0-.688,1.674h3.97v-.1a2.581,2.581,0,0,0-.557-1.6A1.7,1.7,0,0,0-23.877,23.042Zm4.5,2.93a4.658,4.658,0,0,1,.857-2.948,2.741,2.741,0,0,1,2.271-1.095,2.726,2.726,0,0,1,2.263,1.025l.066-.879h1.238V29.81a3.224,3.224,0,0,1-.912,2.424,3.365,3.365,0,0,1-2.45.886,4.076,4.076,0,0,1-1.677-.366,2.887,2.887,0,0,1-1.252-1l.7-.813a2.65,2.65,0,0,0,2.131,1.077,2.076,2.076,0,0,0,1.542-.557,2.128,2.128,0,0,0,.553-1.567v-.681a2.785,2.785,0,0,1-2.219.938,2.707,2.707,0,0,1-2.252-1.121A4.9,4.9,0,0,1-19.373,25.972Zm1.362.154a3.553,3.553,0,0,0,.549,2.106A1.785,1.785,0,0,0-15.923,29a1.985,1.985,0,0,0,1.882-1.165V24.214a2.008,2.008,0,0,0-1.868-1.135,1.8,1.8,0,0,0-1.545.769A3.87,3.87,0,0,0-18.01,26.125Zm12.268,3.091a2.878,2.878,0,0,1-2.322.93,2.464,2.464,0,0,1-1.93-.736,3.186,3.186,0,0,1-.67-2.179V22.075h1.355v5.12q0,1.8,1.465,1.8a2.028,2.028,0,0,0,2.065-1.157V22.075h1.355V30H-5.713ZM-.894,30H-2.249V22.075H-.894ZM-2.358,19.973a.809.809,0,0,1,.2-.557.756.756,0,0,1,.6-.227.768.768,0,0,1,.6.227.8.8,0,0,1,.205.557.774.774,0,0,1-.205.549.782.782,0,0,1-.6.22.77.77,0,0,1-.6-.22A.782.782,0,0,1-2.358,19.973Zm4.907,2.1.037.879a2.927,2.927,0,0,1,2.351-1.025A2.266,2.266,0,0,1,7.2,23.2a3,3,0,0,1,1.029-.923,3.039,3.039,0,0,1,1.5-.352q2.607,0,2.651,2.761V30H11.023V24.771a1.82,1.82,0,0,0-.388-1.271,1.71,1.71,0,0,0-1.3-.421,1.8,1.8,0,0,0-1.252.45A1.827,1.827,0,0,0,7.5,24.741V30H6.138V24.807a1.512,1.512,0,0,0-1.692-1.729,1.813,1.813,0,0,0-1.824,1.135V30H1.267V22.075ZM15.894,30H14.539V22.075h1.355ZM14.429,19.973a.809.809,0,0,1,.2-.557.756.756,0,0,1,.6-.227.768.768,0,0,1,.6.227.8.8,0,0,1,.205.557.774.774,0,0,1-.205.549.782.782,0,0,1-.6.22.77.77,0,0,1-.6-.22A.782.782,0,0,1,14.429,19.973ZM21.35,30.146a3.463,3.463,0,0,1-2.622-1.058,3.928,3.928,0,0,1-1.011-2.831v-.249a4.756,4.756,0,0,1,.45-2.106,3.514,3.514,0,0,1,1.26-1.45,3.167,3.167,0,0,1,1.754-.524,2.968,2.968,0,0,1,2.4,1.018,4.408,4.408,0,0,1,.857,2.915v.564H19.072a2.817,2.817,0,0,0,.685,1.893,2.153,2.153,0,0,0,1.666.721,2.36,2.36,0,0,0,1.216-.293,3.055,3.055,0,0,0,.872-.776l.828.645A3.328,3.328,0,0,1,21.35,30.146Zm-.168-7.1a1.807,1.807,0,0,0-1.377.6,2.9,2.9,0,0,0-.688,1.674h3.97v-.1a2.581,2.581,0,0,0-.557-1.6A1.7,1.7,0,0,0,21.182,23.042Zm6.108-.967.044,1a2.888,2.888,0,0,1,2.373-1.143q2.512,0,2.534,2.834V30H30.886V24.756a1.824,1.824,0,0,0-.392-1.267,1.57,1.57,0,0,0-1.2-.41,1.956,1.956,0,0,0-1.157.352,2.387,2.387,0,0,0-.776.923V30H26.008V22.075Zm8.833-1.919v1.919H37.6v1.047H36.123v4.921a1.1,1.1,0,0,0,.2.715.832.832,0,0,0,.674.238,3.281,3.281,0,0,0,.645-.088V30a3.951,3.951,0,0,1-1.04.146,1.687,1.687,0,0,1-1.37-.549,2.36,2.36,0,0,1-.461-1.56V23.123H33.325V22.075h1.443V20.156Zm2.556,5.808a4.681,4.681,0,0,1,.458-2.095,3.415,3.415,0,0,1,1.274-1.436,3.469,3.469,0,0,1,1.864-.505,3.342,3.342,0,0,1,2.618,1.121,4.311,4.311,0,0,1,1,2.981v.1A4.722,4.722,0,0,1,45.45,28.2a3.365,3.365,0,0,1-1.267,1.432,3.509,3.509,0,0,1-1.893.513,3.334,3.334,0,0,1-2.611-1.121,4.29,4.29,0,0,1-1-2.966Zm1.362.161a3.39,3.39,0,0,0,.612,2.117,2.072,2.072,0,0,0,3.278-.011,3.707,3.707,0,0,0,.608-2.267,3.384,3.384,0,0,0-.619-2.113,1.968,1.968,0,0,0-1.644-.809,1.946,1.946,0,0,0-1.619.8A3.68,3.68,0,0,0,40.042,26.125Z" transform="translate(40.793 332.27)"/>
        <path id="Trazado_105376" data-name="Trazado 105376" d="M-61.348-4.175V0h-1.406V-10.664h3.933a3.952,3.952,0,0,1,2.743.894A3.029,3.029,0,0,1-55.085-7.4a2.989,2.989,0,0,1-.97,2.391,4.128,4.128,0,0,1-2.78.839Zm0-1.15h2.527a2.526,2.526,0,0,0,1.729-.532,1.945,1.945,0,0,0,.6-1.537,2.009,2.009,0,0,0-.6-1.526,2.367,2.367,0,0,0-1.648-.594h-2.607ZM-48.611-.784a2.878,2.878,0,0,1-2.322.93,2.464,2.464,0,0,1-1.93-.736,3.186,3.186,0,0,1-.67-2.179V-7.925h1.355v5.12q0,1.8,1.465,1.8a2.028,2.028,0,0,0,2.065-1.157V-7.925h1.355V0h-1.289Zm6.665.93A3.463,3.463,0,0,1-44.568-.912a3.928,3.928,0,0,1-1.011-2.831v-.249a4.756,4.756,0,0,1,.45-2.106,3.514,3.514,0,0,1,1.26-1.45,3.167,3.167,0,0,1,1.754-.524,2.968,2.968,0,0,1,2.4,1.018,4.408,4.408,0,0,1,.857,2.915v.564h-5.369a2.817,2.817,0,0,0,.685,1.893,2.153,2.153,0,0,0,1.666.721,2.36,2.36,0,0,0,1.216-.293,3.055,3.055,0,0,0,.872-.776l.828.645A3.328,3.328,0,0,1-41.946.146Zm-.168-7.1a1.807,1.807,0,0,0-1.377.6,2.9,2.9,0,0,0-.688,1.674h3.97v-.1a2.581,2.581,0,0,0-.557-1.6A1.7,1.7,0,0,0-42.114-6.958ZM-32.673-2.1a1,1,0,0,0-.414-.853,3.983,3.983,0,0,0-1.443-.524,6.822,6.822,0,0,1-1.633-.527,2.324,2.324,0,0,1-.894-.732,1.752,1.752,0,0,1-.289-1.011A2.056,2.056,0,0,1-36.522-7.4a3.218,3.218,0,0,1,2.106-.674,3.311,3.311,0,0,1,2.186.7,2.21,2.21,0,0,1,.839,1.78h-1.362a1.223,1.223,0,0,0-.472-.959,1.77,1.77,0,0,0-1.19-.4,1.852,1.852,0,0,0-1.157.322,1.014,1.014,0,0,0-.417.842.822.822,0,0,0,.388.74,4.776,4.776,0,0,0,1.4.476,7.308,7.308,0,0,1,1.644.542,2.4,2.4,0,0,1,.934.758,1.864,1.864,0,0,1,.3,1.08,2.028,2.028,0,0,1-.85,1.7,3.564,3.564,0,0,1-2.2.641A3.991,3.991,0,0,1-36.057-.19,2.74,2.74,0,0,1-37.2-1.132a2.268,2.268,0,0,1-.414-1.307h1.355a1.4,1.4,0,0,0,.546,1.08,2.117,2.117,0,0,0,1.344.4,2.185,2.185,0,0,0,1.234-.311A.956.956,0,0,0-32.673-2.1Zm4.958-7.742v1.919h1.479v1.047h-1.479v4.921a1.1,1.1,0,0,0,.2.715A.832.832,0,0,0-26.843-1a3.281,3.281,0,0,0,.645-.088V0a3.951,3.951,0,0,1-1.04.146A1.687,1.687,0,0,1-28.608-.4a2.36,2.36,0,0,1-.461-1.56V-6.877h-1.443V-7.925h1.443V-9.844ZM-19.761,0a2.846,2.846,0,0,1-.19-.835,3.023,3.023,0,0,1-2.256.981A2.8,2.8,0,0,1-24.13-.516,2.145,2.145,0,0,1-24.88-2.2a2.24,2.24,0,0,1,.941-1.923A4.437,4.437,0,0,1-21.292-4.8h1.318v-.623A1.522,1.522,0,0,0-20.4-6.559,1.707,1.707,0,0,0-21.65-6.98a1.976,1.976,0,0,0-1.216.366,1.079,1.079,0,0,0-.491.886h-1.362A1.87,1.87,0,0,1-24.3-6.874a2.874,2.874,0,0,1,1.143-.875,3.844,3.844,0,0,1,1.586-.322,3.133,3.133,0,0,1,2.146.685A2.47,2.47,0,0,1-18.618-5.5v3.647A4.459,4.459,0,0,0-18.34-.117V0Zm-2.249-1.033a2.381,2.381,0,0,0,1.208-.33,1.994,1.994,0,0,0,.828-.857V-3.845h-1.062q-2.49,0-2.49,1.458a1.234,1.234,0,0,0,.425,1A1.633,1.633,0,0,0-22.009-1.033ZM-9.492.146A3.463,3.463,0,0,1-12.114-.912a3.928,3.928,0,0,1-1.011-2.831v-.249a4.756,4.756,0,0,1,.45-2.106,3.514,3.514,0,0,1,1.26-1.45,3.167,3.167,0,0,1,1.754-.524,2.968,2.968,0,0,1,2.4,1.018A4.408,4.408,0,0,1-6.4-4.138v.564H-11.77a2.817,2.817,0,0,0,.685,1.893,2.153,2.153,0,0,0,1.666.721A2.36,2.36,0,0,0-8.2-1.252a3.055,3.055,0,0,0,.872-.776l.828.645A3.328,3.328,0,0,1-9.492.146Zm-.168-7.1a1.807,1.807,0,0,0-1.377.6,2.9,2.9,0,0,0-.688,1.674h3.97v-.1a2.581,2.581,0,0,0-.557-1.6A1.7,1.7,0,0,0-9.661-6.958Zm6.108-.967.044,1A2.888,2.888,0,0,1-1.135-8.071q2.512,0,2.534,2.834V0H.044V-5.244A1.824,1.824,0,0,0-.348-6.511a1.57,1.57,0,0,0-1.2-.41A1.956,1.956,0,0,0-2.7-6.57a2.387,2.387,0,0,0-.776.923V0H-4.834V-7.925Zm11.982,0,.037.879a2.927,2.927,0,0,1,2.351-1.025A2.266,2.266,0,0,1,13.081-6.8,3,3,0,0,1,14.11-7.72a3.039,3.039,0,0,1,1.5-.352q2.607,0,2.651,2.761V0H16.9V-5.229A1.82,1.82,0,0,0,16.516-6.5a1.71,1.71,0,0,0-1.3-.421,1.8,1.8,0,0,0-1.252.45,1.827,1.827,0,0,0-.579,1.212V0H12.019V-5.193a1.512,1.512,0,0,0-1.692-1.729A1.813,1.813,0,0,0,8.5-5.786V0H7.148V-7.925ZM25.2,0A2.846,2.846,0,0,1,25-.835a3.023,3.023,0,0,1-2.256.981,2.8,2.8,0,0,1-1.923-.663A2.145,2.145,0,0,1,20.076-2.2a2.24,2.24,0,0,1,.941-1.923A4.437,4.437,0,0,1,23.665-4.8h1.318v-.623a1.522,1.522,0,0,0-.425-1.132,1.707,1.707,0,0,0-1.252-.421,1.976,1.976,0,0,0-1.216.366,1.079,1.079,0,0,0-.491.886H20.237a1.87,1.87,0,0,1,.421-1.146A2.874,2.874,0,0,1,21.8-7.749a3.844,3.844,0,0,1,1.586-.322,3.133,3.133,0,0,1,2.146.685A2.47,2.47,0,0,1,26.338-5.5v3.647a4.459,4.459,0,0,0,.278,1.736V0ZM22.947-1.033a2.381,2.381,0,0,0,1.208-.33,1.994,1.994,0,0,0,.828-.857V-3.845H23.921q-2.49,0-2.49,1.458a1.234,1.234,0,0,0,.425,1A1.633,1.633,0,0,0,22.947-1.033Zm9.346-5.676a4.061,4.061,0,0,0-.667-.051,1.786,1.786,0,0,0-1.809,1.135V0H28.462V-7.925H29.78l.022.916a2.11,2.11,0,0,1,1.89-1.062,1.384,1.384,0,0,1,.6.1Zm4.285,5.75A1.952,1.952,0,0,0,37.844-1.4a1.546,1.546,0,0,0,.6-1.1h1.282a2.457,2.457,0,0,1-.469,1.3A3.087,3.087,0,0,1,38.1-.22a3.329,3.329,0,0,1-1.527.366A3.265,3.265,0,0,1,34-.934a4.3,4.3,0,0,1-.956-2.955v-.227a4.771,4.771,0,0,1,.425-2.058,3.236,3.236,0,0,1,1.219-1.4,3.464,3.464,0,0,1,1.879-.5,3.178,3.178,0,0,1,2.216.8A2.853,2.853,0,0,1,39.727-5.2H38.445a1.867,1.867,0,0,0-.582-1.263,1.811,1.811,0,0,0-1.293-.494,1.9,1.9,0,0,0-1.6.743,3.491,3.491,0,0,0-.568,2.15v.256A3.422,3.422,0,0,0,34.966-1.7,1.906,1.906,0,0,0,36.577-.959ZM42.6-6.965a2.881,2.881,0,0,1,2.344-1.106q2.512,0,2.534,2.834V0H46.128V-5.244a1.824,1.824,0,0,0-.392-1.267,1.57,1.57,0,0,0-1.2-.41,1.956,1.956,0,0,0-1.157.352,2.387,2.387,0,0,0-.776.923V0H41.25V-11.25H42.6ZM54.4,0a2.846,2.846,0,0,1-.19-.835,3.023,3.023,0,0,1-2.256.981,2.8,2.8,0,0,1-1.923-.663A2.145,2.145,0,0,1,49.285-2.2a2.24,2.24,0,0,1,.941-1.923A4.437,4.437,0,0,1,52.874-4.8h1.318v-.623a1.522,1.522,0,0,0-.425-1.132,1.707,1.707,0,0,0-1.252-.421,1.976,1.976,0,0,0-1.216.366,1.079,1.079,0,0,0-.491.886H49.446a1.87,1.87,0,0,1,.421-1.146,2.874,2.874,0,0,1,1.143-.875A3.844,3.844,0,0,1,52.6-8.071a3.133,3.133,0,0,1,2.146.685A2.47,2.47,0,0,1,55.547-5.5v3.647a4.459,4.459,0,0,0,.278,1.736V0ZM52.156-1.033a2.381,2.381,0,0,0,1.208-.33,1.994,1.994,0,0,0,.828-.857V-3.845H53.13q-2.49,0-2.49,1.458a1.234,1.234,0,0,0,.425,1A1.633,1.633,0,0,0,52.156-1.033Zm5.471.322a.849.849,0,0,1,.209-.586.8.8,0,0,1,.626-.234A.819.819,0,0,1,59.1-1.3a.831.831,0,0,1,.216.586.786.786,0,0,1-.216.564.834.834,0,0,1-.634.227.809.809,0,0,1-.626-.227A.8.8,0,0,1,57.627-.71Zm.007-6.467a.849.849,0,0,1,.209-.586A.8.8,0,0,1,58.469-8a.819.819,0,0,1,.634.234.831.831,0,0,1,.216.586.786.786,0,0,1-.216.564.834.834,0,0,1-.634.227.809.809,0,0,1-.626-.227A.8.8,0,0,1,57.634-7.178ZM-53.1,15h-1.406V4.336H-53.1Zm3.633-7.925.037.879A2.927,2.927,0,0,1-47.08,6.929,2.266,2.266,0,0,1-44.817,8.2a3,3,0,0,1,1.029-.923,3.039,3.039,0,0,1,1.5-.352q2.607,0,2.651,2.761V15h-1.355V9.771A1.82,1.82,0,0,0-41.382,8.5a1.71,1.71,0,0,0-1.3-.421,1.8,1.8,0,0,0-1.252.45,1.827,1.827,0,0,0-.579,1.212V15h-1.362V9.807a1.512,1.512,0,0,0-1.692-1.729,1.813,1.813,0,0,0-1.824,1.135V15H-50.75V7.075Zm18.567,4.05a4.745,4.745,0,0,1-.828,2.915,2.653,2.653,0,0,1-2.241,1.106,2.906,2.906,0,0,1-2.271-.916v3.816H-37.6V7.075h1.238l.066.879a2.791,2.791,0,0,1,2.3-1.025,2.7,2.7,0,0,1,2.26,1.077,4.8,4.8,0,0,1,.831,3Zm-1.355-.154a3.5,3.5,0,0,0-.571-2.117,1.84,1.84,0,0,0-1.567-.776A1.992,1.992,0,0,0-36.24,9.17v3.787a2,2,0,0,0,1.86,1.084,1.832,1.832,0,0,0,1.549-.773A3.822,3.822,0,0,0-32.256,10.972ZM-27.708,15h-1.355V3.75h1.355Zm5.457.146a3.463,3.463,0,0,1-2.622-1.058,3.928,3.928,0,0,1-1.011-2.831v-.249a4.756,4.756,0,0,1,.45-2.106,3.514,3.514,0,0,1,1.26-1.45,3.167,3.167,0,0,1,1.754-.524,2.968,2.968,0,0,1,2.4,1.018,4.408,4.408,0,0,1,.857,2.915v.564h-5.369a2.817,2.817,0,0,0,.685,1.893,2.153,2.153,0,0,0,1.666.721,2.36,2.36,0,0,0,1.216-.293,3.055,3.055,0,0,0,.872-.776l.828.645A3.328,3.328,0,0,1-22.251,15.146Zm-.168-7.1a1.807,1.807,0,0,0-1.377.6,2.9,2.9,0,0,0-.688,1.674h3.97v-.1a2.581,2.581,0,0,0-.557-1.6A1.7,1.7,0,0,0-22.419,8.042Zm6.1-.967.037.879a2.927,2.927,0,0,1,2.351-1.025A2.266,2.266,0,0,1-11.667,8.2a3,3,0,0,1,1.029-.923,3.039,3.039,0,0,1,1.5-.352q2.607,0,2.651,2.761V15H-7.844V9.771A1.82,1.82,0,0,0-8.232,8.5a1.71,1.71,0,0,0-1.3-.421,1.8,1.8,0,0,0-1.252.45,1.827,1.827,0,0,0-.579,1.212V15h-1.362V9.807a1.512,1.512,0,0,0-1.692-1.729,1.813,1.813,0,0,0-1.824,1.135V15H-17.6V7.075Zm15.161,8.071a3.463,3.463,0,0,1-2.622-1.058A3.928,3.928,0,0,1-4.79,11.257v-.249A4.756,4.756,0,0,1-4.34,8.9a3.514,3.514,0,0,1,1.26-1.45,3.167,3.167,0,0,1,1.754-.524,2.968,2.968,0,0,1,2.4,1.018,4.408,4.408,0,0,1,.857,2.915v.564H-3.435a2.817,2.817,0,0,0,.685,1.893,2.153,2.153,0,0,0,1.666.721,2.36,2.36,0,0,0,1.216-.293A3.055,3.055,0,0,0,1,12.971l.828.645A3.328,3.328,0,0,1-1.157,15.146Zm-.168-7.1a1.807,1.807,0,0,0-1.377.6,2.9,2.9,0,0,0-.688,1.674H.579v-.1a2.581,2.581,0,0,0-.557-1.6A1.7,1.7,0,0,0-1.326,8.042Zm6.108-.967.044,1A2.888,2.888,0,0,1,7.2,6.929q2.512,0,2.534,2.834V15H8.379V9.756a1.824,1.824,0,0,0-.392-1.267,1.57,1.57,0,0,0-1.2-.41,1.956,1.956,0,0,0-1.157.352,2.387,2.387,0,0,0-.776.923V15H3.5V7.075Zm8.833-1.919V7.075H15.1V8.123H13.616v4.921a1.1,1.1,0,0,0,.2.715.832.832,0,0,0,.674.238,3.281,3.281,0,0,0,.645-.088V15a3.951,3.951,0,0,1-1.04.146,1.687,1.687,0,0,1-1.37-.549,2.36,2.36,0,0,1-.461-1.56V8.123H10.818V7.075h1.443V5.156ZM21.57,15a2.846,2.846,0,0,1-.19-.835,3.023,3.023,0,0,1-2.256.981,2.8,2.8,0,0,1-1.923-.663A2.145,2.145,0,0,1,16.45,12.8a2.24,2.24,0,0,1,.941-1.923,4.437,4.437,0,0,1,2.648-.685h1.318V9.573a1.522,1.522,0,0,0-.425-1.132A1.707,1.707,0,0,0,19.68,8.02a1.976,1.976,0,0,0-1.216.366,1.079,1.079,0,0,0-.491.886H16.611a1.87,1.87,0,0,1,.421-1.146,2.874,2.874,0,0,1,1.143-.875,3.844,3.844,0,0,1,1.586-.322,3.133,3.133,0,0,1,2.146.685A2.47,2.47,0,0,1,22.712,9.5v3.647a4.459,4.459,0,0,0,.278,1.736V15Zm-2.249-1.033a2.381,2.381,0,0,0,1.208-.33,1.994,1.994,0,0,0,.828-.857V11.155H20.3q-2.49,0-2.49,1.458a1.234,1.234,0,0,0,.425,1A1.633,1.633,0,0,0,19.321,13.967Zm8.694.073a1.952,1.952,0,0,0,1.267-.439,1.546,1.546,0,0,0,.6-1.1h1.282a2.457,2.457,0,0,1-.469,1.3,3.087,3.087,0,0,1-1.154.981,3.329,3.329,0,0,1-1.527.366,3.265,3.265,0,0,1-2.574-1.08,4.3,4.3,0,0,1-.956-2.955v-.227a4.771,4.771,0,0,1,.425-2.058,3.236,3.236,0,0,1,1.219-1.4,3.464,3.464,0,0,1,1.879-.5,3.178,3.178,0,0,1,2.216.8A2.853,2.853,0,0,1,31.165,9.8H29.883A1.867,1.867,0,0,0,29.3,8.536a1.811,1.811,0,0,0-1.293-.494,1.9,1.9,0,0,0-1.6.743,3.491,3.491,0,0,0-.568,2.15v.256A3.422,3.422,0,0,0,26.4,13.3,1.906,1.906,0,0,0,28.015,14.041ZM34.16,15H32.805V7.075H34.16ZM32.7,4.973a.809.809,0,0,1,.2-.557.756.756,0,0,1,.6-.227.768.768,0,0,1,.6.227.8.8,0,0,1,.205.557.774.774,0,0,1-.205.549.782.782,0,0,1-.6.22.77.77,0,0,1-.6-.22A.782.782,0,0,1,32.7,4.973Zm3.274,5.991a4.681,4.681,0,0,1,.458-2.095A3.415,3.415,0,0,1,37.7,7.434a3.469,3.469,0,0,1,1.864-.505,3.342,3.342,0,0,1,2.618,1.121,4.311,4.311,0,0,1,1,2.981v.1A4.722,4.722,0,0,1,42.74,13.2a3.365,3.365,0,0,1-1.267,1.432,3.509,3.509,0,0,1-1.893.513,3.334,3.334,0,0,1-2.611-1.121,4.29,4.29,0,0,1-1-2.966Zm1.362.161a3.39,3.39,0,0,0,.612,2.117,2.072,2.072,0,0,0,3.278-.011,3.707,3.707,0,0,0,.608-2.267,3.384,3.384,0,0,0-.619-2.113,1.968,1.968,0,0,0-1.644-.809,1.946,1.946,0,0,0-1.619.8A3.68,3.68,0,0,0,37.332,11.125ZM40.181,3.75h1.641L39.858,5.9l-1.091,0Zm5.984,3.325.044,1a2.888,2.888,0,0,1,2.373-1.143q2.512,0,2.534,2.834V15H49.761V9.756a1.824,1.824,0,0,0-.392-1.267,1.57,1.57,0,0,0-1.2-.41,1.956,1.956,0,0,0-1.157.352,2.387,2.387,0,0,0-.776.923V15H44.883V7.075Zm-82.046,20.94,1.846-5.94h1.45l-3.186,9.148q-.74,1.978-2.351,1.978l-.256-.022-.505-.1v-1.1l.366.029a1.8,1.8,0,0,0,1.073-.278,2.014,2.014,0,0,0,.634-1.018l.3-.806-2.827-7.837h1.479ZM-22.771,30a2.846,2.846,0,0,1-.19-.835,3.023,3.023,0,0,1-2.256.981,2.8,2.8,0,0,1-1.923-.663,2.145,2.145,0,0,1-.751-1.681,2.24,2.24,0,0,1,.941-1.923A4.437,4.437,0,0,1-24.3,25.2h1.318v-.623a1.522,1.522,0,0,0-.425-1.132,1.707,1.707,0,0,0-1.252-.421,1.976,1.976,0,0,0-1.216.366,1.079,1.079,0,0,0-.491.886h-1.362a1.87,1.87,0,0,1,.421-1.146,2.874,2.874,0,0,1,1.143-.875,3.844,3.844,0,0,1,1.586-.322,3.133,3.133,0,0,1,2.146.685,2.47,2.47,0,0,1,.806,1.886v3.647a4.459,4.459,0,0,0,.278,1.736V30Zm-2.249-1.033a2.381,2.381,0,0,0,1.208-.33,1.994,1.994,0,0,0,.828-.857V26.155h-1.062q-2.49,0-2.49,1.458a1.234,1.234,0,0,0,.425,1A1.633,1.633,0,0,0-25.02,28.967Zm8.694.073a1.952,1.952,0,0,0,1.267-.439,1.546,1.546,0,0,0,.6-1.1h1.282a2.457,2.457,0,0,1-.469,1.3,3.087,3.087,0,0,1-1.154.981,3.329,3.329,0,0,1-1.527.366,3.265,3.265,0,0,1-2.574-1.08,4.3,4.3,0,0,1-.956-2.955v-.227a4.771,4.771,0,0,1,.425-2.058,3.236,3.236,0,0,1,1.219-1.4,3.464,3.464,0,0,1,1.879-.5,3.178,3.178,0,0,1,2.216.8,2.853,2.853,0,0,1,.941,2.073h-1.282a1.867,1.867,0,0,0-.582-1.263,1.811,1.811,0,0,0-1.293-.494,1.9,1.9,0,0,0-1.6.743,3.491,3.491,0,0,0-.568,2.15v.256a3.422,3.422,0,0,0,.564,2.109A1.906,1.906,0,0,0-16.326,29.041Zm6.511-8.884v1.919h1.479v1.047H-9.814v4.921a1.1,1.1,0,0,0,.2.715A.832.832,0,0,0-8.943,29a3.281,3.281,0,0,0,.645-.088V30a3.951,3.951,0,0,1-1.04.146,1.687,1.687,0,0,1-1.37-.549,2.36,2.36,0,0,1-.461-1.56V23.123h-1.443V22.075h1.443V20.156ZM-5.281,30H-6.636V22.075h1.355ZM-6.746,19.973a.809.809,0,0,1,.2-.557.756.756,0,0,1,.6-.227.768.768,0,0,1,.6.227.8.8,0,0,1,.205.557.774.774,0,0,1-.205.549.782.782,0,0,1-.6.22.77.77,0,0,1-.6-.22A.782.782,0,0,1-6.746,19.973ZM-.5,28.162l1.963-6.086H2.849L.007,30H-1.025L-3.9,22.075h1.384ZM8.936,30a2.846,2.846,0,0,1-.19-.835,3.023,3.023,0,0,1-2.256.981,2.8,2.8,0,0,1-1.923-.663A2.145,2.145,0,0,1,3.816,27.8a2.24,2.24,0,0,1,.941-1.923A4.437,4.437,0,0,1,7.4,25.2H8.723v-.623A1.522,1.522,0,0,0,8.3,23.441a1.707,1.707,0,0,0-1.252-.421,1.976,1.976,0,0,0-1.216.366,1.079,1.079,0,0,0-.491.886H3.977A1.87,1.87,0,0,1,4.4,23.126a2.874,2.874,0,0,1,1.143-.875,3.844,3.844,0,0,1,1.586-.322,3.133,3.133,0,0,1,2.146.685,2.47,2.47,0,0,1,.806,1.886v3.647a4.459,4.459,0,0,0,.278,1.736V30ZM6.687,28.967a2.381,2.381,0,0,0,1.208-.33,1.994,1.994,0,0,0,.828-.857V26.155H7.661q-2.49,0-2.49,1.458a1.234,1.234,0,0,0,.425,1A1.633,1.633,0,0,0,6.687,28.967Zm8.694.073a1.952,1.952,0,0,0,1.267-.439,1.546,1.546,0,0,0,.6-1.1H18.53a2.457,2.457,0,0,1-.469,1.3,3.087,3.087,0,0,1-1.154.981,3.329,3.329,0,0,1-1.527.366,3.265,3.265,0,0,1-2.574-1.08,4.3,4.3,0,0,1-.956-2.955v-.227a4.771,4.771,0,0,1,.425-2.058,3.236,3.236,0,0,1,1.219-1.4,3.464,3.464,0,0,1,1.879-.5,3.178,3.178,0,0,1,2.216.8A2.853,2.853,0,0,1,18.53,24.8H17.249a1.867,1.867,0,0,0-.582-1.263,1.811,1.811,0,0,0-1.293-.494,1.9,1.9,0,0,0-1.6.743,3.491,3.491,0,0,0-.568,2.15v.256A3.422,3.422,0,0,0,13.77,28.3,1.906,1.906,0,0,0,15.381,29.041ZM21.526,30H20.171V22.075h1.355ZM20.061,19.973a.809.809,0,0,1,.2-.557.756.756,0,0,1,.6-.227.768.768,0,0,1,.6.227.8.8,0,0,1,.205.557.774.774,0,0,1-.205.549.782.782,0,0,1-.6.22.77.77,0,0,1-.6-.22A.782.782,0,0,1,20.061,19.973Zm3.274,5.991a4.681,4.681,0,0,1,.458-2.095,3.415,3.415,0,0,1,1.274-1.436,3.469,3.469,0,0,1,1.864-.505,3.342,3.342,0,0,1,2.618,1.121,4.311,4.311,0,0,1,1,2.981v.1a4.722,4.722,0,0,1-.443,2.076,3.365,3.365,0,0,1-1.267,1.432,3.509,3.509,0,0,1-1.893.513,3.334,3.334,0,0,1-2.611-1.121,4.29,4.29,0,0,1-1-2.966Zm1.362.161a3.39,3.39,0,0,0,.612,2.117,2.072,2.072,0,0,0,3.278-.011,3.707,3.707,0,0,0,.608-2.267,3.384,3.384,0,0,0-.619-2.113,1.968,1.968,0,0,0-1.644-.809,1.946,1.946,0,0,0-1.619.8A3.68,3.68,0,0,0,24.7,26.125Zm2.849-7.375h1.641L27.224,20.9l-1.091,0Zm5.984,3.325.044,1a2.888,2.888,0,0,1,2.373-1.143q2.512,0,2.534,2.834V30H37.126V24.756a1.824,1.824,0,0,0-.392-1.267,1.57,1.57,0,0,0-1.2-.41,1.956,1.956,0,0,0-1.157.352,2.387,2.387,0,0,0-.776.923V30H32.249V22.075Z" transform="translate(332.793 217.27)"/>
        <g id="Grupo_55846" data-name="Grupo 55846" transform="translate(133.554 39.063)">
          <g id="Grupo_55843" data-name="Grupo 55843" transform="translate(53.046 3.836)">
            <rect id="Rectángulo_5770" data-name="Rectángulo 5770" width="2.557" height="28.129" fill="#02cddb"/>
          </g>
          <g id="Grupo_55844" data-name="Grupo 55844" transform="translate(0 30.877)">
            <path id="Trazado_104238" data-name="Trazado 104238" d="M277.859,300.012a51.771,51.771,0,0,1,103.534,0h2.557a54.328,54.328,0,0,0-108.648,0Z" transform="translate(-275.302 -246.298)" fill="#02cddb"/>
          </g>
          <g id="Grupo_55845" data-name="Grupo 55845" transform="translate(50.169)">
            <circle id="Elipse_4528" data-name="Elipse 4528" cx="4.155" cy="4.155" r="4.155" fill="#02cddb"/>
          </g>
        </g>
        <g id="Grupo_55850" data-name="Grupo 55850" transform="translate(186.717 176.05)">
          <g id="Grupo_55847" data-name="Grupo 55847" transform="translate(54.685 53.061)">
            <rect id="Rectángulo_5771" data-name="Rectángulo 5771" width="28.129" height="2.557" fill="#02cddb"/>
          </g>
          <g id="Grupo_55848" data-name="Grupo 55848">
            <path id="Trazado_104239" data-name="Trazado 104239" d="M359.894,412.278c-.48,0-.955.024-1.433.036v2.557c.478-.013.953-.036,1.433-.036a51.783,51.783,0,1,1,0,103.565c-.48,0-.955-.023-1.433-.036v2.557c.478.013.953.037,1.433.037a54.34,54.34,0,1,0,0-108.679Z" transform="translate(-358.461 -412.278)" fill="#02cddb"/>
          </g>
          <g id="Grupo_55849" data-name="Grupo 55849" transform="translate(78.339 50.184)">
            <circle id="Elipse_4529" data-name="Elipse 4529" cx="4.155" cy="4.155" r="4.155" fill="#02cddb"/>
          </g>
        </g>
        <g id="Grupo_55854" data-name="Grupo 55854" transform="translate(102.675 282.466)">
          <g id="Grupo_55851" data-name="Grupo 55851" transform="translate(3.836 53.052)">
            <rect id="Rectángulo_5772" data-name="Rectángulo 5772" width="28.129" height="2.557" fill="#02cddb"/>
          </g>
          <g id="Grupo_55852" data-name="Grupo 55852" transform="translate(30.877)">
            <path id="Trazado_104240" data-name="Trazado 104240" d="M329.277,684.841a51.775,51.775,0,0,1,0-103.547v-2.557a54.332,54.332,0,0,0,0,108.662Z" transform="translate(-275.298 -578.737)" fill="#02cddb"/>
          </g>
          <g id="Grupo_55853" data-name="Grupo 55853" transform="translate(0 50.175)">
            <circle id="Elipse_4530" data-name="Elipse 4530" cx="4.155" cy="4.155" r="4.155" fill="#02cddb"/>
          </g>
        </g>
        <g id="Grupo_55858" data-name="Grupo 55858" transform="translate(133.823 442.214)">
          <g id="Grupo_55855" data-name="Grupo 55855" transform="translate(53.061 53.305)">
            <rect id="Rectángulo_5773" data-name="Rectángulo 5773" width="2.557" height="28.129" fill="#02cddb"/>
          </g>
          <g id="Grupo_55856" data-name="Grupo 55856">
            <path id="Trazado_104241" data-name="Trazado 104241" d="M381.844,828.619c0,.018,0,.035,0,.053a51.783,51.783,0,1,1-103.566,0c0-.018,0-.035,0-.053h-2.557c0,.018,0,.035,0,.053a54.34,54.34,0,0,0,108.68,0c0-.018,0-.035,0-.053Z" transform="translate(-275.723 -828.619)" fill="#02cddb"/>
          </g>
          <g id="Grupo_55857" data-name="Grupo 55857" transform="translate(50.184 76.959)">
            <circle id="Elipse_4531" data-name="Elipse 4531" cx="4.155" cy="4.155" r="4.155" fill="#02cddb"/>
          </g>
        </g>
        <g id="Grupo_55859" data-name="Grupo 55859" transform="translate(156.416 306.288)">
          <path id="Trazado_104242" data-name="Trazado 104242" d="M321.587,623.818c1.537.808,2.927,1.507,4.283,2.268a1.6,1.6,0,0,0,1.7-.057c1.82-.869,2.706-2.066,2.045-4.12a3.507,3.507,0,0,1-.036-.931c-.077-2.337-.087-2.365,2.093-3.142,1.28-.456,2.6-.809,3.9-1.205a1.13,1.13,0,0,1,1.525.609c.533.992,1.312,1.865,1.755,2.89.621,1.433,1.744,1.077,2.845,1.107a1.982,1.982,0,0,0,2.222-1.4,23.816,23.816,0,0,1,1.577-3.252,1.215,1.215,0,0,1,.933-.577c1.949.336,3.881.775,5.821,1.161a1.118,1.118,0,0,1,.978,1.231c.025,1.207.1,2.415.073,3.62a1.844,1.844,0,0,0,1.043,1.722,3.114,3.114,0,0,0,4.5-.362.566.566,0,0,1,.1-.065c2.685-1.8,2.693-1.812,5.073.349a31.278,31.278,0,0,1,2.491,2.457,1.343,1.343,0,0,1,.149,1.184c-.54,1.2-1.167,2.374-1.822,3.521a1.63,1.63,0,0,0,.059,1.8c.894,1.712,2.034,2.635,4.045,1.993a4.884,4.884,0,0,1,1.163-.057c2.126-.127,2.154-.138,2.882,1.933.476,1.355.849,2.746,1.28,4.117a1.088,1.088,0,0,1-.59,1.44c-1.078.621-2.089,1.362-3.175,1.969-.715.4-.8.926-.886,1.689-.212,1.927.481,3.1,2.35,3.624a8.193,8.193,0,0,1,1.369.648c1.7.846,1.749.855,1.424,2.687-.264,1.49-.671,2.953-.978,4.436a1.134,1.134,0,0,1-1.26,1.06c-1.283,0-2.566.13-3.85.134-.721,0-1.029.357-1.441.913-1.277,1.724-.942,3.115.313,4.733,1.928,2.484,1.84,2.575-.221,4.947-.765.88-1.626,1.676-2.418,2.533a1.015,1.015,0,0,1-1.438.2c-1.185-.669-2.384-1.326-3.624-1.881a1.9,1.9,0,0,0-1.358.059c-1.873.8-2.9,2.072-2.186,4.246a4.948,4.948,0,0,1,.059,1.279c.078,1.879.093,1.919-1.64,2.532-1.463.518-2.969.913-4.446,1.393a1.071,1.071,0,0,1-1.431-.589c-.69-1.174-1.408-2.336-2.2-3.445a1.851,1.851,0,0,0-1.1-.572c-2.233-.421-3.394.616-4.212,2.7-1.09,2.767-1.255,2.729-4.186,2.207-1.144-.2-2.259-.573-3.4-.813a1.188,1.188,0,0,1-1.051-1.3c-.022-1.246-.094-2.492-.082-3.737.008-.77-.4-1.1-.988-1.529-1.752-1.291-3.215-.974-4.714.413a22.5,22.5,0,0,1-2.568,1.761c-1.685-1.563-3.425-3.147-5.109-4.786-.167-.163-.106-.721.031-1.008q.857-1.789,1.839-3.515a1.708,1.708,0,0,0-.088-1.8c-.905-1.974-2.275-2.2-4.3-2.012-3.553.323-2.739.845-4-2.493-.505-1.336-1.327-2.938-.969-4.1.324-1.051,2.066-1.657,3.166-2.48.482-.361,1.254-.723,1.321-1.171a11.284,11.284,0,0,0-.14-3.127c-.033-.24-.478-.471-.775-.622-1.215-.616-2.468-1.158-3.655-1.822a1.3,1.3,0,0,1-.572-1.034c.306-1.915.722-3.812,1.092-5.716a1.112,1.112,0,0,1,1.3-1.011c1.245.027,2.491-.068,3.737-.061.765,0,1.112-.389,1.525-1,1.11-1.635,1.177-3.1-.311-4.508a1.651,1.651,0,0,1-.2-.29c-1.658-2.469-1.676-2.484.275-4.7C319.464,625.984,320.514,624.946,321.587,623.818Zm21.432,5.034a19.1,19.1,0,1,0,19.031,19.185A19.108,19.108,0,0,0,343.018,628.852Z" transform="translate(-311.064 -616)" fill="#fff"/>
          <path id="Trazado_104243" data-name="Trazado 104243" d="M350.973,673.522A17.5,17.5,0,1,1,368.5,655.941,17.523,17.523,0,0,1,350.973,673.522Zm-13.418-17.516a13.484,13.484,0,1,0,13.771-13.415A13.605,13.605,0,0,0,337.555,656.006Z" transform="translate(-319.157 -624.124)" fill="#fff"/>
        </g>
        <g id="Grupo_55860" data-name="Grupo 55860" transform="translate(156.416 198.247)">
          <path id="Trazado_104244" data-name="Trazado 104244" d="M321.587,454.818c1.537.808,2.927,1.507,4.283,2.268a1.6,1.6,0,0,0,1.7-.057c1.82-.869,2.706-2.066,2.045-4.12a3.507,3.507,0,0,1-.036-.931c-.077-2.337-.087-2.365,2.093-3.141,1.28-.456,2.6-.809,3.9-1.205a1.13,1.13,0,0,1,1.525.609c.533.992,1.312,1.865,1.755,2.89.621,1.433,1.744,1.077,2.845,1.107a1.982,1.982,0,0,0,2.222-1.4,23.811,23.811,0,0,1,1.577-3.251,1.216,1.216,0,0,1,.933-.577c1.949.336,3.881.775,5.821,1.161a1.118,1.118,0,0,1,.978,1.231c.025,1.207.1,2.415.073,3.62a1.844,1.844,0,0,0,1.043,1.722,3.114,3.114,0,0,0,4.5-.362.566.566,0,0,1,.1-.065c2.685-1.8,2.693-1.812,5.073.349a31.288,31.288,0,0,1,2.491,2.457,1.343,1.343,0,0,1,.149,1.184c-.54,1.2-1.167,2.374-1.822,3.521a1.63,1.63,0,0,0,.059,1.8c.894,1.712,2.034,2.635,4.045,1.993a4.886,4.886,0,0,1,1.163-.057c2.126-.127,2.154-.138,2.882,1.933.476,1.355.849,2.746,1.28,4.117a1.088,1.088,0,0,1-.59,1.44c-1.078.621-2.089,1.362-3.175,1.968-.715.4-.8.926-.886,1.689-.212,1.927.481,3.1,2.35,3.624a8.183,8.183,0,0,1,1.369.648c1.7.846,1.749.855,1.424,2.687-.264,1.49-.671,2.953-.978,4.436a1.134,1.134,0,0,1-1.26,1.06c-1.283,0-2.566.13-3.85.134-.721,0-1.029.357-1.441.913-1.277,1.724-.942,3.115.313,4.733,1.928,2.484,1.84,2.575-.221,4.947-.765.88-1.626,1.676-2.418,2.533a1.015,1.015,0,0,1-1.438.2c-1.185-.669-2.384-1.326-3.624-1.881a1.9,1.9,0,0,0-1.358.059c-1.873.8-2.9,2.072-2.186,4.246a4.948,4.948,0,0,1,.059,1.279c.078,1.879.093,1.919-1.64,2.532-1.463.518-2.969.913-4.446,1.393a1.071,1.071,0,0,1-1.431-.589c-.69-1.174-1.408-2.336-2.2-3.445a1.851,1.851,0,0,0-1.1-.572c-2.233-.421-3.394.616-4.212,2.7-1.09,2.768-1.255,2.729-4.186,2.207-1.144-.2-2.259-.573-3.4-.813a1.188,1.188,0,0,1-1.051-1.3c-.022-1.246-.094-2.492-.082-3.737.008-.77-.4-1.1-.988-1.529-1.752-1.291-3.215-.974-4.714.413a22.513,22.513,0,0,1-2.568,1.761c-1.685-1.563-3.425-3.147-5.109-4.786-.167-.163-.106-.721.031-1.008q.857-1.788,1.839-3.515a1.708,1.708,0,0,0-.088-1.8c-.905-1.974-2.275-2.2-4.3-2.013-3.553.324-2.739.845-4-2.493-.505-1.336-1.327-2.938-.969-4.1.324-1.051,2.066-1.657,3.166-2.48.482-.361,1.254-.723,1.321-1.171a11.284,11.284,0,0,0-.14-3.127c-.033-.24-.478-.471-.775-.622-1.215-.616-2.468-1.158-3.655-1.822a1.3,1.3,0,0,1-.572-1.034c.306-1.915.722-3.811,1.092-5.716a1.113,1.113,0,0,1,1.3-1.011c1.245.027,2.491-.068,3.737-.061.765,0,1.112-.389,1.525-1,1.11-1.635,1.177-3.1-.311-4.508a1.654,1.654,0,0,1-.2-.29c-1.658-2.469-1.676-2.484.275-4.7C319.464,456.984,320.514,455.946,321.587,454.818Zm21.432,5.034a19.1,19.1,0,1,0,19.031,19.185A19.108,19.108,0,0,0,343.018,459.852Z" transform="translate(-311.064 -447)" fill="#fff"/>
          <path id="Trazado_104245" data-name="Trazado 104245" d="M350.973,504.522A17.5,17.5,0,1,1,368.5,486.941,17.523,17.523,0,0,1,350.973,504.522Zm-13.418-17.516a13.484,13.484,0,1,0,13.771-13.415A13.605,13.605,0,0,0,337.555,487.006Z" transform="translate(-319.157 -455.124)" fill="#fff"/>
        </g>
        <g id="Grupo_55861" data-name="Grupo 55861" transform="translate(156.416 92.124)">
          <path id="Trazado_104246" data-name="Trazado 104246" d="M321.587,288.818c1.537.808,2.927,1.507,4.283,2.268a1.6,1.6,0,0,0,1.7-.057c1.82-.869,2.706-2.066,2.045-4.12a3.507,3.507,0,0,1-.036-.931c-.077-2.337-.087-2.365,2.093-3.141,1.28-.456,2.6-.809,3.9-1.205a1.13,1.13,0,0,1,1.525.609c.533.992,1.312,1.865,1.755,2.89.621,1.433,1.744,1.077,2.845,1.107a1.982,1.982,0,0,0,2.222-1.4,23.811,23.811,0,0,1,1.577-3.251,1.215,1.215,0,0,1,.933-.577c1.949.336,3.881.775,5.821,1.161a1.118,1.118,0,0,1,.978,1.231c.025,1.207.1,2.415.073,3.62a1.845,1.845,0,0,0,1.043,1.722,3.114,3.114,0,0,0,4.5-.363.56.56,0,0,1,.1-.065c2.685-1.8,2.693-1.812,5.073.349a31.288,31.288,0,0,1,2.491,2.457,1.343,1.343,0,0,1,.149,1.184c-.54,1.2-1.167,2.374-1.822,3.521a1.63,1.63,0,0,0,.059,1.8c.894,1.712,2.034,2.635,4.045,1.993a4.884,4.884,0,0,1,1.163-.057c2.126-.127,2.154-.138,2.882,1.933.476,1.355.849,2.746,1.28,4.117a1.088,1.088,0,0,1-.59,1.44c-1.078.621-2.089,1.362-3.175,1.968-.715.4-.8.926-.886,1.689-.212,1.927.481,3.1,2.35,3.624a8.186,8.186,0,0,1,1.369.648c1.7.846,1.749.855,1.424,2.687-.264,1.49-.671,2.953-.978,4.436a1.134,1.134,0,0,1-1.26,1.06c-1.283,0-2.566.13-3.85.134-.721,0-1.029.357-1.441.913-1.277,1.724-.942,3.115.313,4.733,1.928,2.484,1.84,2.575-.221,4.947-.765.88-1.626,1.676-2.418,2.533a1.015,1.015,0,0,1-1.438.2c-1.185-.669-2.384-1.326-3.624-1.881a1.9,1.9,0,0,0-1.358.059c-1.873.8-2.9,2.072-2.186,4.246a4.948,4.948,0,0,1,.059,1.279c.078,1.879.093,1.919-1.64,2.532-1.463.518-2.969.913-4.446,1.393a1.071,1.071,0,0,1-1.431-.589c-.69-1.174-1.408-2.336-2.2-3.445a1.852,1.852,0,0,0-1.1-.572c-2.233-.421-3.394.616-4.212,2.7-1.09,2.767-1.255,2.729-4.186,2.207-1.144-.2-2.259-.573-3.4-.813a1.188,1.188,0,0,1-1.051-1.3c-.022-1.246-.094-2.492-.082-3.737.008-.77-.4-1.1-.988-1.529-1.752-1.291-3.215-.974-4.714.413a22.513,22.513,0,0,1-2.568,1.761c-1.685-1.563-3.425-3.147-5.109-4.786-.167-.163-.106-.721.031-1.008q.857-1.788,1.839-3.515a1.707,1.707,0,0,0-.088-1.8c-.905-1.974-2.275-2.2-4.3-2.012-3.553.323-2.739.845-4-2.493-.505-1.336-1.327-2.938-.969-4.1.324-1.051,2.066-1.657,3.166-2.48.482-.361,1.254-.723,1.321-1.171a11.284,11.284,0,0,0-.14-3.127c-.033-.24-.478-.471-.775-.622-1.215-.616-2.468-1.158-3.655-1.822a1.294,1.294,0,0,1-.572-1.034c.306-1.915.722-3.811,1.092-5.716a1.112,1.112,0,0,1,1.3-1.011c1.245.027,2.491-.068,3.737-.061.765,0,1.112-.389,1.525-1,1.11-1.635,1.177-3.1-.311-4.508a1.652,1.652,0,0,1-.2-.29c-1.658-2.469-1.676-2.484.275-4.7C319.464,290.984,320.514,289.946,321.587,288.818Zm21.432,5.034a19.1,19.1,0,1,0,19.031,19.185A19.108,19.108,0,0,0,343.018,293.852Z" transform="translate(-311.064 -281)" fill="#fff"/>
          <path id="Trazado_104247" data-name="Trazado 104247" d="M350.973,338.522A17.5,17.5,0,1,1,368.5,320.941,17.523,17.523,0,0,1,350.973,338.522Zm-13.418-17.516a13.484,13.484,0,1,0,13.771-13.415A13.605,13.605,0,0,0,337.555,321.006Z" transform="translate(-319.157 -289.124)" fill="#fff"/>
        </g>
        <g id="Grupo_55862" data-name="Grupo 55862" transform="translate(156.416 411.772)">
          <path id="Trazado_104248" data-name="Trazado 104248" d="M321.587,788.818c1.537.808,2.927,1.507,4.283,2.268a1.6,1.6,0,0,0,1.7-.057c1.82-.87,2.706-2.066,2.045-4.12a3.506,3.506,0,0,1-.036-.931c-.077-2.337-.087-2.365,2.093-3.142,1.28-.456,2.6-.809,3.9-1.2a1.13,1.13,0,0,1,1.525.609c.533.992,1.312,1.865,1.755,2.89.621,1.433,1.744,1.077,2.845,1.107a1.982,1.982,0,0,0,2.222-1.4,23.818,23.818,0,0,1,1.577-3.251,1.216,1.216,0,0,1,.933-.577c1.949.336,3.881.775,5.821,1.161a1.118,1.118,0,0,1,.978,1.231c.025,1.207.1,2.415.073,3.62a1.844,1.844,0,0,0,1.043,1.722,3.114,3.114,0,0,0,4.5-.362.566.566,0,0,1,.1-.065c2.685-1.8,2.693-1.812,5.073.349a31.277,31.277,0,0,1,2.491,2.457,1.343,1.343,0,0,1,.149,1.184c-.54,1.2-1.167,2.374-1.822,3.521a1.63,1.63,0,0,0,.059,1.8c.894,1.712,2.034,2.635,4.045,1.993a4.887,4.887,0,0,1,1.163-.057c2.126-.127,2.154-.138,2.882,1.933.476,1.355.849,2.746,1.28,4.117a1.088,1.088,0,0,1-.59,1.44c-1.078.621-2.089,1.362-3.175,1.968-.715.4-.8.926-.886,1.689-.212,1.927.481,3.1,2.35,3.624a8.194,8.194,0,0,1,1.369.648c1.7.846,1.749.855,1.424,2.687-.264,1.49-.671,2.953-.978,4.436a1.134,1.134,0,0,1-1.26,1.06c-1.283,0-2.566.13-3.85.134-.721,0-1.029.357-1.441.913-1.277,1.724-.942,3.115.313,4.733,1.928,2.484,1.84,2.575-.221,4.947-.765.88-1.626,1.676-2.418,2.533a1.015,1.015,0,0,1-1.438.2c-1.185-.669-2.384-1.326-3.624-1.881a1.9,1.9,0,0,0-1.358.059c-1.873.8-2.9,2.072-2.186,4.246a4.948,4.948,0,0,1,.059,1.279c.078,1.879.093,1.919-1.64,2.532-1.463.518-2.969.913-4.446,1.393a1.071,1.071,0,0,1-1.431-.59c-.69-1.174-1.408-2.336-2.2-3.444a1.851,1.851,0,0,0-1.1-.572c-2.233-.421-3.394.616-4.212,2.7-1.09,2.768-1.255,2.729-4.186,2.207-1.144-.2-2.259-.573-3.4-.813a1.188,1.188,0,0,1-1.051-1.3c-.022-1.246-.094-2.492-.082-3.737.008-.77-.4-1.1-.988-1.529-1.752-1.291-3.215-.974-4.714.413a22.506,22.506,0,0,1-2.568,1.761c-1.685-1.563-3.425-3.147-5.109-4.786-.167-.163-.106-.721.031-1.008q.857-1.788,1.839-3.515a1.708,1.708,0,0,0-.088-1.8c-.905-1.974-2.275-2.2-4.3-2.012-3.553.323-2.739.845-4-2.493-.505-1.335-1.327-2.937-.969-4.1.324-1.051,2.066-1.657,3.166-2.48.482-.361,1.254-.723,1.321-1.171a11.284,11.284,0,0,0-.14-3.127c-.033-.24-.478-.471-.775-.622-1.215-.616-2.468-1.158-3.655-1.822a1.3,1.3,0,0,1-.572-1.034c.306-1.915.722-3.812,1.092-5.716a1.113,1.113,0,0,1,1.3-1.011c1.245.027,2.491-.068,3.737-.061.765,0,1.112-.389,1.525-1,1.11-1.635,1.177-3.1-.311-4.508a1.651,1.651,0,0,1-.2-.29c-1.658-2.469-1.676-2.484.275-4.7C319.464,790.984,320.514,789.946,321.587,788.818Zm21.432,5.034a19.1,19.1,0,1,0,19.031,19.185A19.108,19.108,0,0,0,343.018,793.852Z" transform="translate(-311.064 -781)" fill="#fff"/>
          <path id="Trazado_104249" data-name="Trazado 104249" d="M350.973,838.522A17.5,17.5,0,1,1,368.5,820.941,17.523,17.523,0,0,1,350.973,838.522Zm-13.418-17.516a13.484,13.484,0,1,0,13.771-13.415A13.605,13.605,0,0,0,337.555,821.006Z" transform="translate(-319.157 -789.124)" fill="#fff"/>
        </g>
      </g>
    </g>
  </g>
</svg>
