<svg xmlns="http://www.w3.org/2000/svg" width="501" height="388" viewBox="0 0 501 388">
  <g id="Grupo_56393" data-name="Grupo 56393" transform="translate(-912 -400)">
    <rect id="Rectángulo_5707" data-name="Rectángulo 5707" width="501" height="388" transform="translate(912 400)" fill="none"/>
    <g id="Grupo_56392" data-name="Grupo 56392" transform="translate(929 448)">
      <path id="Trazado_105106" data-name="Trazado 105106" d="M487.07,416.716l15.474,6.881,19.57-19.57,53.881,41.056v24.8H404.513V342.358l71.645,86.7Z" transform="translate(-371.43 -187.35)" fill="#02cddb"/>
      <g id="Grupo_56368" data-name="Grupo 56368" transform="translate(27.282 134.668)">
        <g id="Grupo_56367" data-name="Grupo 56367" transform="translate(7.789 7.672)">
          <path id="Trazado_105107" data-name="Trazado 105107" d="M407.08,323.519l66.846,84.735L484.743,395.2l15.833,7.511,20.112-21.46L574,424.6v5.211l-53.12-43.186-19.814,21.142L485.33,400.3l-11.446,13.817-69.371-87.939A28.114,28.114,0,0,0,407.08,323.519Z" transform="translate(-404.513 -323.519)" fill="#f9c141"/>
        </g>
        <path id="Trazado_105108" data-name="Trazado 105108" d="M644.7,312.109l15.773,5.34L650.04,327.883Z" transform="translate(-644.7 -312.109)" fill="#f9c141"/>
      </g>
      <g id="Grupo_56376" data-name="Grupo 56376" transform="translate(0 60.548)">
        <g id="Grupo_56369" data-name="Grupo 56369" transform="translate(170.117 0)">
          <path id="Trazado_105109" data-name="Trazado 105109" d="M316.7,201.881h89.059a3.176,3.176,0,1,1,0,6.343H316.7a3.176,3.176,0,1,1,0-6.343Z" transform="translate(-313.364 -201.881)" fill="#794ccb"/>
          <path id="Trazado_105110" data-name="Trazado 105110" d="M261.165,201.881h22.481a3.176,3.176,0,1,1,0,6.343H261.165a3.176,3.176,0,1,1,0-6.343Z" transform="translate(-153.902 -201.881)" fill="#794ccb"/>
        </g>
        <g id="Grupo_56370" data-name="Grupo 56370" transform="translate(163.59 188.428)">
          <path id="Trazado_105111" data-name="Trazado 105111" d="M326.411,482.1h89.059a3.176,3.176,0,1,1,0,6.343H326.411a3.176,3.176,0,1,1,0-6.343Z" transform="translate(-323.072 -482.103)" fill="#794ccb"/>
          <path id="Trazado_105112" data-name="Trazado 105112" d="M270.872,482.1h22.48a3.176,3.176,0,1,1,0,6.343h-22.48a3.176,3.176,0,1,1,0-6.343Z" transform="translate(-163.61 -482.103)" fill="#794ccb"/>
        </g>
        <g id="Grupo_56371" data-name="Grupo 56371" transform="translate(371.972 188.891)">
          <path id="Trazado_105113" data-name="Trazado 105113" d="M80.457,487.3H17.068a2.257,2.257,0,1,1,0-4.508h63.39a2.257,2.257,0,1,1,0,4.508Z" transform="translate(11.884 -482.792)" fill="#794ccb"/>
          <path id="Trazado_105114" data-name="Trazado 105114" d="M143.071,487.3h-16a2.257,2.257,0,1,1,0-4.508h16a2.257,2.257,0,1,1,0,4.508Z" transform="translate(-124.698 -482.792)" fill="#794ccb"/>
        </g>
        <g id="Grupo_56372" data-name="Grupo 56372" transform="translate(0 191.34)">
          <path id="Trazado_105115" data-name="Trazado 105115" d="M633.639,490.943h-63.39a2.257,2.257,0,1,1,0-4.508h63.39a2.257,2.257,0,1,1,0,4.508Z" transform="translate(-541.297 -486.435)" fill="#794ccb"/>
          <path id="Trazado_105116" data-name="Trazado 105116" d="M696.25,490.943h-16a2.257,2.257,0,1,1,0-4.508h16a2.257,2.257,0,1,1,0,4.508Z" transform="translate(-677.878 -486.435)" fill="#794ccb"/>
        </g>
        <g id="Grupo_56374" data-name="Grupo 56374" transform="translate(353.834 31.793)">
          <g id="Grupo_56373" data-name="Grupo 56373">
            <path id="Trazado_105117" data-name="Trazado 105117" d="M113.007,249.163h44.529a1.588,1.588,0,1,1,0,3.172H113.007a1.588,1.588,0,1,1,0-3.172Z" transform="translate(-111.337 -249.163)" fill="#794ccb"/>
            <path id="Trazado_105118" data-name="Trazado 105118" d="M85.237,249.163H96.482a1.588,1.588,0,1,1,0,3.172H85.237a1.588,1.588,0,1,1,0-3.172Z" transform="translate(-31.61 -249.163)" fill="#794ccb"/>
          </g>
        </g>
        <g id="Grupo_56375" data-name="Grupo 56375" transform="translate(343.986 198.788)">
          <path id="Trazado_105119" data-name="Trazado 105119" d="M127.651,497.511H172.18a1.588,1.588,0,1,1,0,3.171H127.651a1.588,1.588,0,1,1,0-3.171Z" transform="translate(-125.981 -497.511)" fill="#794ccb"/>
          <path id="Trazado_105120" data-name="Trazado 105120" d="M99.867,497.511h11.245a1.588,1.588,0,1,1,0,3.171H99.867a1.588,1.588,0,1,1,0-3.171Z" transform="translate(-46.231 -497.511)" fill="#794ccb"/>
        </g>
      </g>
      <g id="Grupo_56386" data-name="Grupo 56386" transform="translate(125.701 0.25)">
        <g id="Grupo_56377" data-name="Grupo 56377" transform="translate(14.183 45.42)">
          <path id="Trazado_105121" data-name="Trazado 105121" d="M247.646,504.9h52.683L296,441.39H251.977Z" transform="translate(-130.169 -265.46)" fill="#0c0236"/>
          <path id="Trazado_105122" data-name="Trazado 105122" d="M233.214,519.971a3.442,3.442,0,0,1,2.86-1.526h60.772a3.445,3.445,0,0,1,2.861,1.526l7.959,11.876a3.443,3.443,0,0,1-2.86,5.36H228.114a3.443,3.443,0,0,1-2.86-5.36Z" transform="translate(-122.641 -290.701)" fill="#0c0236"/>
          <path id="Rectángulo_5883" data-name="Rectángulo 5883" d="M22.049,0H265.587a22.05,22.05,0,0,1,22.05,22.05V170.764a22.05,22.05,0,0,1-22.05,22.05H22.05A22.05,22.05,0,0,1,0,170.764V22.049A22.049,22.049,0,0,1,22.049,0Z" fill="#0c0236"/>
          <rect id="Rectángulo_5884" data-name="Rectángulo 5884" width="261.151" height="165.269" transform="translate(13.243 12.775)" fill="#fdfdfd"/>
          <rect id="Rectángulo_5885" data-name="Rectángulo 5885" width="248.103" height="147.27" transform="translate(19.768 30.773)" fill="#e4e6ed"/>
          <rect id="Rectángulo_5886" data-name="Rectángulo 5886" width="248.103" height="12.183" transform="translate(19.768 30.773)" fill="#97edf5"/>
          <rect id="Rectángulo_5887" data-name="Rectángulo 5887" width="77.051" height="10.171" transform="translate(31.811 82.693)" fill="#fdfdfd"/>
          <rect id="Rectángulo_5888" data-name="Rectángulo 5888" width="77.051" height="10.171" transform="translate(31.811 100.674)" fill="#fdfdfd"/>
          <rect id="Rectángulo_5889" data-name="Rectángulo 5889" width="77.051" height="10.17" transform="translate(31.811 118.655)" fill="#fdfdfd"/>
          <rect id="Rectángulo_5890" data-name="Rectángulo 5890" width="77.051" height="10.171" transform="translate(167.937 55.182)" fill="#fdfdfd"/>
          <rect id="Rectángulo_5891" data-name="Rectángulo 5891" width="77.051" height="10.17" transform="translate(167.937 73.163)" fill="#fdfdfd"/>
        </g>
        <g id="Grupo_56380" data-name="Grupo 56380" transform="translate(0 0)">
          <g id="Grupo_56378" data-name="Grupo 56378" transform="translate(176.488 121.726)">
            <path id="Trazado_105123" data-name="Trazado 105123" d="M24.787,293.233H170.254a9.223,9.223,0,0,1,9.223,9.224v46.908a9.223,9.223,0,0,1-9.223,9.223H79.12L44.407,388.1,60.89,358.587h-36.1a9.223,9.223,0,0,1-9.224-9.223V302.457A9.223,9.223,0,0,1,24.787,293.233Z" transform="translate(-15.563 -293.233)" fill="#7b3cee"/>
            <rect id="Rectángulo_5892" data-name="Rectángulo 5892" width="98.032" height="5.644" transform="translate(11.068 12.649)" fill="#fff"/>
            <rect id="Rectángulo_5893" data-name="Rectángulo 5893" width="98.032" height="5.644" transform="translate(11.068 24.165)" fill="#fff"/>
            <rect id="Rectángulo_5894" data-name="Rectángulo 5894" width="98.032" height="5.644" transform="translate(11.068 35.68)" fill="#fff"/>
            <rect id="Rectángulo_5895" data-name="Rectángulo 5895" width="65.065" height="5.644" transform="translate(44.035 47.196)" fill="#fff"/>
            <path id="Trazado_105124" data-name="Trazado 105124" d="M29.285,331.117A18.913,18.913,0,1,0,48.2,312.2,18.913,18.913,0,0,0,29.285,331.117Z" transform="translate(87.576 -299.448)" fill="#0c0236"/>
            <ellipse id="Elipse_4628" data-name="Elipse 4628" cx="5.337" cy="5.504" rx="5.337" ry="5.504" transform="translate(130.437 20.541)" fill="#fff"/>
            <path id="Trazado_105125" data-name="Trazado 105125" d="M52.653,341.386h.192a9.475,9.475,0,0,1,9.475,9.475V356.9a18.4,18.4,0,0,1-19.143,0v-6.042A9.476,9.476,0,0,1,52.653,341.386Z" transform="translate(83.026 -309.007)" fill="#fff"/>
          </g>
          <g id="Grupo_56379" data-name="Grupo 56379">
            <path id="Trazado_105126" data-name="Trazado 105126" d="M287.252,112.207H432.718a9.223,9.223,0,0,1,9.224,9.224v46.908a9.223,9.223,0,0,1-9.224,9.224H390.6l11.285,29.515-29.515-29.515H287.252a9.223,9.223,0,0,1-9.224-9.224V121.431A9.223,9.223,0,0,1,287.252,112.207Z" transform="translate(-278.028 -112.207)" fill="#d0d1de"/>
            <rect id="Rectángulo_5896" data-name="Rectángulo 5896" width="98.032" height="5.645" transform="translate(11.068 12.649)" fill="#fff"/>
            <rect id="Rectángulo_5897" data-name="Rectángulo 5897" width="98.032" height="5.644" transform="translate(11.068 24.165)" fill="#fff"/>
            <rect id="Rectángulo_5898" data-name="Rectángulo 5898" width="98.032" height="5.644" transform="translate(11.068 35.681)" fill="#fff"/>
            <rect id="Rectángulo_5899" data-name="Rectángulo 5899" width="65.065" height="5.644" transform="translate(44.035 47.196)" fill="#fff"/>
            <path id="Trazado_105127" data-name="Trazado 105127" d="M291.75,150.092a18.912,18.912,0,1,0,18.912-18.912A18.913,18.913,0,0,0,291.75,150.092Z" transform="translate(-174.888 -118.422)" fill="#0c0236"/>
            <path id="Trazado_105128" data-name="Trazado 105128" d="M311.939,148.26a5.34,5.34,0,1,0,5.337-5.5A5.423,5.423,0,0,0,311.939,148.26Z" transform="translate(-181.502 -122.214)" fill="#fff"/>
            <path id="Trazado_105129" data-name="Trazado 105129" d="M315.117,160.361h.192a9.475,9.475,0,0,1,9.475,9.475v6.042a18.4,18.4,0,0,1-19.142,0v-6.042A9.475,9.475,0,0,1,315.117,160.361Z" transform="translate(-179.439 -127.981)" fill="#fff"/>
          </g>
        </g>
        <g id="Grupo_56381" data-name="Grupo 56381" transform="translate(41.516 190.773)">
          <rect id="Rectángulo_5900" data-name="Rectángulo 5900" width="74.692" height="23.705" rx="11.852" fill="#7b3cee"/>
        </g>
        <g id="Grupo_56385" data-name="Grupo 56385" transform="translate(32.091 45.256)">
          <path id="Trazado_105130" data-name="Trazado 105130" d="M275.262,283.868a42.87,42.87,0,0,0,11.671.516,17.326,17.326,0,0,0,4.1-.892c-.189,4.86-.226,16.25,3.232,20.967,0,0-1.245,5.6-11.357,5.767s-11.252-7.463-11.252-7.463S275.055,291.037,275.262,283.868Z" transform="translate(-158.154 -213.572)" fill="#ffb280"/>
          <path id="Trazado_105131" data-name="Trazado 105131" d="M292.443,304.635a4.149,4.149,0,0,1-.155.4c-.007.015-.017.034-.024.05a5.768,5.768,0,0,1-.313.59c-.006.01-.01.018-.016.028a6.835,6.835,0,0,1-.514.717c-.028.034-.057.069-.086.1a8.3,8.3,0,0,1-1.834,1.592c-.045.03-.087.059-.133.089a10.82,10.82,0,0,1-1.368.717c-.066.029-.137.055-.2.083a13.4,13.4,0,0,1-1.775.606,14.248,14.248,0,0,0-2.978-7.179,17.861,17.861,0,0,0-11.387-6.61,68.57,68.57,0,0,0,1.84-11.952,42.87,42.87,0,0,0,11.671.516,17.326,17.326,0,0,0,4.1-.892c-.189,4.86-.226,16.25,3.232,20.967,0,0-.017.061-.034.12C292.456,304.6,292.45,304.615,292.443,304.635Z" transform="translate(-156.387 -213.572)" fill="#f0a16c"/>
          <path id="Trazado_105132" data-name="Trazado 105132" d="M300.762,242.286s-16.571-4.893-19.21-.88-2.16,10.5-3.26,13.351-5.211,5.867-5.65,7.009,2.755,3.324,3.2,4.217,2.113,10.271,4.99,12.34,18.305-3.425,22.127-10.711S305.206,244.686,300.762,242.286Z" transform="translate(-169.646 -199.268)" fill="#ffb280"/>
          <g id="Grupo_56383" data-name="Grupo 56383" transform="translate(106.681 53.2)">
            <g id="Grupo_56382" data-name="Grupo 56382">
              <path id="Trazado_105133" data-name="Trazado 105133" d="M305.179,266.293c-.077.843-.536,1.532-1.033,1.493s-.88-.766-.8-1.608.536-1.532,1.034-1.493C304.873,264.685,305.217,265.413,305.179,266.293Z" transform="translate(-297.055 -260.612)" fill="#231f20"/>
              <path id="Trazado_105134" data-name="Trazado 105134" d="M296.162,258.644s7.5-.307,8.307,1.761a36.152,36.152,0,0,0-7.541.038C294.325,260.9,295.014,258.759,296.162,258.644Z" transform="translate(-290.833 -258.628)" fill="#0f3662"/>
              <path id="Trazado_105135" data-name="Trazado 105135" d="M306.695,282.893l5.865-.046c.024,0-2.012,2.767-4.563,3.3A6.642,6.642,0,0,0,306.695,282.893Z" transform="translate(-306.695 -266.562)" fill="#fff"/>
            </g>
          </g>
          <path id="Trazado_105136" data-name="Trazado 105136" d="M260.407,244.26a16.447,16.447,0,0,0,1.745,8.561c.992,1.982-3.958,7.252-2.579,9.647.918,1.594,2.259,1.191,3.476-1.959a4.794,4.794,0,0,1,2.678-2.29c4.055-1.754,5,4.426,1.363,6.262-2.546,1.286-1.032,7.73-1.032,7.73,2.734,2.1,11.768-.432,10.779-7.029-.631-4.2-.91-5.8.561-6.822,2.663-1.852,6.129-6.991,1.746-11.35-6.039-6-.531-7.912-7.514-9.645S258.876,239.9,260.407,244.26Z" transform="translate(-136.837 -198.333)" fill="#0c0236"/>
          <path id="Trazado_105137" data-name="Trazado 105137" d="M304.2,238.512c-.393-1.523-3.148-3.487-4.511-4.5a20.105,20.105,0,0,0-7.148-3.225,18.461,18.461,0,0,0-7.964-.269c-2.265.434-4.166,1.44-6.484,1.7-2.142.243-4.273.148-5.777-1.12a14.776,14.776,0,0,0-.284,5.243c.376,2.066,1.741,3.916,2.979,5.763,3.36,5.015,12.506,7.791,18.952,5.141,3.115-1.281,5.911-2.388,7.44-5.1A16.219,16.219,0,0,1,304.2,238.512Z" transform="translate(-168.269 -196.116)" fill="#0c0236"/>
          <path id="Trazado_105138" data-name="Trazado 105138" d="M392.167,258.628l-16.018,35.554s4.688,5.275,6.252,4.1,25.592-30.02,27.936-31.518S392.167,258.628,392.167,258.628Z" transform="translate(-344.679 -205.428)" fill="#0c0236"/>
          <path id="Trazado_105139" data-name="Trazado 105139" d="M419.063,242.975S419,253.2,412.747,255.542c0,0-32.039-13.275-38.485-14.549s-29.89-1.47-29.89-1.47l23.638-42.2s11.33,22.662,21.685,30.086S419.063,242.975,419.063,242.975Z" transform="translate(-331.852 -185.347)" fill="#7b3cee"/>
          <path id="Trazado_105140" data-name="Trazado 105140" d="M373.623,266.658c-2.534-1.007-5.178-2.049-7.783-3.053,3.926-4.419,5.965-10.582,6.743-14.458,2.43,1.392,4.948,2.733,7.385,3.981A29.391,29.391,0,0,1,373.623,266.658Z" transform="translate(-307.192 -202.322)" fill="#0c0236"/>
          <path id="Trazado_105141" data-name="Trazado 105141" d="M414.97,202.343c-6.674,16.1-4.315,32.364,5.268,36.338s22.76-5.855,29.433-21.951,4.316-32.365-5.268-36.338S421.643,186.247,414.97,202.343Z" transform="translate(-411.175 -179.511)" fill="#02cddb"/>
          <path id="Trazado_105142" data-name="Trazado 105142" d="M421.029,204.8c-5.677,13.692-3.671,27.532,4.481,30.911s19.362-4.981,25.038-18.673,3.671-27.531-4.481-30.911S426.706,191.109,421.029,204.8Z" transform="translate(-415.942 -181.433)" fill="#0c0236"/>
          <path id="Trazado_105143" data-name="Trazado 105143" d="M400.359,292.658c.763-.461.548-3.323.393-4.069-.242-1.164-1.048-2.683-.239-3.8,1.429-1.97,3.439,3.329,3.7,4.1a5.563,5.563,0,0,1,.367,3.532,13.915,13.915,0,0,1-3.066,4.63c.149.529.311,1.075.512,1.66a35.262,35.262,0,0,0-3.861,1.955c-1.547.891-1.466,1.994-2.913,2.989l-1.446-3.322C394.413,299.575,399.089,293.427,400.359,292.658Z" transform="translate(-350.766 -213.855)" fill="#ffb280"/>
          <path id="Trazado_105144" data-name="Trazado 105144" d="M406.148,278.964c1.384-1.49,3.542-.918,5.217.3,1.224.892,4.747,3.743,3.8,5.809-.79,1.719-5.323-2.085-5.323-2.085,1.669,1.436,4.781,2.585,4,4.024-.873,1.6-4.831-.681-5.7-1.318.89.227,5.31,2.912,3.54,4.312-1.214.96-4.463-1.054-5.437-1.739,1.3.4,3.08,1.554,2.735,3.362-.567.989-2.538.334-3.636-.113-1.656-.673-3.216-.931-3.349-2.99a9.38,9.38,0,0,1-.057-1.118,11.3,11.3,0,0,1,1.458-4.48A19.521,19.521,0,0,1,406.148,278.964Z" transform="translate(-366.818 -211.798)" fill="#ffb280"/>
          <path id="Trazado_105145" data-name="Trazado 105145" d="M117.475,281.095a18.218,18.218,0,0,0,1.853-3.942c.412-1.18.7-2.386,1.112-3.566a9.247,9.247,0,0,0,.8-3.494,10.147,10.147,0,0,0-.428-2.132c-.236-.906-.569-1.788-.756-2.706-.165-.818-.093-1.612-.248-2.426a14.424,14.424,0,0,0-1.412-4.48,16.614,16.614,0,0,0-2.058-2.834,10.622,10.622,0,0,0-1.218-1.3A3.225,3.225,0,0,1,114,252.843a1.314,1.314,0,0,1,.957-1.769,4.912,4.912,0,0,1,4.542,1.487c1.206,1.66,1.776,3.693,3.119,5.294,4.111,4.9,7.966-.867,12.761-2.939a28.709,28.709,0,0,0,4.633-2.987c.857-.646,4.538-4.143,6.279-3.231,1.28.671-1.226,3.61-2.439,4.328-.478.283-4.586,3.619-5.121,3.78,1.21-.206,4.357-2.286,6.888-4.267,1.818-1.423,3.581-2.824,4.572-2.013,3.051,2.5-8.92,8.221-9.854,8.745,1,.085,10.369-6.551,11.256-4.111.488,1.341-1.457,2.671-3.048,3.536-2,1.084-5.342,1.86-6.095,2.445,1.411.479,7.617-3.742,7.619-1.166,0,1.686-3.853,2.949-5.3,3.39-1.494.456-5.884,3.441-7.274,4.1-4.633,2.208-6.544,1.952-8.372,4.726-1.165,1.769-3.238,11.11-4.918,14.666Z" transform="translate(90.509 -202.126)" fill="#ffb280"/>
          <path id="Trazado_105146" data-name="Trazado 105146" d="M328.707,303.816c4.13,12.026,12.964,33.3,15.88,31.807,5.471-2.8,17.244-12.429,26.04-18.317,6.816-4.563,10.229-5.894,10.229-5.894l-6.124,29.034s-29.024,22.043-35.1,18.665c-4.782-2.657-16.552-36.175-20.705-50.066C318.922,309.045,328.639,303.868,328.707,303.816Z" transform="translate(-276.531 -220.23)" fill="#02cddb"/>
          <path id="Trazado_105147" data-name="Trazado 105147" d="M342.854,356.112c3.271-4.247,15.754-16.472,19.131-19.077L361.01,350.8s-29.257,21.994-35.731,19.248C330.853,366.468,338.879,361.272,342.854,356.112Z" transform="translate(-261.935 -231.112)" fill="#00a8cb"/>
          <path id="Trazado_105148" data-name="Trazado 105148" d="M149.267,305.5s35.694,14.409,39.579,13.4,16.825-37.815,16.825-37.815l10.81,4.391s-11.545,53.082-18.977,55.564-51.734-10.316-51.734-10.316A75.1,75.1,0,0,1,149.267,305.5Z" transform="translate(4.305 -212.783)" fill="#02bdc9"/>
          <path id="Trazado_105149" data-name="Trazado 105149" d="M220.165,355.337c3.146,1.128,6.346,2.24,9.561,3.186-15.141-2-43.509-10.193-43.509-10.193a77.732,77.732,0,0,1,.775-13.491C195.78,344.356,208.279,351.072,220.165,355.337Z" transform="translate(-36.139 -230.393)" fill="#00a8cb"/>
          <path id="Trazado_105150" data-name="Trazado 105150" d="M420.071,225.484c1.633-5.035,6.545-7.954,10.973-6.518a7.628,7.628,0,0,1,3.689,2.672,44.181,44.181,0,0,1-2.058,6.284,42.57,42.57,0,0,1-5.51,9.608,7.372,7.372,0,0,1-2.033-.329C420.7,235.765,418.438,230.519,420.071,225.484Z" transform="translate(-398.067 -192.315)" fill="#d0d1de"/>
          <g id="Grupo_56384" data-name="Grupo 56384" transform="translate(97.299 87.803)">
            <path id="Trazado_105151" data-name="Trazado 105151" d="M297.55,358.424c1.259,12.389,2.241,38.427,2.982,42.067H241.966c-1.034-19.452-.689-47.624.272-57.99,1.678-18.063,6.124-29.034,6.124-29.034s4.373-1.382,9.56-3.379c0,0,10.78,6.588,20.816.089,0,0,18.12,4.29,20.311,5.336C300.868,316.381,296.2,345.2,297.55,358.424Z" transform="translate(-241.336 -310.088)" fill="#02cddb"/>
            <path id="Trazado_105152" data-name="Trazado 105152" d="M250.119,385.356a46.283,46.283,0,0,1,3.352-16.9,15.21,15.21,0,0,0,1.075-3.79,25.151,25.151,0,0,1,2.48-8.651c1.309-1.978,2.636-3.947,3.929-5.935.719-.974,1.474-2.005,2.308-3.224a55.682,55.682,0,0,0,3.577-6.327c-.687,9.1-1.9,21.243-1.23,27.866,1.259,12.389,2.241,38.427,2.982,42.067H241.336c3.5-4.507,5.606-9.995,7.664-16.688A29.98,29.98,0,0,0,250.119,385.356Z" transform="translate(-209.396 -320.06)" fill="#00a8cb"/>
          </g>
        </g>
      </g>
      <g id="Grupo_56389" data-name="Grupo 56389" transform="translate(316.923 5.012)">
        <g id="Grupo_56387" data-name="Grupo 56387" transform="translate(0 0)">
          <ellipse id="Elipse_4629" data-name="Elipse 4629" cx="27.641" cy="27.641" rx="27.641" ry="27.641" transform="matrix(0.267, -0.964, 0.964, 0.267, 0, 53.277)" fill="#fda812"/>
          <ellipse id="Elipse_4630" data-name="Elipse 4630" cx="24.554" cy="24.553" rx="24.554" ry="24.553" transform="translate(9.455 9.492)" fill="#f9c141"/>
        </g>
        <g id="Grupo_56388" data-name="Grupo 56388" transform="translate(24.196 18.765)">
          <path id="Trazado_105153" data-name="Trazado 105153" d="M179.739,177.706v-3.363a19.489,19.489,0,0,1-7.514-1.832l1.345-5.382A17.713,17.713,0,0,0,181.049,169c1.984,0,3.477-.446,3.477-1.684,0-1.12-1.159-1.758-4.263-2.5-4.375-1.046-7.813-3.03-7.813-7.105,0-3.624,2.617-6.394,7.292-7.179V147.2h4.449v3.065a17.65,17.65,0,0,1,6.32,1.272l-1.311,5.2a16.151,16.151,0,0,0-6.467-1.419c-2.391,0-2.99.785-2.99,1.532,0,.933,1.606,1.684,4.935,2.618,5.2,1.419,7.14,3.516,7.14,7.214,0,3.55-2.657,6.541-7.627,7.327v3.7h-4.453Z" transform="translate(-172.225 -147.196)" fill="#fff"/>
        </g>
      </g>
      <g id="Grupo_56390" data-name="Grupo 56390" transform="translate(9.878 0)">
        <ellipse id="Elipse_4631" data-name="Elipse 4631" cx="57.486" cy="57.486" rx="57.486" ry="57.486" fill="#794ccb"/>
        <ellipse id="Elipse_4632" data-name="Elipse 4632" cx="43.572" cy="43.572" rx="43.572" ry="43.572" transform="translate(19.564 106.056) rotate(-97.018)" fill="#fff"/>
        <ellipse id="Elipse_4633" data-name="Elipse 4633" cx="31.123" cy="31.123" rx="31.123" ry="31.123" transform="translate(80.626 94.927) rotate(-166.717)" fill="#794ccb"/>
        <path id="Trazado_105154" data-name="Trazado 105154" d="M576.694,186.891a21.42,21.42,0,1,0,21.42-21.419A21.42,21.42,0,0,0,576.694,186.891Z" transform="translate(-540.628 -129.406)" fill="#fff"/>
        <path id="Trazado_105155" data-name="Trazado 105155" d="M593.847,192.51a9.886,9.886,0,1,0,9.886-9.886A9.886,9.886,0,0,0,593.847,192.51Z" transform="translate(-546.247 -135.024)" fill="#794ccb"/>
      </g>
      <g id="Grupo_56391" data-name="Grupo 56391" transform="translate(7.281 57.197)">
        <path id="Trazado_105156" data-name="Trazado 105156" d="M663.73,285.147c-.813-1.045-3.761-4.291,2.581-9.188,6.038-4.663,14.446-10.128,14.446-10.128s-4.2,9.107-7.944,15.754C668.88,288.564,664.726,286.061,663.73,285.147Z" transform="translate(-656.842 -219.478)" fill="#794ccb"/>
        <path id="Trazado_105157" data-name="Trazado 105157" d="M611.765,254.709l5.517-9.142a53.707,53.707,0,0,1,5.7-7.771l36.058-40.9-27.3,42.774A53.709,53.709,0,0,1,620.4,252.415l-5.446,4.437A8.973,8.973,0,0,0,611.765,254.709Z" transform="translate(-601.117 -196.897)" fill="#0c0236"/>
        <path id="Trazado_105158" data-name="Trazado 105158" d="M686.132,263.764s-14.772-1.292-22.324,5.535,10.649,8.363,10.649,8.363Z" transform="translate(-661.973 -218.769)" fill="#794ccb"/>
        <path id="Trazado_105159" data-name="Trazado 105159" d="M671.992,263.787s3.746,14.348-1.721,22.936-10.027-9.1-10.027-9.1Z" transform="translate(-647.922 -218.809)" fill="#794ccb"/>
      </g>
    </g>
  </g>
</svg>
