<svg xmlns="http://www.w3.org/2000/svg" width="52" height="42" viewBox="0 0 52 42">
  <g id="Grupo_56400" data-name="Grupo 56400" transform="translate(-523 -2294)">
    <g id="Grupo_56395" data-name="Grupo 56395" transform="translate(33.022 1905.65)">
      <path id="Trazado_105161" data-name="Trazado 105161" d="M522.405,394.975c-.182-.026-.365-.043-.547-.057-1.3-.525-3.608-.895-6.319,1.19l-.064.057-.89.893a5.874,5.874,0,0,0-6.755-.379l-3.336-3.336L493.978,403.86l3.986,3.986a10.187,10.187,0,0,0,1.9,5.469,14.326,14.326,0,0,0,1.745,2.117c.822.833,1.654,1.655,2.482,2.483a2.407,2.407,0,0,0,.423,3.363,2.749,2.749,0,0,0,3.179.748.029.029,0,0,1,.031.011c.944,1.414,1.815,2.1,2.753,2.173.39.378.775.762,1.166,1.139a3.647,3.647,0,0,0,4.331.569,2.471,2.471,0,0,0,1.017-1.123c2.366,1.987,3.945,2.023,5.806-.764a.031.031,0,0,1,.032-.012,2.748,2.748,0,0,0,3.179-.748,2.432,2.432,0,0,0,.26-3.586c-.009-.011-.293-.382-.28-.381a2.214,2.214,0,0,0,1.756-.921,2.7,2.7,0,0,0-.123-3.652c.429-.432.863-.858,1.292-1.291a14.563,14.563,0,0,0,1.745-2.118,10.2,10.2,0,0,0,1.9-5.47l3.985-3.986L526.029,391.35Zm-20.156,18.931a9.7,9.7,0,0,1-2.514-4.289,7.509,7.509,0,0,1-.215-2.039l-4.043-4.043,8.692-8.692,2.787,2.786.184.185-.012.028,1.345.112.088-.218c.531-.362,2.735-1.584,5.677.658l3.892,3.91a1.05,1.05,0,0,1,0,1.476l-.257.256a1.045,1.045,0,0,1-1.475,0l-3.982-4-.968.677,1.077,1.262.467.469-1.373,1.372a.79.79,0,0,0-.211.363c-.022.024-.045.049-.068.072q-4.014,4.018-8.03,8.037A4.114,4.114,0,0,0,502.249,413.906Zm12.906,10.845a1.331,1.331,0,0,1-1.085.435,2.324,2.324,0,0,1-1.385-.838c-.188-.185-.375-.373-.563-.559a8.523,8.523,0,0,0,1.41-.988,2.473,2.473,0,0,0,1.017,1.124,3.5,3.5,0,0,0,.849.348A1.011,1.011,0,0,1,515.155,424.751Zm5.737-.539c-.6.7-1.28.763-2.152-.046-.136-.125-.268-.254-.4-.38a3.635,3.635,0,0,0,.543-.43c.5-.483.993-.972,1.491-1.455.053.053.106.105.158.159C521.35,422.882,521.458,423.547,520.892,424.212Zm4.16-2.175a1.426,1.426,0,0,1-2.352.019c-.41-.408-.82-.82-1.23-1.229.677-.661,1.356-1.319,2.03-1.983.38.382.763.761,1.144,1.143C525.378,420.724,525.5,421.42,525.052,422.037Zm1.684-4.873a1.394,1.394,0,0,1-1.942.731c-.07-.039-.138-.084-.205-.13.652-.646,1.3-1.3,1.946-1.947A1.268,1.268,0,0,1,526.736,417.164Zm8.31-15.623L531,405.584a7.9,7.9,0,0,1-.028.941,7.58,7.58,0,0,1-.187,1.1,9.688,9.688,0,0,1-2.53,4.306c-1.651,1.737-3.381,3.4-5.075,5.1-1.78,1.779-3.552,3.565-5.345,5.33a2.32,2.32,0,0,1-1.384.839,1.331,1.331,0,0,1-1.086-.436,1.6,1.6,0,0,1-.258-1.334,3.053,3.053,0,0,1,.856-1.205c.811-.83,1.637-1.645,2.456-2.467.4-.4.8-.8,1.189-1.209.418-.432,1.641-1.343.955-1.986-.63-.589-1.531.547-1.91.928-.4.4-.8.8-1.2,1.2-1.883,1.838-3.741,3.7-5.669,5.491-.873.81-1.557.748-2.153.046-.566-.664-.457-1.329.364-2.152q3.2-3.206,6.4-6.406a1.521,1.521,0,0,0,.612-.953c.041-.338-.083-.638-.43-.69a1.24,1.24,0,0,0-1.22.513q-3.768,3.766-7.537,7.533a1.424,1.424,0,0,1-2.351-.02c-.452-.616-.327-1.312.408-2.049q3.822-3.838,7.661-7.66c.417-.415.745-.88.233-1.359-.488-.458-.91-.053-1.283.321q-2.946,2.958-5.9,5.9a4.025,4.025,0,0,1-.859.7,1.391,1.391,0,0,1-1.941-.731c-.314-.785.089-1.284.588-1.781q4.9-4.881,9.766-9.79l1.337,1.343a2.338,2.338,0,0,0,3.3.009l.257-.257a2.324,2.324,0,0,0,.079-3.213l-2.966-2.995h0l-.583-.585.792-.8a5.759,5.759,0,0,1,3.221-1.306,5.827,5.827,0,0,1,3.112.714l.877-.877,2.786-2.787Z" fill="#231f20"/>
    </g>
    <rect id="Rectángulo_5902" data-name="Rectángulo 5902" width="52" height="42" transform="translate(523 2294)" fill="none"/>
  </g>
</svg>
