<svg xmlns="http://www.w3.org/2000/svg" width="52" height="42" viewBox="0 0 52 42">
  <g id="Grupo_56401" data-name="Grupo 56401" transform="translate(-768 -2294)">
    <g id="Grupo_56398" data-name="Grupo 56398" transform="translate(183.506 2007.418)">
      <path id="Trazado_105167" data-name="Trazado 105167" d="M600.071,306.217,589.9,314.441a.877.877,0,0,0-.325.682v9.539a.873.873,0,0,0,.873.875H600.62a.874.874,0,0,0,.874-.875V306.9a.874.874,0,0,0-1.423-.682Zm-.325,17.569h-8.424v-8.244l8.424-6.81Z" transform="translate(-0.104 -1.394)" fill="#231f20"/>
      <path id="Trazado_105168" data-name="Trazado 105168" d="M608.954,300.332l-2.625,1.644a.876.876,0,0,0-.411.743V324.1a.875.875,0,0,0,.875.875h10.171a.874.874,0,0,0,.874-.875V308.968a.88.88,0,0,0-.242-.606l-7.547-7.894A.873.873,0,0,0,608.954,300.332Zm7.136,22.892h-8.424V303.2l1.612-1.01,6.812,7.127Z" transform="translate(-1.682 -0.832)" fill="#231f20"/>
      <path id="Trazado_105169" data-name="Trazado 105169" d="M629.2,302.461l-6.669,6.685a.615.615,0,0,0-.179.434v14.983a.613.613,0,0,0,.612.613h6.668a.613.613,0,0,0,.613-.613V302.9a.612.612,0,0,0-1.045-.435Zm-.18,21.488h-5.443V309.834l5.443-5.457Z" transform="translate(-3.268 -1.033)" fill="#231f20"/>
      <path id="Trazado_105170" data-name="Trazado 105170" d="M631.662,291.778l-14.429,10.633-8.4-8.812a1.033,1.033,0,0,0-1.246-.161l-18.641,13c-1.079.752-.052,2.539,1.036,1.779l17.986-12.542q4.205,4.415,8.411,8.829a1.032,1.032,0,0,0,1.245.16l15.07-11.106C633.754,292.779,632.73,290.991,631.662,291.778Z" fill="#231f20"/>
    </g>
    <rect id="Rectángulo_5903" data-name="Rectángulo 5903" width="52" height="42" transform="translate(768 2294)" fill="none"/>
  </g>
</svg>
