<svg xmlns="http://www.w3.org/2000/svg" width="52" height="42" viewBox="0 0 52 42">
  <g id="Grupo_56403" data-name="Grupo 56403" transform="translate(-1259 -2287)">
    <g id="Grupo_56397" data-name="Grupo 56397" transform="translate(381.621 2100.752)">
      <path id="Trazado_105164" data-name="Trazado 105164" d="M917.706,205.244a.78.78,0,0,0,.135-.245l4.236-12.742a2.672,2.672,0,0,0,.165-.513l.01-.045a2.707,2.707,0,0,0-.736-2.444,2.673,2.673,0,0,0-2.5-.722.789.789,0,0,0-.086.02,2.972,2.972,0,0,0-.339.113l-12.357,4.082a3.05,3.05,0,0,0-1.53.808l-8.978,9L888.4,201.39a.5.5,0,0,0-.156,0,2.476,2.476,0,0,0-2.134.7,2.522,2.522,0,0,0-.04,3.513.549.549,0,0,0,.055.064l3.246,3.254-.89.892a3.2,3.2,0,0,0,0,4.513l1.056,1.058-.108.212a.78.78,0,0,0,.142.907l4.636,4.648a.778.778,0,0,0,.9.143l.213-.109,1.1,1.1a3.167,3.167,0,0,0,2.251.935h0a3.154,3.154,0,0,0,2.248-.934l.705-.707,3.284,3.293a.555.555,0,0,0,.09.073c.026.032.054.062.083.093a2.486,2.486,0,0,0,1.77.734h0a2.509,2.509,0,0,0,2.4-3.245.5.5,0,0,0-.006-.094l-1.158-7.328,9.056-9.078A3.045,3.045,0,0,0,917.706,205.244Zm-30.766-.228a.486.486,0,0,0-.061-.078.5.5,0,0,0-.066-.058,1.477,1.477,0,0,1,.031-2.052,1.445,1.445,0,0,1,1.355-.391.5.5,0,0,0,.2.006l6.413,1.021-4.713,4.724Zm21.25,17.381a.529.529,0,0,0,.026.308,1.472,1.472,0,0,1-.32,1.6,1.457,1.457,0,0,1-1.039.432h0a1.451,1.451,0,0,1-1.035-.428.612.612,0,0,1-.055-.069l-.056-.074a.518.518,0,0,0-.194-.153l-3.094-3.1,4.776-4.787Zm8.183-17.976a1.618,1.618,0,0,1-.329.5l-16.219,16.26a1.609,1.609,0,0,1-1.149.477h0a1.622,1.622,0,0,1-.473-.07,1.6,1.6,0,0,1-.429-.2,1.656,1.656,0,0,1-.248-.2l-1.5-1.5a.775.775,0,0,0-.9-.143l-.212.109-3.837-3.846.108-.212a.781.781,0,0,0-.142-.907l-1.456-1.459a1.636,1.636,0,0,1,0-2.307l16.22-16.26a1.552,1.552,0,0,1,.8-.4.769.769,0,0,0,.076-.021l12.42-4.1c.02-.007.039-.014.057-.021a1.331,1.331,0,0,1,.142-.049l.04-.009a1.132,1.132,0,0,1,1.075.3,1.147,1.147,0,0,1,.316,1.013l-.007.026a1.157,1.157,0,0,1-.081.253.667.667,0,0,0-.031.078l-4.188,12.6A.967.967,0,0,0,916.374,204.422Z" transform="translate(0)" fill="#231f20"/>
      <path id="Trazado_105165" data-name="Trazado 105165" d="M903.166,210.441a2.809,2.809,0,0,0-2-.832h0a2.808,2.808,0,0,0-2,.83l-3.465,3.473a2.845,2.845,0,0,0,0,4.011l1.636,1.639a2.808,2.808,0,0,0,2,.83h0a2.814,2.814,0,0,0,2-.83l3.465-3.473a2.842,2.842,0,0,0,0-4.011Zm.535,4.545-3.465,3.473h0a1.263,1.263,0,0,1-.9.373h0a1.265,1.265,0,0,1-.9-.373l-1.634-1.639a1.28,1.28,0,0,1,0-1.806l3.465-3.474a1.26,1.26,0,0,1,.9-.371h0a1.262,1.262,0,0,1,.9.373l1.635,1.639a1.279,1.279,0,0,1,0,1.8Z" transform="translate(-1.396 -3.109)" fill="#231f20"/>
      <path id="Trazado_105166" data-name="Trazado 105166" d="M913.472,200.216a4.446,4.446,0,0,0-2.1-.525h0a4.479,4.479,0,0,0,0,8.958h0A4.481,4.481,0,0,0,914.528,201,4.483,4.483,0,0,0,913.472,200.216Zm-.044,6.016a2.888,2.888,0,0,1-2.06.857h0a2.919,2.919,0,0,1,0-5.838h0a2.918,2.918,0,0,1,2.058,4.981Z" transform="translate(-3.165 -1.651)" fill="#231f20"/>
    </g>
    <rect id="Rectángulo_5905" data-name="Rectángulo 5905" width="52" height="42" transform="translate(1259 2287)" fill="none"/>
  </g>
</svg>
