<svg xmlns="http://www.w3.org/2000/svg" width="343" height="258" viewBox="0 0 343 258">
  <g id="Grupo_56543" data-name="Grupo 56543" transform="translate(-215.5 -516)">
    <rect id="Rectángulo_5734" data-name="Rectángulo 5734" width="343" height="258" transform="translate(215.5 516)" fill="none"/>
    <g id="Grupo_56542" data-name="Grupo 56542" transform="translate(179.772 487.726)">
      <g id="Grupo_56540" data-name="Grupo 56540" transform="translate(54.728 101.707)">
        <path id="Floor" d="M207.037,191.678c84.118,0,152.31,39.37,152.31,87.935s-68.192,87.936-152.31,87.936S54.728,328.179,54.728,279.613,122.92,191.678,207.037,191.678Z" transform="translate(-54.728 -185.877)" fill="#571cc4" opacity="0.131" style="isolation: isolate"/>
        <g id="Grupo_56539" data-name="Grupo 56539" transform="translate(33.708)" opacity="0.4">
          <g id="Grupo_54847" data-name="Grupo 54847">
            <g id="Grupo_54847-2" data-name="Grupo 54847-2" transform="translate(37.324 40.082)">
              <g id="Grupo_53310" data-name="Grupo 53310" transform="translate(0 34.283)">
                <path id="Trazado_99511" data-name="Trazado 99511" d="M250.145,377.029,209.9,400.277a5.228,5.228,0,0,1-4.735,0h0c-1.306-.756-1.306-1.981,0-2.737l40.244-23.248a5.229,5.229,0,0,1,4.735,0h0C251.452,375.053,251.452,376.274,250.145,377.029Z" transform="translate(-204.187 -355.768)" fill="#350d73"/>
                <path id="Trazado_99512" data-name="Trazado 99512" d="M336.508,339.246l-21.267,12.288a5.227,5.227,0,0,1-4.735,0h0c-1.306-.756-1.306-1.981,0-2.738l21.267-12.288a5.227,5.227,0,0,1,4.735,0h0C337.815,337.265,337.815,338.491,336.508,339.246Z" transform="translate(-259.463 -335.943)" fill="#350d73"/>
              </g>
              <path id="Trazado_99513" data-name="Trazado 99513" d="M275.25,336.86l-40.243,23.248a5.225,5.225,0,0,1-4.735,0h0c-1.307-.756-1.307-1.981,0-2.738l40.244-23.247a5.225,5.225,0,0,1,4.735,0h0C276.557,334.884,276.557,336.1,275.25,336.86Z" transform="translate(-217.361 -300.407)" fill="#350d73"/>
              <path id="Trazado_99514" data-name="Trazado 99514" d="M383.523,274.313l-40.244,23.248a5.228,5.228,0,0,1-4.735,0h0c-1.306-.756-1.306-1.981,0-2.738l40.244-23.248a5.228,5.228,0,0,1,4.735,0h0C384.834,272.331,384.834,273.559,383.523,274.313Z" transform="translate(-274.175 -267.586)" fill="#350d73"/>
              <path id="Trazado_99515" data-name="Trazado 99515" d="M432.154,297.556,391.91,320.8a5.226,5.226,0,0,1-4.735,0h0c-1.306-.756-1.306-1.981,0-2.737l40.245-23.247a5.227,5.227,0,0,1,4.735,0h0C433.466,295.574,433.466,296.8,432.154,297.556Z" transform="translate(-299.694 -279.783)" fill="#350d73"/>
              <path id="Trazado_99516" data-name="Trazado 99516" d="M303.78,389.866,292,396.668a5.228,5.228,0,0,1-4.735,0h0c-1.307-.756-1.307-1.981,0-2.738l11.781-6.8a5.229,5.229,0,0,1,4.735,0h0C305.086,387.884,305.086,389.11,303.78,389.866Z" transform="translate(-247.267 -328.221)" fill="#350d73"/>
              <path id="Trazado_99517" data-name="Trazado 99517" d="M516.3,267.107l-11.782,6.808a5.227,5.227,0,0,1-4.735,0h0c-1.307-.756-1.307-1.981,0-2.738l11.78-6.8a5.229,5.229,0,0,1,4.735,0h0C517.605,265.13,517.605,266.35,516.3,267.107Z" transform="translate(-358.783 -263.807)" fill="#350d73"/>
              <path id="Trazado_99518" data-name="Trazado 99518" d="M292.086,301.464l-40.244,23.248a5.229,5.229,0,0,1-4.735,0h0c-1.306-.756-1.306-1.981,0-2.738l40.245-23.247a5.227,5.227,0,0,1,4.735,0h0C293.4,299.483,293.4,300.71,292.086,301.464Z" transform="translate(-226.195 -281.834)" fill="#350d73"/>
              <path id="Trazado_99519" data-name="Trazado 99519" d="M376.232,271.016l-11.782,6.8a5.228,5.228,0,0,1-4.735,0h0c-1.307-.756-1.307-1.982,0-2.738l11.78-6.8a5.228,5.228,0,0,1,4.735,0h0C377.539,269.034,377.539,270.261,376.232,271.016Z" transform="translate(-285.284 -265.855)" fill="#350d73"/>
            </g>
            <g id="Grupo_54848" data-name="Grupo 54848" transform="translate(74.49 54.03)">
              <g id="Grupo_53312" data-name="Grupo 53312" transform="translate(0 34.286)">
                <path id="Trazado_99520" data-name="Trazado 99520" d="M328.346,406.393,288.1,429.641a5.224,5.224,0,0,1-4.735,0h0c-1.307-.756-1.307-1.981,0-2.737l40.244-23.248a5.224,5.224,0,0,1,4.735,0h0C329.653,404.412,329.653,405.638,328.346,406.393Z" transform="translate(-282.388 -385.128)" fill="#350d73"/>
                <path id="Trazado_99521" data-name="Trazado 99521" d="M414.709,368.6l-21.267,12.288a5.228,5.228,0,0,1-4.735,0h0c-1.306-.756-1.306-1.981,0-2.738l21.266-12.288a5.228,5.228,0,0,1,4.735,0h0C416.021,366.624,416.021,367.846,414.709,368.6Z" transform="translate(-337.664 -365.296)" fill="#350d73"/>
              </g>
              <path id="Trazado_99522" data-name="Trazado 99522" d="M353.445,366.226,313.2,389.474a5.228,5.228,0,0,1-4.735,0h0c-1.307-.756-1.307-1.981,0-2.738L348.7,363.488a5.228,5.228,0,0,1,4.735,0h0C354.752,364.244,354.752,365.471,353.445,366.226Z" transform="translate(-295.555 -329.764)" fill="#350d73"/>
              <path id="Trazado_99523" data-name="Trazado 99523" d="M461.734,303.668,421.49,326.915a5.228,5.228,0,0,1-4.735,0h0c-1.307-.756-1.307-1.981,0-2.738L457,300.929a5.229,5.229,0,0,1,4.735,0h0C463.04,301.691,463.04,302.916,461.734,303.668Z" transform="translate(-352.381 -296.937)" fill="#350d73"/>
              <path id="Trazado_99524" data-name="Trazado 99524" d="M510.366,326.909l-40.244,23.248a5.224,5.224,0,0,1-4.735,0h0c-1.307-.756-1.307-1.981,0-2.737l40.244-23.248a5.224,5.224,0,0,1,4.735,0h0C511.672,324.933,511.672,326.155,510.366,326.909Z" transform="translate(-377.9 -309.133)" fill="#350d73"/>
              <path id="Trazado_99525" data-name="Trazado 99525" d="M381.992,419.231l-11.78,6.8a5.226,5.226,0,0,1-4.735,0h0c-1.306-.756-1.306-1.981,0-2.737l11.78-6.8a5.225,5.225,0,0,1,4.735,0h0C383.3,417.25,383.3,418.476,381.992,419.231Z" transform="translate(-325.474 -357.578)" fill="#350d73"/>
              <path id="Trazado_99526" data-name="Trazado 99526" d="M594.5,296.462l-11.78,6.8a5.226,5.226,0,0,1-4.735,0h0c-1.307-.756-1.307-1.981,0-2.737l11.78-6.8a5.225,5.225,0,0,1,4.735,0h0C595.807,294.481,595.807,295.708,594.5,296.462Z" transform="translate(-436.985 -293.156)" fill="#350d73"/>
              <path id="Trazado_99527" data-name="Trazado 99527" d="M370.3,330.828l-40.244,23.248a5.225,5.225,0,0,1-4.735,0h0c-1.307-.756-1.307-1.981,0-2.738l40.244-23.247a5.225,5.225,0,0,1,4.735,0h0C371.605,328.847,371.605,330.073,370.3,330.828Z" transform="translate(-304.402 -311.19)" fill="#350d73"/>
              <path id="Trazado_99528" data-name="Trazado 99528" d="M454.434,300.375l-11.78,6.8a5.225,5.225,0,0,1-4.735,0h0c-1.306-.756-1.306-1.981,0-2.737l11.781-6.8a5.227,5.227,0,0,1,4.735,0h0C455.74,298.4,455.74,299.618,454.434,300.375Z" transform="translate(-363.487 -295.21)" fill="#350d73"/>
            </g>
            <path id="Trazado_102646" data-name="Trazado 102646" d="M137.006,479.777c2.6,1.5,2.6,3.931,0,5.432a10.388,10.388,0,0,1-9.4,0c-2.6-1.5-2.6-3.93,0-5.432A10.385,10.385,0,0,1,137.006,479.777Z" transform="translate(-125.653 -336.462)" fill="#350d73"/>
            <path id="Trazado_102647" data-name="Trazado 102647" d="M517.2,459.23c2.926,1.69,2.926,4.433,0,6.122a11.7,11.7,0,0,1-10.593,0c-2.927-1.69-2.926-4.433,0-6.122A11.7,11.7,0,0,1,517.2,459.23Z" transform="translate(-324.404 -325.606)" fill="#350d73"/>
            <g id="Grupo_54849" data-name="Grupo 54849" transform="translate(102.095 86.585)">
              <g id="Grupo_53321" data-name="Grupo 53321" transform="translate(0 32.43)">
                <path id="Trazado_99610" data-name="Trazado 99610" d="M386.43,470.986l-40.244,23.248a5.228,5.228,0,0,1-4.735,0h0c-1.306-.756-1.306-1.981,0-2.738l40.244-23.248a5.228,5.228,0,0,1,4.735,0h0C387.742,469,387.742,470.231,386.43,470.986Z" transform="translate(-340.471 -449.72)" fill="#350d73"/>
                <path id="Trazado_99611" data-name="Trazado 99611" d="M472.8,433.193l-21.267,12.288a5.225,5.225,0,0,1-4.735,0h0c-1.307-.756-1.307-1.981,0-2.737l21.267-12.288a5.228,5.228,0,0,1,4.735,0h0C474.111,431.212,474.111,432.438,472.8,433.193Z" transform="translate(-395.753 -429.889)" fill="#350d73"/>
              </g>
              <path id="Trazado_99612" data-name="Trazado 99612" d="M411.536,430.817l-40.244,23.247a5.226,5.226,0,0,1-4.735,0h0c-1.307-.756-1.307-1.981,0-2.737L406.8,428.08a5.225,5.225,0,0,1,4.735,0h0C412.847,428.836,412.847,430.062,411.536,430.817Z" transform="translate(-353.645 -396.213)" fill="#350d73"/>
              <path id="Trazado_99613" data-name="Trazado 99613" d="M519.818,368.26l-40.244,23.248a5.227,5.227,0,0,1-4.735,0h0c-1.306-.756-1.306-1.981,0-2.738l40.244-23.248a5.227,5.227,0,0,1,4.735,0h0C521.124,366.283,521.124,367.506,519.818,368.26Z" transform="translate(-410.465 -363.387)" fill="#350d73"/>
              <path id="Trazado_99614" data-name="Trazado 99614" d="M568.448,391.5,528.205,414.75a5.229,5.229,0,0,1-4.735,0h0c-1.306-.756-1.306-1.981,0-2.738l40.244-23.248a5.228,5.228,0,0,1,4.735,0h0C569.755,389.526,569.755,390.747,568.448,391.5Z" transform="translate(-435.983 -375.583)" fill="#350d73"/>
              <path id="Trazado_99615" data-name="Trazado 99615" d="M440.074,483.813l-11.782,6.8a5.228,5.228,0,0,1-4.735,0h0c-1.306-.756-1.306-1.982,0-2.738l11.781-6.8a5.227,5.227,0,0,1,4.735,0h0C441.381,481.837,441.381,483.062,440.074,483.813Z" transform="translate(-383.555 -424.022)" fill="#350d73"/>
              <path id="Trazado_99616" data-name="Trazado 99616" d="M428.382,395.421l-40.243,23.248a5.227,5.227,0,0,1-4.735,0h0c-1.306-.756-1.306-1.981,0-2.737l40.244-23.248a5.227,5.227,0,0,1,4.735,0h0C429.689,393.439,429.689,394.665,428.382,395.421Z" transform="translate(-362.486 -377.639)" fill="#350d73"/>
              <path id="Trazado_99617" data-name="Trazado 99617" d="M512.518,364.962l-11.78,6.8a5.228,5.228,0,0,1-4.735,0h0c-1.306-.756-1.306-1.981,0-2.738l11.78-6.8a5.228,5.228,0,0,1,4.735,0h0C513.825,362.98,513.825,364.207,512.518,364.962Z" transform="translate(-421.57 -361.654)" fill="#350d73"/>
            </g>
            <g id="Grupo_54850" data-name="Grupo 54850" transform="translate(1.204 29.424)">
              <g id="Grupo_53323" data-name="Grupo 53323" transform="translate(0 32.437)">
                <path id="Trazado_99618" data-name="Trazado 99618" d="M171.668,348.5,133.595,370.5a4.964,4.964,0,0,1-4.481,0h0a1.365,1.365,0,0,1,0-2.586l38.073-22a4.965,4.965,0,0,1,4.481,0h0A1.368,1.368,0,0,1,171.668,348.5Z" transform="translate(-128.187 -328.39)" fill="#350d73"/>
                <path id="Trazado_99619" data-name="Trazado 99619" d="M253.376,312.753l-20.122,11.624a4.964,4.964,0,0,1-4.481,0h0a1.365,1.365,0,0,1,0-2.586L248.9,310.167a4.965,4.965,0,0,1,4.481,0h0A1.365,1.365,0,0,1,253.376,312.753Z" transform="translate(-180.482 -309.633)" fill="#350d73"/>
              </g>
              <path id="Trazado_99620" data-name="Trazado 99620" d="M195.421,310.5l-38.073,22a4.965,4.965,0,0,1-4.481,0h0a1.365,1.365,0,0,1,0-2.586l38.073-22a4.965,4.965,0,0,1,4.481,0h0A1.365,1.365,0,0,1,195.421,310.5Z" transform="translate(-140.651 -276.016)" fill="#350d73"/>
              <path id="Trazado_99621" data-name="Trazado 99621" d="M297.865,251.32l-38.073,22a4.961,4.961,0,0,1-4.481,0h0a1.365,1.365,0,0,1,0-2.586l38.073-22a4.962,4.962,0,0,1,4.481,0h0A1.365,1.365,0,0,1,297.865,251.32Z" transform="translate(-194.407 -244.959)" fill="#350d73"/>
              <path id="Trazado_99622" data-name="Trazado 99622" d="M343.871,273.311l-38.073,22a4.965,4.965,0,0,1-4.481,0h0a1.365,1.365,0,0,1,0-2.586l38.073-22a4.964,4.964,0,0,1,4.481,0h0A1.365,1.365,0,0,1,343.871,273.311Z" transform="translate(-218.548 -256.499)" fill="#350d73"/>
              <path id="Trazado_99623" data-name="Trazado 99623" d="M222.417,360.646l-11.143,6.436a4.965,4.965,0,0,1-4.481,0h0a1.365,1.365,0,0,1,0-2.586l11.143-6.436a4.965,4.965,0,0,1,4.481,0h0A1.365,1.365,0,0,1,222.417,360.646Z" transform="translate(-168.947 -302.327)" fill="#350d73"/>
              <path id="Trazado_99624" data-name="Trazado 99624" d="M423.475,244.5l-11.143,6.436a4.964,4.964,0,0,1-4.481,0h0a1.365,1.365,0,0,1,0-2.586l11.143-6.436a4.964,4.964,0,0,1,4.481,0h0A1.365,1.365,0,0,1,423.475,244.5Z" transform="translate(-274.45 -241.383)" fill="#350d73"/>
              <path id="Trazado_99625" data-name="Trazado 99625" d="M211.359,277.015l-38.073,22a4.964,4.964,0,0,1-4.481,0h0a1.365,1.365,0,0,1,0-2.586l38.073-22a4.965,4.965,0,0,1,4.481,0h0A1.365,1.365,0,0,1,211.359,277.015Z" transform="translate(-149.014 -258.443)" fill="#350d73"/>
              <path id="Trazado_99626" data-name="Trazado 99626" d="M290.962,248.207l-11.143,6.436a4.964,4.964,0,0,1-4.481,0h0a1.365,1.365,0,0,1,0-2.586l11.143-6.436a4.964,4.964,0,0,1,4.481,0h0A1.365,1.365,0,0,1,290.962,248.207Z" transform="translate(-204.916 -243.326)" fill="#350d73"/>
            </g>
            <ellipse id="Elipse_4133" data-name="Elipse 4133" cx="4.654" cy="2.602" rx="4.654" ry="2.602" transform="translate(43.282)" fill="#350d73"/>
            <path id="Trazado_102648" data-name="Trazado 102648" d="M625.9,189.937c1.819,1.047,1.819,2.753,0,3.8a7.285,7.285,0,0,1-6.581,0c-1.819-1.047-1.819-2.753,0-3.8A7.25,7.25,0,0,1,625.9,189.937Z" transform="translate(-383.983 -184.549)" fill="#350d73"/>
          </g>
          <ellipse id="Shadow-2" cx="22.215" cy="12.826" rx="22.215" ry="12.826" transform="translate(87.275 119.204)" fill="#4c14b4" opacity="0.379" style="isolation: isolate"/>
        </g>
      </g>
      <g id="Grupo_53568" data-name="Grupo 53568" transform="translate(75.901 115.449)">
        <path id="Trazado_100242" data-name="Trazado 100242" d="M540.535,468.428v-3.686c75.952-43.838,72.038-41.352,72.976-42.594a4.073,4.073,0,0,0,.843-2.228v3.75a4.453,4.453,0,0,1-1.665,3.071C612.149,427.134,618.2,423.618,540.535,468.428Z" transform="translate(-330.822 -319.386)" fill="#01818a"/>
        <path id="Trazado_100243" data-name="Trazado 100243" d="M592.78,397.34l-9.675,5.6-29.138-16.816,9.728-5.6Z" transform="translate(-337.87 -298.713)" fill="#f0e0dc"/>
        <path id="Trazado_100244" data-name="Trazado 100244" d="M512.9,351.217l-9.675,5.6L474.107,340l9.675-5.58Z" transform="translate(-295.965 -274.523)" fill="#f0e0dc"/>
        <path id="Trazado_100245" data-name="Trazado 100245" d="M538.75,455.681a9.212,9.212,0,0,1-5.322-1.078,2.908,2.908,0,0,1-1.806-3.117c.164-1.29,1.5-2.672,3.916-4.08a15.794,15.794,0,0,1,6.987-2.345,9.4,9.4,0,0,1,5.322,1.055,3.06,3.06,0,0,1,1.9,3.188c-.23,1.29-1.613,2.7-4.243,4.2A15.048,15.048,0,0,1,538.75,455.681Z" transform="translate(-326.129 -332.556)" fill="#02cddb"/>
        <path id="Trazado_100246" data-name="Trazado 100246" d="M511.935,514.214v3.75l-25.9,14.932v-3.7Z" transform="translate(-302.222 -368.865)" fill="#838299"/>
        <path id="Trazado_100247" data-name="Trazado 100247" d="M137.64,298.125q88.919,51.37,177.926,102.7l-25.9,14.955q-88.919-51.37-177.855-102.74Z" transform="translate(-105.852 -255.475)" fill="#a9a8c6"/>
        <path id="Trazado_100248" data-name="Trazado 100248" d="M528.713,451.829a9.026,9.026,0,0,0,5.321,1.078,14.33,14.33,0,0,0,6.729-2.179c2.626-1.5,3.986-2.907,4.243-4.2a3.028,3.028,0,0,0-1.9-3.189,9.6,9.6,0,0,0-5.321-1.055,15.9,15.9,0,0,0-6.987,2.345c-2.414,1.407-3.75,2.789-3.916,4.08A2.958,2.958,0,0,0,528.713,451.829Zm-5.322-5.485c1.843-2.976,6.752-5.181,10.2-6a16.356,16.356,0,0,1,11.91,1.336c1.781,1.009,3.142,2.534,2.626,4.524l9.4-5.439,3.225,1.843L534.49,457.775l-2.976-1.735c5.743-3.26.23.691-5.72-2.813C522.992,451.6,521.634,449.088,523.391,446.344Z" transform="translate(-321.413 -329.807)" fill="#01818a"/>
        <path id="Trazado_100249" data-name="Trazado 100249" d="M489.632,431.962l18.989-10.97,2.907,1.689-2.859,1.665a17.44,17.44,0,0,1,4.711-.353,5.718,5.718,0,0,1,4.969,3.352l-4.126,1.078c-.922-2.345-4.478-3.025-7.141-2.179-3.165.938-3.632,1.5-14.229,7.572Z" transform="translate(-304.111 -319.948)" fill="#01818a"/>
        <path id="Trazado_100250" data-name="Trazado 100250" d="M433.035,305.089l-9.7,5.6-29.092-16.833,9.675-5.6Z" transform="translate(-254.055 -250.297)" fill="#f0e0dc"/>
        <path id="Trazado_100251" data-name="Trazado 100251" d="M466.118,420.705c-1.843-.3-5.932-1.734-6.141-3.586-.164-1.359,1.613-2.251,3.142-2.414,3.686-.4,6.422,2.274,12.26,3.7A11.782,11.782,0,0,1,466.118,420.705Z" transform="translate(-288.544 -316.628)" fill="#02cddb"/>
        <path id="Trazado_100252" data-name="Trazado 100252" d="M460.369,407.061c-4.008-.843-7.925,1.843-3.469,4.43a12.628,12.628,0,0,0,8.51,1.407,18.949,18.949,0,0,0,4.923-2.25C466.229,409.662,462.476,407.483,460.369,407.061Zm-10.058,1.829c-.164-2.486,2.93-3.939,5.416-4.361,6.589-1.1,10.714,2.953,17.114,4.688.983-.539,2.813-1.454,2.743-2.626-.281-2.073-4.641-4.031-6.729-4.243a12.158,12.158,0,0,0-4.429.726L461.73,401a14.4,14.4,0,0,1,9.445-.562,19.794,19.794,0,0,1,8.346,4.711,2.5,2.5,0,0,1-.353,3.985c-1.613,1.336-9.846,5.626-12.589,7.713a5.088,5.088,0,0,0-1.5,1.781l-3.352-1.947a5.324,5.324,0,0,1,1.688-1.735,20.69,20.69,0,0,1-9.751-2.462C451.53,411.3,450.428,410.083,450.311,408.89Z" transform="translate(-283.475 -308.879)" fill="#01818a"/>
        <path id="Trazado_100253" data-name="Trazado 100253" d="M410.232,366.276a27.16,27.16,0,0,1,17.839-3.352c8.464,1.477,16.667,6.987,10.643,13.151l-4.2-1.5c2.345-2.626,2.25-5.017-1.523-7.22a17.444,17.444,0,0,0-13.269-1.5,22.617,22.617,0,0,0-10.737,6.367c-2.11,2.859-.444,5.485,2.508,7.219a16.774,16.774,0,0,0,14.37.562l2.626,2.508a23.464,23.464,0,0,1-19.646-1.219,10.751,10.751,0,0,1-5.158-4.969C402.118,372.3,406.479,368.455,410.232,366.276Z" transform="translate(-258.841 -289.307)" fill="#01818a"/>
        <path id="Trazado_100254" data-name="Trazado 100254" d="M353.125,258.994l-9.728,5.6-29.116-16.784,9.728-5.6Z" transform="translate(-212.098 -226.135)" fill="#f0e0dc"/>
        <path id="Trazado_100255" data-name="Trazado 100255" d="M415.288,305.161c1.267.751,2.884,2.368,2.672,3.75a4.669,4.669,0,0,1-2.672,3.75l-71.143,41.074q-88.919-51.37-177.926-102.7c77.523-44.775,71.755-41.728,74.312-42.267a14.375,14.375,0,0,1,9.8,1.172Zm-64.794-9.353,29.115,16.833,9.675-5.6-29.092-16.833Zm-9.986,25.529c-6.45,3.75-6,7.971-1.735,10.456,5.932,3.469,11.44-.422,5.72,2.813l2.977,1.735,26.261-15.167-3.225-1.843-9.4,5.439c1.274-4.814-9.862-9.6-20.6-3.432Zm-1.594-11.91L319.926,320.4l3.225,1.843c10.737-6.165,11.135-6.658,14.229-7.572,2.718-.866,6.236-.117,7.141,2.179l4.126-1.078a5.7,5.7,0,0,0-4.969-3.352,18.4,18.4,0,0,0-4.711.352l2.859-1.665ZM312.54,273.867,341.656,290.7l9.675-5.6-29.115-16.784Zm-9.071,31.248c-3.048,1.806-3.257,4.377,1.078,6.893a20.761,20.761,0,0,0,9.751,2.462,5.084,5.084,0,0,0-1.689,1.735l3.352,1.947c.8-1.594,2.156-2.392,6.938-5.2,1.29-.726,5.978-3.329,7.141-4.266,1.571-1.477,1.5-2.578.353-3.986a19.729,19.729,0,0,0-8.346-4.711,14.418,14.418,0,0,0-9.445.562l2.7,2.073a12.17,12.17,0,0,1,4.43-.726c2.087.212,6.45,2.179,6.729,4.243.071,1.172-1.781,2.11-2.744,2.626-3.587-.961-7.454-3.117-10.2-4.08A12.7,12.7,0,0,0,303.469,305.115Zm.562-3.492-2.626-2.508a16.873,16.873,0,0,1-14.37-.562c-2.93-1.734-4.607-4.337-2.508-7.219a22.655,22.655,0,0,1,10.737-6.377,17.446,17.446,0,0,1,13.269,1.5c3.773,2.179,3.89,4.57,1.522,7.219l4.2,1.5c6.024-6.165-2.2-11.675-10.643-13.151a27.163,27.163,0,0,0-17.839,3.352c-3.75,2.18-8.111,6.024-6.563,10.081a10.858,10.858,0,0,0,5.158,4.969A23.607,23.607,0,0,0,304.031,301.623Zm-50.025-49.907c-.562-1.9-2.414-2.813-4.08-3.75-3.4-1.9-4.665-2.79-9.8-5.649-1.806-1.009-3.633-2.016-5.439-3.094a26.158,26.158,0,0,0-4.43-2.391,15.2,15.2,0,0,0-7.454-.516,34.235,34.235,0,0,0-10.08,4.994c-4.338,2.718-4.338,2.508-6.563,3.8-3.305,2.038-3.352,4.607-1.172,6.657.984.843,15.121,8.754,17.911,10.456a15.229,15.229,0,0,0,8.157,3.071c7.079.445,11-3.939,18.708-8.062a7.433,7.433,0,0,0,4.2-3.633A3.4,3.4,0,0,0,254.006,251.715Zm11.7-4.877,9.728-5.6-29.116-16.784-9.728,5.6Zm47.685,16.34-29.115-16.833-9.675,5.6L303.69,268.78Z" transform="translate(-134.405 -208.386)" fill="#02cddb"/>
        <path id="Trazado_100256" data-name="Trazado 100256" d="M258.593,289.653c-9.376-5.416-8.206-4.838-9.8-5.7-1.665-.868-3.564-1.875-4.031-3.75a3.417,3.417,0,0,1,1.055-3.423,13.458,13.458,0,0,1,3.188-2.073c7.572-3.962,11.6-8.523,18.708-8.063a15.289,15.289,0,0,1,8.157,3.117c1.843,1.1,16.667,9.4,17.911,10.456a3.527,3.527,0,0,1,1.336,3.916c-.611,1.829-2.626,2.836-4.2,3.633-7.69,4.126-11.626,8.51-18.708,8.062C267.736,295.536,267.524,294.622,258.593,289.653Z" transform="translate(-175.562 -238.941)" fill="#f3e187"/>
        <path id="Trazado_100257" data-name="Trazado 100257" d="M102.025,338.9c-3.773-2.228-3.4-5.648,0-7.454l3.225-1.9c.4,0-1.9-1.1,177.878,102.741l-3.225,1.843a14.471,14.471,0,0,1-9.846,1.172C267.41,434.7,278.55,440.823,102.025,338.9Z" transform="translate(-99.307 -271.961)" fill="#02cddb"/>
        <path id="Trazado_100258" data-name="Trazado 100258" d="M99.278,345.081v-3.75a4.026,4.026,0,0,0,.843,2.228c.891,1.2-9.869-5.25,166.781,96.77a14.473,14.473,0,0,0,9.846,1.172,19.982,19.982,0,0,0,6.33-3.025v3.7l-3.225,1.843a14.188,14.188,0,0,1-9.846,1.219c-2.508-.562,8.251,5.344-168.032-96.44A4.574,4.574,0,0,1,99.278,345.081Z" transform="translate(-99.278 -278.147)" fill="#01818a"/>
      </g>
      <g id="Grupo_54820" data-name="Grupo 54820" transform="translate(233.323 31.275)">
        <path id="Trazado_102337" data-name="Trazado 102337" d="M430.51,62.39V95.741c0,11.677,8.188,25.876,18.3,31.715l4.273,2.467,10.156,24.465,10.156-12.726q2.141,1.225,4.273,2.467c.413.238.824.46,1.229.653,4.568,2.294,8.673,2.381,11.718.62l.237-.144c3.171-1.966,5.121-6.014,5.121-11.708V100.213c0-11.683-8.2-25.884-18.306-31.724Q463.24,60.16,448.808,51.823c-4.955-2.863-9.452-3.188-12.741-1.395-.064.031-.135.072-.2.111C432.554,52.449,430.51,56.551,430.51,62.39Z" transform="translate(-430.51 -40.743)" fill="#02dba8"/>
        <path id="Trazado_102338" data-name="Trazado 102338" d="M511.588,127.364c3.313-1.912,5.36-6.022,5.36-11.852V82.162c0-11.679-8.19-25.878-18.3-31.716q-14.426-8.329-28.86-16.676c-5.058-2.919-9.626-3.188-12.938-1.276q-7.341,4.222-14.651,8.464c3.289-1.795,7.786-1.469,12.74,1.395q14.425,8.329,28.859,16.668C493.914,64.86,502.1,79.061,502.1,90.746v33.342c0,5.7-1.958,9.742-5.121,11.708Q504.288,131.585,511.588,127.364Z" transform="translate(-436.644 -31.275)" fill="#02ab83"/>
        <path id="Trazado_102339" data-name="Trazado 102339" d="M509.527,243.621l-10.156,12.726,14.847-8.576.816-1.024c-.4-.2-.816-.421-1.229-.653Q511.671,244.85,509.527,243.621Z" transform="translate(-466.644 -142.701)" fill="#02ab83"/>
        <g id="Grupo_56541" data-name="Grupo 56541" transform="translate(16.683 34.013)">
          <path id="Trazado_105342" data-name="Trazado 105342" d="M493.976,144.8c-.3-5.315-.623-10.638-.922-15.951a3.656,3.656,0,0,0-.846-2.318,4.318,4.318,0,0,0-1.326-1.034c-5.554-2.546-11.105-5.054-16.657-7.572-.677-.307-.679-.307-.73-1.141-.056-.9-.119-1.813-.155-2.708a19.258,19.258,0,0,1-.048-2.765c.322-2.817,2.945-3.859,5.611-2.316a12.126,12.126,0,0,1,5.624,8.674,1.13,1.13,0,0,0,.357.575c1.277.609,2.552,1.176,3.879,1.778a3.038,3.038,0,0,0,.011-.343,18.886,18.886,0,0,0-1.534-5.889c-2.789-6.447-8.011-10.966-12.693-10.948-3.666.014-5.566,2.359-5.53,7.143.012,1.622.139,3.305.266,4.983.046.6-.082.738-.565.465-.347-.2-.7-.289-1.044-.487-1.306-.745-2.167-.121-2.051,1.623.376,5.64.673,11.246,1,16.866.049.847.05.849.748,1.166q12.579,5.706,25.159,11.408c.493.223,1.2.72,1.416.512C494.19,146.283,494.011,145.414,493.976,144.8ZM481.52,133.2a.839.839,0,0,0-.237.627c0,.6.048,1.231.1,1.86.031.387-.075.5-.4.336-.3-.155-.6-.275-.894-.409-1.06-.48-1.259-.57-1.345-1.432-.02-.2-.034-.439-.051-.735a4.355,4.355,0,0,0-.056-.784,3.041,3.041,0,0,0-.348-.945,4.356,4.356,0,0,1-.741-4.031c.389-.855,1.554-.929,2.6-.165a5.406,5.406,0,0,1,2.107,3.788A2.02,2.02,0,0,1,481.52,133.2Z" transform="translate(-465.613 -102.842)" fill="#fff"/>
          <path id="Trazado_105343" data-name="Trazado 105343" d="M468.621,173.569a5.661,5.661,0,0,0,2.776,2.919q10.561,4.771,21.124,9.573a7.4,7.4,0,0,0,.693.281,1.615,1.615,0,0,0,2.176-1.489l-27.159-12.318C468.383,172.944,468.477,173.266,468.621,173.569Z" transform="translate(-466.987 -139.413)" fill="#fff"/>
          <path id="Trazado_105344" data-name="Trazado 105344" d="M494.582,170.215c-1.06-.48-1.259-.569-1.345-1.431.086.862.285.951,1.345,1.432.3.134.6.254.894.409C495.178,170.47,494.881,170.35,494.582,170.215Z" transform="translate(-480.108 -137.444)" fill="#fff"/>
        </g>
      </g>
    </g>
  </g>
</svg>
