<svg xmlns="http://www.w3.org/2000/svg" xmlns:xlink="http://www.w3.org/1999/xlink" width="501" height="468" viewBox="0 0 501 468">
  <defs>
    <clipPath id="clip-path">
      <rect id="Rectángulo_5943" data-name="Rectángulo 5943" width="361.959" height="226.598" rx="17.91" fill="none"/>
    </clipPath>
  </defs>
  <g id="Grupo_56563" data-name="Grupo 56563" transform="translate(-907.5 -1123)">
    <rect id="Rectángulo_5735" data-name="Rectángulo 5735" width="501" height="468" transform="translate(907.5 1123)" fill="none"/>
    <g id="Grupo_56562" data-name="Grupo 56562" transform="translate(813.213 1094.837)">
      <rect id="Rectángulo_5934" data-name="Rectángulo 5934" width="361.959" height="226.598" rx="17.91" transform="translate(198.345 102.163)" fill="#02cddb"/>
      <rect id="Rectángulo_5935" data-name="Rectángulo 5935" width="361.959" height="46.567" transform="translate(198.345 132.362)" fill="#017078"/>
      <rect id="Rectángulo_5936" data-name="Rectángulo 5936" width="361.959" height="226.598" rx="17.91" transform="translate(129.287 195.258)" fill="#02a5b0"/>
      <rect id="Rectángulo_5937" data-name="Rectángulo 5937" width="72.738" height="48.492" rx="10.214" transform="translate(374.445 265.885)" fill="#fedb31"/>
      <g id="Grupo_56549" data-name="Grupo 56549" transform="translate(142.629 208.765)">
        <rect id="Rectángulo_5938" data-name="Rectángulo 5938" width="49.394" height="13.395" rx="5.122" transform="translate(0 0)" fill="#f0e0dc"/>
        <rect id="Rectángulo_5939" data-name="Rectángulo 5939" width="49.394" height="13.395" rx="5.122" transform="translate(61.857 0)" fill="#f0e0dc"/>
        <rect id="Rectángulo_5940" data-name="Rectángulo 5940" width="49.394" height="13.395" rx="5.122" transform="translate(123.715 0)" fill="#f0e0dc"/>
        <rect id="Rectángulo_5941" data-name="Rectángulo 5941" width="49.394" height="13.395" rx="5.122" transform="translate(185.572 0)" fill="#f0e0dc"/>
        <rect id="Rectángulo_5942" data-name="Rectángulo 5942" width="49.394" height="13.395" rx="5.122" transform="translate(247.43 0)" fill="#f0e0dc"/>
      </g>
      <g id="Grupo_56561" data-name="Grupo 56561" transform="translate(129.287 195.258)">
        <g id="Grupo_56560" data-name="Grupo 56560" transform="translate(0 0)" clip-path="url(#clip-path)">
          <g id="Grupo_56559" data-name="Grupo 56559" transform="translate(-109.675 94.91)">
            <path id="Trazado_105345" data-name="Trazado 105345" d="M153.61,316.787c-84.421,0-153.1,68.681-153.1,153.1s68.681,153.1,153.1,153.1,153.1-68.681,153.1-153.1S238.034,316.787,153.61,316.787Zm0,299.168c-80.539,0-146.063-65.524-146.063-146.064S73.071,323.826,153.61,323.826,299.676,389.35,299.676,469.891,234.152,615.955,153.61,615.955Z" transform="translate(-0.508 -316.787)" fill="#fff"/>
            <g id="Grupo_56557" data-name="Grupo 56557" transform="translate(199.512 139.862)">
              <g id="Grupo_56551" data-name="Grupo 56551">
                <g id="Grupo_56550" data-name="Grupo 56550">
                  <path id="Trazado_105346" data-name="Trazado 105346" d="M299.834,513.715,241.51,481.589a4.547,4.547,0,0,0-6.707,4.521l7.815,66.138a4.53,4.53,0,0,0,8.384,1.8l10.778-17.9,21.707,32.276a3.517,3.517,0,0,0,4.881.958l10.06-6.767a3.515,3.515,0,0,0,.958-4.88l-21.707-32.276,20.658-3.234A4.574,4.574,0,0,0,299.834,513.715Z" transform="translate(-234.772 -481.011)" fill="#fff"/>
                </g>
              </g>
              <g id="Grupo_56556" data-name="Grupo 56556" transform="translate(8.241 6.094)">
                <g id="Grupo_56553" data-name="Grupo 56553" transform="translate(9.192 5.06)">
                  <g id="Grupo_56552" data-name="Grupo 56552">
                    <path id="Trazado_105347" data-name="Trazado 105347" d="M278.619,506.377l-21.976-12.156a.945.945,0,1,0-.928,1.646l21.976,12.156a.971.971,0,0,0,1.288-.359A.918.918,0,0,0,278.619,506.377Z" transform="translate(-255.242 -494.108)" fill="#fff"/>
                  </g>
                </g>
                <g id="Grupo_56555" data-name="Grupo 56555">
                  <g id="Grupo_56554" data-name="Grupo 56554">
                    <path id="Trazado_105348" data-name="Trazado 105348" d="M251.389,491.333l-5.539-3.054a.945.945,0,1,0-.928,1.647l5.539,3.054a.971.971,0,0,0,1.288-.359A.93.93,0,0,0,251.389,491.333Z" transform="translate(-244.449 -488.166)" fill="#fff"/>
                  </g>
                </g>
              </g>
            </g>
            <g id="Grupo_56558" data-name="Grupo 56558" transform="translate(22.118 10.988)">
              <path id="Trazado_105349" data-name="Trazado 105349" d="M121.92,450.792c.007-.083.01-.165.016-.249.346-4.658.763-9.125,1.215-13.519l-24.013-.044-32.777-.2c-.468,1.549-.927,3.1-1.346,4.667-.975,3.607-1.828,7.261-2.567,10.936a23.049,23.049,0,0,1,8.382-1.588Z" transform="translate(-31.815 -345.575)" fill="#fff"/>
              <path id="Trazado_105350" data-name="Trazado 105350" d="M61.182,530.85a171.385,171.385,0,0,0,3.671,16.916c.173.642.373,1.274.554,1.913l33.536-.212,23.9-.044c-.325-3.118-.624-6.288-.893-9.533-.192-2.31-.35-4.657-.508-7h-50.8A23.041,23.041,0,0,1,61.182,530.85Z" transform="translate(-31.627 -359.531)" fill="#fff"/>
              <path id="Trazado_105351" data-name="Trazado 105351" d="M293.769,489.175v11.881l.009.005c.06-1.881.1-3.763.1-5.646C293.878,493.334,293.839,491.253,293.769,489.175Z" transform="translate(-66.131 -353.349)" fill="#fff"/>
              <path id="Trazado_105352" data-name="Trazado 105352" d="M227.926,549.786l8.725.018-1.957-16.565H229.27C228.91,538.85,228.485,544.387,227.926,549.786Z" transform="translate(-56.363 -359.885)" fill="#fff"/>
              <path id="Trazado_105353" data-name="Trazado 105353" d="M222.372,581.431c-1.205,6.648-2.512,12.719-4,18.569-.627,2.5-1.347,5-2.084,7.483h31.52A121.318,121.318,0,0,0,257.4,594.8a148.372,148.372,0,0,0,12.871-24.686l-5.367-7.976-9.943.05-3.911,6.49a7.99,7.99,0,0,1-14.779-3.188l-.383-3.247-10.633.021Q224.036,572.035,222.372,581.431Z" transform="translate(-54.638 -364.173)" fill="#fff"/>
              <path id="Trazado_105354" data-name="Trazado 105354" d="M282.779,466.9a176.516,176.516,0,0,0-4.862-25.474c-.413-1.535-.865-3.056-1.325-4.573l-25.648.129-23.8.049c.558,4.521,1.019,9.123,1.423,13.775h32.157A23.162,23.162,0,0,1,282.779,466.9Z" transform="translate(-56.248 -345.586)" fill="#fff"/>
              <path id="Trazado_105355" data-name="Trazado 105355" d="M142.863,539.554c.262,3.482.561,6.873.89,10.205l30.932-.057,31.728.065c.351-3.517.674-7.1.952-10.8.144-1.894.255-3.813.376-5.725H142.464C142.59,535.347,142.711,537.456,142.863,539.554Z" transform="translate(-43.685 -359.885)" fill="#fff"/>
              <path id="Trazado_105356" data-name="Trazado 105356" d="M207.291,450.7c-.359-4.54-.836-9.085-1.371-13.626l-31.2.064h-.009l-30.96-.058c-.419,4.463-.8,9.012-1.1,13.752H207.3C207.3,450.793,207.295,450.748,207.291,450.7Z" transform="translate(-43.714 -345.62)" fill="#fff"/>
              <path id="Trazado_105357" data-name="Trazado 105357" d="M210.488,627.568a88.624,88.624,0,0,1-8.542,17.569c-.316.495-.658.968-1,1.446.4-.118.8-.2,1.2-.325a85.96,85.96,0,0,0,20.744-9.558,100.121,100.121,0,0,0,15.047-11.909H211.422C211.1,625.713,210.822,626.656,210.488,627.568Z" transform="translate(-52.362 -373.467)" fill="#fff"/>
              <path id="Trazado_105358" data-name="Trazado 105358" d="M143.4,628.1c-.406-1.094-.79-2.2-1.175-3.306H107.782a100.264,100.264,0,0,0,15,11.881,85.678,85.678,0,0,0,20.7,9.561,75.739,75.739,0,0,0,10.933,2.546,35.611,35.611,0,0,1-2.311-3.106A86.01,86.01,0,0,1,143.4,628.1Z" transform="translate(-38.54 -373.467)" fill="#fff"/>
              <path id="Trazado_105359" data-name="Trazado 105359" d="M131.981,600.54c-1.5-5.849-2.821-11.916-4.031-18.54-1.166-6.4-2.152-12.955-3-19.742l-24.841-.046-31.144-.2a148.7,148.7,0,0,0,15.879,32.736,121.333,121.333,0,0,0,9.594,12.715h39.454C133.211,605.162,132.562,602.853,131.981,600.54Z" transform="translate(-32.782 -364.154)" fill="#fff"/>
              <path id="Trazado_105360" data-name="Trazado 105360" d="M151.46,598.536q1.1,4.5,2.458,8.973h43.067c.957-3.159,1.841-6.335,2.61-9.521,1.391-5.667,2.608-11.559,3.726-18.024.989-5.706,1.846-11.561,2.581-17.652l-30.821.063-30.046-.055c.751,6.255,1.631,12.3,2.661,18.219C148.818,586.963,150.05,592.851,151.46,598.536Z" transform="translate(-44.066 -364.198)" fill="#fff"/>
              <path id="Trazado_105361" data-name="Trazado 105361" d="M158.586,624.791c.056.158.1.321.158.479a77.89,77.89,0,0,0,7.742,15.97,27.489,27.489,0,0,0,5.332,6.089,11.814,11.814,0,0,0,2.944,1.777,7.057,7.057,0,0,0,1.727.465c.819-.033,1.639-.032,2.458-.092a7.617,7.617,0,0,0,1.621-.537,13,13,0,0,0,2.963-1.948,29.071,29.071,0,0,0,5.233-6.222,80.35,80.35,0,0,0,7.6-15.981Z" transform="translate(-46.077 -373.467)" fill="#fff"/>
              <path id="Trazado_105362" data-name="Trazado 105362" d="M57.113,436.494c.739-3.675,1.592-7.329,2.567-10.936.418-1.565.877-3.118,1.346-4.667l32.777.2,24.013.044c-.452,4.394-.87,8.861-1.215,13.519-.006.083-.009.165-.016.249h8.838c.3-4.739.68-9.289,1.1-13.752l30.96.058h.009l31.2-.064c.535,4.54,1.013,9.085,1.371,13.626,0,.043.006.089.01.132H198.8c-.4-4.652-.865-9.253-1.423-13.775l23.8-.049,25.648-.129c.46,1.518.912,3.039,1.325,4.573A176.518,176.518,0,0,1,253.011,451a23.109,23.109,0,0,1,1.106,7.064v7.45c.07,2.078.109,4.159.106,6.24,0,1.883-.037,3.764-.1,5.646l8.91,4.907c.208-3.516.336-7.038.343-10.566a185.389,185.389,0,0,0-6.611-48.586c-.211-.759-.456-1.507-.678-2.261L285,420.639l3.527-.259-.266-6.931-34.672-.3a156.627,156.627,0,0,0-17.249-34.67,129.788,129.788,0,0,0-8.209-10.926l5.429-.044c4.8-.051,9.6-.1,14.514-.191l3.526-.261-.268-6.9-3.373-.058c-5.114-.087-10.228-.141-15.359-.2l-11.429-.056c-.164-.169-.319-.347-.485-.514a110.226,110.226,0,0,0-19.371-15.567,94.192,94.192,0,0,0-22.693-10.348,84.459,84.459,0,0,0-49.538-.021,94.383,94.383,0,0,0-22.731,10.338,110.383,110.383,0,0,0-19.384,15.549c-.182.183-.352.378-.532.562l-5.112.038c-4.768.047-9.538.1-14.5.184l-3.3.353-.108,3.336.37,3.564,3.237.052c4.158.065,8.317.106,12.478.148a129.079,129.079,0,0,0-8.218,10.917,156.765,156.765,0,0,0-17.33,34.8l-24.057.157-3.412.362v3.284l.376,3.647,24.637.152c-.226.764-.474,1.52-.688,2.288a176.489,176.489,0,0,0-4.677,22.266A23.2,23.2,0,0,1,57.113,436.494Zm100.364-23.641-30.1.055c.563-4.917,1.185-9.733,1.914-14.426,1-6.461,2.117-12.378,3.41-18.1.933-4.216,2.086-8.4,3.335-12.532l21.462.041,19.906-.057c1.413,4.085,2.729,8.213,3.818,12.386,1.5,5.676,2.816,11.545,4.019,17.932.9,4.882,1.678,9.814,2.379,14.764Zm71.812-29.727A148.885,148.885,0,0,1,244.2,413.1l-23.035-.115-24.888-.05q-1.22-8.3-2.793-16.37c-1.309-6.577-2.734-12.624-4.352-18.475-.939-3.445-2-6.88-3.161-10.279l16.751-.049,14.492-.118A121.281,121.281,0,0,1,229.289,383.126Zm-52.97-42.22a85.4,85.4,0,0,1,20.725,9.578,100.531,100.531,0,0,1,12.21,9.3l-26.279-.129a88.032,88.032,0,0,0-8.87-17.043c-.68-1-1.425-1.962-2.2-2.9C173.384,340.079,174.859,340.453,176.319,340.906Zm-26.144-.451a11.573,11.573,0,0,1,2.977-1.829,7.191,7.191,0,0,1,2.8-.567v-.491l.1,0,.027.487a7.969,7.969,0,0,1,3.063.748,13.888,13.888,0,0,1,3.047,1.942,30.109,30.109,0,0,1,5.437,6.188,80.13,80.13,0,0,1,6.718,12.677l-16.868-.083-18.731.036c.683-1.819,1.377-3.532,2.1-5.158a59.274,59.274,0,0,1,4.115-7.777A26.457,26.457,0,0,1,150.175,340.455Zm-39.512,10.073a85.274,85.274,0,0,1,20.725-9.6,76.267,76.267,0,0,1,9.83-2.321,33.919,33.919,0,0,0-2.85,3.883,67.147,67.147,0,0,0-4.72,8.7c-1.162,2.53-2.276,5.29-3.4,8.4l-1.3,0c-5.566.009-11.131.017-16.692.063l-13.685.1A100.531,100.531,0,0,1,110.663,350.527ZM78.477,383.189a121.228,121.228,0,0,1,12.133-15.583l21.643.165c5.11.042,10.225.05,15.337.058-1.063,3.556-2.048,7.132-2.882,10.715-1.4,5.886-2.612,11.97-3.719,18.6-.853,5.129-1.59,10.387-2.253,15.776l-24.947.047-30.191.2A148.591,148.591,0,0,1,78.477,383.189Z" transform="translate(-26.479 -329.689)" fill="#fff"/>
              <path id="Trazado_105363" data-name="Trazado 105363" d="M229.243,588.427a121.32,121.32,0,0,1-9.59,12.679h-31.52c.737-2.486,1.457-4.978,2.084-7.483,1.484-5.85,2.791-11.921,4-18.569q1.68-9.4,2.885-19.163l10.633-.021-.964-8.155-8.725-.018c.559-5.4.984-10.936,1.344-16.547h-8.85c-.121,1.912-.233,3.831-.376,5.725-.279,3.7-.6,7.286-.952,10.8l-31.728-.065-30.932.057c-.329-3.333-.628-6.724-.89-10.205-.152-2.1-.273-4.207-.4-6.315h-8.964c.158,2.348.316,4.7.508,7,.269,3.245.568,6.415.893,9.533l-23.9.044-33.536.212c-.181-.639-.381-1.271-.554-1.913a171.384,171.384,0,0,1-3.671-16.915,23.237,23.237,0,0,1-10.824-9.955c.187,1.742.384,3.485.622,5.224A177.55,177.55,0,0,0,50.645,548l-20.532.13a3.668,3.668,0,0,0-3.634,3.658l.376,3.637,26.1.166A156.889,156.889,0,0,0,71.226,593.22c1.81,2.7,3.755,5.323,5.769,7.889H71.421a4.009,4.009,0,0,0,.141,8.013H83.818c1.018,1.1,2.033,2.2,3.086,3.264a110.627,110.627,0,0,0,19.4,15.58,93.937,93.937,0,0,0,22.741,10.376,85.265,85.265,0,0,0,24.767,3.686c.849,0,1.7-.069,2.545-.095a15.354,15.354,0,0,0,1.536.078l.392,0a15.6,15.6,0,0,0,2.423-.281,85.525,85.525,0,0,0,17.942-3.406,94.006,94.006,0,0,0,22.73-10.394,110.544,110.544,0,0,0,19.367-15.588c1.036-1.047,2.034-2.133,3.035-3.217h28.679a4.007,4.007,0,1,0,0-8.015H230.6c2.025-2.583,3.982-5.221,5.806-7.948a156.139,156.139,0,0,0,11.552-20.743l-5.839-8.675A148.369,148.369,0,0,1,229.243,588.427Zm-71.75-32.454,30.821-.063c-.735,6.091-1.592,11.946-2.581,17.652-1.118,6.465-2.335,12.357-3.726,18.024-.769,3.185-1.653,6.362-2.61,9.521H136.33q-1.354-4.466-2.458-8.973c-1.409-5.685-2.642-11.573-3.765-18-1.03-5.916-1.909-11.964-2.661-18.219ZM78.541,588.393a148.7,148.7,0,0,1-15.879-32.736l31.144.2,24.841.046c.848,6.787,1.834,13.345,3,19.742,1.21,6.623,2.529,12.69,4.031,18.54.581,2.312,1.23,4.622,1.911,6.925H88.135A121.333,121.333,0,0,1,78.541,588.393Zm52.879,42.17a85.678,85.678,0,0,1-20.7-9.561,100.264,100.264,0,0,1-15-11.881h34.444c.385,1.105.769,2.212,1.175,3.306a86.01,86.01,0,0,0,8.7,17.577,35.611,35.611,0,0,0,2.311,3.106A75.739,75.739,0,0,1,131.42,630.564Zm32.514.761a13,13,0,0,1-2.963,1.948,7.617,7.617,0,0,1-1.621.537c-.818.06-1.639.059-2.458.092a7.057,7.057,0,0,1-1.727-.465,11.814,11.814,0,0,1-2.944-1.777,27.489,27.489,0,0,1-5.332-6.089,77.89,77.89,0,0,1-7.742-15.97c-.057-.158-.1-.321-.158-.479h37.784a80.35,80.35,0,0,1-7.6,15.981A29.071,29.071,0,0,1,163.934,631.324Zm33.077-10.295a85.96,85.96,0,0,1-20.744,9.558c-.4.124-.8.208-1.2.325.338-.478.68-.951,1-1.446a88.624,88.624,0,0,0,8.542-17.569c.334-.912.613-1.856.933-2.777h26.519A100.121,100.121,0,0,1,197.011,621.03Z" transform="translate(-26.479 -357.797)" fill="#fff"/>
              <path id="Trazado_105364" data-name="Trazado 105364" d="M298.227,543.113q1-4.363,1.781-8.769l-6.948,1.093Z" transform="translate(-66.026 -360.049)" fill="#fff"/>
              <path id="Trazado_105365" data-name="Trazado 105365" d="M266.411,553.017l-4.713,7.821,9.943-.05Z" transform="translate(-61.373 -362.819)" fill="#fff"/>
              <path id="Trazado_105366" data-name="Trazado 105366" d="M329.816,560.161l-.268-6.928-24.784-.217,5.082,7.552,16.445-.146Z" transform="translate(-67.762 -362.819)" fill="#fff"/>
              <path id="Trazado_105367" data-name="Trazado 105367" d="M230.437,459.586H73.422a22,22,0,0,0-21.978,21.978v13.412a22.035,22.035,0,0,0,21.978,21.978H207.88l-4.217-35.694a7.987,7.987,0,0,1,11.779-7.937l36.973,20.366V481.564A21.978,21.978,0,0,0,230.437,459.586Z" transform="translate(-30.183 -348.959)" fill="#fff"/>
            </g>
          </g>
        </g>
      </g>
      <rect id="Rectángulo_5944" data-name="Rectángulo 5944" width="361.959" height="53.713" transform="translate(129.287 348.182)" fill="#e8e8e8"/>
    </g>
  </g>
</svg>
