<svg xmlns="http://www.w3.org/2000/svg" width="292" height="207" viewBox="0 0 292 207">
  <g id="Grupo_56532" data-name="Grupo 56532" transform="translate(1180 4997)">
    <rect id="Rectángulo_5721" data-name="Rectángulo 5721" width="292" height="207" transform="translate(-1180 -4997)" fill="none"/>
    <g id="Grupo_56530" data-name="Grupo 56530" transform="translate(-1249.63 354.574)">
      <path id="Trazado_104976" data-name="Trazado 104976" d="M270.667,451.85l19.083,8.229H117.62l16.152-8.229Z" transform="translate(-42.151 -5696.759)" fill="#ebebeb"/>
      <rect id="Rectángulo_5860" data-name="Rectángulo 5860" width="136.895" height="90.767" transform="translate(91.621 -5335.675)" fill="#1c2e35"/>
      <rect id="Rectángulo_5861" data-name="Rectángulo 5861" width="122.885" height="77.035" transform="translate(98.606 -5329.173)" fill="#fff"/>
      <rect id="Rectángulo_5862" data-name="Rectángulo 5862" width="122.885" height="3.088" transform="translate(98.606 -5329.173)" fill="#395a64"/>
      <rect id="Rectángulo_5863" data-name="Rectángulo 5863" width="96.795" height="3.551" transform="translate(115.434 -5322.227)" fill="#feffff"/>
      <rect id="Rectángulo_5864" data-name="Rectángulo 5864" width="122.885" height="19.297" transform="translate(98.606 -5326.086)" fill="#fec72e"/>
      <rect id="Rectángulo_5865" data-name="Rectángulo 5865" width="29.178" height="43.226" transform="translate(183.051 -5302.157)" fill="#ebebeb"/>
      <rect id="Rectángulo_5866" data-name="Rectángulo 5866" width="29.178" height="3.396" transform="translate(183.051 -5302.157)" fill="#fec52e"/>
      <rect id="Rectángulo_5867" data-name="Rectángulo 5867" width="16.926" height="3.396" transform="translate(144.302 -5302.157)" fill="#a5a5a5"/>
      <rect id="Rectángulo_5868" data-name="Rectángulo 5868" width="33.655" height="1.253" transform="translate(144.302 -5289.825)" fill="#ebebeb"/>
      <rect id="Rectángulo_5869" data-name="Rectángulo 5869" width="33.655" height="1.253" transform="translate(144.302 -5286.814)" fill="#ebebeb"/>
      <rect id="Rectángulo_5870" data-name="Rectángulo 5870" width="33.655" height="1.253" transform="translate(144.302 -5283.014)" fill="#ebebeb"/>
      <rect id="Rectángulo_5871" data-name="Rectángulo 5871" width="33.655" height="1.253" transform="translate(144.302 -5280.004)" fill="#ebebeb"/>
      <rect id="Rectángulo_5872" data-name="Rectángulo 5872" width="47.752" height="1.253" transform="translate(105.013 -5271.994)" fill="#ebebeb"/>
      <rect id="Rectángulo_5873" data-name="Rectángulo 5873" width="14.55" height="1.253" transform="translate(105.013 -5275.235)" fill="#a5a5a5"/>
      <rect id="Rectángulo_5874" data-name="Rectángulo 5874" width="47.752" height="1.253" transform="translate(105.013 -5268.984)" fill="#ebebeb"/>
      <rect id="Rectángulo_5875" data-name="Rectángulo 5875" width="47.752" height="1.253" transform="translate(105.013 -5266.282)" fill="#ebebeb"/>
      <rect id="Rectángulo_5876" data-name="Rectángulo 5876" width="47.752" height="1.253" transform="translate(105.013 -5263.271)" fill="#ebebeb"/>
      <rect id="Rectángulo_5877" data-name="Rectángulo 5877" width="47.752" height="1.253" transform="translate(105.013 -5260.261)" fill="#ebebeb"/>
      <rect id="Rectángulo_5878" data-name="Rectángulo 5878" width="21.69" height="16.768" transform="translate(156.267 -5275.235)" fill="#a5a5a5"/>
      <rect id="Rectángulo_5879" data-name="Rectángulo 5879" width="39.298" height="26.818" transform="translate(100.643 -5305.089)" fill="none" stroke="#bdbcba" stroke-miterlimit="10" stroke-width="1"/>
      <rect id="Rectángulo_5881" data-name="Rectángulo 5881" width="2.354" height="73.291" transform="translate(219.137 -5326.086)" fill="#ebebeb"/>
      <path id="Trazado_104977" data-name="Trazado 104977" d="M177.685,456.122H291.956l10.313,4.168H166.376Z" transform="translate(-74.756 -5699.616)" fill="#1c2e34"/>
      <g id="Grupo_56293" data-name="Grupo 56293" transform="translate(99.969 -5328.603)">
        <circle id="Elipse_4551" data-name="Elipse 4551" cx="0.974" cy="0.974" r="0.974" transform="translate(0 0)" fill="#acacac"/>
        <circle id="Elipse_4552" data-name="Elipse 4552" cx="0.974" cy="0.974" r="0.974" transform="translate(2.629 0)" fill="#e9e9e9"/>
        <circle id="Elipse_4553" data-name="Elipse 4553" cx="0.974" cy="0.974" r="0.974" transform="translate(5.258 0)" fill="#fec72e"/>
      </g>
      <rect id="Rectángulo_5882" data-name="Rectángulo 5882" width="172.713" height="5.101" transform="translate(75.469 -5236.68)" fill="#c9c9c9"/>
      <g id="Grupo_56506" data-name="Grupo 56506" transform="translate(110.348 -5324.539)">
        <g id="Grupo_56502" data-name="Grupo 56502" transform="translate(75.35 35.301)">
          <path id="Trazado_105330" data-name="Trazado 105330" d="M534.686,446.843a5.968,5.968,0,0,1-.216-.578c-.629-2.042-.106-4.015,1.169-4.408s2.817.944,3.446,2.986a5.955,5.955,0,0,1,.147.6l.412-.127c-.043-.2-.091-.4-.153-.6-.74-2.4-2.555-3.973-4.053-3.511s-2.114,2.782-1.374,5.183c.062.2.134.392.21.58Z" transform="translate(-531.627 -441.127)" fill="#0c0236"/>
          <path id="Trazado_105331" data-name="Trazado 105331" d="M544.076,460.264l-12.412,3.824L528.78,451l10.314-3.178Z" transform="translate(-528.78 -444.962)" fill="#fff"/>
        </g>
        <g id="Grupo_56503" data-name="Grupo 56503" transform="translate(84.588 31.386)">
          <path id="Trazado_105332" data-name="Trazado 105332" d="M566.1,436.488a5.874,5.874,0,0,1,.107-.608c.492-2.079,1.942-3.515,3.24-3.208s1.951,2.241,1.458,4.32a5.868,5.868,0,0,1-.177.591l.42.1c.063-.193.122-.389.17-.593.578-2.444-.19-4.719-1.716-5.08s-3.232,1.328-3.811,3.772c-.048.2-.083.406-.113.606Z" transform="translate(-559.154 -431.961)" fill="#0c0236"/>
          <path id="Trazado_105333" data-name="Trazado 105333" d="M563.044,455.315l-12.639-2.991,4.145-12.746,10.5,2.486Z" transform="translate(-550.405 -436.324)" fill="#794ccb"/>
        </g>
        <g id="Grupo_56504" data-name="Grupo 56504" transform="translate(79.919)">
          <path id="Trazado_105334" data-name="Trazado 105334" d="M555.443,399.879a7.374,7.374,0,1,1-7.373-7.373A7.373,7.373,0,0,1,555.443,399.879Z" transform="translate(-540.696 -392.506)" fill="#fff"/>
          <path id="Trazado_105335" data-name="Trazado 105335" d="M551.953,404.786c-.121,0-1.159-2.987-1.51-2.87-.493.164-1.841.816-1.874,1.378s2.719,5.4,3.179,5.4c.969,0,5.033-5.366,4.7-5.974s-1.863-1.446-2.093-1.216C554.19,401.672,552.057,404.788,551.953,404.786Z" transform="translate(-544.949 -397.345)" fill="#00c7e1"/>
        </g>
        <g id="Grupo_56505" data-name="Grupo 56505" transform="translate(78.166 57.273)">
          <rect id="Rectángulo_5932" data-name="Rectángulo 5932" width="18.252" height="5.793" rx="2.896" fill="#794ccb"/>
        </g>
        <g id="Grupo_56507" data-name="Grupo 56507" transform="translate(0 23.111)">
          <path id="Trazado_105332-2" data-name="Trazado 105332" d="M566.1,436.488a5.874,5.874,0,0,1,.107-.608c.492-2.079,1.942-3.515,3.24-3.208s1.951,2.241,1.458,4.32a5.868,5.868,0,0,1-.177.591l.42.1c.063-.193.122-.389.17-.593.578-2.444-.19-4.719-1.716-5.08s-3.232,1.328-3.811,3.772c-.048.2-.083.406-.113.606Z" transform="translate(-559.154 -431.961)" fill="#0c0236"/>
          <path id="Trazado_105333-2" data-name="Trazado 105333" d="M563.044,455.315l-12.639-2.991,4.145-12.746,10.5,2.486Z" transform="translate(-550.405 -436.324)" fill="#794ccb"/>
        </g>
      </g>
    </g>
    <g id="Grupo_56531" data-name="Grupo 56531" transform="translate(121.322 82.453)">
      <g id="Grupo_56518" data-name="Grupo 56518" transform="translate(-1135.322 -4974.571)">
        <path id="Trazado_104671" data-name="Trazado 104671" d="M136.848,931.61c-2.2-.017-4.4-.085-6.6-.03-1.2.03-1.573-.432-1.547-1.589.06-2.651.048-5.3,0-7.957a1.583,1.583,0,0,1,1.216-1.737q12.859-4.744,25.693-9.553c6.4-2.384,12.794-4.758,19.175-7.178a3.633,3.633,0,0,1,2.758,0q22.182,8.315,44.4,16.544a2.129,2.129,0,0,1,1.7,2.433c-.109,2.479-.074,4.966-.013,7.448.028,1.157-.349,1.619-1.547,1.589-2.2-.056-4.4.013-6.6.03a2.117,2.117,0,0,1-1.852.623c-5.357-.006-10.714.126-16.07-.07-4.192.18-8.384.082-12.577.047q-8.8.107-17.609,0c-4.193.019-8.387.141-12.58-.047-5.364.188-10.729.067-16.093.069A2.123,2.123,0,0,1,136.848,931.61Z" transform="translate(-125.665 -903.295)" fill="#fc715d"/>
        <path id="Trazado_104672" data-name="Trazado 104672" d="M224.952,1035.707c.018,1.805-.006,3.613.07,5.416.045,1.073-.426,1.419-1.41,1.327-.335-.032-.677,0-1.015,0H126.414c-2.409,0-2.416,0-2.408-2.338,0-1.467.034-2.934.052-4.4.05-.027.1-.079.149-.077,3.261.125,6.436-.727,9.709-.719q41.267.095,82.535.03C219.311,1034.94,222.1,1035.712,224.952,1035.707Z" transform="translate(-124.005 -949.848)" fill="#ee5545"/>
        <path id="Trazado_104673" data-name="Trazado 104673" d="M224.981,1031.82H124.087c.791-.665,1.75-.4,2.588-.307,1.775.189,2.3-.531,2.119-2.2-.12-1.112.012-2.248-.03-3.371-.035-.943.361-1.307,1.3-1.289,1.686.032,3.374-.006,5.06-.014a2.049,2.049,0,0,1,1.821-.676c5.395,0,10.79-.127,16.183.069,4.087-.141,8.174-.151,12.26,0,6.091-.144,12.183-.156,18.273,0q6.133-.216,12.265,0c5.4-.187,10.8-.07,16.206-.068a2.054,2.054,0,0,1,1.824.676c1.687.008,3.374.046,5.061.014.935-.018,1.329.346,1.294,1.289-.042,1.123.091,2.259-.03,3.371-.18,1.666.344,2.385,2.119,2.2C223.231,1031.424,224.191,1031.156,224.981,1031.82Z" transform="translate(-124.034 -945.961)" fill="#fc715d"/>
        <path id="Trazado_104674" data-name="Trazado 104674" d="M144.416,994.415q-.012-19.449-.023-38.9a1.611,1.611,0,0,1,1.587-.763c3.611-.072,7.222-.065,10.833,0a2.108,2.108,0,0,1,1.561.529,3.331,3.331,0,0,1,.348,2.121q.019,17.218,0,34.436a4.091,4.091,0,0,1-.56,2.753,2.613,2.613,0,0,1-2.044.574q-4.8.063-9.6,0C145.75,995.154,144.915,995.233,144.416,994.415Z" transform="translate(-131.216 -921.478)" fill="#86dafc"/>
        <path id="Trazado_104675" data-name="Trazado 104675" d="M252.044,955.518q-.012,19.449-.023,38.9a1.666,1.666,0,0,1-1.591.731q-5.278.1-10.556,0a2.2,2.2,0,0,1-1.556-.5,3.362,3.362,0,0,1-.6-2.4q-.036-17.563,0-35.127a2.979,2.979,0,0,1,.3-1.8,2.521,2.521,0,0,1,2.033-.585q4.957-.059,9.915,0C250.737,954.747,251.573,954.673,252.044,955.518Z" transform="translate(-164.22 -921.478)" fill="#86dafc"/>
        <path id="Trazado_104676" data-name="Trazado 104676" d="M157.041,952.808l-13.9.022a2.142,2.142,0,0,1-2.218-2.412,7.383,7.383,0,0,1,.225-3.313l17.893.022c1.012,1.258,1.123,4,.174,5.154C158.637,952.978,157.957,953.43,157.041,952.808Z" transform="translate(-129.96 -918.791)" fill="#59c0e8"/>
        <path id="Trazado_104677" data-name="Trazado 104677" d="M250.739,952.83l-13.9-.022c-.916.622-1.6.17-2.171-.527-.949-1.151-.837-3.9.175-5.154l17.892-.022a8.4,8.4,0,0,1,.133,3.978A1.964,1.964,0,0,1,250.739,952.83Z" transform="translate(-162.915 -918.791)" fill="#59c0e8"/>
        <path id="Trazado_104678" data-name="Trazado 104678" d="M143.169,1015.976l13.709-.046c1.167-.656,1.925-.02,2.519.873a5.315,5.315,0,0,1-.291,4.893l-18.051.024a11.468,11.468,0,0,1-.132-3.327A2.249,2.249,0,0,1,143.169,1015.976Z" transform="translate(-129.969 -943.039)" fill="#59c0e8"/>
        <path id="Trazado_104679" data-name="Trazado 104679" d="M237.01,1015.93l13.709.046a2.29,2.29,0,0,1,2.255,2.583,11.445,11.445,0,0,1-.14,3.161l-18.052-.024a5.316,5.316,0,0,1-.291-4.893C235.086,1015.91,235.844,1015.274,237.01,1015.93Z" transform="translate(-162.919 -943.039)" fill="#59c0e8"/>
        <path id="Trazado_104680" data-name="Trazado 104680" d="M178.961,929.627q-20.251,0-40.5-.024c-.658,0-1.674.529-1.881-.765-.191-1.2.291-1.767,1.461-2.2q19.855-7.316,39.664-14.758a3.217,3.217,0,0,1,2.429-.019q19.9,7.447,39.821,14.82a1.72,1.72,0,0,1,1.351,2.111c-.171,1.329-1.189.809-1.843.81Q199.211,929.65,178.961,929.627Z" transform="translate(-128.438 -906.244)" fill="#e5e8ed"/>
        <path id="Trazado_104681" data-name="Trazado 104681" d="M205.985,947.066a8.207,8.207,0,0,1,.158,4.087c-.14,1.152-1.04,1.627-2.155,1.682a2.906,2.906,0,0,1-2.042.653q-4.829.029-9.658,0a2.906,2.906,0,0,1-2.042-.653,2.155,2.155,0,0,1-2.248-2.5c.041-1.089-.3-2.215.251-3.266Z" transform="translate(-146.616 -918.776)" fill="#59c0e8"/>
        <path id="Trazado_104682" data-name="Trazado 104682" d="M203.98,1015.739a2.321,2.321,0,0,1,2.3,2.714c-.029,1.006-.029,2.012-.042,3.018H188.044c-.014-1.006-.012-2.012-.042-3.017a2.322,2.322,0,0,1,2.3-2.714,2.621,2.621,0,0,1,2.016-.688q4.823-.035,9.647,0A2.621,2.621,0,0,1,203.98,1015.739Z" transform="translate(-146.64 -942.817)" fill="#59c0e8"/>
        <path id="Trazado_104683" data-name="Trazado 104683" d="M205.222,994.855H191.543q-.016-19.432-.031-38.864h13.742Q205.238,975.423,205.222,994.855Z" transform="translate(-147.882 -921.934)" fill="#86dafc"/>
      </g>
      <g id="Grupo_56521" data-name="Grupo 56521" transform="translate(-1143.928 -5045.241)">
        <g id="Grupo_56519" data-name="Grupo 56519" transform="translate(0 0)">
          <circle id="Elipse_4654" data-name="Elipse 4654" cx="15.477" cy="15.477" r="15.477" transform="translate(0 29.831) rotate(-74.52)" fill="#fda812"/>
          <circle id="Elipse_4655" data-name="Elipse 4655" cx="13.748" cy="13.748" r="13.748" transform="translate(5.294 5.315)" fill="#f9c141"/>
        </g>
        <g id="Grupo_56520" data-name="Grupo 56520" transform="translate(13.548 10.507)">
          <path id="Trazado_105340" data-name="Trazado 105340" d="M925.4-223v-1.884a10.912,10.912,0,0,1-4.207-1.026l.753-3.013a9.911,9.911,0,0,0,4.187,1.048c1.111,0,1.946-.25,1.946-.943,0-.627-.649-.984-2.387-1.4-2.45-.585-4.374-1.7-4.374-3.978,0-2.029,1.466-3.58,4.083-4.02v-1.864h2.491v1.716a9.889,9.889,0,0,1,3.539.712l-.734,2.909a9.037,9.037,0,0,0-3.621-.795c-1.339,0-1.675.44-1.675.858,0,.522.9.943,2.764,1.465,2.909.795,4,1.969,4,4.039,0,1.988-1.488,3.663-4.27,4.1V-223H925.4Z" transform="translate(-921.193 240.078)" fill="#fff"/>
        </g>
      </g>
      <g id="Grupo_56526" data-name="Grupo 56526" transform="translate(-1110.663 -4985.953)">
        <g id="Grupo_56519-2" data-name="Grupo 56519" transform="translate(0 0)">
          <circle id="Elipse_4654-2" data-name="Elipse 4654" cx="15.477" cy="15.477" r="15.477" transform="translate(0 29.831) rotate(-74.52)" fill="#fda812"/>
          <circle id="Elipse_4655-2" data-name="Elipse 4655" cx="13.748" cy="13.748" r="13.748" transform="translate(5.294 5.315)" fill="#f9c141"/>
        </g>
        <g id="Grupo_56520-2" data-name="Grupo 56520" transform="translate(13.548 10.507)">
          <path id="Trazado_105340-2" data-name="Trazado 105340" d="M925.4-223v-1.884a10.911,10.911,0,0,1-4.207-1.026l.753-3.013a9.91,9.91,0,0,0,4.187,1.048c1.111,0,1.946-.25,1.946-.943,0-.627-.649-.984-2.387-1.4-2.45-.585-4.375-1.7-4.375-3.978,0-2.029,1.466-3.58,4.083-4.02v-1.864h2.491v1.716a9.889,9.889,0,0,1,3.539.712l-.734,2.909a9.037,9.037,0,0,0-3.621-.795c-1.339,0-1.675.44-1.675.858,0,.522.9.943,2.763,1.465,2.909.795,4,1.969,4,4.039,0,1.988-1.488,3.663-4.27,4.1V-223H925.4Z" transform="translate(-921.193 240.078)" fill="#fff"/>
        </g>
      </g>
      <g id="Grupo_56524" data-name="Grupo 56524" transform="translate(-1091.617 -4983.155) rotate(131)">
        <g id="Grupo_56523" data-name="Grupo 56523">
          <g id="Grupo_56522" data-name="Grupo 56522">
            <rect id="Rectángulo_5933" data-name="Rectángulo 5933" width="19.974" height="34.286" transform="translate(4.993 8.865)" fill="#02dba8"/>
            <path id="Trazado_105341" data-name="Trazado 105341" d="M746.268-350.467,731.215-362.18l-15.044,11.723Z" transform="translate(-716.172 362.18)" fill="#02dba8"/>
          </g>
        </g>
      </g>
      <g id="Grupo_56531-2" data-name="Grupo 56531" transform="matrix(0.695, -0.719, 0.719, 0.695, -1117.59, -5004.546)">
        <g id="Grupo_56523-2" data-name="Grupo 56523">
          <g id="Grupo_56522-2" data-name="Grupo 56522">
            <rect id="Rectángulo_5933-2" data-name="Rectángulo 5933" width="19.974" height="34.286" transform="translate(4.993 8.865)" fill="#02dba8"/>
            <path id="Trazado_105341-2" data-name="Trazado 105341" d="M746.268-350.467,731.215-362.18l-15.044,11.723Z" transform="translate(-716.172 362.18)" fill="#02dba8"/>
          </g>
        </g>
      </g>
    </g>
    <g id="Grupo_56533" data-name="Grupo 56533" transform="translate(-1110.804 -4881.145)">
      <path id="Trazado_105332-3" data-name="Trazado 105332" d="M567.484,451.423a25.373,25.373,0,0,1,.459-2.613c2.114-8.936,8.351-15.111,13.93-13.79s8.386,9.634,6.27,18.571a25.267,25.267,0,0,1-.76,2.542l1.807.428c.272-.828.525-1.671.733-2.549,2.487-10.509-.816-20.288-7.375-21.84s-13.9,5.708-16.384,16.218c-.206.876-.358,1.745-.485,2.606Z" transform="translate(-537.628 -431.961)" fill="#0c0236"/>
      <path id="Trazado_105333-3" data-name="Trazado 105333" d="M604.742,507.232l-54.337-12.859,17.818-54.794,45.151,10.685Z" transform="translate(-550.405 -425.589)" fill="#794ccb"/>
    </g>
    <g id="Grupo_56534" data-name="Grupo 56534" transform="translate(-1142.288 -4893.5)">
      <path id="Trazado_105332-4" data-name="Trazado 105332" d="M588.946,451.423a25.4,25.4,0,0,0-.459-2.613c-2.114-8.936-8.351-15.111-13.93-13.79s-8.385,9.634-6.27,18.571a25.3,25.3,0,0,0,.76,2.542l-1.807.428c-.272-.828-.525-1.671-.733-2.549-2.487-10.509.816-20.288,7.375-21.84s13.9,5.708,16.384,16.218c.206.876.358,1.745.485,2.606Z" transform="translate(-555.833 -431.961)" fill="#0c0236"/>
      <path id="Trazado_105333-4" data-name="Trazado 105333" d="M559.036,507.232l54.337-12.859-17.818-54.794-45.151,10.685Z" transform="translate(-550.405 -425.589)" fill="#02dba8"/>
    </g>
  </g>
</svg>
