<svg xmlns="http://www.w3.org/2000/svg" width="52" height="42" viewBox="0 0 52 42">
  <g id="Grupo_56399" data-name="Grupo 56399" transform="translate(-277 -2296)">
    <g id="Grupo_56394" data-name="Grupo 56394" transform="translate(-16.798 1808.664)">
      <path id="Trazado_105160" data-name="Trazado 105160" d="M341.949,499.784v-.555a.915.915,0,0,0-.915-.914,18.088,18.088,0,0,1-3.7-.637l-.307-.113c-.031-.011-.061-.021-.093-.029-3.443-.848-10.414-2.608-20.159-5.089l-.07-.018-.054-.012a4.163,4.163,0,0,0-.808-.081,4.064,4.064,0,0,0-1.355.242l-.04.015-.113.044a.858.858,0,0,0-.265.133L298.715,503.9a3.735,3.735,0,0,0-.812.6c-.012.013-.026.025-.037.039a3.607,3.607,0,0,0,2.2,6.153,3.259,3.259,0,0,0,2.136-.309c.09-.045.187-.1.281-.156.031-.017.061-.037.092-.058l1.686-1.22.214-.139a5.812,5.812,0,0,0-.4,4.564,5.536,5.536,0,0,0,1.526,2.368l7.5,7.942a.8.8,0,0,0,1.16,0l7.767-8.228c.013-.014.027-.029.039-.044a5.651,5.651,0,0,0,1.015-1.579h1.247c.823.024,1.851.036,3.117.036a11.342,11.342,0,0,0,6.77-2.341c.408-.284.8-.577,1.194-.867,1.8-1.333,3.348-2.484,5.633-2.484a.914.914,0,0,0,.9-1.068l.012-7.159A1.022,1.022,0,0,0,341.949,499.784Zm-21.072,14.57-.031.036-7.161,7.585-6.934-7.344-.056-.053a3.964,3.964,0,0,1-1.1-1.706,4.2,4.2,0,0,1-.212-1.323,4.087,4.087,0,0,1,1.091-2.812,3.5,3.5,0,0,1,2.566-1.141,3.671,3.671,0,0,1,3.323,2.309,1.417,1.417,0,0,0,2.625,0,3.673,3.673,0,0,1,3.324-2.308,3.493,3.493,0,0,1,2.459,1.037h-2.8a2.6,2.6,0,1,0,0,5.2h3.314a3.964,3.964,0,0,1-.4.521Zm-12.088-8.339,4.72-3.061a2.763,2.763,0,0,1,.446-.018c.548.134,2.517.65,5.857,1.534l.149.04c.753.216,1.517.419,2.256.6l2.183.579a1.613,1.613,0,0,1-.538,2.948h-1.093a5.6,5.6,0,0,0-.731-.987A5.089,5.089,0,0,0,318.309,506a5.241,5.241,0,0,0-4.637,2.947A5.237,5.237,0,0,0,309.035,506C308.953,506,308.871,506.011,308.789,506.015Zm31.332-5.119v5.5c-2.395.269-4.121,1.55-5.8,2.793-.378.281-.759.563-1.15.836a9.52,9.52,0,0,1-5.725,2.013c-1.248,0-2.259-.012-3.09-.036h-6.393a.771.771,0,1,1,0-1.543h5.977a.814.814,0,0,0,.148-.013,3.441,3.441,0,0,0,1.1-6.415.95.95,0,0,0-.2-.083c-.191-.051-1.105-.294-2.328-.617-.732-.177-1.472-.372-2.215-.586l-.168-.045c-3.6-.953-5.56-1.465-5.992-1.565a.837.837,0,0,0-.158-.024,4.073,4.073,0,0,0-1.194.09.956.956,0,0,0-.276.12l-9.414,6.1-.04.026-1.656,1.2-.022.015a1.36,1.36,0,0,1-.154.085,1.483,1.483,0,0,1-.25.106,1.265,1.265,0,0,1-.2.043,1.53,1.53,0,0,1-.54-.009.753.753,0,0,0-.106-.016,1.788,1.788,0,0,1-1.651-1.785,1.769,1.769,0,0,1,.536-1.264l.017-.017a1.878,1.878,0,0,1,.436-.316.8.8,0,0,0,.122-.075l.649-.472,14.651-10.621c.023-.01.046-.018.07-.027a2.16,2.16,0,0,1,1.166-.093l.046.012c9.709,2.471,16.664,4.226,20.128,5.081l.3.11a.98.98,0,0,0,.1.031,26.549,26.549,0,0,0,3.288.647Z" fill="#12263f"/>
    </g>
    <rect id="Rectángulo_5901" data-name="Rectángulo 5901" width="52" height="42" transform="translate(277 2296)" fill="none"/>
  </g>
</svg>
