<svg xmlns="http://www.w3.org/2000/svg" width="500" height="389" viewBox="0 0 500 389">
  <g id="Grupo_56425" data-name="Grupo 56425" transform="translate(-180.5 -1236)">
    <rect id="Rectángulo_5708" data-name="Rectángulo 5708" width="500" height="389" transform="translate(180.5 1236)" fill="none"/>
    <g id="Grupo_56445" data-name="Grupo 56445" transform="translate(160.798 1222.746)">
      <rect id="Rectángulo_5906" data-name="Rectángulo 5906" width="427.817" height="22.453" rx="11.227" transform="translate(58.803 311.534)" fill="#794ccb"/>
      <path id="Trazado_105171" data-name="Trazado 105171" d="M365.472,210.653l-30.7,12.241-38.823-34.816L189.06,261.119v44.113H529.253V78.365L387.12,232.613Z" transform="translate(-41.225 -13.925)" fill="#02cddb"/>
      <g id="Grupo_56427" data-name="Grupo 56427" transform="translate(147.835 28.254)">
        <g id="Grupo_56426" data-name="Grupo 56426" transform="translate(0 13.65)">
          <path id="Trazado_105172" data-name="Trazado 105172" d="M520.214,47.156,387.6,197.9,366.143,174.68l-31.41,13.362-39.9-38.179L189.06,226.982v9.27l105.382-76.83,39.307,37.611,31.227-13.284,22.708,24.581L525.306,51.882A53.231,53.231,0,0,1,520.214,47.156Z" transform="translate(-189.06 -47.156)" fill="#f9c141"/>
        </g>
        <path id="Trazado_105173" data-name="Trazado 105173" d="M664.054,28.254l-31.292,9.5,20.7,18.561Z" transform="translate(-312.354 -28.254)" fill="#f9c141"/>
      </g>
      <g id="Grupo_56433" data-name="Grupo 56433" transform="translate(357.836 247.639)">
        <g id="Grupo_56428" data-name="Grupo 56428">
          <rect id="Rectángulo_5907" data-name="Rectángulo 5907" width="84.001" height="139.484" rx="4.828" fill="#0c0236"/>
          <rect id="Rectángulo_5908" data-name="Rectángulo 5908" width="72.001" height="122.207" transform="translate(6.435 5.769)" fill="#d0d1de"/>
          <path id="Trazado_105174" data-name="Trazado 105174" d="M537.161,518.078a2.265,2.265,0,1,1,2.265-2.265A2.265,2.265,0,0,1,537.161,518.078Z" transform="translate(-495.16 -382.491)" fill="#fff"/>
        </g>
        <rect id="Rectángulo_5909" data-name="Rectángulo 5909" width="3.531" height="2.855" rx="1.153" transform="translate(9.21 9.559)" fill="#fff"/>
        <rect id="Rectángulo_5910" data-name="Rectángulo 5910" width="3.531" height="2.855" rx="1.153" transform="translate(18.843 9.559)" fill="#fff"/>
        <rect id="Rectángulo_5911" data-name="Rectángulo 5911" width="3.531" height="2.855" rx="1.153" transform="translate(65.367 9.559)" fill="#fff"/>
        <rect id="Rectángulo_5912" data-name="Rectángulo 5912" width="3.531" height="2.855" rx="1.153" transform="translate(54.573 9.559)" fill="#fff"/>
        <rect id="Rectángulo_5913" data-name="Rectángulo 5913" width="3.531" height="2.855" rx="1.153" transform="translate(72.13 9.559)" fill="#fff"/>
        <g id="Grupo_56429" data-name="Grupo 56429" transform="translate(22.248 54.017)">
          <path id="Trazado_105175" data-name="Trazado 105175" d="M517.231,416.525a10.076,10.076,0,0,1-.365-.977c-1.063-3.451-.179-6.786,1.975-7.45s4.762,1.6,5.825,5.047a10.027,10.027,0,0,1,.248,1.013l.7-.215c-.073-.334-.155-.671-.259-1.01-1.251-4.058-4.318-6.716-6.851-5.936s-3.574,4.7-2.323,8.762c.1.338.226.663.354.981Z" transform="translate(-512.06 -406.862)" fill="#0c0236"/>
          <path id="Trazado_105176" data-name="Trazado 105176" d="M536.535,434.589l-20.982,6.464-4.874-22.125,17.435-5.372Z" transform="translate(-510.678 -408.722)" fill="#fff"/>
        </g>
        <g id="Grupo_56430" data-name="Grupo 56430" transform="translate(37.864 47.398)">
          <path id="Trazado_105177" data-name="Trazado 105177" d="M548.287,405.348a10.135,10.135,0,0,1,.181-1.027c.832-3.514,3.284-5.942,5.477-5.423s3.3,3.789,2.466,7.3a10.084,10.084,0,0,1-.3,1l.71.168c.107-.325.207-.657.288-1,.978-4.133-.32-7.977-2.9-8.588s-5.464,2.245-6.441,6.377c-.082.345-.141.686-.191,1.025Z" transform="translate(-536.548 -397.696)" fill="#0c0236"/>
          <path id="Trazado_105178" data-name="Trazado 105178" d="M553.669,431.915,532.3,426.859l7.006-21.545,17.753,4.2Z" transform="translate(-532.304 -399.813)" fill="#794ccb"/>
        </g>
        <g id="Grupo_56431" data-name="Grupo 56431" transform="translate(30.853 18.906)">
          <path id="Trazado_105179" data-name="Trazado 105179" d="M545.76,369.824a11.583,11.583,0,1,1-11.583-11.583A11.582,11.582,0,0,1,545.76,369.824Z" transform="translate(-522.595 -358.241)" fill="#fff"/>
          <path id="Trazado_105180" data-name="Trazado 105180" d="M535.783,372.418c-.19-.005-1.82-4.691-2.371-4.508-.775.258-2.893,1.281-2.944,2.164s4.271,8.481,4.994,8.481c1.521,0,7.906-8.429,7.39-9.385s-2.926-2.273-3.287-1.911C539.3,367.526,535.947,372.422,535.783,372.418Z" transform="translate(-524.782 -360.73)" fill="#00c7e1"/>
        </g>
        <g id="Grupo_56432" data-name="Grupo 56432" transform="translate(28.41 111.76)">
          <rect id="Rectángulo_5914" data-name="Rectángulo 5914" width="28.67" height="9.099" rx="4.517" fill="#794ccb"/>
        </g>
      </g>
      <g id="Grupo_56437" data-name="Grupo 56437" transform="translate(70.624 220.968)">
        <g id="Grupo_56436" data-name="Grupo 56436" transform="translate(0)">
          <rect id="Rectángulo_5915" data-name="Rectángulo 5915" width="258.268" height="158.76" fill="#0c0236"/>
          <rect id="Rectángulo_5916" data-name="Rectángulo 5916" width="233.581" height="137.49" transform="translate(12.344 10.635)" fill="#fff"/>
          <path id="Trazado_105181" data-name="Trazado 105181" d="M267.834,452.333H120.509s.732-55.513,18.815-63.491,30.183,32.178,38.692,32.709,7.759-32.874,20.144-37.828c31.911-12.764,28.654,37.563,34.5,37.031s11.1-46.472,19.146-46.472C271.557,374.282,267.834,452.333,267.834,452.333Z" transform="translate(-92.8 -317.121)" fill="#e3e5ec"/>
          <path id="Trazado_105182" data-name="Trazado 105182" d="M267.834,454.328H120.509s3.723-47.336,21.807-55.314,26.061,30.316,34.57,30.848,16.488-26.594,29.784-27.657,22.338,31.379,28.188,30.847,8.972-51.59,17.02-51.59C267.834,381.463,267.834,454.328,267.834,454.328Z" transform="translate(-92.8 -319.116)" fill="#00c7e1"/>
          <path id="Trazado_105183" data-name="Trazado 105183" d="M267.834,463.376H120.509s4.787-23.4,22.87-31.38,27.657,14.094,36.166,14.626,11.967-31.513,25.264-32.576,5.916,38.693,26.992,38.693c15.291,0,12.96-32.709,21.008-32.709C268.765,420.029,267.834,463.376,267.834,463.376Z" transform="translate(-92.8 -328.165)" fill="#794ccb"/>
          <rect id="Rectángulo_5917" data-name="Rectángulo 5917" width="43.678" height="7.654" transform="translate(192.182 54.692)" fill="#e3e5ec"/>
          <rect id="Rectángulo_5918" data-name="Rectángulo 5918" width="43.678" height="7.654" transform="translate(192.182 71.725)" fill="#e3e5ec"/>
          <rect id="Rectángulo_5919" data-name="Rectángulo 5919" width="43.678" height="7.654" transform="translate(192.182 88.758)" fill="#00c7e1"/>
          <rect id="Rectángulo_5920" data-name="Rectángulo 5920" width="43.678" height="7.654" transform="translate(192.182 105.792)" fill="#e3e5ec"/>
          <rect id="Rectángulo_5921" data-name="Rectángulo 5921" width="43.678" height="7.654" transform="translate(192.182 122.825)" fill="#794ccb"/>
          <rect id="Rectángulo_5922" data-name="Rectángulo 5922" width="7.976" height="7.976" transform="translate(23.738 18.895)" fill="#00c7e1"/>
          <rect id="Rectángulo_5923" data-name="Rectángulo 5923" width="36.177" height="7.976" transform="translate(39.405 18.895)" fill="#e3e5ec"/>
          <rect id="Rectángulo_5924" data-name="Rectángulo 5924" width="7.976" height="7.976" transform="translate(23.738 32.284)" fill="#00c7e1"/>
          <rect id="Rectángulo_5925" data-name="Rectángulo 5925" width="36.177" height="7.976" transform="translate(39.405 32.284)" fill="#e3e5ec"/>
          <rect id="Rectángulo_5926" data-name="Rectángulo 5926" width="7.976" height="7.976" transform="translate(23.738 45.672)" fill="#00c7e1"/>
          <rect id="Rectángulo_5927" data-name="Rectángulo 5927" width="36.177" height="7.976" transform="translate(39.405 45.672)" fill="#e3e5ec"/>
          <rect id="Rectángulo_5928" data-name="Rectángulo 5928" width="113.572" height="11.109" transform="translate(122.288 18.895)" fill="#e3e5ec"/>
          <rect id="Rectángulo_5929" data-name="Rectángulo 5929" width="56.971" height="9.4" transform="translate(91.307 42.539)" fill="#e3e5ec"/>
          <g id="Grupo_56435" data-name="Grupo 56435" transform="translate(91.62 17.496)">
            <g id="Grupo_56434" data-name="Grupo 56434">
              <path id="Trazado_105184" data-name="Trazado 105184" d="M217.173,322.873c2.85.214,5.449,1.431,5.467,4.279l-4.749.027c-.032-1.077-1.137-1.3-1.831-1.3-.436,0-1.847.011-1.843.883.012,1.95,8.753-.128,8.785,5.39.019,3.311-2.566,4.559-5.747,4.808l.226,3.516-2.9.018.159-3.545c-2.953-.29-5.708-1.659-5.726-4.638l4.749-.027v.1c.033,1.309,1.5,1.558,2.242,1.553.719,0,2.131-.063,2.125-1.013-.012-2.028-8.754-.128-8.785-5.467-.017-3.081,2.363-4.276,5.313-4.549l-.2-3.541,2.9-.018Z" transform="translate(-209.014 -319.354)" fill="#00c7e1"/>
            </g>
          </g>
          <path id="Trazado_105185" data-name="Trazado 105185" d="M242.535,327.294l-4.469-8.7-4.468,8.7h3.066v12.993h2.842V327.294Z" transform="translate(-124.225 -301.647)" fill="#794ccb"/>
        </g>
      </g>
      <g id="Grupo_56438" data-name="Grupo 56438" transform="translate(41.438 46.325)">
        <circle id="Elipse_4634" data-name="Elipse 4634" cx="61.735" cy="61.735" r="61.735" transform="matrix(0.895, -0.446, 0.446, 0.895, 0, 55.065)" fill="#f9c141"/>
        <circle id="Elipse_4635" data-name="Elipse 4635" cx="46.793" cy="46.793" r="46.793" transform="translate(23.076 54.266) rotate(-19.468)" fill="#fff"/>
        <circle id="Elipse_4636" data-name="Elipse 4636" cx="33.423" cy="33.423" r="33.423" transform="matrix(0.769, -0.64, 0.64, 0.769, 35.718, 78.478)" fill="#f9c141"/>
        <path id="Trazado_105186" data-name="Trazado 105186" d="M126.924,169.329a23,23,0,1,1,30.848,10.329A23,23,0,0,1,126.924,169.329Z" transform="translate(-64.725 -76.282)" fill="#fff"/>
        <path id="Trazado_105187" data-name="Trazado 105187" d="M142.778,168.573a10.617,10.617,0,1,1,14.237,4.767A10.617,10.617,0,0,1,142.778,168.573Z" transform="translate(-69.493 -81.05)" fill="#f9c141"/>
      </g>
      <g id="Grupo_56439" data-name="Grupo 56439" transform="translate(40.702 81.146)">
        <path id="Trazado_105188" data-name="Trazado 105188" d="M42.107,114.974c-.281,1.394-1.56,5.925,6.881,7.6,8.037,1.591,18.737,2.816,18.737,2.816s-8.4-6.742-15.181-11.338C45.421,109.223,42.627,113.618,42.107,114.974Z" transform="translate(-41.027 -104.373)" fill="#02cddb"/>
        <path id="Trazado_105189" data-name="Trazado 105189" d="M52.414,122.764l9.681,6.145a57.624,57.624,0,0,0,9.2,4.741l54.247,22.042L78.818,127.65a57.641,57.641,0,0,0-17.01-6.814l-7.36-1.657A9.639,9.639,0,0,1,52.414,122.764Z" transform="translate(-43.956 -106.412)" fill="#0c0236"/>
        <path id="Trazado_105190" data-name="Trazado 105190" d="M68.286,129.254s-13.581,8.317-24.11,5.373,6.23-13.139,6.23-13.139Z" transform="translate(-40.702 -107.054)" fill="#02cddb"/>
        <path id="Trazado_105191" data-name="Trazado 105191" d="M71.554,123.759s-3.271-15.586-12.639-21.223-5.28,13.549-5.28,13.549Z" transform="translate(-44.049 -101.5)" fill="#02cddb"/>
      </g>
      <path id="Trazado_105192" data-name="Trazado 105192" d="M90.373,234.262h122.4V130.154" transform="translate(-13.802 -28.315)" fill="none" stroke="#794ccb" stroke-miterlimit="10" stroke-width="12"/>
      <g id="Grupo_56444" data-name="Grupo 56444" transform="translate(245.513 165.759)">
        <path id="Trazado_105193" data-name="Trazado 105193" d="M357.431,246.766s3.424,12.351,5.108,14.372,7.187,5,7.187,5l-1.459,2.582s-10-5.1-11.734-9.263a31.5,31.5,0,0,1-2.021-6.4c-.276-1.529-1.405-5.331-.842-6.849C354.036,245.216,356.644,244.689,357.431,246.766Z" transform="translate(-332.436 -226.081)" fill="#00bad0"/>
        <path id="Trazado_105194" data-name="Trazado 105194" d="M357.431,246.766s3.424,12.351,5.108,14.372,7.187,5,7.187,5l-1.459,2.582s-10-5.1-11.734-9.263a31.5,31.5,0,0,1-2.021-6.4c-.276-1.529-1.405-5.331-.842-6.849C354.036,245.216,356.644,244.689,357.431,246.766Z" transform="translate(-332.436 -226.081)" fill="#00a2cb" opacity="0.65" style="mix-blend-mode: multiply;isolation: isolate"/>
        <path id="Trazado_105195" data-name="Trazado 105195" d="M406.455,327.94l2.524-2.358s10.093-.742,10.682.144-9.57,5.678-10.875,5.591S406.627,328.912,406.455,327.94Z" transform="translate(-347.147 -248.299)" fill="#0c0236"/>
        <path id="Trazado_105196" data-name="Trazado 105196" d="M380.7,281.141s9.544-2.429,10.33-.857,10.695,32.644,10.695,32.644l-2.524,2.358s-10.625-26.226-13.7-28.967S379.278,282.223,380.7,281.141Z" transform="translate(-339.892 -235.645)" fill="#ff876b"/>
        <path id="Trazado_105197" data-name="Trazado 105197" d="M380.7,281.141s9.544-2.429,10.33-.857,10.695,32.644,10.695,32.644l-2.524,2.358s-10.625-26.226-13.7-28.967S379.278,282.223,380.7,281.141Z" transform="translate(-339.892 -235.645)" fill="#eb945c"/>
        <g id="Grupo_56440" data-name="Grupo 56440" transform="translate(34.689 38.482)">
          <path id="Trazado_105198" data-name="Trazado 105198" d="M373.56,273.253a8.5,8.5,0,0,0,1.984-.8,2.643,2.643,0,0,1,1.685-.477c.453.065,4.121,1.592,3.145,2.274-.317.222-1.108-.166-1.424-.279-.45-.161-.9-.381-1.335-.573.394-.02,2.377.82,2.169,1.285-.365.815-2.374-.274-2.842-.537.357.056,1.6.522,1.6.974,0,.712-1.478.118-1.8-.045a2.175,2.175,0,0,0-.673-.328,2.688,2.688,0,0,0-.9.159,5.251,5.251,0,0,1-1.563.03c-.306-.028-1.018.037-1.17-.225a1.131,1.131,0,0,1,.2-1.113A2.228,2.228,0,0,1,373.56,273.253Z" transform="translate(-372.363 -271.962)" fill="#ff876b"/>
          <path id="Trazado_105199" data-name="Trazado 105199" d="M373.56,273.253a8.5,8.5,0,0,0,1.984-.8,2.643,2.643,0,0,1,1.685-.477c.453.065,4.121,1.592,3.145,2.274-.317.222-1.108-.166-1.424-.279-.45-.161-.9-.381-1.335-.573.394-.02,2.377.82,2.169,1.285-.365.815-2.374-.274-2.842-.537.357.056,1.6.522,1.6.974,0,.712-1.478.118-1.8-.045a2.175,2.175,0,0,0-.673-.328,2.688,2.688,0,0,0-.9.159,5.251,5.251,0,0,1-1.563.03c-.306-.028-1.018.037-1.17-.225a1.131,1.131,0,0,1,.2-1.113A2.228,2.228,0,0,1,373.56,273.253Z" transform="translate(-372.363 -271.962)" fill="#eb945c"/>
        </g>
        <g id="Grupo_56441" data-name="Grupo 56441" transform="translate(30.824 23.278)">
          <path id="Trazado_105200" data-name="Trazado 105200" d="M393.939,250.908l2.245.921-7.711,18.607-2.27-1.226Z" transform="translate(-372.343 -250.908)" fill="#0c0236"/>
          <rect id="Rectángulo_5930" data-name="Rectángulo 5930" width="14.681" height="2.28" transform="translate(0 17.978)" fill="#0c0236"/>
        </g>
        <path id="Trazado_105201" data-name="Trazado 105201" d="M329.184,249.321c1.964-1.123,2.292-2.363,1.2-6.471a8.629,8.629,0,0,1,4.5-9.5c2.011-.828,3.777-1.194,5-3.338s-1.095-6.716,2.779-10.1c2.822-2.467,6.872-.5,6.872-.5.871-.482,1.23,4.6,1.293,8.42-4.9,7.509-3.507,17.319-1.72,25.724a3.877,3.877,0,0,0,.18.564c-.386,6.506-.695,11.892-.695,11.892s-11.792,6.677-19.814.96S325.25,251.572,329.184,249.321Z" transform="translate(-324.325 -218.672)" fill="#0c0236"/>
        <path id="Trazado_105202" data-name="Trazado 105202" d="M378.082,326.825l2.994,1.722s3.668,9.432,2.995,10.255-8.234-7.486-8.533-8.758S377.2,327.274,378.082,326.825Z" transform="translate(-338.547 -248.725)" fill="#0c0236"/>
        <path id="Trazado_105203" data-name="Trazado 105203" d="M370.7,280.893s19.238,1.348,21.035,3.069S377.2,315.6,377.2,315.6l-2.681-1.541s4.042-14.223,5.09-17.517,3.069-7.261,2.695-7.785-19.762,2.4-19.612-3.069S370.7,280.893,370.7,280.893Z" transform="translate(-334.987 -235.954)" fill="#ffb280"/>
        <path id="Trazado_105204" data-name="Trazado 105204" d="M357.753,234.755s-2.021,5.5-.786,9.6l-6.737-1.628s2.756-9.208,3.936-10.779S357.753,234.755,357.753,234.755Z" transform="translate(-331.524 -222.266)" fill="#ffb280"/>
        <path id="Trazado_105205" data-name="Trazado 105205" d="M353.992,237.98c-2.206,0-2.395,3.344-2.5,5.051l-1.262-.3s2.756-9.208,3.936-10.779,3.588,2.807,3.588,2.807a22.7,22.7,0,0,0-1.132,5.341C356.152,239.85,354.646,237.98,353.992,237.98Z" transform="translate(-331.524 -222.266)" fill="#eb945c"/>
        <path id="Trazado_105206" data-name="Trazado 105206" d="M359.388,225.965s2.618,1.251,3.242,2.305.079,2.514.131,3.478a14.8,14.8,0,0,1,.172,2.631c-.146.235-1.11,0-1.266.208s-1.407.99-1.8,1.875-.911.964-1.823.521-4.4-5.053-4.44-7.214S356.8,225.08,359.388,225.965Z" transform="translate(-332.462 -220.648)" fill="#ffb280"/>
        <g id="Grupo_56443" data-name="Grupo 56443" transform="translate(26.207 8.942)">
          <g id="Grupo_56442" data-name="Grupo 56442">
            <path id="Trazado_105207" data-name="Trazado 105207" d="M362.149,233.376c-.064.239-.008.474.132.514s.318-.121.383-.359.009-.474-.132-.514S362.228,233.132,362.149,233.376Z" transform="translate(-361.035 -231.597)" fill="#231f20"/>
            <path id="Trazado_105208" data-name="Trazado 105208" d="M363.072,231.565s-2.025-.845-2.455-.36a10.533,10.533,0,0,1,2.062.776C363.346,232.371,363.375,231.713,363.072,231.565Z" transform="translate(-360.617 -231.054)" fill="#0c0236"/>
            <path id="Trazado_105209" data-name="Trazado 105209" d="M363.128,238.467l-1.6-.608a2.648,2.648,0,0,0,.916,1.367A1.935,1.935,0,0,1,363.128,238.467Z" transform="translate(-360.87 -232.945)" fill="#fff"/>
          </g>
        </g>
        <path id="Trazado_105210" data-name="Trazado 105210" d="M356.093,221.972a18.167,18.167,0,0,1,1.348,3.411c.126.969-.8,3.832-1.348,4.211s-.084-3.2-1.474-2.106.084,3.159,0,3.58a2.573,2.573,0,0,1-2.148,1.9c-1.432.126-3.79-6.991-2.232-8.759S354.451,221.972,356.093,221.972Z" transform="translate(-331.384 -219.589)" fill="#0c0236"/>
        <path id="Trazado_105211" data-name="Trazado 105211" d="M358.137,219.717a3.865,3.865,0,0,1,4.7.21c2.4,1.937,2.316,4.843,4.3,4.591,0,0-1.306,3.369-4.17,2.569S357.141,221.738,358.137,219.717Z" transform="translate(-333.666 -218.765)" fill="#0c0236"/>
        <path id="Trazado_105212" data-name="Trazado 105212" d="M346.2,272.454l8.923-.673s4.643,5.185,9.23,5.185h15.682s-.848,7.157-4.623,12.335c0,0-14.9.469-22.158-.13S339.094,280.565,346.2,272.454Z" transform="translate(-329.575 -233.429)" fill="#ff4464"/>
        <path id="Trazado_105213" data-name="Trazado 105213" d="M346.2,273.5c.255-.348.526-.7.833-1.048l8.923-.673s4.521,5.037,9.046,5.173C359.536,277.507,349.092,278.716,346.2,273.5Z" transform="translate(-330.404 -233.429)" fill="#ff2349"/>
        <path id="Trazado_105214" data-name="Trazado 105214" d="M385.888,280.009c-2.273-.222-4.481-.765-6.719-1.048h9.838C388.035,279.461,387.556,280.173,385.888,280.009Z" transform="translate(-339.565 -235.425)" fill="#ff2349"/>
        <path id="Trazado_105215" data-name="Trazado 105215" d="M350.055,242.7a38.034,38.034,0,0,0,5.485,1.761s2.885,6.363,4.008,8.084-2.846,8.309-3.07,11.154c0,0-2.386,2.277-9.614.877C346.865,264.577,344.979,246.705,350.055,242.7Z" transform="translate(-330.493 -225.349)" fill="#00bad0"/>
        <path id="Trazado_105216" data-name="Trazado 105216" d="M348.959,247.881A3.45,3.45,0,0,1,353,249.15c.755,1.555-.021,4.318.071,6a32.57,32.57,0,0,0,.654,5.843,12.155,12.155,0,0,0,2.354,4.364c-.926.56-3.611,1.684-9.217.6,0,0-1.15-10.9.763-17.58C348.15,248.2,348.632,248.03,348.959,247.881Z" transform="translate(-330.493 -226.727)" fill="#00a2cb" opacity="0.65" style="mix-blend-mode: multiply;isolation: isolate"/>
        <path id="Trazado_105217" data-name="Trazado 105217" d="M371.616,273.253a8.524,8.524,0,0,0,1.984-.8,2.641,2.641,0,0,1,1.684-.477c.454.065,4.121,1.592,3.145,2.274-.317.222-1.108-.166-1.424-.279-.45-.161-.9-.381-1.335-.573.394-.02,2.378.82,2.17,1.285-.366.815-2.374-.274-2.842-.537.357.056,1.6.522,1.6.974,0,.712-1.478.118-1.8-.045a2.169,2.169,0,0,0-.673-.328,2.691,2.691,0,0,0-.9.159,5.25,5.25,0,0,1-1.563.03c-.306-.028-1.017.037-1.17-.225a1.131,1.131,0,0,1,.2-1.113A2.232,2.232,0,0,1,371.616,273.253Z" transform="translate(-337.134 -233.48)" fill="#ffb280"/>
        <path id="Trazado_105218" data-name="Trazado 105218" d="M364.992,265.718l-.786,2.954s-19.313-2.246-19.762-5.67.786-19.367,5.446-17.712.056,13.22.786,14.118S364.992,265.718,364.992,265.718Z" transform="translate(-329.892 -226.035)" fill="#00bad0"/>
      </g>
    </g>
  </g>
</svg>
