<svg xmlns="http://www.w3.org/2000/svg" width="52" height="42" viewBox="0 0 52 42">
  <g id="Grupo_56402" data-name="Grupo 56402" transform="translate(-1014 -2294)">
    <g id="Grupo_56396" data-name="Grupo 56396" transform="translate(39.149 1812.053)">
      <path id="Trazado_105162" data-name="Trazado 105162" d="M1017.15,485.649a1.7,1.7,0,0,0-1.7-1.7h-29.9a1.7,1.7,0,0,0-.057,3.4,3.147,3.147,0,0,0-.092.747v15.8a3.137,3.137,0,0,0,.092.747,1.7,1.7,0,0,0,.057,3.4h13.425a1.848,1.848,0,0,0-.032.333v4.049a1.1,1.1,0,0,0-.228.182l-5.761,6a1.287,1.287,0,0,0-.313,1.123,2.011,2.011,0,0,0,1.652,1.594,1.284,1.284,0,0,0,1.106-.357l3.544-3.693v3.036a1.7,1.7,0,1,0,3.394,0v-3.047l4.072,3.927a1.331,1.331,0,0,0,1.131.336,1.957,1.957,0,0,0,1.6-1.669,1.338,1.338,0,0,0-.378-1.12h0l-6.272-6.049a1.117,1.117,0,0,0-.153-.124v-4.192a1.859,1.859,0,0,0-.031-.333h13.147a1.7,1.7,0,0,0,.673-3.264,3.157,3.157,0,0,0,.127-.882v-15.8a3.156,3.156,0,0,0-.127-.882A1.7,1.7,0,0,0,1017.15,485.649Zm-9.054,33.784a.4.4,0,0,1,.089.325,1,1,0,0,1-.786.819.4.4,0,0,1-.327-.078l-4.883-4.709a.479.479,0,0,0-.811.346v4.177a.742.742,0,1,1-1.476,0v-4.229a.48.48,0,0,0-.826-.333l-4.369,4.553a.356.356,0,0,1-.293.069,1.062,1.062,0,0,1-.83-.8.355.355,0,0,1,.059-.3l5.762-6a.234.234,0,0,1,.123-.06.482.482,0,0,0,.373-.469v-4.368a.877.877,0,0,1,.065-.333h1.344a.875.875,0,0,1,.066.333v4.489a.48.48,0,0,0,.333.458.292.292,0,0,1,.114.062Zm8.095-13.094a.742.742,0,0,1-.74.741h-29.9a.742.742,0,0,1,0-1.483h29.9A.742.742,0,0,1,1016.191,506.339ZM986.838,503.9v-15.8a1.7,1.7,0,0,1,.174-.74h27.628a1.69,1.69,0,0,1,.175.74v15.8a1.7,1.7,0,0,1-.175.741H987.011A1.708,1.708,0,0,1,986.838,503.9Zm28.614-17.5h-29.9a.741.741,0,0,1,0-1.482h29.9a.741.741,0,0,1,0,1.482Z" transform="translate(0)" fill="#231f20"/>
      <path id="Trazado_105163" data-name="Trazado 105163" d="M1012.52,491.822a.719.719,0,0,0-1.007.142l-4.352,5.793-5.8-2.909a.716.716,0,0,0-.919.245l-4.013,6.032H992.1a.721.721,0,0,0,0,1.441h4.714a.718.718,0,0,0,.6-.32l3.874-5.825,5.769,2.892a.719.719,0,0,0,.9-.211l4.713-6.272A.722.722,0,0,0,1012.52,491.822Z" transform="translate(-1.592 -1.635)" fill="#231f20"/>
    </g>
    <rect id="Rectángulo_5904" data-name="Rectángulo 5904" width="52" height="42" transform="translate(1014 2294)" fill="none"/>
  </g>
</svg>
