<svg xmlns="http://www.w3.org/2000/svg" width="292" height="207" viewBox="0 0 292 207">
  <g id="Grupo_56509" data-name="Grupo 56509" transform="translate(1180 5432)">
    <rect id="Rectángulo_5717" data-name="Rectángulo 5717" width="292" height="207" transform="translate(-1180 -5432)" fill="none"/>
    <g id="Grupo_56508" data-name="Grupo 56508" transform="translate(-1244.285 -82.325)">
      <path id="Trazado_104976" data-name="Trazado 104976" d="M354.636,451.85l29.553,12.744H117.62l25.013-12.744Z" transform="translate(-39.749 -5646.959)" fill="#ebebeb"/>
      <rect id="Rectángulo_5860" data-name="Rectángulo 5860" width="212.003" height="140.566" transform="translate(102.884 -5335.675)" fill="#1c2e35"/>
      <rect id="Rectángulo_5861" data-name="Rectángulo 5861" width="190.306" height="119.3" transform="translate(113.703 -5325.606)" fill="#fff"/>
      <rect id="Rectángulo_5862" data-name="Rectángulo 5862" width="190.306" height="4.782" transform="translate(113.703 -5325.606)" fill="#395a64"/>
      <rect id="Rectángulo_5863" data-name="Rectángulo 5863" width="149.902" height="5.499" transform="translate(139.762 -5314.848)" fill="#feffff"/>
      <rect id="Rectángulo_5864" data-name="Rectángulo 5864" width="190.306" height="29.885" transform="translate(113.703 -5320.824)" fill="#fec72e"/>
      <rect id="Rectángulo_5865" data-name="Rectángulo 5865" width="45.186" height="66.942" transform="translate(244.479 -5283.768)" fill="#ebebeb"/>
      <rect id="Rectángulo_5866" data-name="Rectángulo 5866" width="45.186" height="5.26" transform="translate(244.479 -5283.768)" fill="#fec52e"/>
      <rect id="Rectángulo_5867" data-name="Rectángulo 5867" width="26.213" height="5.26" transform="translate(184.47 -5283.768)" fill="#a5a5a5"/>
      <rect id="Rectángulo_5868" data-name="Rectángulo 5868" width="52.119" height="1.94" transform="translate(184.47 -5264.668)" fill="#ebebeb"/>
      <rect id="Rectángulo_5869" data-name="Rectángulo 5869" width="52.119" height="1.94" transform="translate(184.47 -5260.007)" fill="#ebebeb"/>
      <rect id="Rectángulo_5870" data-name="Rectángulo 5870" width="52.119" height="1.94" transform="translate(184.47 -5254.122)" fill="#ebebeb"/>
      <rect id="Rectángulo_5871" data-name="Rectángulo 5871" width="52.119" height="1.94" transform="translate(184.47 -5249.46)" fill="#ebebeb"/>
      <rect id="Rectángulo_5872" data-name="Rectángulo 5872" width="73.952" height="1.94" transform="translate(123.625 -5237.055)" fill="#ebebeb"/>
      <rect id="Rectángulo_5873" data-name="Rectángulo 5873" width="22.534" height="1.94" transform="translate(123.625 -5242.076)" fill="#a5a5a5"/>
      <rect id="Rectángulo_5874" data-name="Rectángulo 5874" width="73.952" height="1.94" transform="translate(123.625 -5232.393)" fill="#ebebeb"/>
      <rect id="Rectángulo_5875" data-name="Rectángulo 5875" width="73.952" height="1.94" transform="translate(123.625 -5228.209)" fill="#ebebeb"/>
      <rect id="Rectángulo_5876" data-name="Rectángulo 5876" width="73.952" height="1.94" transform="translate(123.625 -5223.547)" fill="#ebebeb"/>
      <rect id="Rectángulo_5877" data-name="Rectángulo 5877" width="73.952" height="1.94" transform="translate(123.625 -5218.885)" fill="#ebebeb"/>
      <rect id="Rectángulo_5878" data-name="Rectángulo 5878" width="33.591" height="25.967" transform="translate(202.999 -5242.076)" fill="#a5a5a5"/>
      <rect id="Rectángulo_5879" data-name="Rectángulo 5879" width="60.859" height="41.532" transform="translate(116.857 -5288.308)" fill="none" stroke="#bdbcba" stroke-miterlimit="10" stroke-width="1"/>
      <rect id="Rectángulo_5881" data-name="Rectángulo 5881" width="3.646" height="113.502" transform="translate(300.363 -5320.824)" fill="#ebebeb"/>
      <path id="Trazado_104977" data-name="Trazado 104977" d="M183.889,456.122H360.854l15.971,6.455H166.376Z" transform="translate(-63.492 -5649.04)" fill="#1c2e34"/>
      <g id="Grupo_56293" data-name="Grupo 56293" transform="translate(115.813 -5324.724)">
        <circle id="Elipse_4551" data-name="Elipse 4551" cx="1.508" cy="1.508" r="1.508" transform="translate(0 0)" fill="#acacac"/>
        <circle id="Elipse_4552" data-name="Elipse 4552" cx="1.508" cy="1.508" r="1.508" transform="translate(4.071 0)" fill="#e9e9e9"/>
        <circle id="Elipse_4553" data-name="Elipse 4553" cx="1.508" cy="1.508" r="1.508" transform="translate(8.143 0)" fill="#fec72e"/>
      </g>
      <rect id="Rectángulo_5882" data-name="Rectángulo 5882" width="267.472" height="7.9" transform="translate(77.871 -5182.366)" fill="#c9c9c9"/>
      <g id="Grupo_54528" data-name="Grupo 54528" transform="translate(73.285 -5226.1)">
        <g id="Grupo_54524" data-name="Grupo 54524" transform="translate(0)">
          <g id="Grupo_54504" data-name="Grupo 54504" transform="translate(24.877 55.731)">
            <path id="Trazado_101858" data-name="Trazado 101858" d="M164.4,507.251a.794.794,0,0,1,.14.857v.008a5.367,5.367,0,0,1-1.678,1.847c-.1.081-.192.156-.273.222a.4.4,0,0,0-.059.052l-.045.044c-.739.68-.458.835-1.788,2.225-1.515,1.574-2.557,1.6-2.853,1.463-.251-.118.259-.961.82-1.9.03-.045.052-.089.082-.141.074-.118.148-.251.222-.377.665-1.131.488-1.663.332-3.34-.126-1.367-2.129-7.635-2.129-7.635l2.9-.5s.872,4.989,1.84,5.757c.517.406,1.094.414,1.582.717.037.023.066.045.1.067A3.95,3.95,0,0,1,164.4,507.251Z" transform="translate(-157.172 -500.075)" fill="#ffb280"/>
          </g>
          <g id="Grupo_54505" data-name="Grupo 54505" transform="translate(25.488 62.288)">
            <path id="Trazado_101859" data-name="Trazado 101859" d="M164.984,513.484a.793.793,0,0,1,.14.857v.008a6.16,6.16,0,0,1-1.685,1.84c-.1.081-.185.163-.266.229a.426.426,0,0,0-.059.051l-.044.045c-.739.68-.459.835-1.789,2.224-1.515,1.574-2.557,1.6-2.852,1.463-.251-.118.259-.96.82-1.9a6.488,6.488,0,0,0,2.7-1.988c.879-1.124,1.471-2.55,2.07-3.43l.17-.029A3.265,3.265,0,0,1,164.984,513.484Z" transform="translate(-158.363 -512.856)" fill="#0f3662"/>
          </g>
          <g id="Grupo_54506" data-name="Grupo 54506" transform="translate(0 54.852)">
            <path id="Trazado_101860" data-name="Trazado 101860" d="M117.389,504.615c-.177.894-1.456.746-2.882.4s-1.087.067-3.119-.155-2.646-.983-2.705-1.278c-.052-.266.946-.362,2.025-.488.133-.015.273-.03.407-.052a8.859,8.859,0,0,0,3.207-1.582,12.854,12.854,0,0,0,2.6-3.1l2.786.222s-1.464,2.217-2.025,3.185a3.349,3.349,0,0,0-.273,1.9A3.381,3.381,0,0,1,117.389,504.615Z" transform="translate(-108.681 -498.362)" fill="#ffb280"/>
          </g>
          <g id="Grupo_54507" data-name="Grupo 54507" transform="translate(0.008 59.587)">
            <path id="Trazado_101861" data-name="Trazado 101861" d="M114.522,509.512c-1.427-.347-1.087.067-3.119-.155s-2.646-.983-2.7-1.279c-.052-.266.946-.362,2.025-.487l.007.022a5.736,5.736,0,0,0,2.9.9c1.374.03,2.838-.362,3.784-.347a3.436,3.436,0,0,1-.023.954C117.219,510.007,115.948,509.86,114.522,509.512Z" transform="translate(-108.696 -507.591)" fill="#0f3662"/>
          </g>
          <g id="Grupo_54508" data-name="Grupo 54508" transform="translate(19.373 38.844)">
            <path id="Trazado_101862" data-name="Trazado 101862" d="M146.443,471.622l2.6,7,3.4,9.142a5.469,5.469,0,0,0,1.8-.163,7.927,7.927,0,0,0,1.744-.85s-.946-9.815-2.712-15.454a9.931,9.931,0,0,0-1.515-3.274C149.045,464.8,146.443,471.622,146.443,471.622Z" transform="translate(-146.443 -467.158)" fill="#00cbaf"/>
          </g>
          <g id="Grupo_54509" data-name="Grupo 54509" transform="translate(6.645 30.774)">
            <g id="Grupo_56326" data-name="Grupo 56326">
              <path id="Trazado_101863" data-name="Trazado 101863" d="M137.005,452.839c1.479-.48,5.344-.007,9.541.746a2.834,2.834,0,0,0,2.934-1.33h0l10.553-.827s3.481,7.716,1.582,12.638a1.842,1.842,0,0,1-1.84,1.19h0s-6.378.008-8.411.015c-5.247,0-11.108-3.607-11.862-3.754-1.242-.244-1.737,2.232-2.979,4.841s-11.655,11.536-11.655,11.536a9.289,9.289,0,0,1-2.261-.229,2.264,2.264,0,0,1-.976-.614C121.618,477.051,133.162,454.081,137.005,452.839Z" transform="translate(-121.633 -451.428)" fill="#00ddbd"/>
            </g>
          </g>
          <g id="Grupo_54510" data-name="Grupo 54510" transform="translate(31.803)">
            <path id="Trazado_101864" data-name="Trazado 101864" d="M173.42,408.519c3.754,2.07,11.381,6.356,11.418,6.327,0,0,2.8,1.057,4.39,0,2.646-1.759,4.065-6.5-.776-10.569-2.417-2.032-4.131-2.527-4.4-5.772-.14-1.766-2.572-7.612-6.6-7.021a5.421,5.421,0,0,1-.976.059,3.733,3.733,0,0,0-2.018.525C172.208,393.413,167.782,407.721,173.42,408.519Z" transform="translate(-170.673 -391.442)" fill="#0f3662"/>
          </g>
          <g id="Grupo_54511" data-name="Grupo 54511" transform="translate(37.214 9.402)">
            <path id="Trazado_101865" data-name="Trazado 101865" d="M181.7,415.682a4.98,4.98,0,0,0,3.1.1,5.5,5.5,0,0,0,2.047-2.454c-.532-.022-1.124-.488-1.574-3.555l-.229.081-3.821,1.375s.273,1.227.458,2.394C181.826,414.6,181.907,415.541,181.7,415.682Z" transform="translate(-181.22 -409.769)" fill="#ffb280"/>
          </g>
          <g id="Grupo_54512" data-name="Grupo 54512" transform="translate(37.214 9.487)">
            <path id="Trazado_101866" data-name="Trazado 101866" d="M181.22,411.309s.155.665.377,1.9a4.311,4.311,0,0,0,3.444-3.274Z" transform="translate(-181.22 -409.935)" fill="#ff9760"/>
          </g>
          <g id="Grupo_54513" data-name="Grupo 54513" transform="translate(33.962 2.88)">
            <path id="Trazado_101867" data-name="Trazado 101867" d="M177.569,406.257s5.225-.7,4.737-3.954-.141-5.528-3.5-5.217-3.821,1.648-3.917,2.771S176.194,406.353,177.569,406.257Z" transform="translate(-174.881 -397.057)" fill="#ffb280"/>
          </g>
          <g id="Grupo_54514" data-name="Grupo 54514" transform="translate(34.16 2.593)">
            <path id="Trazado_101868" data-name="Trazado 101868" d="M175.266,397.809s3.348,2.883,5.624,3.111,3.141-.5,3.141-.5a8.9,8.9,0,0,1-2.151-2.912,1.6,1.6,0,0,0-1.323-.946C178.932,396.427,175.85,396.368,175.266,397.809Z" transform="translate(-175.266 -396.496)" fill="#0f3662"/>
          </g>
          <g id="Grupo_54515" data-name="Grupo 54515" transform="translate(33.547 3.017)">
            <path id="Trazado_101869" data-name="Trazado 101869" d="M176.774,397.95a8.456,8.456,0,0,0-1.471,1.884,6.268,6.268,0,0,0-.17,3.363s-1.744-3.392-.761-5.04A1.4,1.4,0,0,1,176.774,397.95Z" transform="translate(-174.072 -397.324)" fill="#0f3662"/>
          </g>
          <g id="Grupo_54516" data-name="Grupo 54516" transform="translate(33.292 12.829)">
            <path id="Trazado_101870" data-name="Trazado 101870" d="M173.576,426.635c.163,10.584.044,8.374,1.2,9.379a4.46,4.46,0,0,0,2.1.45c3.244.215,8.95-.325,9.164-.923.746-2.077.222-2.72.843-5.9.066-.34.148-.7.236-1.1.517-2.18,1.027-2.927-.82-6.43-1.678-3.178-3.415-5.75-3.577-5.661-4.42,2.624-4.774.421-4.774.421S173.5,421.477,173.576,426.635Z" transform="translate(-173.575 -416.449)" fill="#0b549b"/>
          </g>
          <g id="Grupo_54517" data-name="Grupo 54517" transform="translate(21.979 42.98)">
            <g id="Grupo_56327" data-name="Grupo 56327">
              <path id="Trazado_101871" data-name="Trazado 101871" d="M151.524,482.545l3.4,9.142a5.5,5.5,0,0,0,1.8-.163,7.931,7.931,0,0,0,1.744-.85s-.946-9.815-2.712-15.453Z" transform="translate(-151.524 -475.221)" fill="#00ddbd"/>
            </g>
          </g>
          <g id="Grupo_54518" data-name="Grupo 54518" transform="translate(30.314 13.255)">
            <path id="Trazado_101872" data-name="Trazado 101872" d="M175.132,417.279s-4.545.776-5.077,2.727-2.283,13.843-2.283,13.843,1.286,1.249,2.35.185,3.356-11.123,3.356-11.123Z" transform="translate(-167.771 -417.279)" fill="#0b549b"/>
          </g>
          <g id="Grupo_54519" data-name="Grupo 54519" transform="translate(36.596 21.62)">
            <path id="Trazado_101873" data-name="Trazado 101873" d="M180.015,444.811c3.244.214,8.95-.325,9.164-.924.746-2.077.222-2.72.842-5.9l-1.567-4.4s.259,4.907-1.182,6.2-5.927,2.491-6.629,3.57A4,4,0,0,0,180.015,444.811Z" transform="translate(-180.015 -433.585)" fill="#0f3662"/>
          </g>
          <g id="Grupo_54520" data-name="Grupo 54520" transform="translate(34.645 30.288)">
            <path id="Trazado_101874" data-name="Trazado 101874" d="M181.879,450.975s-3.2-.709-3.717-.429a7.512,7.512,0,0,0-1.937,1.678c-.155.362,1.153-.273,1.574-.391a3.888,3.888,0,0,1,1.36.3,4.5,4.5,0,0,0,2.439.244Z" transform="translate(-176.212 -450.48)" fill="#ffb280"/>
          </g>
          <g id="Grupo_54521" data-name="Grupo 54521" transform="translate(39.79 12.832)">
            <path id="Trazado_101875" data-name="Trazado 101875" d="M188.9,416.455s4.3.266,5.787,2.335c2.1,2.927,6.252,15.372,3.872,17.035-2.683,1.87-12.209.5-12.209.5a3.885,3.885,0,0,1,.118-2.2c.436-.717,7.605-1.877,7.938-2.21s-4.139-6.445-4.139-7.442S188.9,416.455,188.9,416.455Z" transform="translate(-186.242 -416.455)" fill="#0b549b"/>
          </g>
          <g id="Grupo_54522" data-name="Grupo 54522" transform="translate(35.191 31.242)">
            <path id="Trazado_101876" data-name="Trazado 101876" d="M178.525,452.341a6.146,6.146,0,0,1-.887.968.685.685,0,0,1-.362.082l.451-.813Z" transform="translate(-177.276 -452.341)" fill="#ffb280"/>
          </g>
          <g id="Grupo_54523" data-name="Grupo 54523" transform="translate(34.642 30.353)">
            <path id="Trazado_101877" data-name="Trazado 101877" d="M178.158,450.608l-1.951.946a.341.341,0,0,0,.325.119,4.718,4.718,0,0,0,.842-.229Z" transform="translate(-176.207 -450.608)" fill="#ffb280"/>
          </g>
          <g id="Grupo_56330" data-name="Grupo 56330" transform="translate(34.745 6.737)">
            <g id="Grupo_56329" data-name="Grupo 56329">
              <g id="Grupo_56328" data-name="Grupo 56328" transform="translate(1.087 0.369)">
                <path id="Trazado_105028" data-name="Trazado 105028" d="M179.109,405.421a2.659,2.659,0,0,1-.554,1.633.148.148,0,0,0,.022.2,1.483,1.483,0,0,0,.931.273.145.145,0,1,0-.037-.288,1.392,1.392,0,0,1-.547-.111.7.7,0,0,1-.178-.1l.023.2a2.557,2.557,0,0,0,.517-1.131,3.713,3.713,0,0,0,.089-.636.148.148,0,0,0-.126-.163.14.14,0,0,0-.141.126Z" transform="translate(-178.525 -405.295)" fill="#de8073"/>
              </g>
              <path id="Trazado_105029" data-name="Trazado 105029" d="M177.51,406.427c-.015.163-.1.3-.2.288s-.17-.148-.155-.31.1-.3.2-.288S177.517,406.264,177.51,406.427Z" transform="translate(-176.77 -405.325)" fill="#231f20"/>
              <path id="Trazado_105030" data-name="Trazado 105030" d="M182.652,406.614c-.015.163-.1.3-.2.288s-.17-.148-.155-.31.1-.3.2-.288S182.659,406.444,182.652,406.614Z" transform="translate(-179.274 -405.417)" fill="#231f20"/>
              <path id="Trazado_105031" data-name="Trazado 105031" d="M181.751,404.774s1.449-.059,1.6.34a6.985,6.985,0,0,0-1.456.007C181.4,405.21,181.53,404.8,181.751,404.774Z" transform="translate(-178.913 -404.67)" fill="#0f3662"/>
              <path id="Trazado_105032" data-name="Trazado 105032" d="M177.811,404.612s-1.219-.17-1.4.214a5.316,5.316,0,0,1,1.234.118C178.048,405.07,177.989,404.656,177.811,404.612Z" transform="translate(-176.407 -404.575)" fill="#0f3662"/>
              <path id="Trazado_105033" data-name="Trazado 105033" d="M178.453,410.915l1.892-.015C180.352,410.9,179.273,412.363,178.453,410.915Z" transform="translate(-177.403 -407.655)" fill="#fff"/>
            </g>
          </g>
        </g>
        <g id="Grupo_54525" data-name="Grupo 54525" transform="translate(19.945 32.573)">
          <path id="Trazado_101878" data-name="Trazado 101878" d="M147.558,454.942l20.369-.008v.451l-20.191.007Z" transform="translate(-147.558 -454.934)" fill="#0f3662"/>
        </g>
        <g id="Grupo_54526" data-name="Grupo 54526" transform="translate(15.482 21.493)">
          <path id="Trazado_101879" data-name="Trazado 101879" d="M158.925,444.873l-15.424.008-4.641-11.537,15.4-.007Z" transform="translate(-138.86 -433.337)" fill="#0f3662"/>
        </g>
        <g id="Grupo_54527" data-name="Grupo 54527" transform="translate(23.976 26.524)">
          <path id="Trazado_101880" data-name="Trazado 101880" d="M155.456,443.877a.533.533,0,0,1,.3-.695.491.491,0,0,1,.229-.037,1.057,1.057,0,0,1,.946.732.534.534,0,0,1-.3.7.49.49,0,0,1-.229.037A1.035,1.035,0,0,1,155.456,443.877Z" transform="translate(-155.417 -443.144)" fill="#fff"/>
        </g>
      </g>
      <g id="Grupo_56506" data-name="Grupo 56506" transform="translate(131.886 -5318.43)">
        <g id="Grupo_56502" data-name="Grupo 56502" transform="translate(116.69 54.669)">
          <path id="Trazado_105330" data-name="Trazado 105330" d="M535.2,449.98a9.237,9.237,0,0,1-.334-.9c-.974-3.162-.163-6.218,1.81-6.826s4.362,1.462,5.336,4.624a9.241,9.241,0,0,1,.228.928l.638-.2c-.066-.307-.142-.615-.237-.926-1.146-3.718-3.956-6.153-6.277-5.437s-3.273,4.309-2.128,8.027c.1.31.207.607.325.9Z" transform="translate(-530.462 -441.127)" fill="#0c0236"/>
          <path id="Trazado_105331" data-name="Trazado 105331" d="M552.468,467.09l-19.223,5.922-4.466-20.27,15.973-4.921Z" transform="translate(-528.78 -443.393)" fill="#fff"/>
        </g>
        <g id="Grupo_56503" data-name="Grupo 56503" transform="translate(130.997 48.605)">
          <path id="Trazado_105332" data-name="Trazado 105332" d="M566.329,438.972a9.133,9.133,0,0,1,.165-.941c.761-3.219,3.008-5.443,5.018-4.968s3.021,3.471,2.259,6.69a9.108,9.108,0,0,1-.274.916l.651.154c.1-.3.189-.6.264-.918.9-3.786-.294-7.308-2.657-7.867s-5.005,2.056-5.9,5.842c-.074.316-.129.628-.175.939Z" transform="translate(-555.574 -431.961)" fill="#0c0236"/>
          <path id="Trazado_105333" data-name="Trazado 105333" d="M569.979,463.949l-19.574-4.632,6.419-19.738,16.265,3.849Z" transform="translate(-550.405 -434.539)" fill="#794ccb"/>
        </g>
        <g id="Grupo_56504" data-name="Grupo 56504" transform="translate(123.766)">
          <path id="Trazado_105334" data-name="Trazado 105334" d="M563.534,403.925a11.419,11.419,0,1,1-11.419-11.419A11.419,11.419,0,0,1,563.534,403.925Z" transform="translate(-540.696 -392.506)" fill="#fff"/>
          <path id="Trazado_105335" data-name="Trazado 105335" d="M553.81,406.609c-.188-.005-1.8-4.625-2.339-4.444-.764.254-2.851,1.263-2.9,2.134s4.211,8.36,4.924,8.36c1.5,0,7.795-8.31,7.286-9.252s-2.885-2.24-3.242-1.883C557.274,401.786,553.972,406.613,553.81,406.609Z" transform="translate(-542.964 -395.086)" fill="#00c7e1"/>
        </g>
        <g id="Grupo_56505" data-name="Grupo 56505" transform="translate(121.052 88.696)">
          <rect id="Rectángulo_5932" data-name="Rectángulo 5932" width="28.266" height="8.971" rx="4.485" fill="#794ccb"/>
        </g>
        <g id="Grupo_56507" data-name="Grupo 56507" transform="translate(0 35.79)">
          <path id="Trazado_105332-2" data-name="Trazado 105332" d="M566.329,438.972a9.133,9.133,0,0,1,.165-.941c.761-3.219,3.008-5.443,5.018-4.968s3.021,3.471,2.259,6.69a9.108,9.108,0,0,1-.274.916l.651.154c.1-.3.189-.6.264-.918.9-3.786-.294-7.308-2.657-7.867s-5.005,2.056-5.9,5.842c-.074.316-.129.628-.175.939Z" transform="translate(-555.574 -431.961)" fill="#0c0236"/>
          <path id="Trazado_105333-2" data-name="Trazado 105333" d="M569.979,463.949l-19.574-4.632,6.419-19.738,16.265,3.849Z" transform="translate(-550.405 -434.539)" fill="#794ccb"/>
        </g>
      </g>
    </g>
  </g>
</svg>
