<svg xmlns="http://www.w3.org/2000/svg" width="292" height="207" viewBox="0 0 292 207">
  <g id="Grupo_56516" data-name="Grupo 56516" transform="translate(-290.5 -5937)">
    <rect id="Rectángulo_5717" data-name="Rectángulo 5717" width="292" height="207" transform="translate(290.5 5937)" fill="none"/>
    <g id="Grupo_56511" data-name="Grupo 56511" transform="translate(-20.905 -14.633)">
      <path id="Trazado_105336" data-name="Trazado 105336" d="M715.7,982.35a2.271,2.271,0,0,0-1.863-.221c-1.278.136-1.654-.381-1.525-1.581.086-.8-.01-1.618.021-2.426.025-.679-.258-.941-.932-.928-1.213.024-2.428,0-3.642-.01h0a8.241,8.241,0,0,0,.1-2.274,1.649,1.649,0,0,0-1.623-1.86h0q.007-14,.017-28a1.414,1.414,0,0,0,1.53-1.257,6.025,6.025,0,0,0-.1-2.862h0c1.583-.013,3.169-.062,4.751-.022.864.022,1.136-.31,1.115-1.143-.044-1.787-.07-3.577.009-5.361a1.534,1.534,0,0,0-1.227-1.751q-16-5.907-31.956-11.909a2.615,2.615,0,0,0-1.986,0c-4.593,1.741-9.2,3.449-13.8,5.167q-9.245,3.445-18.5,6.876a1.139,1.139,0,0,0-.875,1.249c.033,1.909.041,3.819,0,5.728-.019.832.25,1.166,1.113,1.143,1.583-.039,3.168.01,4.751.022h0a5.31,5.31,0,0,0-.163,2.383,1.543,1.543,0,0,0,1.6,1.736h0q.007,14,.017,28a1.621,1.621,0,0,0-1.618,1.741,8.283,8.283,0,0,0,.095,2.394h0c-1.214.006-2.429.033-3.642.01-.674-.013-.958.25-.933.928.03.808-.065,1.626.022,2.426.13,1.2-.247,1.718-1.525,1.581a2.27,2.27,0,0,0-1.863.221h0c-.012,1.055-.035,2.112-.038,3.168-.006,1.681,0,1.683,1.734,1.683H714c.245,0,.49-.02.732,0,.708.067,1.047-.183,1.014-.955C715.7,984.95,715.714,983.651,715.7,982.35Zm-52.866-11.158q.019-12.395,0-24.787a3.1,3.1,0,0,0-.136-1.3c.571.282,1.017,0,1.392-.454a3.548,3.548,0,0,0,.119-3.323c2.88.12,5.763.049,8.645.031a10,10,0,0,0-.032,1.9,1.549,1.549,0,0,0,1.618,1.8q.012,13.99.022,27.976a1.673,1.673,0,0,0-1.654,1.955c.017.584.019,1.169.025,1.754H672.8c-2.855-.1-5.707-.1-8.561,0a3.831,3.831,0,0,0-.021-3.1c-.4-.6-.917-1.014-1.67-.677A3.41,3.41,0,0,0,662.836,971.193Zm33.1-24.99q-.014,12.642,0,25.285a2.867,2.867,0,0,0,.272,1.476c-.746-.327-1.257.081-1.657.68a3.827,3.827,0,0,0-.021,3.1q-4.292-.145-8.581.006h-.013c0-.585.006-1.172.024-1.757a1.67,1.67,0,0,0-1.654-1.953q.01-13.987.022-27.974c.8-.041,1.451-.383,1.552-1.211a7.089,7.089,0,0,0,.006-2.491c2.892.027,5.784.084,8.675-.03a3.552,3.552,0,0,0,.117,3.323c.372.451.813.729,1.376.46A2.753,2.753,0,0,0,695.94,946.2Z" transform="translate(-222.321 5043.087)" fill="#7b3cee"/>
      <path id="Trazado_105337" data-name="Trazado 105337" d="M670.617,1055.819a2.306,2.306,0,0,0-1.895-.225c-1.3.137-1.684-.389-1.551-1.608.088-.815-.008-1.646.022-2.47.025-.69-.264-.957-.947-.944-1.237.024-2.472,0-3.707-.01h0a8.415,8.415,0,0,0,.1-2.315,1.677,1.677,0,0,0-1.651-1.891h0q.007-14.245.017-28.49a1.437,1.437,0,0,0,1.556-1.279,6.178,6.178,0,0,0-.1-2.913h0c1.612-.013,3.225-.063,4.835-.022.878.022,1.154-.317,1.134-1.164-.044-1.817-.071-3.639.01-5.455a1.559,1.559,0,0,0-1.248-1.781q-16.276-6.011-32.516-12.117a2.66,2.66,0,0,0-2.021,0c-4.674,1.771-9.359,3.511-14.043,5.257q-9.409,3.506-18.819,7a1.158,1.158,0,0,0-.89,1.271c.033,1.942.041,3.886,0,5.828-.019.847.255,1.186,1.134,1.164,1.61-.041,3.223.009,4.835.022h0a5.41,5.41,0,0,0-.164,2.426,1.569,1.569,0,0,0,1.624,1.767h0q.01,14.245.017,28.49a1.647,1.647,0,0,0-1.645,1.771,8.336,8.336,0,0,0,.1,2.435h0c-1.237.006-2.472.033-3.707.01-.685-.012-.974.255-.949.944.03.822-.066,1.656.022,2.47.131,1.219-.252,1.746-1.551,1.608a2.31,2.31,0,0,0-1.9.225h0c-.014,1.074-.036,2.149-.04,3.223,0,1.711,0,1.713,1.765,1.713h70.446c.247,0,.5-.021.743,0,.721.067,1.066-.186,1.033-.973C670.612,1058.465,670.631,1057.141,670.617,1055.819Zm-53.788-11.352q.017-12.611,0-25.222a3.212,3.212,0,0,0-.139-1.32c.58.287,1.034,0,1.417-.461a3.615,3.615,0,0,0,.119-3.381c2.932.121,5.864.049,8.8.031a10.229,10.229,0,0,0-.032,1.931,1.578,1.578,0,0,0,1.646,1.835l.024,28.464h0a1.7,1.7,0,0,0-1.684,1.986c.018.595.019,1.191.024,1.785h-.033c-2.9-.106-5.807-.1-8.711,0a3.888,3.888,0,0,0-.021-3.152c-.408-.614-.932-1.031-1.7-.688A3.466,3.466,0,0,0,616.829,1044.467Zm33.682-25.428q-.015,12.865,0,25.728a2.9,2.9,0,0,0,.279,1.5c-.761-.333-1.281.081-1.687.691a3.89,3.89,0,0,0-.021,3.15q-4.367-.147-8.732.006h-.014c.006-.6.008-1.191.026-1.787a1.7,1.7,0,0,0-1.683-1.988l.022-28.463c.818-.041,1.476-.389,1.578-1.232a7.18,7.18,0,0,0,.006-2.535c2.943.027,5.885.085,8.826-.032a3.619,3.619,0,0,0,.119,3.383c.38.459.827.74,1.4.468A2.816,2.816,0,0,0,650.511,1019.039Z" transform="translate(-249.276 5085.182)" fill="#7b3cee"/>
      <path id="Trazado_105338" data-name="Trazado 105338" d="M760.238,1033.858a2.148,2.148,0,0,0-1.763-.209c-1.213.128-1.57-.362-1.447-1.5.082-.758-.006-1.533.022-2.3.022-.642-.247-.892-.884-.879-1.15.022-2.3,0-3.452-.009h0a7.833,7.833,0,0,0,.1-2.157,1.561,1.561,0,0,0-1.539-1.762h0q.01-13.269.016-26.537a1.34,1.34,0,0,0,1.45-1.193,5.735,5.735,0,0,0-.09-2.714h0c1.5-.011,3-.058,4.5-.019.818.021,1.076-.3,1.057-1.085-.043-1.692-.066-3.389.008-5.08a1.454,1.454,0,0,0-1.163-1.661q-15.159-5.6-30.288-11.286a2.477,2.477,0,0,0-1.882,0c-4.354,1.651-8.719,3.271-13.081,4.9q-8.764,3.266-17.53,6.519a1.078,1.078,0,0,0-.829,1.184c.03,1.809.038,3.619,0,5.428-.019.789.237,1.105,1.055,1.085,1.5-.039,3,.008,4.5.019v0a5.038,5.038,0,0,0-.154,2.259,1.462,1.462,0,0,0,1.512,1.646h0q.007,13.268.016,26.537a1.536,1.536,0,0,0-1.533,1.649,7.871,7.871,0,0,0,.09,2.27h0c-1.151.006-2.3.032-3.454.009-.638-.012-.906.236-.883.879.029.766-.062,1.542.021,2.3.123,1.137-.234,1.627-1.445,1.5a2.151,2.151,0,0,0-1.765.209h0c-.013,1-.033,2-.036,3,0,1.6,0,1.6,1.643,1.6h65.619c.231,0,.463-.019.693,0,.671.062.992-.174.961-.906C760.235,1036.323,760.251,1035.09,760.238,1033.858Zm-50.1-10.574q.016-11.747,0-23.494a2.97,2.97,0,0,0-.128-1.23c.541.269.963,0,1.319-.429a3.361,3.361,0,0,0,.111-3.149c2.731.112,5.463.046,8.194.03a9.584,9.584,0,0,0-.03,1.8,1.47,1.47,0,0,0,1.534,1.708l.021,26.513a1.584,1.584,0,0,0-1.567,1.852c.016.553.018,1.109.022,1.662h-.032c-2.7-.1-5.409-.093-8.113,0a3.623,3.623,0,0,0-.019-2.935c-.381-.571-.868-.96-1.581-.641A3.228,3.228,0,0,0,710.135,1023.284ZM741.509,999.6q-.012,11.982,0,23.965a2.732,2.732,0,0,0,.26,1.4c-.709-.311-1.193.074-1.572.644a3.624,3.624,0,0,0-.019,2.935q-4.068-.138-8.134,0h-.011c0-.555.006-1.109.022-1.664a1.584,1.584,0,0,0-1.568-1.852l.021-26.513c.761-.038,1.376-.362,1.471-1.148a6.714,6.714,0,0,0,.006-2.36c2.739.024,5.48.079,8.221-.03a3.364,3.364,0,0,0,.111,3.15c.353.427.77.69,1.3.437A2.639,2.639,0,0,0,741.509,999.6Z" transform="translate(-194.212 5074.916)" fill="#7b3cee"/>
      <g id="Grupo_56510" data-name="Grupo 56510" transform="translate(377.071 5984.864)">
        <g id="Grupo_56197" data-name="Grupo 56197" transform="translate(0)">
          <path id="Trazado_104732" data-name="Trazado 104732" d="M751.7,960.886a77.4,77.4,0,0,1,7.471,10.244l-2.7,1.649a74.619,74.619,0,0,0-11.754-14.68l2.2-2.274C748.574,957.43,750.182,959.132,751.7,960.886Zm-20.471-16.81-1.564,2.75a74.077,74.077,0,0,0-17.392-7.151l.822-3.057A77.489,77.489,0,0,1,731.226,944.076Zm35.945,44.953a78.417,78.417,0,0,1,3.26,19.331l-3.16.131a75.494,75.494,0,0,0-3.128-18.549Zm-73.508-55.056-.024,3.163a75.381,75.381,0,0,0-11.465.8c-2.419.353-4.846.83-7.215,1.42l-.762-3.073c2.469-.612,5-1.109,7.519-1.477A78.472,78.472,0,0,1,693.663,933.973Zm75.094,93.921a77.341,77.341,0,0,1-6.549,18.48l-2.823-1.427a74.183,74.183,0,0,0,6.28-17.722ZM655.92,943.385l1.514,2.779a74.239,74.239,0,0,0-13.01,9.005q-1.139.983-2.232,2.006l-2.164-2.306q1.141-1.07,2.328-2.094A77.469,77.469,0,0,1,655.92,943.385Zm95.323,119.241a77.616,77.616,0,0,1-14.681,13l-1.779-2.614a74.51,74.51,0,0,0,14.08-12.467Zm-132.519-55.469a74.834,74.834,0,0,0,.676,15.138q.268,1.832.623,3.627l-3.1.61q-.368-1.87-.648-3.778a77.848,77.848,0,0,1-.7-15.781Zm47.949,73.911-1.123,2.958a77.852,77.852,0,0,1-17.308-9.208l1.826-2.584A74.645,74.645,0,0,0,666.673,1081.068Zm-40.718-37.3a74.073,74.073,0,0,0,10.24,15.766l-2.412,2.046a77.257,77.257,0,0,1-10.68-16.441Z" transform="translate(-615.439 -933.971)" fill="#02cddb"/>
        </g>
        <g id="Grupo_56199" data-name="Grupo 56199" transform="translate(88.553 130.611)">
          <g id="Grupo_56198" data-name="Grupo 56198">
            <path id="Trazado_104733" data-name="Trazado 104733" d="M671.431,1038.609c7.678-5.73,16.769-14.326,21.7-22.053l-.981,15.967,9.459,12.9C693.283,1041.587,680.988,1039.273,671.431,1038.609Z" transform="translate(-671.431 -1016.556)" fill="#02cddb"/>
          </g>
        </g>
      </g>
      <g id="Grupo_56514" data-name="Grupo 56514" transform="translate(412.676 6030.301)">
        <g id="Grupo_56512" data-name="Grupo 56512" transform="translate(0 0)">
          <circle id="Elipse_4652" data-name="Elipse 4652" cx="36.077" cy="36.077" r="36.077" transform="translate(0 69.537) rotate(-74.52)" fill="#fda812"/>
          <circle id="Elipse_4653" data-name="Elipse 4653" cx="32.047" cy="32.047" r="32.047" transform="translate(12.34 12.389)" fill="#f9c141"/>
        </g>
        <g id="Grupo_56513" data-name="Grupo 56513" transform="translate(31.58 24.492)">
          <path id="Trazado_105339" data-name="Trazado 105339" d="M196.819,168.926v-4.391a25.437,25.437,0,0,1-9.807-2.391l1.756-7.025a23.11,23.11,0,0,0,9.762,2.442c2.589,0,4.537-.584,4.537-2.2,0-1.461-1.512-2.3-5.563-3.269-5.711-1.365-10.2-3.955-10.2-9.274,0-4.73,3.417-8.345,9.518-9.371V129.1h5.806v4a23.056,23.056,0,0,1,8.249,1.66l-1.711,6.782a21.062,21.062,0,0,0-8.441-1.853c-3.121,0-3.9,1.026-3.9,2,0,1.217,2.1,2.2,6.441,3.416,6.781,1.853,9.32,4.589,9.32,9.415,0,4.634-3.468,8.538-9.954,9.563v4.832h-5.813Z" transform="translate(-187.012 -129.105)" fill="#fff"/>
        </g>
      </g>
    </g>
  </g>
</svg>
